<svg width="16" height="16" viewBox="0 0 16 16" fill="none" xmlns="http://www.w3.org/2000/svg">
<path d="M8.05081 6.32005C8.2276 6.10792 8.19893 5.79263 7.9868 5.61585C7.77466 5.43907 7.45937 5.46773 7.28259 5.67987L5.61593 7.67987C5.49173 7.82891 5.46495 8.03635 5.54724 8.21204C5.62953 8.38773 5.80603 8.49996 6.00004 8.49996H7.26585L6.28259 9.67987C6.10581 9.89201 6.13447 10.2073 6.34661 10.3841C6.55875 10.5609 6.87403 10.5322 7.05081 10.3201L8.71748 8.32005C8.84168 8.17101 8.86845 7.96358 8.78616 7.78788C8.70387 7.61219 8.52738 7.49996 8.33337 7.49996H7.06756L8.05081 6.32005Z" fill="#F5F6F9"/>
<path fill-rule="evenodd" clip-rule="evenodd" d="M6.6291 2.16663H7.70432C8.92949 2.16662 9.89992 2.16661 10.6594 2.26872C11.441 2.3738 12.0736 2.59521 12.5725 3.09412C13.0715 3.59303 13.2929 4.22566 13.398 5.00728C13.5001 5.76675 13.5001 6.73716 13.5 7.96232V8.03757C13.5001 9.26273 13.5001 10.2332 13.398 10.9926C13.2929 11.7743 13.0715 12.4069 12.5725 12.9058C12.0736 13.4047 11.441 13.6261 10.6594 13.7312C9.89992 13.8333 8.92951 13.8333 7.70435 13.8333H6.6291C5.40394 13.8333 4.4335 13.8333 3.67403 13.7312C2.89241 13.6261 2.25978 13.4047 1.76087 12.9058C1.26196 12.4069 1.04055 11.7743 0.935464 10.9926C0.833355 10.2332 0.833364 9.26275 0.833374 8.03758V7.96235C0.833364 6.73718 0.833356 5.76675 0.935464 5.00728C1.04055 4.22566 1.26196 3.59303 1.76087 3.09412C2.25978 2.59521 2.89241 2.3738 3.67403 2.26872C4.4335 2.16661 5.40393 2.16662 6.6291 2.16663ZM3.80727 3.2598C3.13655 3.34998 2.75012 3.51909 2.46798 3.80123C2.18584 4.08337 2.01672 4.4698 1.92655 5.14053C1.83444 5.82564 1.83337 6.72875 1.83337 7.99996C1.83337 9.27117 1.83444 10.1743 1.92655 10.8594C2.01672 11.5301 2.18584 11.9166 2.46798 12.1987C2.75012 12.4808 3.13655 12.6499 3.80727 12.7401C4.49238 12.8322 5.39549 12.8333 6.66671 12.8333H7.66671C8.93792 12.8333 9.84103 12.8322 10.5261 12.7401C11.1969 12.6499 11.5833 12.4808 11.8654 12.1987C12.1476 11.9166 12.3167 11.5301 12.4069 10.8594C12.499 10.1743 12.5 9.27117 12.5 7.99996C12.5 6.72875 12.499 5.82564 12.4069 5.14053C12.3167 4.4698 12.1476 4.08337 11.8654 3.80123C11.5833 3.51909 11.1969 3.34998 10.5261 3.2598C9.84103 3.16769 8.93792 3.16663 7.66671 3.16663H6.66671C5.39549 3.16663 4.49238 3.16769 3.80727 3.2598Z" fill="#F5F6F9"/>
<path d="M14.6667 9.83329C14.3906 9.83329 14.1667 9.60943 14.1667 9.33329L14.1667 6.66663C14.1667 6.39048 14.3906 6.16663 14.6667 6.16663C14.9428 6.16663 15.1667 6.39048 15.1667 6.66663L15.1667 9.33329C15.1667 9.60943 14.9428 9.83329 14.6667 9.83329Z" fill="#F5F6F9"/>
</svg>
