<svg xmlns="http://www.w3.org/2000/svg" width="16" height="16" fill="none" viewBox="0 0 16 16"><g fill="#f5f6f9" clip-path="url(#a)"><path d="M4.367 8.128c2.011-2.17 5.255-2.17 7.266 0a.5.5 0 1 0 .734-.68c-2.407-2.597-6.327-2.597-8.734 0a.5.5 0 0 0 .734.68"/><path d="M5.7 9.567c1.275-1.376 3.325-1.376 4.6 0a.5.5 0 0 0 .733-.68c-1.67-1.803-4.396-1.803-6.066 0a.5.5 0 1 0 .733.68"/><path d="M7.034 11.007a1.29 1.29 0 0 1 1.933 0 .5.5 0 0 0 .733-.68 2.29 2.29 0 0 0-3.4 0 .5.5 0 1 0 .734.68"/><path fill-rule="evenodd" d="M8 .833c-.472 0-.9.136-1.366.362-.45.219-.97.541-1.619.944l-1.377.855c-.615.381-1.106.686-1.485.977-.393.3-.694.606-.912 1.004-.217.397-.315.82-.362 1.319C.833 6.778.833 7.37.833 8.112v1.075c0 1.269 0 2.27.102 3.054.105.804.324 1.453.82 1.966.498.515 1.132.745 1.917.854.76.106 1.732.106 2.956.106h2.744c1.224 0 2.196 0 2.956-.106.785-.11 1.419-.34 1.917-.854.496-.514.716-1.162.82-1.966.102-.783.102-1.785.102-3.054V8.112c0-.742 0-1.334-.046-1.818-.047-.5-.145-.922-.362-1.319-.218-.398-.52-.704-.912-1.004-.379-.29-.87-.596-1.484-.977l-1.378-.855c-.65-.403-1.169-.725-1.619-.944C8.901.969 8.472.833 8 .833m-2.48 2.17c.677-.42 1.153-.715 1.551-.909.388-.188.662-.26.929-.26s.541.072.929.26c.398.194.874.489 1.551.909l1.334.827c.64.398 1.09.678 1.425.935.327.25.515.456.643.69.129.236.204.51.244.933.04.431.04.976.04 1.748V9.15c0 1.314 0 2.25-.093 2.962-.09.699-.262 1.104-.547 1.4-.283.292-.668.466-1.335.559-.684.095-1.586.096-2.858.096H6.667c-1.272 0-2.174-.001-2.857-.096-.668-.093-1.053-.267-1.336-.56-.285-.295-.456-.7-.547-1.399-.093-.711-.094-1.648-.094-2.962V8.136c0-.772 0-1.317.041-1.748.04-.422.115-.697.244-.933.128-.234.316-.44.643-.69.335-.257.785-.537 1.425-.935z" clip-rule="evenodd"/></g><defs><clipPath id="a"><path fill="#fff" d="M0 0h16v16H0z"/></clipPath></defs></svg>