<svg xmlns="http://www.w3.org/2000/svg" width="16" height="16" fill="none" viewBox="0 0 16 16"><g fill="#f5f6f9" clip-path="url(#a)"><path d="M8.667 5.333a.667.667 0 1 0-1.334 0 .667.667 0 0 0 1.334 0M8 11.833a.5.5 0 0 0 .5-.5v-4a.5.5 0 0 0-1 0v4a.5.5 0 0 0 .5.5"/><path fill-rule="evenodd" d="M8.038.833h-.076c-1.54 0-2.745 0-3.686.127-.963.13-1.723.4-2.32.996-.596.597-.867 1.357-.996 2.32-.127.94-.127 2.147-.127 3.686v.076c0 1.54 0 2.745.127 3.686.13.963.4 1.723.996 2.32.597.596 1.357.867 2.32.996.94.127 2.147.127 3.686.127h.076c1.54 0 2.745 0 3.686-.127.963-.13 1.723-.4 2.32-.996.596-.597.867-1.357.996-2.32.127-.94.127-2.147.127-3.686v-.076c0-1.54 0-2.745-.127-3.686-.13-.963-.4-1.723-.996-2.32-.597-.596-1.357-.867-2.32-.996-.94-.127-2.147-.127-3.686-.127m-5.375 1.83c.38-.38.894-.597 1.746-.712.867-.117 2.006-.118 3.591-.118s2.724.001 3.59.118c.853.115 1.367.332 1.747.712s.598.894.712 1.746c.117.867.118 2.006.118 3.591s-.001 2.724-.118 3.591c-.114.852-.332 1.366-.712 1.746s-.894.598-1.746.712c-.867.117-2.006.118-3.591.118s-2.724-.001-3.591-.118c-.852-.114-1.366-.332-1.746-.712s-.598-.894-.712-1.746c-.117-.867-.118-2.005-.118-3.591 0-1.585.001-2.724.118-3.59.114-.853.332-1.367.712-1.747" clip-rule="evenodd"/></g><defs><clipPath id="a"><path fill="#fff" d="M0 0h16v16H0z"/></clipPath></defs></svg>