<svg xmlns="http://www.w3.org/2000/svg" width="12" height="12" fill="none" viewBox="0 0 12 12"><path fill="#f5f6f9" fill-rule="evenodd" d="M.625 1.5c0-.207.168-.375.375-.375h10a.375.375 0 0 1 0 .75H1A.375.375 0 0 1 .625 1.5m3.349 2.125h4.052c.45 0 .824 0 1.121.04.314.042.598.135.825.363.228.227.32.51.363.825.04.297.04.672.04 1.121v.052c0 .45 0 .824-.04 1.121-.042.314-.135.598-.363.825-.227.228-.51.32-.825.363-.297.04-.672.04-1.121.04H3.974c-.45 0-.824 0-1.121-.04-.314-.042-.598-.135-.825-.363-.228-.227-.32-.51-.363-.825-.04-.297-.04-.672-.04-1.121v-.052c0-.45 0-.824.04-1.121.042-.314.135-.598.363-.825.227-.228.51-.32.825-.363.297-.04.672-.04 1.121-.04m-1.021.783c-.231.031-.33.085-.395.15s-.119.164-.15.395c-.032.241-.033.565-.033 1.047s0 .806.033 1.047c.031.231.085.33.15.395s.164.119.395.15c.241.032.565.033 1.047.033h4c.482 0 .806 0 1.047-.033.231-.031.33-.085.395-.15s.119-.164.15-.395c.032-.241.033-.565.033-1.047s0-.806-.033-1.047c-.031-.231-.085-.33-.15-.395s-.164-.119-.395-.15c-.241-.032-.565-.033-1.047-.033H4c-.482 0-.806 0-1.047.033M.625 10.5c0-.207.168-.375.375-.375h10a.375.375 0 0 1 0 .75H1a.375.375 0 0 1-.375-.375" clip-rule="evenodd"/></svg>