<svg xmlns="http://www.w3.org/2000/svg" width="12" height="12" fill="none" viewBox="0 0 12 12"><g clip-path="url(#a)"><path fill="#f5f6f9" fill-rule="evenodd" d="M3.058 2.167a3.66 3.66 0 0 0-.611 1.99.375.375 0 0 1-.75 0c0-.91.31-1.771.739-2.409.215-.32.466-.593.737-.79.267-.195.576-.333.899-.333.783 0 1.375.556 1.753 1.446S6.41 4.268 6.41 6c0 1.688.206 2.88.527 3.635.32.756.71.99 1.062.99.11 0 .268-.05.457-.19.186-.135.38-.34.557-.602a3.66 3.66 0 0 0 .611-1.992.375.375 0 1 1 .75 0c0 .91-.31 1.772-.739 2.41-.214.32-.466.593-.736.79-.267.196-.577.333-.9.333-.782 0-1.375-.556-1.752-1.445C5.87 9.04 5.66 7.732 5.66 6c0-1.689-.206-2.88-.527-3.636-.32-.756-.71-.989-1.062-.989-.11 0-.268.05-.457.188a2.4 2.4 0 0 0-.557.604M.625 6c0-.207.168-.375.375-.375h3.75a.375.375 0 0 1 0 .75H1A.375.375 0 0 1 .625 6m6.25 0c0-.207.168-.375.375-.375H11a.375.375 0 0 1 0 .75H7.25A.375.375 0 0 1 6.875 6" clip-rule="evenodd"/></g><defs><clipPath id="a"><rect width="12" height="12" fill="#fff" rx="5"/></clipPath></defs></svg>