<svg xmlns="http://www.w3.org/2000/svg" width="12" height="12" fill="none" viewBox="0 0 12 12"><g clip-path="url(#a)"><path fill="#f5f6f9" fill-rule="evenodd" d="M6 .625c.207 0 .375.168.375.375v2a.375.375 0 1 1-.75 0V1c0-.207.168-.375.375-.375M2.775 1.807l.024.017.803.574q.218.151.371.28c.11.093.206.198.277.336s.1.278.113.421c.012.132.012.288.012.465v4.2c0 .177 0 .333-.012.465a1.1 1.1 0 0 1-.113.421 1.1 1.1 0 0 1-.277.336c-.1.087-.227.178-.371.28l-.827.591c-.326.233-.604.431-.836.55-.236.121-.537.22-.84.063-.302-.155-.397-.457-.436-.72-.038-.257-.038-.6-.038-1V2.914c0-.4 0-.742.038-1 .039-.262.134-.564.437-.72.302-.155.603-.058.84.064.231.119.51.317.835.55m-1.347.057h.007zm.017 0a.6.6 0 0 1 .152.06c.177.09.41.256.766.51l.79.565c.16.114.26.185.331.247a.4.4 0 0 1 .1.111.4.4 0 0 1 .032.146c.009.094.009.216.009.412v4.17c0 .196 0 .318-.009.412a.4.4 0 0 1-.033.146.4.4 0 0 1-.099.11c-.071.063-.17.134-.33.248l-.79.564c-.357.255-.59.42-.767.511a.6.6 0 0 1-.152.06.6.6 0 0 1-.04-.159c-.029-.196-.03-.482-.03-.92V2.943c0-.438.001-.724.03-.92a.6.6 0 0 1 .04-.158m-.017 8.272h.007zm.022.008.004.005zm0-8.288.004-.005q.001 0-.004.005m8.953.068c-.177.09-.41.256-.766.51L8.847 3c-.16.114-.26.185-.331.247a.4.4 0 0 0-.1.111.4.4 0 0 0-.032.146 5 5 0 0 0-.009.412v4.17c0 .196 0 .318.009.412a.4.4 0 0 0 .033.146.4.4 0 0 0 .099.11c.071.063.17.134.33.248l.79.564c.357.255.59.42.767.511.084.043.13.056.152.06a.6.6 0 0 0 .04-.159c.029-.196.03-.482.03-.92V2.943c0-.438-.001-.724-.03-.92a.6.6 0 0 0-.04-.158.6.6 0 0 0-.152.059m.168-.06h-.006zm-.02-.008-.005-.005q0-.001.004.005m-.005 8.293q-.001 0 .004-.005zm.019-.013h.007zm-.504-8.88c.236-.12.537-.218.84-.062.302.155.397.457.436.72.038.257.038.6.038 1v6.173c0 .4 0 .742-.038 1-.039.262-.134.564-.437.72-.302.155-.603.057-.84-.064-.231-.119-.51-.317-.835-.55l-.827-.59a6 6 0 0 1-.371-.28 1.1 1.1 0 0 1-.277-.337 1.1 1.1 0 0 1-.113-.421c-.012-.132-.012-.288-.012-.465V3.9c0-.177 0-.333.012-.465.013-.143.041-.283.113-.421.07-.138.168-.243.277-.336.1-.087.227-.178.371-.28l.827-.591c.326-.233.604-.431.836-.55M6 4.626c.207 0 .375.168.375.375v2a.375.375 0 1 1-.75 0V5c0-.207.168-.375.375-.375m0 4c.207 0 .375.168.375.375v2a.375.375 0 0 1-.75 0V9c0-.207.168-.375.375-.375" clip-rule="evenodd"/></g><defs><clipPath id="a"><rect width="12" height="12" fill="#fff" rx="5"/></clipPath></defs></svg>