<svg xmlns="http://www.w3.org/2000/svg" width="12" height="12" fill="none" viewBox="0 0 12 12"><g clip-path="url(#a)"><path fill="#f5f6f9" fill-rule="evenodd" d="M2.913.625h6.174c.4 0 .742 0 1 .038.262.039.564.134.72.437.155.302.057.603-.064.84-.119.231-.317.51-.55.835l-.59.827q-.153.218-.28.371a1.1 1.1 0 0 1-.337.277c-.138.072-.278.1-.421.113-.132.012-.288.012-.465.012H3.9c-.177 0-.333 0-.465-.012a1.1 1.1 0 0 1-.421-.113 1.1 1.1 0 0 1-.336-.277c-.087-.1-.178-.227-.28-.371l-.574-.803-.017-.024c-.233-.326-.431-.604-.55-.836-.122-.236-.22-.537-.063-.84.155-.302.457-.397.72-.436.257-.038.6-.038 1-.038m-1.062.83q-.001 0 .005-.005zm.014-.01a.6.6 0 0 1 .158-.04c.196-.029.482-.03.92-.03h6.114c.438 0 .724.001.92.03.093.014.139.03.158.04a.6.6 0 0 1-.059.152c-.09.177-.256.41-.51.766L9 3.153c-.114.16-.185.26-.247.331a.4.4 0 0 1-.111.1.4.4 0 0 1-.146.032 5 5 0 0 1-.412.009h-4.17c-.196 0-.318 0-.412-.009a.4.4 0 0 1-.146-.033.4.4 0 0 1-.11-.099 5 5 0 0 1-.248-.33l-.564-.79c-.255-.357-.42-.59-.511-.767a.6.6 0 0 1-.06-.152m8.284.01-.005-.005zm-.013-.02v-.007zm-8.272 0v-.007zM.625 6c0-.207.168-.375.375-.375h2a.375.375 0 0 1 0 .75H1A.375.375 0 0 1 .625 6m4 0c0-.207.168-.375.375-.375h2a.375.375 0 0 1 0 .75H5A.375.375 0 0 1 4.625 6m4 0c0-.207.168-.375.375-.375h2a.375.375 0 0 1 0 .75H9A.375.375 0 0 1 8.625 6M3.9 7.625h4.2c.177 0 .333 0 .465.012.143.013.283.041.421.113.138.07.243.168.336.277.087.1.178.227.28.371l.591.827c.233.326.431.604.55.836.121.236.22.537.063.84-.155.302-.457.397-.72.436-.257.038-.6.038-1 .038H2.914c-.4 0-.742 0-1-.038-.262-.039-.564-.134-.72-.437-.155-.302-.058-.603.064-.84.119-.231.317-.51.55-.835l.582-.815.009-.012q.151-.218.28-.371c.093-.11.198-.206.336-.277s.278-.1.421-.113c.132-.012.288-.012.465-.012m-.397.759a.4.4 0 0 0-.146.033.4.4 0 0 0-.11.099c-.062.071-.134.17-.248.33l-.564.79c-.255.357-.42.59-.511.767a.6.6 0 0 0-.06.152c.02.01.065.026.159.04.196.029.482.03.92.03h6.114c.438 0 .724-.001.92-.03a.6.6 0 0 0 .158-.04.6.6 0 0 0-.059-.152c-.09-.177-.256-.41-.51-.766L9 8.847a5 5 0 0 0-.247-.331.4.4 0 0 0-.111-.1.4.4 0 0 0-.146-.032 5 5 0 0 0-.412-.009h-4.17c-.196 0-.318 0-.412.009m6.633 2.188v-.007zm.008-.022.005-.004q.001 0-.005.004m-8.293-.004q0-.001.005.004zm.013.019v.007z" clip-rule="evenodd"/></g><defs><clipPath id="a"><rect width="12" height="12" fill="#fff" rx="5"/></clipPath></defs></svg>