<svg xmlns="http://www.w3.org/2000/svg" width="12" height="12" fill="none" viewBox="0 0 12 12"><path fill="#f5f6f9" fill-rule="evenodd" d="M6 2.375c-.53 0-.955.164-1.967.569l-1.404.562c-.506.202-.856.342-1.083.461L1.486 4l.06.033c.227.119.577.26 1.083.461l1.404.562c1.012.405 1.437.569 1.967.569s.955-.164 1.967-.569l1.404-.562c.506-.202.856-.342 1.082-.461l.06-.033-.06-.033c-.226-.119-.576-.26-1.082-.461l-1.404-.562C6.955 2.539 6.53 2.375 6 2.375m-2.188-.15c.939-.376 1.498-.6 2.188-.6s1.25.224 2.188.6l.058.023 1.427.57c.477.191.863.346 1.129.485.134.07.264.15.364.246a.62.62 0 0 1 .209.451.62.62 0 0 1-.209.45c-.1.097-.23.177-.364.247a8 8 0 0 1-.678.303c.273.112.502.21.678.303.134.07.264.15.364.246a.62.62 0 0 1 .209.451.62.62 0 0 1-.209.45c-.1.097-.23.177-.364.247a8 8 0 0 1-.678.303c.273.112.502.21.678.303.134.07.264.15.364.246a.62.62 0 0 1 .209.451.62.62 0 0 1-.209.45c-.1.097-.23.177-.364.247-.266.14-.652.294-1.13.485l-1.426.57-.058.024c-.939.375-1.498.599-2.188.599s-1.25-.224-2.188-.6l-.058-.023-1.427-.57c-.477-.191-.863-.346-1.129-.485a1.6 1.6 0 0 1-.364-.246A.62.62 0 0 1 .625 8c0-.202.105-.352.209-.45.1-.097.23-.177.364-.247.176-.092.405-.191.678-.303a8 8 0 0 1-.678-.303 1.6 1.6 0 0 1-.364-.246A.62.62 0 0 1 .625 6c0-.202.105-.352.209-.45.1-.097.23-.177.364-.247.176-.092.405-.191.678-.303a8 8 0 0 1-.678-.303 1.6 1.6 0 0 1-.364-.246A.62.62 0 0 1 .625 4c0-.202.105-.352.209-.45.1-.097.23-.177.364-.247.266-.14.652-.294 1.13-.485l1.426-.57zm-.929 3.179-.254.102c-.506.202-.856.342-1.083.461L1.486 6l.06.033c.227.119.577.26 1.083.461l1.404.562c1.012.405 1.437.569 1.967.569s.955-.164 1.967-.569l1.404-.562c.506-.202.856-.342 1.082-.461l.06-.033-.06-.033c-.226-.119-.576-.26-1.082-.461l-.254-.102-.871.348-.058.024c-.939.375-1.498.599-2.188.599s-1.25-.224-2.188-.6l-.058-.023zm0 2-.254.102c-.506.202-.856.342-1.083.461L1.486 8l.06.033c.227.119.577.26 1.083.461l1.404.562c1.012.405 1.437.569 1.967.569s.955-.164 1.967-.569l1.404-.562c.506-.202.856-.342 1.082-.461l.06-.033-.06-.033c-.226-.119-.576-.26-1.082-.461l-.254-.102-.871.348-.058.024c-.939.375-1.498.599-2.188.599s-1.25-.224-2.188-.6l-.058-.023z" clip-rule="evenodd"/></svg>