<svg xmlns="http://www.w3.org/2000/svg" width="12" height="12" fill="none" viewBox="0 0 12 12"><g clip-path="url(#a)"><path fill="#f5f6f9" fill-rule="evenodd" d="M10.132 1.868a1.683 1.683 0 0 0-2.38 0l-.729.728a.375.375 0 0 1-.53 0l-.546-.546a.397.397 0 1 0-.561.561l4.003 4.003a.397.397 0 0 0 .561-.561l-.546-.546a.375.375 0 0 1 0-.53l.728-.728a1.683 1.683 0 0 0 0-2.38m-2.911-.53a2.433 2.433 0 1 1 3.441 3.441l-.462.463.28.28a1.147 1.147 0 0 1-1.622 1.623l-.28-.281L5.53 9.91l-.034.033c-.195.196-.347.348-.534.447a1.4 1.4 0 0 1-.396.14c-.209.039-.423.015-.697-.016l-.047-.005-.238-.027a2 2 0 0 0-.142-.013.65.65 0 0 0-.443.155 2 2 0 0 0-.103.1l-.314.314A1.147 1.147 0 0 1 .96 9.417l.314-.314c.067-.067.085-.086.1-.103a.65.65 0 0 0 .155-.443 2 2 0 0 0-.013-.142l-.027-.238-.005-.047c-.03-.274-.055-.488-.015-.697q.04-.208.139-.396c.1-.187.251-.34.447-.534l.033-.034 3.047-3.047-.28-.28A1.147 1.147 0 0 1 6.476 1.52l.281.28zM5.666 3.953 2.62 7c-.245.244-.309.313-.349.389a.7.7 0 0 0-.064.184c-.016.084-.01.178.029.521l.027.25a1.404 1.404 0 0 1-.449 1.28l-.008.009-.315.314a.397.397 0 1 0 .562.562l.323-.324c.053-.053.095-.095.139-.132.264-.224.603-.343.95-.333.057.002.115.008.19.017l.25.027c.344.039.438.045.522.03a.7.7 0 0 0 .184-.065c.076-.04.145-.104.39-.349l.719-.719L5.058 8a.375.375 0 1 1 .53-.53l.662.66.47-.469L6.058 7a.375.375 0 1 1 .53-.53l.662.66.797-.796z" clip-rule="evenodd"/></g><defs><clipPath id="a"><rect width="12" height="12" fill="#fff" rx="5"/></clipPath></defs></svg>