<svg xmlns="http://www.w3.org/2000/svg" width="16" height="16" fill="none" viewBox="0 0 16 16"><path stroke="#f5f6f9" d="M12.5 6.473v-.47c0-2.579-2.015-4.67-4.5-4.67s-4.5 2.091-4.5 4.67v.47c0 .564-.16 1.115-.461 1.584L2.3 9.207c-.674 1.05-.16 2.476 1.014 2.808 3.068.869 6.304.869 9.372 0 1.173-.332 1.688-1.759 1.014-2.809l-.739-1.149a2.93 2.93 0 0 1-.462-1.584Z"/><path stroke="#f5f6f9" stroke-linecap="round" stroke-linejoin="round" d="M6.667 6h2.666L6.667 8.667h2.666"/><path stroke="#f5f6f9" stroke-linecap="round" d="M5 12.667c.437 1.165 1.615 2 3 2s2.563-.835 3-2"/></svg>