<svg xmlns="http://www.w3.org/2000/svg" width="16" height="16" fill="none" viewBox="0 0 16 16"><path fill="#f5f6f9" fill-rule="evenodd" d="M6.173 2.066c.27-.674 1.157-1.09 1.845-.567 1.147.874 2.585 2.158 3.742 3.627C12.906 6.58 13.833 8.29 13.833 10c0 1.529-.473 2.665-1.159 3.479a4.9 4.9 0 0 1-2.286 1.499.77.77 0 0 1-.903-.342.84.84 0 0 1 .04-.914c.57-.821 1.175-2.002 1.175-3.055 0-.523-.225-1.141-.589-1.776a9.6 9.6 0 0 0-.935-1.327c-.068.936-.27 2.11-.901 3.082a.774.774 0 0 1-1.263.062c-.106-.133-.21-.28-.306-.415l-.017-.024-.15-.209c-.458.455-.883 1-.883 1.607 0 .536.267 1.268.583 1.889.171.335.1.707-.106.951a.775.775 0 0 1-.996.173c-1.296-.75-2.97-2.352-2.97-4.68 0-.631.214-1.284.513-1.922.302-.642.71-1.311 1.14-1.98l.45-.694c.737-1.128 1.467-2.247 1.903-3.338m1.093.212a.28.28 0 0 0-.164.159C6.625 3.63 5.827 4.85 5.09 5.979q-.22.336-.429.66c-.426.663-.804 1.285-1.076 1.864-.273.583-.418 1.08-.418 1.497 0 1.53.937 2.717 1.922 3.452-.237-.56-.433-1.207-.433-1.785 0-1.154.866-2.025 1.35-2.484.313-.296.855-.323 1.17.066.115.141.226.297.327.44l.013.017.083.117c.446-.85.57-1.886.602-2.739a.83.83 0 0 1 .515-.744.8.8 0 0 1 .903.209l-.371.335.371-.335c.444.491.956 1.14 1.36 1.845.398.695.721 1.495.721 2.273 0 1.128-.512 2.273-1.03 3.125a3.8 3.8 0 0 0 1.24-.958c.524-.622.923-1.527.923-2.834 0-1.371-.758-2.858-1.859-4.256-1.09-1.384-2.461-2.61-3.562-3.45-.036-.027-.083-.038-.146-.016" clip-rule="evenodd"/></svg>