<svg xmlns="http://www.w3.org/2000/svg" width="12" height="12" fill="none" viewBox="0 0 12 12"><path fill="#f5f6f9" fill-rule="evenodd" d="M9.478.625c-.217 0-.415 0-.577.022a.87.87 0 0 0-.52.234.87.87 0 0 0-.234.52c-.022.162-.022.36-.022.577v6.544c0 .217 0 .415.022.577.024.177.08.365.234.52.155.154.343.21.52.234.162.022.36.022.577.022h.044c.217 0 .415 0 .577-.022a.87.87 0 0 0 .52-.234.87.87 0 0 0 .234-.52c.022-.162.022-.36.022-.577V1.978c0-.217 0-.415-.022-.577a.87.87 0 0 0-.234-.52.87.87 0 0 0-.52-.234 5 5 0 0 0-.577-.022zm-.565.786h-.001l-.001.002-.002.005a.4.4 0 0 0-.019.083A4 4 0 0 0 8.875 2v6.5c0 .246 0 .393.015.499a.4.4 0 0 0 .02.088l.002.001v.001l.006.002q.013.009.083.019c.106.014.253.015.499.015s.393 0 .499-.015a.4.4 0 0 0 .088-.02l.001-.002h.001l.002-.006a.4.4 0 0 0 .019-.083c.014-.106.015-.253.015-.499V2c0-.246 0-.393-.015-.499a.4.4 0 0 0-.02-.088l-.002-.001V1.41l-.006-.002a.4.4 0 0 0-.083-.019 4 4 0 0 0-.499-.015c-.246 0-.393 0-.499.015a.4.4 0 0 0-.088.02M5.978 2.125h.044c.217 0 .415 0 .577.022.177.024.365.08.52.234.154.155.21.343.234.52.022.162.022.36.022.577v5.044c0 .217 0 .415-.022.577a.87.87 0 0 1-.234.52.87.87 0 0 1-.52.234c-.162.022-.36.022-.577.022h-.044c-.217 0-.415 0-.577-.022a.87.87 0 0 1-.52-.234.87.87 0 0 1-.234-.52c-.022-.162-.022-.36-.022-.577V3.478c0-.217 0-.415.022-.577a.87.87 0 0 1 .234-.52.87.87 0 0 1 .52-.234c.162-.022.36-.022.577-.022m-.566.787V2.91v6.177H5.41l-.002-.006a.4.4 0 0 1-.019-.083 4 4 0 0 1-.015-.499v-5c0-.246 0-.393.015-.499a.4.4 0 0 1 .02-.088zm0 6.176V2.911l.003-.001.003-.001a.4.4 0 0 1 .083-.019c.106-.014.253-.015.499-.015s.393 0 .499.015a.4.4 0 0 1 .088.02l.001.002h.001l.002.006q.009.013.019.083c.014.106.015.253.015.499v5c0 .246 0 .393-.015.499a.4.4 0 0 1-.02.088l-.002.001v.001l-.006.002a.4.4 0 0 1-.083.019A4 4 0 0 1 6 9.125c-.246 0-.393 0-.499-.015a.4.4 0 0 1-.088-.02zM2.478 4.125c-.217 0-.415 0-.577.022a.87.87 0 0 0-.52.234.87.87 0 0 0-.234.52c-.022.162-.022.36-.022.577v3.044c0 .217 0 .415.022.577.024.177.08.365.234.52.155.154.343.21.52.234.162.022.36.022.577.022h.044c.217 0 .415 0 .577-.022a.87.87 0 0 0 .52-.234.87.87 0 0 0 .234-.52c.022-.162.022-.36.022-.577V5.478c0-.217 0-.415-.022-.577a.87.87 0 0 0-.234-.52.87.87 0 0 0-.52-.234c-.162-.022-.36-.022-.577-.022zm-.565.786h-.001l-.001.002-.002.005a.4.4 0 0 0-.019.083 4 4 0 0 0-.015.499v3c0 .246 0 .393.015.499a.4.4 0 0 0 .02.088l.001.001.002.001.005.002c.01.005.035.013.083.019.106.014.253.015.499.015s.393 0 .499-.015a.4.4 0 0 0 .088-.02l.001-.002h.001l.001-.003.001-.003a.4.4 0 0 0 .019-.083c.014-.106.015-.253.015-.499v-3c0-.246 0-.393-.015-.499a.4.4 0 0 0-.02-.088l-.002-.001V4.91l-.006-.002a.4.4 0 0 0-.083-.019 4 4 0 0 0-.499-.015c-.246 0-.393 0-.499.015a.4.4 0 0 0-.088.02" clip-rule="evenodd"/><path fill="#f5f6f9" d="M1.5 10.625a.375.375 0 0 0 0 .75h9a.375.375 0 0 0 0-.75z"/></svg>