<svg xmlns="http://www.w3.org/2000/svg" width="12" height="12" fill="none" viewBox="0 0 12 12"><path fill="#f5f6f9" fill-rule="evenodd" d="M7.834 3.5c0-.207.168-.375.375-.375H11c.207 0 .375.168.375.375v2.773a.375.375 0 0 1-.75 0V4.4l-3.068 3.05c-.234.233-.437.434-.62.573-.197.15-.415.262-.684.262s-.488-.113-.685-.262c-.183-.14-.385-.34-.62-.574l-.137-.136c-.257-.256-.424-.42-.563-.526-.13-.098-.19-.11-.23-.11s-.102.012-.232.11c-.139.106-.305.27-.562.527l-1.96 1.95a.375.375 0 0 1-.529-.53l1.977-1.97c.235-.233.437-.434.62-.574.197-.149.416-.262.685-.262s.488.113.685.262c.184.14.386.34.62.574l.138.136c.256.256.423.42.562.525.13.099.19.11.23.11s.102-.011.232-.11c.138-.105.305-.27.562-.525l3.045-3.026H8.209a.375.375 0 0 1-.375-.375" clip-rule="evenodd"/></svg>