<svg xmlns="http://www.w3.org/2000/svg" width="12" height="12" fill="none" viewBox="0 0 12 12"><path fill="#f5f6f9" fill-rule="evenodd" d="M.734 3.235a.375.375 0 0 1 .53 0l1.96 1.95c.257.256.423.421.562.526.13.1.191.11.231.11s.101-.01.231-.11c.14-.105.306-.27.563-.525l.137-.136c.235-.233.437-.434.62-.574.197-.149.415-.262.685-.262.269 0 .487.113.684.262.183.14.386.34.62.573l3.068 3.05V6.227a.375.375 0 0 1 .75 0V9a.375.375 0 0 1-.375.375H8.209a.375.375 0 1 1 0-.75h1.882L7.046 5.599c-.257-.256-.424-.42-.562-.525-.13-.099-.191-.11-.231-.11s-.101.011-.231.11c-.14.105-.306.27-.562.525l-.138.136c-.234.234-.436.435-.62.574-.197.15-.416.262-.685.262s-.488-.113-.685-.262a7 7 0 0 1-.637-.592L.735 3.766a.375.375 0 0 1 0-.53" clip-rule="evenodd"/></svg>