<svg xmlns="http://www.w3.org/2000/svg" width="16" height="16" fill="none" viewBox="0 0 16 16"><path fill="#f5f6f9" fill-rule="evenodd" d="M1.954 7.467C2.002 4.16 4.718 1.5 8.053 1.5a6.1 6.1 0 0 1 5.21 2.905.5.5 0 1 1-.853.524A5.1 5.1 0 0 0 8.053 2.5c-2.79 0-5.05 2.218-5.099 4.965l.267-.264a.5.5 0 1 1 .704.71l-1.12 1.11a.5.5 0 0 1-.704 0l-1.12-1.11a.5.5 0 0 1 .705-.71zm11.237-.49a.5.5 0 0 1 .703 0l1.124 1.112a.5.5 0 1 1-.703.711l-.273-.27c-.046 3.31-2.774 5.97-6.12 5.97a6.13 6.13 0 0 1-5.228-2.904.5.5 0 0 1 .851-.525A5.13 5.13 0 0 0 7.922 13.5c2.804 0 5.073-2.222 5.12-4.969l-.272.269a.5.5 0 0 1-.703-.711z" clip-rule="evenodd"/></svg>