<svg xmlns="http://www.w3.org/2000/svg" width="12" height="12" fill="none" viewBox="0 0 12 12"><path fill="#f5f6f9" fill-rule="evenodd" d="M9.453 1.961a1.93 1.93 0 0 0-1.938-.507.375.375 0 0 1-.205-.722 2.68 2.68 0 0 1 2.679.704.375.375 0 1 1-.536.525m-3.858-.307c-.107-.183-.419-.295-.736-.114-.315.18-.37.499-.266.68l1.263 2.165a.375.375 0 1 1-.648.378L3.945 2.597l-.42-.722c-.108-.183-.42-.295-.736-.114-.316.18-.372.499-.266.68l1.894 3.248a.375.375 0 1 1-.648.377l-.842-1.443c-.107-.184-.419-.295-.736-.114-.315.18-.37.498-.266.679L3.82 8.436c.804 1.38 2.79 1.827 4.473.865 1.682-.961 2.28-2.882 1.477-4.259L8.508 2.877c-.107-.184-.42-.295-.736-.114-.316.18-.371.499-.266.679l.842 1.444a.375.375 0 0 1-.138.514c-.771.44-1.008 1.293-.67 1.872a.375.375 0 1 1-.648.378c-.53-.908-.196-2.032.632-2.689zm1.364.85-.716-1.228C5.885.663 5.081.55 4.487.89a1.4 1.4 0 0 0-.456.415C3.63.864 2.94.81 2.417 1.11c-.596.34-.902 1.091-.542 1.708l.5.86c-.192.02-.383.08-.556.18-.595.34-.901 1.09-.542 1.707l1.895 3.249c1.055 1.81 3.532 2.259 5.493 1.138s2.81-3.474 1.753-5.287L9.155 2.499c-.357-.614-1.161-.727-1.755-.387-.175.1-.325.235-.44.393M2.207 8.93a.375.375 0 0 1 .513.135c.413.709 1.045 1.245 1.825 1.593a.375.375 0 0 1-.306.684c-.906-.404-1.666-1.04-2.167-1.9a.375.375 0 0 1 .135-.512" clip-rule="evenodd"/></svg>