<svg xmlns="http://www.w3.org/2000/svg" width="24" height="24" fill="none" viewBox="0 0 24 24"><path fill="#f5f6f9" d="M16.25 12a.75.75 0 0 0-1.5 0h1.5M7.016 6.958l.125.74zM8.6 6.22l-.413-.626zm-.871.525.303.686zM3.34 16.723l-.315.68zm-1.805-3.695-.749.046zm.424 2.395.66-.356zM13.7 20.075l-.242-.71zm1.713-5.47.749.035zM14.28 19.78l.43.614zM8.818 6.076l.413.626zm4.882-2.15-.242.709zm.58.294.43-.614zM3.34 7.277l-.315-.68zm-1.805 3.695-.749-.046zm.424-2.395.66.356zm7.952 9.169A.75.75 0 1 0 9.09 19l.411-.627zM8.6 6.22l.413.626.22-.144-.414-.626-.413-.626-.219.144zm-7.064 6.808.748-.045c-.02-.347-.033-.68-.033-.983H.75c0 .342.014.706.036 1.074zM1.5 12h.75c0-.303.012-.636.033-.983l-.748-.045-.749-.046C.764 11.294.75 11.658.75 12zm14 0h-.75c0 .512-.034 1.451-.086 2.57l.749.035.749.035A69 69 0 0 0 16.25 12zM6 7v.75c.488 0 .817.002 1.141-.052l-.125-.74-.125-.74c-.171.03-.354.032-.89.032zm2.6-.78-.414-.626c-.447.295-.602.394-.76.464l.302.687.303.686c.3-.133.574-.316.981-.585zm-1.584.738.125.74a3.8 3.8 0 0 0 .89-.267l-.303-.686-.303-.687q-.256.115-.534.16zM6 17v.75c.537 0 .72.002.891.031l.125-.74.125-.739c-.324-.054-.653-.052-1.14-.052zm0 0v-.75c-1.444 0-1.93-.016-2.345-.208l-.315.68-.315.681c.784.363 1.67.347 2.975.347zm-4.465-3.972-.749.046c.07 1.154.104 1.947.512 2.705l.66-.356.66-.356c-.217-.405-.258-.82-.335-2.084zm1.805 3.695.315-.68a2.47 2.47 0 0 1-1.036-.976l-.66.356-.66.356a3.96 3.96 0 0 0 1.726 1.624zm12.073-2.118-.75-.034c-.07 1.53-.122 2.602-.261 3.377-.14.771-.337 1.066-.553 1.218l.43.614.432.614c.706-.497 1.005-1.28 1.167-2.18.161-.896.215-2.087.284-3.574zm-1.713 5.47.242.71c.272-.093.534-.226.769-.391l-.431-.614-.431-.614a1.6 1.6 0 0 1-.391.2zm-4.882-14 .413.627c1.29-.85 2.195-1.445 2.91-1.792.711-.346 1.068-.36 1.317-.275l.242-.71.242-.71c-.818-.279-1.631-.056-2.457.346-.824.4-1.826 1.062-3.08 1.889zm4.882-2.15-.242.71c.137.047.272.115.39.199l.432-.614.43-.614a3 3 0 0 0-.768-.39zM6 7v-.75c-1.304 0-2.19-.016-2.975.347l.315.68.315.681c.414-.192.901-.208 2.345-.208zm-4.465 3.972.748.045c.077-1.264.118-1.68.336-2.084l-.66-.356-.66-.356C.89 8.98.855 9.773.785 10.926zM3.34 7.277l-.315-.68A3.96 3.96 0 0 0 1.298 8.22l.66.356.66.356a2.47 2.47 0 0 1 1.037-.975zM9.5 18.373 9.089 19c1.039.68 1.899 1.225 2.631 1.549.743.328 1.48.489 2.222.236l-.242-.71-.242-.71c-.226.077-.54.074-1.13-.188-.602-.266-1.358-.738-2.417-1.431zm5.874-9.796.75-.037c-.062-1.227-.128-2.233-.297-3.01-.172-.789-.477-1.474-1.116-1.924l-.431.614-.431.614c.195.137.376.391.512 1.015.139.635.202 1.514.264 2.765z"/><path stroke="#f5f6f9" stroke-linecap="round" stroke-width="1.5" d="M20 18s1.5-1.8 1.5-6c0-2.433-.503-4.061-.927-5M18 15s.5-.9.5-3c0-.862-.084-1.522-.183-2M22 2 2 22"/></svg>