<svg width="12" height="12" viewBox="0 0 12 12" fill="none" xmlns="http://www.w3.org/2000/svg">
<path fill-rule="evenodd" clip-rule="evenodd" d="M6.2381 2.375C4.86305 2.375 3.75595 3.47542 3.75595 4.82353C3.75595 5.05461 3.7883 5.27776 3.84864 5.48906C4.09724 5.56081 4.32996 5.66945 4.54023 5.80854C4.71296 5.92281 4.76036 6.15547 4.6461 6.3282C4.53183 6.50093 4.29917 6.54833 4.12644 6.43407C3.93603 6.30811 3.71958 6.21777 3.48665 6.17257C3.37574 6.15105 3.26082 6.13971 3.14286 6.13971C2.1623 6.13971 1.375 6.92409 1.375 7.88235C1.375 8.84062 2.1623 9.625 3.14286 9.625H8.14286C9.5179 9.625 10.625 8.52458 10.625 7.17647C10.625 6.10811 9.93036 5.19543 8.95621 4.86232C8.70192 4.77536 8.42841 4.72794 8.14286 4.72794C7.85155 4.72794 7.57277 4.77729 7.31413 4.86763C7.11861 4.93592 6.90475 4.83279 6.83645 4.63726C6.76816 4.44174 6.8713 4.22787 7.06682 4.15958C7.40395 4.04182 7.76629 3.97794 8.14286 3.97794C8.29059 3.97794 8.43614 3.98777 8.57883 4.00683C8.23852 3.05815 7.32108 2.375 6.2381 2.375ZM9.41571 4.23563C9.1362 2.74685 7.81713 1.625 6.2381 1.625C4.45723 1.625 3.00595 3.05286 3.00595 4.82353C3.00595 5.01707 3.02336 5.20678 3.05676 5.39114C1.70994 5.43604 0.625 6.53023 0.625 7.88235C0.625 9.26318 1.75648 10.375 3.14286 10.375H8.14286C9.92372 10.375 11.375 8.94714 11.375 7.17647C11.375 5.85465 10.5657 4.72375 9.41571 4.23563Z" fill="#F5F6F9"/>
</svg>
