<svg xmlns="http://www.w3.org/2000/svg" width="12" height="12" fill="none" viewBox="0 0 12 12"><g fill="#f5f6f9" fill-rule="evenodd" clip-path="url(#a)" clip-rule="evenodd"><path d="M5.971.625h.058c1.154 0 2.058 0 2.764.095.723.097 1.293.3 1.74.747s.65 1.017.747 1.74c.095.706.095 1.61.095 2.764v.058c0 1.154 0 2.058-.095 2.764-.097.723-.3 1.293-.747 1.74s-1.017.65-1.74.747c-.706.095-1.61.095-2.764.095H5.97c-1.154 0-2.058 0-2.764-.095-.723-.097-1.293-.3-1.74-.747S.817 9.516.72 8.793C.625 8.087.625 7.183.625 6.03V5.97c0-1.154 0-2.058.095-2.764.097-.723.3-1.293.747-1.74S2.484.817 3.207.72C3.913.625 4.817.625 5.97.625m-2.664.838c-.64.086-1.025.25-1.31.534-.284.285-.448.67-.534 1.31-.087.65-.088 1.504-.088 2.693s0 2.043.088 2.693c.086.64.25 1.025.534 1.31.285.284.67.448 1.31.534.65.087 1.504.088 2.693.088s2.043 0 2.693-.088c.64-.086 1.025-.25 1.31-.534.284-.285.448-.67.534-1.31.087-.65.088-1.504.088-2.693s0-2.043-.088-2.693c-.086-.64-.25-1.025-.534-1.31-.285-.284-.67-.448-1.31-.534-.65-.087-1.504-.088-2.693-.088s-2.043 0-2.693.088"/><path d="M4.015 2.985a.375.375 0 0 1 0 .53l-.11.11H4c.84 0 1.578.436 2 1.094a2.37 2.37 0 0 1 2-1.094h.095l-.11-.11a.375.375 0 1 1 .53-.53l.75.75a.375.375 0 0 1 0 .53l-.75.75a.375.375 0 0 1-.53-.53l.11-.11H8c-.897 0-1.625.728-1.625 1.625v3a.375.375 0 1 1-.75 0V6c0-.897-.728-1.625-1.625-1.625h-.095l.11.11a.375.375 0 0 1-.53.53l-.75-.75a.375.375 0 0 1 0-.53l.75-.75a.375.375 0 0 1 .53 0"/></g><defs><clipPath id="a"><path fill="#fff" d="M0 0h12v12H0z"/></clipPath></defs></svg>