<svg xmlns="http://www.w3.org/2000/svg" width="12" height="12" fill="none" viewBox="0 0 12 12"><path fill="#f5f6f9" fill-rule="evenodd" d="M1.625 5.072C1.625 2.622 3.578.625 6 .625s4.375 1.997 4.375 4.447c0 1.182-.337 2.452-.933 3.549-.595 1.096-1.464 2.048-2.552 2.556a2.1 2.1 0 0 1-1.78 0c-1.088-.508-1.957-1.46-2.552-2.556-.596-1.097-.933-2.367-.933-3.55M6 1.375c-1.996 0-3.625 1.649-3.625 3.697 0 1.048.301 2.196.842 3.191.541.997 1.306 1.812 2.21 2.235.364.17.782.17 1.146 0 .904-.423 1.669-1.238 2.21-2.235.54-.995.842-2.143.842-3.191 0-2.048-1.63-3.697-3.625-3.697m0 2.5a1.125 1.125 0 1 0 0 2.25 1.125 1.125 0 0 0 0-2.25M4.125 5a1.875 1.875 0 1 1 3.75 0 1.875 1.875 0 0 1-3.75 0" clip-rule="evenodd"/></svg>