<svg xmlns="http://www.w3.org/2000/svg" width="12" height="12" fill="none" viewBox="0 0 12 12"><g fill="#f5f6f9" fill-rule="evenodd" clip-path="url(#a)" clip-rule="evenodd"><path d="M8.693 1.463C8.043 1.376 7.19 1.375 6 1.375s-2.043 0-2.693.088c-.64.086-1.025.25-1.31.534-.284.285-.448.67-.534 1.31-.087.65-.088 1.504-.088 2.693s0 2.043.088 2.693c.086.64.25 1.025.534 1.31.285.284.67.448 1.31.534.65.087 1.504.088 2.693.088s2.043 0 2.693-.088c.64-.086 1.025-.25 1.31-.534.284-.285.448-.67.534-1.31.087-.65.088-1.504.088-2.693s0-2.043-.088-2.693c-.086-.64-.25-1.025-.534-1.31-.285-.284-.67-.448-1.31-.534m.1-.743c.723.097 1.293.3 1.74.747s.65 1.017.747 1.74c.095.706.095 1.61.095 2.764v.058c0 1.154 0 2.058-.095 2.764-.097.723-.3 1.293-.747 1.74s-1.017.65-1.74.747c-.706.095-1.61.095-2.764.095H5.97c-1.154 0-2.058 0-2.764-.095-.723-.097-1.293-.3-1.74-.747S.817 9.516.72 8.793C.625 8.087.625 7.183.625 6.03V5.97c0-1.154 0-2.058.095-2.764.097-.723.3-1.293.747-1.74S2.484.817 3.207.72C3.913.625 4.817.625 5.97.625h.058c1.154 0 2.058 0 2.764.095"/><path d="m7.902 3.532-.134-.35a.806.806 0 0 1 1.05 1.05L7.062 8.815a.86.86 0 0 1-.788.56.79.79 0 0 1-.787-.565L4.959 7.07l.333-.1-.333.1a.1.1 0 0 0-.011-.019.1.1 0 0 0-.02-.01l-1.738-.53a.79.79 0 0 1-.565-.786.86.86 0 0 1 .56-.788l4.583-1.756zm.183.344a.1.1 0 0 0-.049.007L3.453 5.639c-.054.02-.077.063-.078.104q.002.03.008.038c.002.002.006.008.025.014l1.739.528-.11.36.11-.36a.8.8 0 0 1 .53.53l.528 1.739c.005.019.012.023.014.024a.1.1 0 0 0 .038.009c.041-.001.083-.024.104-.078l1.756-4.583a.1.1 0 0 0 .007-.05.05.05 0 0 0-.039-.038"/></g><defs><clipPath id="a"><path fill="#fff" d="M0 0h12v12H0z"/></clipPath></defs></svg>