<svg xmlns="http://www.w3.org/2000/svg" width="12" height="12" fill="none" viewBox="0 0 12 12"><path fill="#f5f6f9" fill-rule="evenodd" d="M10.524 11.006c.326-.342.47-.884.236-1.407L7.08 1.344a1.169 1.169 0 0 0-2.158 0L1.24 9.599a1.27 1.27 0 0 0 .236 1.407c.33.345.868.505 1.384.23l-.176-.331.176.33L5.812 9.66l-.177-.33.177.33a.4.4 0 0 1 .376 0l2.952 1.576.177-.33-.177.33c.516.276 1.054.116 1.384-.229m-1.03-.432-.176.328zL6.541 8.998a1.14 1.14 0 0 0-1.082 0l-2.952 1.576c-.178.095-.357.052-.488-.086a.52.52 0 0 1-.094-.584l3.681-8.255c.163-.365.625-.365.788 0l3.681 8.255c.1.224.04.444-.094.584-.13.138-.31.18-.488.086" clip-rule="evenodd"/></svg>