<svg xmlns="http://www.w3.org/2000/svg" width="12" height="12" fill="none" viewBox="0 0 12 12"><g clip-path="url(#a)"><path fill="#f5f6f9" fill-rule="evenodd" d="M2.125 4.257C2.125 2.227 3.885.625 6 .625c2.114 0 3.875 1.601 3.875 3.632 0 1.906-1.181 4.143-3.088 4.958-.5.213-1.074.213-1.574 0C3.306 8.4 2.125 6.163 2.125 4.257M6 1.375c-1.752 0-3.125 1.315-3.125 2.882 0 1.664 1.053 3.593 2.632 4.268.313.133.674.133.986 0 1.58-.675 2.632-2.604 2.632-4.268C9.125 2.69 7.752 1.375 6 1.375m0 2.5a.625.625 0 1 0 0 1.25.625.625 0 0 0 0-1.25M4.625 4.5a1.375 1.375 0 1 1 2.75 0 1.375 1.375 0 0 1-2.75 0M1.798 7.498a.375.375 0 0 1-.027.53c-.283.257-.396.503-.396.722 0 .382.362.852 1.243 1.249.847.38 2.042.626 3.382.626s2.536-.245 3.382-.626c.881-.397 1.243-.867 1.243-1.249 0-.219-.113-.465-.396-.722a.375.375 0 1 1 .503-.556c.382.345.643.779.643 1.278 0 .86-.757 1.515-1.686 1.933-.963.434-2.268.692-3.689.692s-2.726-.258-3.69-.692C1.383 10.265.626 9.611.626 8.75c0-.5.262-.933.643-1.278a.375.375 0 0 1 .53.026" clip-rule="evenodd"/></g><defs><clipPath id="a"><path fill="#fff" d="M0 0h12v12H0z"/></clipPath></defs></svg>