<svg xmlns="http://www.w3.org/2000/svg" width="12" height="12" fill="none" viewBox="0 0 12 12"><path fill="#f5f6f9" fill-rule="evenodd" d="m8.93 1.581.08.027.602.2c.231.078.434.145.595.22.174.081.334.185.456.355s.17.353.192.544c.02.176.02.39.02.634v4.107c0 .349 0 .643-.027.876-.028.242-.091.481-.268.674a1.1 1.1 0 0 1-.373.27c-.238.105-.485.09-.724.04a8 8 0 0 1-.84-.252l-.021-.007c-.56-.187-.752-.245-.939-.238a1 1 0 0 0-.22.03c-.182.042-.352.149-.843.476l-.691.461-.07.047c-.531.354-.9.6-1.332.658-.431.058-.852-.082-1.458-.285l-.08-.026-.6-.2a6 6 0 0 1-.596-.22 1.1 1.1 0 0 1-.456-.355 1.1 1.1 0 0 1-.192-.544c-.02-.177-.02-.39-.02-.635V4.332c0-.35 0-.644.027-.876.028-.242.091-.481.267-.674q.16-.173.374-.27c.238-.106.485-.09.724-.04.23.048.508.141.84.252l.021.007c.56.186.752.245.939.238q.111-.003.22-.03c.182-.042.352-.149.843-.476l.691-.461.07-.047c.531-.354.9-.6 1.332-.658.431-.058.852.082 1.458.284m-1.055.472V8.29c.268.029.55.123.922.247q.03.01.062.02c.358.12.596.199.778.237.177.037.238.02.265.008a.4.4 0 0 0 .125-.09c.02-.022.055-.074.076-.254.021-.185.022-.435.022-.813V3.581c0-.27 0-.44-.015-.569-.014-.12-.036-.164-.056-.19-.02-.028-.054-.063-.163-.114a6 6 0 0 0-.535-.194l-.583-.194c-.443-.148-.706-.232-.898-.267m-.75 6.327V2.217c-.156.09-.355.22-.638.409l-.691.46-.055.037c-.344.23-.6.401-.866.497v6.163c.156-.09.355-.22.638-.409l.691-.46.055-.037c.344-.23.6-.401.866-.497m-3 1.567V3.71c-.268-.029-.55-.123-.922-.247l-.062-.02a8 8 0 0 0-.778-.237c-.177-.037-.238-.02-.265-.008a.4.4 0 0 0-.125.09c-.02.022-.055.074-.076.254a8 8 0 0 0-.022.813v4.064c0 .27 0 .44.015.569.014.12.036.163.056.19.02.028.054.063.163.114.118.054.28.109.535.194l.583.194c.443.148.706.232.898.267" clip-rule="evenodd"/></svg>