<svg width="16" height="16" viewBox="0 0 16 16" fill="none" xmlns="http://www.w3.org/2000/svg">
<path d="M3.77964 6.60949L5.82107 3.84747C7.14064 2.0621 7.80043 1.16942 8.41601 1.35806C9.03158 1.5467 9.03158 2.64158 9.03158 4.83133V5.0378C9.03158 5.82759 9.03158 6.22249 9.28394 6.4702L9.29729 6.48303C9.5551 6.72549 9.9661 6.72549 10.7881 6.72549C12.2674 6.72549 13.007 6.72549 13.257 7.17412C13.2611 7.18155 13.2651 7.18904 13.269 7.19658C13.505 7.65216 13.0767 8.23156 12.2203 9.39037L10.1788 12.1524C8.85923 13.9377 8.19943 14.8304 7.58385 14.6418C6.96828 14.4531 6.96829 13.3582 6.96833 11.1685L6.96833 10.9621C6.96834 10.1723 6.96835 9.77738 6.71599 9.52967L6.70263 9.51684C6.44483 9.27437 6.03382 9.27437 5.21179 9.27437C3.73255 9.27437 2.99292 9.27437 2.74296 8.82574C2.73882 8.81831 2.73479 8.81082 2.73089 8.80328C2.49492 8.34771 2.92316 7.7683 3.77964 6.60949Z" stroke="#F5F6F9"/>
</svg>
