<svg width="12" height="12" viewBox="0 0 12 12" fill="none" xmlns="http://www.w3.org/2000/svg">
<g clip-path="url(#clip0_599_11118)">
<path d="M7.78886 1.69098L8.78885 2.21576C9.86469 2.78033 10.4026 3.06262 10.7013 3.56987C11 4.07712 11 4.70833 11 5.97076V6.02924C11 7.29167 11 7.92288 10.7013 8.43013C10.4026 8.93738 9.86469 9.21967 8.78885 9.78424L7.78886 10.309C6.91104 10.7697 6.47214 11 6 11C5.52786 11 5.08896 10.7697 4.21115 10.309L3.21115 9.78424C2.13531 9.21967 1.5974 8.93738 1.2987 8.43013C1 7.92288 1 7.29167 1 6.02924V5.97076C1 4.70833 1 4.07712 1.2987 3.56987C1.5974 3.06262 2.13531 2.78033 3.21115 2.21576L4.21115 1.69098C5.08896 1.23033 5.52786 1 6 1C6.47214 1 6.91104 1.23033 7.78886 1.69098Z" stroke="#F5F6F9" stroke-width="0.75" stroke-linecap="round"/>
<path d="M10.5 3.75L6 6M6 6L1.5 3.75M6 6V10.75" stroke="#F5F6F9" stroke-width="0.75" stroke-linecap="round"/>
</g>
<defs>
<clipPath id="clip0_599_11118">
<rect width="12" height="12" fill="white"/>
</clipPath>
</defs>
</svg>
