<svg width="12" height="12" viewBox="0 0 12 12" fill="none" xmlns="http://www.w3.org/2000/svg">
<path d="M4.5 6C4.5 6.69036 3.94036 7.25 3.25 7.25C2.55964 7.25 2 6.69036 2 6C2 5.30964 2.55964 4.75 3.25 4.75C3.94036 4.75 4.5 5.30964 4.5 6Z" stroke="#F5F6F9" stroke-width="0.75"/>
<path d="M7 3.25L4.5 5" stroke="#F5F6F9" stroke-width="0.75" stroke-linecap="round"/>
<path d="M7 8.75L4.5 7" stroke="#F5F6F9" stroke-width="0.75" stroke-linecap="round"/>
<path d="M9.5 9.25C9.5 9.94036 8.94036 10.5 8.25 10.5C7.55964 10.5 7 9.94036 7 9.25C7 8.55964 7.55964 8 8.25 8C8.94036 8 9.5 8.55964 9.5 9.25Z" stroke="#F5F6F9" stroke-width="0.75"/>
<path d="M9.5 2.75C9.5 3.44036 8.94036 4 8.25 4C7.55964 4 7 3.44036 7 2.75C7 2.05964 7.55964 1.5 8.25 1.5C8.94036 1.5 9.5 2.05964 9.5 2.75Z" stroke="#F5F6F9" stroke-width="0.75"/>
</svg>
