<svg xmlns="http://www.w3.org/2000/svg" width="12" height="12" fill="none" viewBox="0 0 12 12"><g clip-path="url(#a)"><path fill="#f5f6f9" fill-rule="evenodd" d="M8.693 1.322a.375.375 0 0 0-.386-.644l-1.173.704A2.6 2.6 0 0 0 6 1.125c-.406 0-.791.092-1.134.257L3.693.678a.375.375 0 0 0-.386.644l.881.528a2.62 2.62 0 0 0-.813 1.9v.145q-.193.103-.362.237a.4.4 0 0 0-.124-.08l-1-.4a.375.375 0 1 0-.278.696l.885.354c-.235.366-.371.8-.371 1.267v.656H1a.375.375 0 1 0 0 .75h1.125V7.5c0 .64.155 1.243.43 1.775l-.944.377a.375.375 0 1 0 .278.696l1-.4a.4.4 0 0 0 .075-.04A3.87 3.87 0 0 0 6 11.375c1.23 0 2.326-.573 3.036-1.467q.034.024.075.04l1 .4a.375.375 0 1 0 .278-.696l-.943-.377c.274-.532.429-1.135.429-1.775v-.125H11a.375.375 0 0 0 0-.75H9.875V5.97c0-.467-.136-.901-.371-1.267l.885-.354a.375.375 0 1 0-.278-.696l-1 .4a.4.4 0 0 0-.124.08 2.4 2.4 0 0 0-.362-.237V3.75c0-.747-.312-1.422-.813-1.9zM2.875 7.5V5.97c0-.88.714-1.594 1.594-1.594H7.53c.88 0 1.594.714 1.594 1.594V7.5c0 1.599-1.2 2.918-2.75 3.103V7.5a.375.375 0 1 0-.75 0v3.103A3.126 3.126 0 0 1 2.875 7.5M6 1.875c1.002 0 1.82.786 1.872 1.775a2.4 2.4 0 0 0-.34-.025H4.468q-.174 0-.341.025A1.875 1.875 0 0 1 6 1.875" clip-rule="evenodd"/></g><defs><clipPath id="a"><rect width="12" height="12" fill="#fff" rx="3"/></clipPath></defs></svg>