<svg xmlns="http://www.w3.org/2000/svg" width="12" height="12" fill="none" viewBox="0 0 12 12"><path fill="#f5f6f9" d="M3.226 1.625c-.21 0-.342 0-.459.011a2.375 2.375 0 0 0-2.13 2.131c-.012.117-.012.25-.012.46v.023a.375.375 0 1 0 .75 0c0-.241 0-.334.008-.41A1.625 1.625 0 0 1 2.84 2.384c.075-.008.168-.008.409-.008H7c.953 0 1.63 0 2.145.07.503.068.792.194 1.004.406s.339.501.406 1.004c.07.514.07 1.192.07 2.145s0 1.63-.07 2.145c-.067.503-.194.792-.406 1.004s-.501.338-1.004.406c-.514.07-1.192.07-2.145.07a.375.375 0 0 0 0 .75h.028c.92 0 1.647 0 2.217-.077.586-.078 1.06-.244 1.434-.619.375-.374.54-.848.62-1.434.076-.57.076-1.298.076-2.217v-.056c0-.92 0-1.647-.077-2.217-.078-.586-.244-1.06-.619-1.434-.374-.375-.848-.54-1.434-.62-.57-.076-1.298-.076-2.217-.076z"/><path fill="#f5f6f9" d="M1 5.125a.375.375 0 0 0 0 .75A4.125 4.125 0 0 1 5.125 10a.375.375 0 0 0 .75 0A4.875 4.875 0 0 0 1 5.125"/><path fill="#f5f6f9" d="M.625 7c0-.207.168-.375.375-.375A3.375 3.375 0 0 1 4.375 10a.375.375 0 0 1-.75 0A2.625 2.625 0 0 0 1 7.375.375.375 0 0 1 .625 7"/><path fill="#f5f6f9" d="M1 8.125a.375.375 0 0 0 0 .75c.621 0 1.125.504 1.125 1.125a.375.375 0 0 0 .75 0c0-1.036-.84-1.875-1.875-1.875"/></svg>