<svg xmlns="http://www.w3.org/2000/svg" width="12" height="12" fill="none" viewBox="0 0 12 12"><path fill="#f5f6f9" fill-rule="evenodd" d="M6 .625c.125 0 .242.063.312.167l1 1.5a.375.375 0 1 1-.624.416l-.313-.47v5.258q.09-.047.19-.08l1.633-.544a.625.625 0 0 0 .427-.593v-.925a.6.6 0 0 1-.317-.162.62.62 0 0 1-.17-.368c-.013-.093-.013-.204-.013-.307v-.034c0-.103 0-.214.012-.307a.62.62 0 0 1 .171-.368.62.62 0 0 1 .368-.17c.093-.013.204-.013.307-.013h.034c.103 0 .214 0 .307.013a.62.62 0 0 1 .368.17.62.62 0 0 1 .17.368c.013.093.013.204.013.307v.034c0 .103 0 .214-.012.307a.62.62 0 0 1-.171.368c-.1.1-.217.143-.317.162v.925c0 .592-.379 1.118-.94 1.305l-1.633.544a.625.625 0 0 0-.425.55 1.376 1.376 0 1 1-.752-.001V7.22a.625.625 0 0 0-.427-.593l-1.633-.544a1.375 1.375 0 0 1-.94-1.305v-.988a.875.875 0 1 1 .75 0v.988c0 .27.172.508.427.593l1.633.544q.1.033.19.08V2.239l-.313.469a.375.375 0 1 1-.624-.416l1-1.5A.38.38 0 0 1 6 .625m3 4h.124v-.25h-.248v.25zM5.375 10a.625.625 0 1 1 1.25 0 .625.625 0 0 1-1.25 0M3 3.125a.125.125 0 1 0 0-.25.125.125 0 0 0 0 .25" clip-rule="evenodd"/></svg>