<svg xmlns="http://www.w3.org/2000/svg" width="12" height="12" fill="none" viewBox="0 0 12 12"><g clip-path="url(#a)"><circle cx="6" cy="6" r="1" stroke="#f5f6f9" stroke-width=".75"/><path fill="#f5f6f9" fill-rule="evenodd" d="M3.923 1.083a.375.375 0 0 1 0 .53 3 3 0 0 0-.31.364.375.375 0 1 1-.61-.437q.17-.237.39-.457a.375.375 0 0 1 .53 0m5.339 2.058a2.6 2.6 0 0 0-.931-.055.375.375 0 1 1-.09-.744c.395-.047.802-.03 1.204.072a.375.375 0 1 1-.183.727m-6.315-.78c.2.05.323.254.272.455a2.6 2.6 0 0 0-.054.931.375.375 0 0 1-.745.089c-.047-.395-.03-.8.072-1.203.05-.2.254-.323.455-.272m4.651.49a.375.375 0 0 1-.192.494c-.3.132-.583.305-.839.505a.375.375 0 1 1-.462-.59 4.7 4.7 0 0 1 .999-.601c.19-.084.41.002.494.192m2.417.16a.375.375 0 0 1 .523-.085q.236.169.456.389a.375.375 0 0 1-.53.53 3 3 0 0 0-.364-.31.375.375 0 0 1-.085-.524M5.808 4.018c.165.124.198.36.074.525l-.094.13a.375.375 0 0 1 .116.72q-.17.069-.323.22a.375.375 0 0 1-.498.029.376.376 0 0 1-.353-.477 3.3 3.3 0 0 1 .553-1.074.375.375 0 0 1 .525-.073m-2.879.462c.19-.084.41.002.494.192.132.3.305.583.505.838a.375.375 0 1 1-.59.463 4.7 4.7 0 0 1-.601-.999.375.375 0 0 1 .192-.494m3.52.431a.375.375 0 0 1 .464-.259c.373.106.739.3 1.073.553a.375.375 0 0 1-.451.599l-.13-.093a.375.375 0 0 1-.72.115 1 1 0 0 0-.22-.323.375.375 0 0 1-.03-.498q.002-.046.015-.094m1.842 1.052a.375.375 0 0 1 .527.064c.237.302.443.64.6.999a.375.375 0 1 1-.686.302 4 4 0 0 0-.504-.839.375.375 0 0 1 .063-.526m-3.312.011c.19-.08.41.01.491.2.048.112.119.22.221.323.136.136.146.35.03.497a.375.375 0 0 1-.478.353 3.3 3.3 0 0 1-1.074-.552.375.375 0 0 1 .452-.599q.065.05.13.093a.38.38 0 0 1 .228-.315m2.094.384a.375.375 0 0 0-.498.029q-.153.151-.323.22a.375.375 0 0 0 .115.72q-.044.065-.093.13a.375.375 0 1 0 .599.451 3.3 3.3 0 0 0 .552-1.073.375.375 0 0 0-.352-.477m2.246 1.478a.375.375 0 0 1 .417.328c.047.395.03.8-.072 1.203a.375.375 0 1 1-.727-.183c.077-.305.091-.619.054-.931a.375.375 0 0 1 .328-.417m-8.157.319a.375.375 0 0 1 .53 0q.178.178.363.31a.375.375 0 1 1-.437.609 4 4 0 0 1-.456-.389.375.375 0 0 1 0-.53m4.953.059c.128.162.1.398-.064.526a4.7 4.7 0 0 1-.999.6.375.375 0 1 1-.302-.685c.3-.132.583-.305.838-.505a.375.375 0 0 1 .527.064m-3.676.917c.05-.2.254-.323.455-.272.305.077.619.092.931.054a.375.375 0 0 1 .089.745c-.395.047-.8.03-1.203-.072a.375.375 0 0 1-.272-.455m6.627.806c.169.12.207.355.086.523q-.169.236-.39.456a.375.375 0 1 1-.53-.53q.179-.178.311-.364a.375.375 0 0 1 .523-.085" clip-rule="evenodd"/><path fill="#f5f6f9" fill-rule="evenodd" d="M5.363 6.25c.21.245.476.375.793.375q.114.002.204.06A1 1 0 0 0 6.625 6c0-.115.052-.218.134-.287A1 1 0 0 0 6 5.375a.4.4 0 0 1-.196-.055c-.28.216-.429.497-.429.836a.4.4 0 0 1-.012.093M4.92 5.175a3.8 3.8 0 0 1-.004-1.123c.197-1.396 1.099-2.678 2.74-2.678a.375.375 0 1 0 0-.75C5.499.625 4.4 2.343 4.173 3.947c-.114.807-.021 1.635.292 2.28.203.417.508.77.913.97a3.7 3.7 0 0 1-1.324.044C2.657 7.044 1.375 6.142 1.375 4.5a.375.375 0 1 0-.75 0c0 2.158 1.718 3.256 3.322 3.484.807.114 1.635.021 2.28-.292.434-.211.798-.532.993-.96.072.37.082.788.021 1.215-.197 1.396-1.099 2.678-2.741 2.678a.375.375 0 0 0 0 .75c2.158 0 3.256-1.718 3.484-3.322.114-.807.021-1.635-.292-2.28a2.14 2.14 0 0 0-.74-.872c.313-.038.651-.035.995.014 1.396.197 2.678 1.099 2.678 2.74a.375.375 0 0 0 .75 0c0-2.157-1.718-3.256-3.322-3.483-.807-.114-1.635-.021-2.28.292a2.15 2.15 0 0 0-.854.712" clip-rule="evenodd"/></g><defs><clipPath id="a"><path fill="#fff" d="M0 0h12v12H0z"/></clipPath></defs></svg>