<svg xmlns="http://www.w3.org/2000/svg" width="12" height="12" fill="none" viewBox="0 0 12 12"><g clip-path="url(#a)"><path fill="#f5f6f9" fill-rule="evenodd" d="M2.789 2.671a4.625 4.625 0 0 0 3.401 7.95c-.102-.456-.116-1.068.197-1.659.326-.614 1.001-.88 1.497-1.003a4.6 4.6 0 0 1 .95-.127h.021c.836-.009 1.213-.28 1.413-.54.171-.222.235-.443.3-.668q.014-.044.026-.086.03-.265.031-.538A4.6 4.6 0 0 0 9.3 2.76l-.013.05c-.082.296-.213.6-.356.817-.128.195-.376.39-.582.538a5 5 0 0 1-.45.28 6 6 0 0 0-.316.19c-.216.143-.383.297-.496.529a.33.33 0 0 0-.017.245c.037.136.063.288.063.444a.97.97 0 0 1-.377.76c-.21.168-.484.265-.76.262-1.228-.013-1.983-1.01-2.082-2.118-.04-.44-.233-.886-.477-1.276a4.4 4.4 0 0 0-.648-.81m.584-.478c.207.21.467.519.7.89.278.445.534 1.006.588 1.607.075.84.606 1.427 1.343 1.435a.46.46 0 0 0 .282-.097c.072-.058.097-.12.097-.173a1 1 0 0 0-.036-.248c-.06-.22-.07-.492.066-.77.192-.398.477-.643.756-.827.12-.08.244-.15.356-.215l.044-.025c.128-.074.24-.14.342-.214.216-.154.352-.278.394-.341.09-.139.193-.367.258-.604.052-.187.066-.33.061-.42A4.6 4.6 0 0 0 6 1.375c-.976 0-1.881.302-2.627.818M11.34 6.62q.035-.305.035-.62a5.375 5.375 0 1 0-.046.703l.024-.078zM9.952 8.403c-.297.11-.656.174-1.089.179h-.015l-.046.001q-.061.002-.174.012c-.15.013-.351.04-.565.092-.45.111-.846.31-1.014.627-.227.429-.195.896-.11 1.216a4.63 4.63 0 0 0 3.013-2.127" clip-rule="evenodd"/></g><defs><clipPath id="a"><path fill="#fff" d="M0 0h12v12H0z"/></clipPath></defs></svg>