<svg xmlns="http://www.w3.org/2000/svg" width="12" height="12" fill="none" viewBox="0 0 12 12"><path fill="#f5f6f9" fill-rule="evenodd" d="M6 2.375a3.625 3.625 0 0 0-2.657 6.09c.97-.223 2.168-.678 3.396-1.333 1.147-.61 2.115-1.286 2.802-1.91A3.626 3.626 0 0 0 6 2.375m3.622 3.766a16 16 0 0 1-2.53 1.653c-1.06.565-2.113.995-3.042 1.263A3.625 3.625 0 0 0 9.622 6.14M3.105 9.28a4.375 4.375 0 0 0 7.24-3.79l.045-.045c.377-.385.672-.77.836-1.134.162-.358.23-.773.006-1.13-.21-.335-.592-.48-.977-.532-.386-.051-.852-.022-1.36.07a4.375 4.375 0 0 0-7.24 3.79c-.38.38-.678.76-.853 1.118-.183.374-.27.813-.034 1.19.216.345.616.489 1.016.537.377.044.828.014 1.321-.075m-.617-.672a4.4 4.4 0 0 1-.634-1.21 3 3 0 0 0-.378.558c-.138.284-.104.413-.073.462.037.059.153.153.47.19q.256.031.615 0M9.512 3.39a3 3 0 0 1 .643.003c.297.04.407.13.442.187.03.047.062.164-.054.421a2.7 2.7 0 0 1-.397.598 4.4 4.4 0 0 0-.634-1.209" clip-rule="evenodd"/></svg>