<svg xmlns="http://www.w3.org/2000/svg" width="12" height="12" fill="none" viewBox="0 0 12 12"><path fill="#f5f6f9" fill-rule="evenodd" d="M6 1.625c.207 0 .375.168.375.375v1.2a.375.375 0 1 1-.75 0V2c0-.207.168-.375.375-.375m3.094 1.281a.375.375 0 0 1 0 .53l-.849.85a.375.375 0 0 1-.53-.531l.848-.849a.375.375 0 0 1 .53 0m-6.188 0a.375.375 0 0 1 .53 0l.85.849a.375.375 0 1 1-.531.53l-.849-.848a.375.375 0 0 1 0-.53M1.625 6c0-.207.168-.375.375-.375h1.2a.375.375 0 1 1 0 .75H2A.375.375 0 0 1 1.625 6m6.8 0c0-.207.168-.375.375-.375H10a.375.375 0 0 1 0 .75H8.8A.375.375 0 0 1 8.425 6m-4.14 1.715a.375.375 0 0 1 0 .53l-.848.849a.375.375 0 1 1-.53-.53l.848-.85a.375.375 0 0 1 .53 0m3.43 0a.375.375 0 0 1 .53 0l.848.848a.375.375 0 0 1-.53.53l-.848-.848a.375.375 0 0 1 0-.53M6 8.425c.207 0 .375.168.375.375V10a.375.375 0 0 1-.75 0V8.8c0-.207.168-.375.375-.375" clip-rule="evenodd"/></svg>