<svg xmlns="http://www.w3.org/2000/svg" width="16" height="16" fill="none" viewBox="0 0 16 16"><g clip-path="url(#a)"><path fill="#f5f6f9" fill-rule="evenodd" d="M1.853 7.5h.814a.5.5 0 0 1 0 1h-.814A6.14 6.14 0 0 0 3.3 11.993l.68-.68a.5.5 0 1 1 .707.707l-.68.68A6.14 6.14 0 0 0 8 14.167a6.14 6.14 0 0 0 3.993-1.467l-.68-.68a.5.5 0 1 1 .707-.707l.68.68A6.14 6.14 0 0 0 14.147 8.5h-.814a.5.5 0 0 1 0-1h.814A6.14 6.14 0 0 0 12.7 4.007l-.68.68a.5.5 0 1 1-.707-.707l.68-.68A6.14 6.14 0 0 0 8.5 1.853v.814a.5.5 0 0 1-1 0v-.814A6.14 6.14 0 0 0 4.007 3.3l.68.68a.5.5 0 0 1-.707.707l-.68-.68A6.14 6.14 0 0 0 1.853 7.5M.833 8a7.167 7.167 0 1 1 14.334 0A7.167 7.167 0 0 1 .833 8m8.39-.899A1.5 1.5 0 0 0 7.1 9.222c.077.077.23.173.479.27.24.094.528.175.84.243.506.112.813.177 1.043.181.187.003.263-.035.34-.112.078-.078.116-.154.113-.341-.004-.23-.07-.537-.18-1.044-.069-.31-.15-.6-.244-.84-.097-.248-.193-.401-.27-.478m-2.829-.707a2.5 2.5 0 0 1 3.536 0c.22.22.377.524.493.82.12.306.214.65.289.99l.01.044c.098.448.188.855.194 1.197.007.396-.095.756-.405 1.066s-.67.412-1.066.405c-.342-.006-.749-.096-1.197-.194l-.044-.01a7 7 0 0 1-.99-.289c-.296-.117-.6-.273-.82-.494a2.5 2.5 0 0 1 0-3.535" clip-rule="evenodd"/></g><defs><clipPath id="a"><path fill="#fff" d="M0 0h16v16H0z"/></clipPath></defs></svg>