<svg xmlns="http://www.w3.org/2000/svg" width="12" height="12" fill="none" viewBox="0 0 12 12"><g clip-path="url(#a)"><path fill="#f5f6f9" fill-rule="evenodd" d="M7.515.735a.375.375 0 0 1 0 .53 5 5 0 0 0-.56.66l.604.603a.375.375 0 1 1-.53.53l-.475-.473a5 5 0 0 0-.267.632l2.44 2.44a.4.4 0 0 1 .048.059q.306-.104.603-.252L7.874 3.96a.375.375 0 1 1 .53-.53l1.638 1.638q.365-.255.693-.583a.375.375 0 0 1 .53.53C9.954 6.327 8.133 6.942 6.487 6.622c.375 1.587-.2 3.371-1.472 4.643a.375.375 0 0 1-.53-.53q.328-.328.579-.697l-.677-.677a.375.375 0 1 1 .53-.53l.532.53a4.5 4.5 0 0 0 .231-.613l-.024-.022L3.25 6.32q-.33.097-.65.25l1.415 1.415a.375.375 0 0 1-.53.53L1.929 6.96a5 5 0 0 0-.664.556.375.375 0 0 1-.53-.53C2.007 5.713 3.79 5.138 5.378 5.513c-.32-1.646.295-3.467 1.607-4.778a.375.375 0 0 1 .53 0m.41 5.181L6.084 4.075A3.9 3.9 0 0 0 6.22 5.78a3.9 3.9 0 0 0 1.705.136m-2.26.561c.15.434.207.9.176 1.373L4.15 6.16c.473-.03.94.027 1.373.176l.106.036z" clip-rule="evenodd"/></g><defs><clipPath id="a"><path fill="#fff" d="M0 0h12v12H0z"/></clipPath></defs></svg>