<svg xmlns="http://www.w3.org/2000/svg" width="12" height="12" fill="none" viewBox="0 0 12 12"><path fill="#f5f6f9" d="M8.625 3.5a.375.375 0 0 0-.75 0v.625H7.25a.375.375 0 1 0 0 .75h.625V5.5a.375.375 0 1 0 .75 0v-.625h.625a.375.375 0 1 0 0-.75h-.625z"/><path fill="#f5f6f9" fill-rule="evenodd" d="M11.375 4.659c0-1.663-.741-2.904-1.895-3.356C8.413.885 7.13 1.198 6 2.257 4.87 1.198 3.587.885 2.52 1.303 1.366 1.755.625 2.996.625 4.66c0 1.059.565 2.1 1.269 2.998.71.906 1.604 1.718 2.35 2.324l.068.054c.6.488 1.033.84 1.688.84s1.088-.352 1.688-.84l.067-.054c.747-.606 1.64-1.418 2.351-2.324.704-.897 1.269-1.94 1.269-2.998M6.274 3.043c1.056-1.129 2.15-1.348 2.933-1.041.784.307 1.418 1.205 1.418 2.657 0 .806-.44 1.682-1.109 2.535-.662.845-1.508 1.616-2.233 2.204-.696.565-.922.727-1.283.727s-.587-.162-1.283-.727c-.725-.588-1.571-1.36-2.233-2.204-.67-.853-1.109-1.73-1.109-2.535 0-1.452.634-2.35 1.418-2.657.782-.307 1.877-.088 2.933 1.041a.375.375 0 0 0 .548 0" clip-rule="evenodd"/></svg>