<svg xmlns="http://www.w3.org/2000/svg" width="12" height="12" fill="none" viewBox="0 0 12 12"><path fill="#f5f6f9" fill-rule="evenodd" d="M8.28 1.735a.375.375 0 0 1 .53 0l1.455 1.454a.375.375 0 0 1-.53.53l-.462-.461-.56.56.43.432c.18.18.33.33.444.461.118.138.216.278.277.445.113.31.113.65 0 .96-.06.168-.16.308-.277.445-.113.132-.263.282-.443.462l-.333.333-1.09 1.09-.001.001-.728.727-.068.066a.4.4 0 0 1-.077.07 2.95 2.95 0 0 1-3.74.113l-.842.842a.375.375 0 0 1-.53-.53l.842-.843a2.95 2.95 0 0 1 .249-3.884l2.151-2.152c.18-.18.33-.33.462-.443.137-.118.277-.216.445-.277.31-.113.65-.113.96 0 .167.06.307.16.445.277.131.113.281.263.461.443l.432.432.56-.56-.462-.463a.375.375 0 0 1 0-.53M7.23 3.396a9 9 0 0 0-.43-.414.7.7 0 0 0-.213-.142.65.65 0 0 0-.447 0 .7.7 0 0 0-.213.142 9 9 0 0 0-.43.414l-.058.059L8.545 6.56l.059-.058c.192-.193.321-.323.414-.43a.7.7 0 0 0 .142-.213.65.65 0 0 0 0-.447.7.7 0 0 0-.142-.213 9 9 0 0 0-.414-.43zm.785 3.695L4.91 3.985 3.356 5.538a2.196 2.196 0 0 0 2.709 3.421l-.517-.517a.375.375 0 0 1 .53-.53l.558.558.288-.288-1.177-1.178a.375.375 0 1 1 .53-.53l1.178 1.177z" clip-rule="evenodd"/></svg>