<svg xmlns="http://www.w3.org/2000/svg" width="12" height="12" fill="none" viewBox="0 0 12 12"><path fill="#f5f6f9" fill-rule="evenodd" d="M7.25 5.125a1.375 1.375 0 1 0 0 2.75 1.375 1.375 0 0 0 0-2.75M6.625 6.5a.625.625 0 1 1 1.25 0 .625.625 0 0 1-1.25 0M4.125 4.5a.875.875 0 1 1 1.75 0 .875.875 0 0 1-1.75 0M5 4.375a.125.125 0 1 0 0 .25.125.125 0 0 0 0-.25" clip-rule="evenodd"/><path fill="#f5f6f9" d="M4.5 7a.5.5 0 1 0 0-1 .5.5 0 0 0 0 1"/><path fill="#f5f6f9" fill-rule="evenodd" d="M1.75.625a1.125 1.125 0 0 1 1.015 1.61l.753.753a3.8 3.8 0 0 1 1.47-.744 1.125 1.125 0 1 1 2.01.026c.536.15 1.026.411 1.444.757l.293-.292a1.125 1.125 0 1 1 .53.53l-.292.293c.318.385.565.832.72 1.318l.057-.001a1.125 1.125 0 1 1-.025 2.25 3.8 3.8 0 0 1-.95 1.62l.015.015a1.125 1.125 0 1 1-.53.53l-.065-.065c-.358.242-.76.424-1.191.533a1.125 1.125 0 0 1-2.025-.034 4 4 0 0 1-1.131-.533.4.4 0 0 1-.058.074l-.517.517a1.125 1.125 0 1 1-.522-.54l.509-.507.018-.017a3.94 3.94 0 0 1-1.008-1.72 1.125 1.125 0 1 1-.026-2.01c.14-.547.397-1.047.744-1.47l-.753-.753A1.125 1.125 0 1 1 1.75.625m.375 1.125a.375.375 0 1 0-.75 0 .375.375 0 0 0 .75 0m3.932 7.375a3.057 3.057 0 0 0 3.068-3.068v-.026a3.194 3.194 0 0 0-3.156-3.156A3.06 3.06 0 0 0 2.875 5.97a3.194 3.194 0 0 0 3.182 3.156m3.818-3.479a.375.375 0 0 1 0 .708zM9.75 1.875a.375.375 0 1 0 0 .75.375.375 0 0 0 0-.75m-8 3.75a.375.375 0 1 1 0 .75.375.375 0 0 1 0-.75m7.15 4.15a.375.375 0 1 0 .75 0 .375.375 0 0 0-.75 0m-6.65.85a.375.375 0 1 0 0-.75.375.375 0 0 0 0 .75M5.625 1.75a.375.375 0 1 1 .75 0 .375.375 0 0 1-.75 0" clip-rule="evenodd"/></svg>