<svg xmlns="http://www.w3.org/2000/svg" width="46" height="46" fill="none" viewBox="0 0 46 46"><path fill="#1e1e1e" d="M20.314 11c-5.153 0-9.318 3.797-9.318 8.47v.12c.52-.006.887-.067 1.192-.155.285-.082.529-.192.82-.332.209-3.5 3.395-6.285 7.306-6.285h6.524c3.901 0 7.097 2.786 7.316 6.287.288.14.53.248.812.33.306.09.675.15 1.2.156v-.122C36.155 14.796 31.98 11 26.838 11zm14.191 11.87a9 9 0 0 1-.686-.17c-.588-.17-1.14-.423-1.654-.657l-.453-.205c-.453-.198-.924-.339-1.788-.339-.646 0-1.205.122-1.773.347a10 10 0 0 0-.602.271l-.013.007a14 14 0 0 1-.706.32c-.47.195-1.012.37-1.68.48h9.355zm-22.374 1.766 7.182 1.464c2.797.57 5.708.57 8.506 0l7.182-1.464h.245c.973 0 1.825.784 1.825 1.819a1.824 1.824 0 0 1-1.825 1.818h-23.35a1.824 1.824 0 0 1-1.825-1.819c0-1.034.852-1.818 1.825-1.818zm9.882-1.712h-9.377v-.03c1.014-.192 1.718-.531 2.321-.825l.02-.01c.358-.174.634-.307.966-.403.324-.094.72-.157 1.294-.157s.969.063 1.292.156c.33.096.605.229.962.403l.022.01c.638.312 1.388.673 2.5.856"/><path fill="#1e1e1e" d="M26.778 14.429c0 .387-.346.701-.772.701s-.771-.314-.771-.701c0-.388.345-.702.771-.702s.772.314.772.702m-5.642.701c.426 0 .771-.314.771-.701 0-.388-.345-.702-.771-.702s-.772.314-.772.702.345.701.772.701m8.328 1.266c0 .388-.346.702-.772.702s-.772-.314-.772-.701c0-.388.346-.702.772-.702s.772.314.772.701m-11.014.702c.426 0 .772-.314.772-.701 0-.388-.346-.702-.772-.702s-.772.314-.772.701c0 .388.346.702.772.702m5.12.802c.427 0 .773-.314.773-.702s-.346-.701-.772-.701-.772.314-.772.701c0 .388.346.702.772.702M11.138 30.25v-1.167q.361.098.759.099h1.24v1.069c0 .997.79 1.658 1.576 1.658H32.41c.787 0 1.587-.663 1.595-1.671v-1.056h1.24q.399-.001.76-.1v1.164c-.013 1.847-1.537 3.481-3.595 3.481H14.712c-2.06 0-3.575-1.636-3.575-3.476m6.1-11.296c-1.799 0-2.747.459-3.591.87l-.035.016c-.344.168-.694.338-1.119.461-.438.127-.938.2-1.598.2-.492 0-.894.364-.894.817 0 .454.402.818.894.818 1.799 0 2.747-.458 3.591-.869l.035-.016c.344-.168.694-.338 1.12-.462.438-.126.937-.199 1.597-.199s1.158.072 1.596.2c.424.122.773.292 1.116.46l.036.017c.844.411 1.792.87 3.596.87 1.306 0 2.16-.242 2.836-.52.232-.096.445-.198.662-.302l.005-.002c.214-.103.438-.21.668-.3a5.7 5.7 0 0 1 2.172-.423c1.021 0 1.64.174 2.223.43q.267.117.517.232c.497.227.953.435 1.46.582a7.6 7.6 0 0 0 2.134.302c.492 0 .894-.364.894-.818s-.402-.818-.894-.818c-.66 0-1.158-.072-1.596-.199-.424-.123-.773-.293-1.115-.46l-.035-.017c-.455-.222-.917-.446-1.515-.612-.541-.15-1.205-.258-2.073-.258s-1.53.107-2.072.258c-.48.134-.91.319-1.372.518q-.28.12-.581.246c-.68.276-1.43.524-2.318.524-.663 0-1.164-.072-1.603-.199-.426-.123-.776-.294-1.119-.461l-.033-.017c-.843-.41-1.79-.869-3.589-.869m-4.474 4.88H34.37l-6.769 1.38a20.3 20.3 0 0 1-8.069 0z"/></svg>