<svg xmlns="http://www.w3.org/2000/svg" width="41" height="41" fill="none" viewBox="0 0 41 41"><path fill="#1e1e1e" d="M29.594 9.318a2.048 2.048 0 1 0 0 4.096 2.048 2.048 0 0 0 0-4.096m7.85 4.13a13 13 0 0 0-.785-4.147 8.4 8.4 0 0 0-1.98-3.02 8 8 0 0 0-3.02-1.963 12.5 12.5 0 0 0-4.147-.803c-1.81-.102-2.39-.102-7.032-.102s-5.222 0-7.032.102c-1.418.03-2.82.301-4.147.803a8.16 8.16 0 0 0-3.02 1.962 8 8 0 0 0-1.963 3.021 12.5 12.5 0 0 0-.802 4.147c-.103 1.81-.103 2.39-.103 7.032s0 5.222.103 7.031c.03 1.418.3 2.82.802 4.147A8 8 0 0 0 6.28 34.68a8.16 8.16 0 0 0 3.02 1.963c1.327.501 2.73.773 4.147.802 1.81.102 2.39.102 7.032.102s5.222 0 7.032-.102c1.417-.03 2.82-.3 4.147-.802a8 8 0 0 0 3.02-1.963 8.3 8.3 0 0 0 1.98-3.02c.487-1.33.752-2.732.785-4.148 0-1.809.103-2.39.103-7.031 0-4.642 0-5.223-.103-7.032m-3.072 13.858a9.6 9.6 0 0 1-.58 3.175 5.2 5.2 0 0 1-1.28 1.962c-.554.565-1.223 1.001-1.963 1.28a9.6 9.6 0 0 1-3.174.58c-1.707.086-2.338.103-6.827.103s-5.12 0-6.826-.102a9.8 9.8 0 0 1-3.311-.512 5.6 5.6 0 0 1-1.878-1.28 5.1 5.1 0 0 1-1.263-1.963 9.5 9.5 0 0 1-.682-3.243c0-1.706-.103-2.338-.103-6.826 0-4.489 0-5.12.103-6.827a9.5 9.5 0 0 1 .597-3.243 5.1 5.1 0 0 1 1.348-1.877 5.4 5.4 0 0 1 1.878-1.365 9.8 9.8 0 0 1 3.242-.58c1.707 0 2.339-.103 6.827-.103s5.12 0 6.827.102a9.6 9.6 0 0 1 3.174.58 5.2 5.2 0 0 1 2.031 1.366c.56.524.996 1.165 1.28 1.877.38 1.04.576 2.137.58 3.243.086 1.707.103 2.338.103 6.827s-.017 5.12-.103 6.826M20.48 11.725a8.755 8.755 0 1 0 8.772 8.755 8.74 8.74 0 0 0-8.772-8.755m0 14.438a5.684 5.684 0 1 1 0-11.368 5.684 5.684 0 0 1 0 11.368"/></svg>