<svg xmlns="http://www.w3.org/2000/svg" width="46" height="46" fill="none" viewBox="0 0 46 46"><g clip-path="url(#a)"><path fill="#1e1e1e" d="M22.302 37.016c1.72-.5 3.493-.885 5.24-1.334q1.008-.253 2.015-.518c.34-.09.666-.177 1.009-.273.172-.049.345-.099.51-.149.098-.03.165-.05.272-.087.05-.018.083-.029.15-.056.065-.034.08-.006.301-.175l.01-.01c.733-.574 1.467-1.145 2.203-1.705l.095-.095c2.377-2.686 4.903-4.519 6.23-9.151.034-.681-.14-1.095-.248-1.402a2.5 2.5 0 0 0-.3-.544 3 3 0 0 0-.298-.347 7 7 0 0 0-.42-.387c-.25-.212-.477-.39-.704-.565a53 53 0 0 0-1.34-.99c-2.943-2.099-5.904-4.083-8.903-6.045-.506-.329-1.005-.655-1.518-.985-.258-.165-.513-.329-.795-.502-.282-.166-.593-.386-1.209-.612-.634-.233-1.33-.524-2.185-.782-.86-.188-1.902-.721-3.825.056-3.06 1.398-4.645 3.973-6.082 6.024l-.77 1.156c-.705 1.06-1.411 2.117-2.117 3.2-.351.537-.705 1.086-1.058 1.657a26 26 0 0 0-.54.912c-.092.164-.187.34-.294.56a5 5 0 0 0-.179.412c-.03.08-.076.206-.114.35-.04.187-.119.368-.092.927.116.903.334 1.05.425 1.24.116.178.19.267.27.362.14.165.253.276.357.377.207.197.383.345.556.486.349.283.672.522.999.757.65.465 1.296.892 1.942 1.305a81 81 0 0 0 3.92 2.337c.525.293 1.045.585 1.63.886.596.269 1.226.729 2.594.816.554.012 1.538.003 2.421-.377 1.256-.514 2.736-1.408 3.725-2.498 1.19-1.287 2.753-2.518 4.058-4.443.204-.334.544-.78.748-1.552.096-.385.143-.94-.062-1.493a2.45 2.45 0 0 0-.923-1.169c-2.347-1.344-4.143-3.205-7.675-3.6-.383.01-.482.096-.588.136a2 2 0 0 0-.251.142c-.138.089-.248.173-.353.257-.21.169-.394.335-.574.504a21 21 0 0 0-1.016 1.034c-.648.718-1.26 1.385-1.823 2.303l-.335.434.51.391a602 602 0 0 0 4.025 2.156l.118.092.148-.114q.828-.908 1.653-1.818-.975.747-1.948 1.497l.266-.023a602 602 0 0 0-3.614-2.79l.176.825c.506-.59 1.244-1.214 1.932-1.773.35-.28.708-.555 1.064-.804.178-.124.357-.244.526-.343.083-.048.166-.093.229-.12.03-.013.057-.021.06-.018-.01 0 .015.038-.26.051 1.754.38 3.975 2.465 5.95 4.019-.013.006-.138-.08-.213-.264-.075-.183-.053-.33-.06-.34-.009-.018-.131.186-.378.482-.965 1.163-2.515 2.236-4.055 3.604-.764.68-1.492 1.032-2.553 1.398-.118.022-.232.03-.741-.012.174.026-.256-.125-.697-.403-.448-.267-.94-.58-1.43-.892-1.23-.783-2.441-1.58-3.617-2.4a47 47 0 0 1-1.705-1.24c-.27-.207-.531-.415-.757-.61a5 5 0 0 1-.273-.253c-.029-.03-.048-.054-.023-.026.016.018.038.04.102.137.027.043.075.119.132.244.044.101.156.348.188.744.022.485-.041.589-.06.692-.02.076-.034.113-.038.127-.012.03 0 .004.015-.025.034-.065.096-.174.16-.282.132-.224.29-.476.453-.727.324-.504.675-1.03 1.024-1.55.703-1.047 1.419-2.105 2.128-3.17q.387-.582.774-1.169c1.321-1.963 2.564-3.768 4.082-4.435-.264.112-.308.053-.177.064.125.003.365.043.635.113.549.14 1.216.379 1.96.618-.047-.032.16.061.398.195.237.13.493.277.75.424l1.556.896c3.074 1.77 6.192 3.539 9.235 5.309.456.267.907.534 1.333.8.212.131.422.266.594.383.084.058.163.116.19.133.013.007.01.005-.027-.05a1 1 0 0 1-.105-.195c.072.12.053.16.066-.052-.283 2.035-2.628 5.467-4.487 8.015l.095-.096q-.994 1.007-1.958 2.031l.01-.008c.175-.13.093-.056.086-.056-.03.017-.053.031-.088.049a19.976 19.976 0 0 1-.673.32c-.313.143-.62.28-.937.419q-.947.415-1.899.828c-1.648.727-3.33 1.41-4.939 2.218"/></g><defs><clipPath id="a"><path fill="#fff" d="M7 7h33v31H7z"/></clipPath></defs></svg>