<svg xmlns="http://www.w3.org/2000/svg" width="41" height="41" fill="none" viewBox="0 0 41 41"><path fill="#1e1e1e" d="M39.253 16.572A14.5 14.5 0 0 0 37.7 9.523a4.98 4.98 0 0 0-2.935-1.706c-4.749-.431-9.517-.608-14.285-.53A134 134 0 0 0 6.246 7.8a4.9 4.9 0 0 0-2.491 1.262c-1.536 1.417-1.707 3.84-1.878 5.889a82 82 0 0 0 0 11.059 16.3 16.3 0 0 0 .512 3.413c.206.862.622 1.66 1.212 2.321a4.9 4.9 0 0 0 2.543 1.331c3.68.454 7.387.643 11.093.563 5.974.086 11.213 0 17.408-.477a4.9 4.9 0 0 0 2.611-1.332 4.25 4.25 0 0 0 1.042-1.706c.61-1.873.91-3.833.887-5.803.068-.956.068-6.724.068-7.748m-22.63 8.772V14.78l10.103 5.307c-2.833 1.57-6.57 3.346-10.103 5.257"/></svg>