<svg xmlns="http://www.w3.org/2000/svg" width="16" height="16" fill="none" viewBox="0 0 16 16"><path fill="#f5f6f9" d="M11.333 9.333a.667.667 0 1 0 0-1.333.667.667 0 0 0 0 1.333M11.333 12a.667.667 0 1 0 0-1.333.667.667 0 0 0 0 1.333M8.667 8.667a.667.667 0 1 1-1.334 0 .667.667 0 0 1 1.334 0M8.667 11.333a.667.667 0 1 1-1.334 0 .667.667 0 0 1 1.334 0M4.667 9.333a.667.667 0 1 0 0-1.333.667.667 0 0 0 0 1.333M4.667 12a.667.667 0 1 0 0-1.333.667.667 0 0 0 0 1.333"/><path fill="#f5f6f9" fill-rule="evenodd" d="M4.667 1.167a.5.5 0 0 1 .5.5v.508c.441-.008.927-.008 1.462-.008h2.742c.535 0 1.021 0 1.462.008v-.508a.5.5 0 1 1 1 0v.551q.26.02.493.05c.782.106 1.414.327 1.913.826s.72 1.132.826 1.913c.102.76.102 1.73.102 2.955v1.409c0 1.225 0 2.195-.102 2.955-.105.782-.327 1.414-.826 1.913s-1.131.72-1.913.825c-.76.103-1.73.103-2.955.103H6.629c-1.225 0-2.195 0-2.955-.102-.782-.105-1.414-.327-1.913-.826s-.72-1.131-.826-1.913c-.102-.76-.102-1.73-.102-2.955V7.962c0-1.225 0-2.195.102-2.955.106-.781.327-1.414.826-1.913s1.131-.72 1.913-.825q.233-.031.493-.051v-.551a.5.5 0 0 1 .5-.5m-.86 2.093c-.67.09-1.057.26-1.339.541s-.451.669-.541 1.34a7 7 0 0 0-.04.359h12.225a7 7 0 0 0-.039-.36c-.09-.67-.259-1.057-.54-1.339-.283-.282-.67-.451-1.34-.541-.685-.092-1.588-.093-2.86-.093H6.667c-1.272 0-2.175 0-2.86.093M1.833 8c0-.57 0-1.065.01-1.5h12.315c.008.435.009.93.009 1.5v1.333c0 1.271-.001 2.175-.094 2.86-.09.67-.259 1.057-.54 1.339-.283.282-.67.451-1.34.541-.685.093-1.588.094-2.86.094H6.667c-1.272 0-2.175-.001-2.86-.094-.67-.09-1.057-.259-1.339-.541s-.451-.668-.541-1.34c-.093-.684-.094-1.588-.094-2.859z" clip-rule="evenodd"/></svg>