<svg xmlns="http://www.w3.org/2000/svg" width="16" height="16" fill="none" viewBox="0 0 16 16"><g fill="#f5f6f9" fill-rule="evenodd" clip-path="url(#a)" clip-rule="evenodd"><path d="M6.066 1.598a.5.5 0 0 1-.286.647 6 6 0 0 0-.28.116.5.5 0 1 1-.405-.914q.16-.072.325-.135a.5.5 0 0 1 .646.286m-2.3 1.229a.5.5 0 0 1-.018.707q-.11.104-.214.214a.5.5 0 1 1-.724-.69q.12-.128.248-.248a.5.5 0 0 1 .707.017M2.105 4.84a.5.5 0 0 1 .255.66 6 6 0 0 0-.116.279.5.5 0 1 1-.933-.36q.063-.165.135-.325a.5.5 0 0 1 .66-.254m-.759 2.495a.5.5 0 0 1 .488.512 6 6 0 0 0 0 .304.5.5 0 0 1-1 .024 7 7 0 0 1 0-.352.5.5 0 0 1 .512-.488m13.055 2.598a.5.5 0 0 1 .286.646q-.063.165-.135.325a.5.5 0 0 1-.914-.405q.062-.138.116-.28a.5.5 0 0 1 .647-.286m-12.804 0a.5.5 0 0 1 .647.286q.054.142.116.28a.5.5 0 0 1-.914.405 7 7 0 0 1-.135-.325.5.5 0 0 1 .286-.646m11.575 2.3a.5.5 0 0 1 .017.708q-.12.128-.248.248a.5.5 0 1 1-.69-.724q.11-.104.214-.214a.5.5 0 0 1 .707-.017m-10.346 0a.5.5 0 0 1 .707.018q.104.11.214.214a.5.5 0 1 1-.69.724 7 7 0 0 1-.248-.248.5.5 0 0 1 .017-.707m2.014 1.66a.5.5 0 0 1 .66-.255q.138.062.279.116a.5.5 0 1 1-.36.933 7 7 0 0 1-.325-.135.5.5 0 0 1-.254-.66m6.318 0a.5.5 0 0 1-.254.66 7 7 0 0 1-.325.134.5.5 0 0 1-.36-.933q.142-.054.28-.116a.5.5 0 0 1 .66.254m-3.823.759a.5.5 0 0 1 .512-.488 6 6 0 0 0 .304 0 .5.5 0 1 1 .024 1 7 7 0 0 1-.352 0 .5.5 0 0 1-.488-.512M7.5 1.333a.5.5 0 0 1 .5-.5A7.167 7.167 0 0 1 15.167 8a.5.5 0 1 1-1 0A6.167 6.167 0 0 0 8 1.833a.5.5 0 0 1-.5-.5M8 5.5a.5.5 0 0 1 .5.5v2.167h2.167a.5.5 0 1 1 0 1H8a.5.5 0 0 1-.5-.5V6a.5.5 0 0 1 .5-.5"/></g><defs><clipPath id="a"><path fill="#fff" d="M0 0h16v16H0z"/></clipPath></defs></svg>