<svg xmlns="http://www.w3.org/2000/svg" width="12" height="12" fill="none" viewBox="0 0 12 12"><path stroke="#f5f6f9" stroke-linecap="round" stroke-width=".75" d="M4 8c0 1.414 0 2.121.44 2.56C4.878 11 5.585 11 7 11h.5c1.414 0 2.121 0 2.56-.44.44-.439.44-1.146.44-2.56V4c0-1.414 0-2.121-.44-2.56C9.622 1 8.915 1 7.5 1H7c-1.414 0-2.121 0-2.56.44C4 1.878 4 2.585 4 4"/><path stroke="#f5f6f9" stroke-width=".75" d="M4 9.75c-1.179 0-1.768 0-2.134-.366S1.5 8.429 1.5 7.25v-2.5c0-1.179 0-1.768.366-2.134S2.821 2.25 4 2.25" opacity=".5"/><path stroke="#f5f6f9" stroke-linecap="round" stroke-linejoin="round" stroke-width=".75" d="M3 6h4.5m0 0L6.25 7.25M7.5 6 6.25 4.75"/></svg>