<svg xmlns="http://www.w3.org/2000/svg" width="12" height="12" fill="none" viewBox="0 0 12 12"><g fill="#f5f6f9" fill-rule="evenodd" clip-path="url(#a)" clip-rule="evenodd"><path d="M5.537 3.754c-.664-.392-1.412.141-1.412.853v2.786c0 .712.748 1.245 1.412.853l2.36-1.394c.637-.376.637-1.329 0-1.704zm-.662.853c0-.1.048-.17.105-.205a.16.16 0 0 1 .176-.002l2.36 1.393c.067.04.109.114.109.207a.23.23 0 0 1-.109.207L5.156 7.6a.16.16 0 0 1-.176-.002.23.23 0 0 1-.105-.205z"/><path d="M6 .625a5.375 5.375 0 1 0 0 10.75A5.375 5.375 0 0 0 6 .625M1.375 6a4.625 4.625 0 1 1 9.25 0 4.625 4.625 0 0 1-9.25 0"/></g><defs><clipPath id="a"><path fill="#fff" d="M0 0h12v12H0z"/></clipPath></defs></svg>