<svg xmlns="http://www.w3.org/2000/svg" width="10" height="10" fill="none" viewBox="0 0 10 10"><path fill="#f5f6f9" fill-rule="evenodd" d="M4.922 0c.233 0 .422.189.422.422v9a.422.422 0 0 1-.844 0v-9C4.5.189 4.689 0 4.922 0m-2.25 1.688c.233 0 .422.188.422.421v5.625a.422.422 0 0 1-.844 0V2.11c0-.233.189-.421.422-.421m4.5 0c.233 0 .422.188.422.421v5.625a.422.422 0 0 1-.844 0V2.11c0-.233.189-.421.422-.421m-6.75 2.25c.233 0 .422.188.422.421v1.125a.422.422 0 0 1-.844 0V4.36c0-.233.189-.421.422-.421m9 0c.233 0 .422.188.422.421v1.125a.422.422 0 0 1-.844 0V4.36c0-.233.189-.421.422-.421" clip-rule="evenodd"/></svg>