<svg xmlns="http://www.w3.org/2000/svg" width="12" height="12" fill="none" viewBox="0 0 12 12"><path fill="#f5f6f9" fill-rule="evenodd" d="M1.465 5.6c.036-2.48 2.073-4.475 4.574-4.475a4.58 4.58 0 0 1 3.908 2.179.375.375 0 1 1-.64.392A3.83 3.83 0 0 0 6.04 1.875c-2.092 0-3.787 1.664-3.823 3.724l.2-.199a.375.375 0 1 1 .528.533l-.84.833a.375.375 0 0 1-.528 0l-.84-.833a.375.375 0 1 1 .528-.533zm8.428-.367a.375.375 0 0 1 .527 0l.844.834a.375.375 0 0 1-.528.533l-.205-.203c-.034 2.483-2.08 4.478-4.59 4.478a4.6 4.6 0 0 1-3.92-2.178.375.375 0 1 1 .638-.394 3.85 3.85 0 0 0 3.282 1.822c2.103 0 3.805-1.666 3.84-3.727l-.204.202a.375.375 0 1 1-.527-.533z" clip-rule="evenodd"/></svg>