<svg width="12" height="12" viewBox="0 0 12 12" fill="none" xmlns="http://www.w3.org/2000/svg">
<path d="M6.03808 4.74007C6.17067 4.58097 6.14917 4.34451 5.99007 4.21192C5.83096 4.07933 5.5945 4.10083 5.46191 4.25993L4.21191 5.75993C4.11876 5.87171 4.09868 6.02729 4.1604 6.15906C4.22212 6.29083 4.35449 6.375 4.5 6.375H5.44936L4.71191 7.25993C4.57933 7.41904 4.60082 7.6555 4.75993 7.78808C4.91903 7.92067 5.15549 7.89917 5.28808 7.74007L6.53808 6.24007C6.63123 6.12829 6.65131 5.97271 6.58959 5.84094C6.52788 5.70917 6.3955 5.625 6.25 5.625H5.30064L6.03808 4.74007Z" fill="#F5F6F9"/>
<path fill-rule="evenodd" clip-rule="evenodd" d="M4.97179 1.625H5.77821C6.69709 1.62499 7.42491 1.62499 7.99451 1.70157C8.58072 1.78038 9.0552 1.94644 9.42938 2.32062C9.80356 2.6948 9.96962 3.16928 10.0484 3.75549C10.125 4.32509 10.125 5.0529 10.125 5.97177V6.02821C10.125 6.94708 10.125 7.67491 10.0484 8.24451C9.96962 8.83072 9.80356 9.3052 9.42938 9.67938C9.0552 10.0536 8.58072 10.2196 7.99451 10.2984C7.42491 10.375 6.6971 10.375 5.77823 10.375H4.9718C4.05292 10.375 3.32509 10.375 2.75549 10.2984C2.16928 10.2196 1.6948 10.0536 1.32062 9.67938C0.94644 9.3052 0.780382 8.83072 0.701568 8.24451C0.624986 7.67491 0.624992 6.94709 0.625 6.02821V5.97179C0.624992 5.05291 0.624986 4.3251 0.701568 3.75549C0.780382 3.16928 0.94644 2.6948 1.32062 2.32062C1.6948 1.94644 2.16928 1.78038 2.75549 1.70157C3.3251 1.62499 4.05291 1.62499 4.97179 1.625ZM2.85542 2.44488C2.35238 2.51251 2.06256 2.63935 1.85095 2.85095C1.63935 3.06256 1.51251 3.35238 1.44488 3.85542C1.3758 4.36926 1.375 5.04659 1.375 6C1.375 6.95341 1.3758 7.63074 1.44488 8.14458C1.51251 8.64762 1.63935 8.93744 1.85095 9.14905C2.06256 9.36065 2.35238 9.48749 2.85542 9.55512C3.36926 9.6242 4.04659 9.625 5 9.625H5.75C6.70341 9.625 7.38074 9.6242 7.89458 9.55512C8.39762 9.48749 8.68744 9.36065 8.89905 9.14905C9.11065 8.93744 9.23749 8.64762 9.30512 8.14458C9.3742 7.63074 9.375 6.95341 9.375 6C9.375 5.04659 9.3742 4.36926 9.30512 3.85542C9.23749 3.35238 9.11065 3.06256 8.89905 2.85095C8.68744 2.63935 8.39762 2.51251 7.89458 2.44488C7.38074 2.3758 6.70341 2.375 5.75 2.375H5C4.04659 2.375 3.36926 2.3758 2.85542 2.44488Z" fill="#F5F6F9"/>
<path d="M11 7.375C10.7929 7.375 10.625 7.20711 10.625 7L10.625 5C10.625 4.79289 10.7929 4.625 11 4.625C11.2071 4.625 11.375 4.79289 11.375 5L11.375 7C11.375 7.20711 11.2071 7.375 11 7.375Z" fill="#F5F6F9"/>
</svg>
