<svg xmlns="http://www.w3.org/2000/svg" width="12" height="12" fill="none" viewBox="0 0 12 12"><g fill="#f5f6f9" clip-path="url(#a)"><path d="M3.275 6.096c1.509-1.628 3.941-1.628 5.45 0a.375.375 0 1 0 .55-.51c-1.805-1.948-4.745-1.948-6.55 0a.375.375 0 1 0 .55.51"/><path d="M4.275 7.175c.956-1.032 2.494-1.032 3.45 0a.375.375 0 0 0 .55-.51c-1.253-1.352-3.297-1.352-4.55 0a.375.375 0 1 0 .55.51"/><path d="M5.275 8.255a.967.967 0 0 1 1.45 0 .375.375 0 1 0 .55-.51 1.717 1.717 0 0 0-2.55 0 .375.375 0 0 0 .55.51"/><path fill-rule="evenodd" d="M6 .625c-.354 0-.676.101-1.025.271-.337.164-.727.406-1.214.708l-1.033.641c-.46.286-.83.515-1.114.733-.294.225-.52.455-.683.753s-.237.615-.272.99c-.034.362-.034.806-.034 1.363v.806c0 .952 0 1.703.076 2.29.079.603.243 1.09.615 1.475.374.386.85.559 1.438.64.57.08 1.299.08 2.217.08h2.058c.918 0 1.647 0 2.217-.08.589-.081 1.064-.254 1.438-.64.372-.385.536-.872.615-1.474.076-.588.076-1.34.076-2.291v-.806c0-.557 0-1-.034-1.364-.035-.374-.109-.69-.272-.989-.163-.298-.39-.528-.684-.753-.284-.218-.653-.447-1.113-.733l-1.033-.64c-.487-.303-.877-.545-1.214-.709C6.675.726 6.355.625 6 .625M4.14 2.252c.508-.315.865-.536 1.163-.681.291-.142.497-.196.697-.196s.406.054.697.196c.298.145.655.366 1.163.681l1 .62c.48.299.818.509 1.07.701.244.188.385.343.482.518.096.177.152.383.182.7.03.323.031.732.031 1.311v.76c0 .986 0 1.689-.07 2.222-.068.524-.197.828-.41 1.05-.213.219-.501.35-1.002.419-.513.071-1.19.072-2.143.072H5c-.954 0-1.63 0-2.143-.072-.5-.07-.79-.2-1.002-.42-.213-.22-.342-.525-.41-1.049-.07-.533-.07-1.236-.07-2.222v-.76c0-.58 0-.988.03-1.311.03-.317.087-.523.184-.7.096-.175.237-.33.481-.518.252-.192.59-.402 1.07-.7z" clip-rule="evenodd"/></g><defs><clipPath id="a"><path fill="#fff" d="M0 0h12v12H0z"/></clipPath></defs></svg>