<svg xmlns="http://www.w3.org/2000/svg" width="12" height="12" fill="none" viewBox="0 0 12 12"><g fill="#f5f6f9" clip-path="url(#a)"><path d="M6.5 4a.5.5 0 1 0-1 0 .5.5 0 0 0 1 0M6 8.875a.375.375 0 0 0 .375-.375v-3a.375.375 0 1 0-.75 0v3c0 .207.168.375.375.375"/><path fill-rule="evenodd" d="M6.029.625H5.97c-1.154 0-2.058 0-2.764.095-.723.097-1.293.3-1.74.747S.817 2.484.72 3.207C.625 3.913.625 4.817.625 5.97v.058c0 1.154 0 2.058.095 2.764.097.723.3 1.293.747 1.74s1.017.65 1.74.747c.706.095 1.61.095 2.764.095h.058c1.154 0 2.058 0 2.764-.095.723-.097 1.293-.3 1.74-.747s.65-1.017.747-1.74c.095-.706.095-1.61.095-2.764V5.97c0-1.154 0-2.058-.095-2.764-.097-.723-.3-1.293-.747-1.74S9.516.817 8.793.72C8.087.625 7.183.625 6.03.625M1.997 1.997c.285-.284.67-.448 1.31-.534.65-.087 1.504-.088 2.693-.088s2.043 0 2.693.088c.64.086 1.025.25 1.31.534.284.285.448.67.534 1.31.087.65.088 1.504.088 2.693s0 2.043-.088 2.693c-.086.64-.25 1.025-.534 1.31-.285.284-.67.448-1.31.534-.65.087-1.504.088-2.693.088s-2.043 0-2.693-.088c-.64-.086-1.025-.25-1.31-.534-.284-.285-.448-.67-.534-1.31-.087-.65-.088-1.504-.088-2.693s0-2.043.088-2.693c.086-.64.25-1.025.534-1.31" clip-rule="evenodd"/></g><defs><clipPath id="a"><path fill="#fff" d="M0 0h12v12H0z"/></clipPath></defs></svg>