<svg xmlns="http://www.w3.org/2000/svg" width="12" height="12" fill="none" viewBox="0 0 12 12"><g clip-path="url(#a)"><path fill="#f5f6f9" fill-rule="evenodd" d="M4.5.625c.207 0 .375.168.375.375v.631q.35-.005.75-.006V1a.375.375 0 1 1 .75 0v.625q.4 0 .75.006V1a.375.375 0 1 1 .75 0v.664q.195.015.37.038c.586.078 1.06.244 1.434.619.375.374.54.848.62 1.434q.022.175.037.37H11a.375.375 0 0 1 0 .75h-.631q.005.35.006.75H11a.375.375 0 0 1 0 .75h-.625q0 .4-.006.75H11a.375.375 0 0 1 0 .75h-.664q-.014.195-.038.37c-.078.586-.244 1.06-.619 1.434-.374.375-.848.54-1.434.62q-.175.022-.37.037V11a.375.375 0 0 1-.75 0v-.631q-.35.005-.75.006V11a.375.375 0 0 1-.75 0v-.625q-.4 0-.75-.006V11a.375.375 0 0 1-.75 0v-.664a7 7 0 0 1-.37-.038c-.586-.078-1.06-.244-1.434-.619-.375-.374-.54-.848-.62-1.434a7 7 0 0 1-.037-.37H1a.375.375 0 1 1 0-.75h.631a43 43 0 0 1-.006-.75H1a.375.375 0 1 1 0-.75h.625q0-.4.006-.75H1a.375.375 0 1 1 0-.75h.664q.015-.195.038-.37c.078-.586.244-1.06.619-1.434.374-.375.848-.54 1.434-.62q.175-.023.37-.037V1c0-.207.168-.375.375-.375m-.645 1.82c-.503.068-.792.194-1.004.406s-.338.501-.406 1.004c-.07.514-.07 1.192-.07 2.145s0 1.63.07 2.145c.068.503.194.792.406 1.004s.501.338 1.004.406c.514.07 1.192.07 2.145.07s1.63 0 2.145-.07c.503-.068.792-.194 1.004-.406s.338-.501.406-1.004c.07-.514.07-1.192.07-2.145s0-1.63-.07-2.145c-.068-.503-.194-.792-.406-1.004s-.501-.338-1.004-.406c-.514-.07-1.192-.07-2.145-.07s-1.63 0-2.145.07m1.12.68h2.05c.332 0 .619 0 .848.03.246.034.481.108.673.3.19.19.265.426.298.672.031.23.031.516.031.848v2.05c0 .332 0 .619-.03.848-.034.246-.108.481-.3.673-.19.19-.426.265-.672.298-.23.031-.516.031-.848.031h-2.05c-.332 0-.619 0-.848-.03-.246-.034-.481-.108-.672-.3-.192-.19-.266-.426-.3-.672-.03-.23-.03-.516-.03-.848v-2.05c0-.332 0-.619.03-.848.034-.246.108-.481.3-.672.19-.192.426-.266.672-.3.23-.03.516-.03.848-.03m-.748.774c-.163.022-.214.057-.242.086-.029.028-.064.08-.086.242-.023.173-.024.409-.024.773v2c0 .364 0 .6.024.773.022.163.057.214.086.242.028.029.08.064.242.086.173.023.409.024.773.024h2c.364 0 .6 0 .773-.024.163-.022.214-.057.242-.086.029-.028.064-.08.086-.242.023-.173.024-.409.024-.773V5c0-.364 0-.6-.024-.773-.022-.163-.057-.214-.086-.242-.028-.029-.08-.064-.242-.086-.173-.023-.409-.024-.773-.024H5c-.364 0-.6 0-.773.024" clip-rule="evenodd"/></g><defs><clipPath id="a"><path fill="#fff" d="M0 0h12v12H0z"/></clipPath></defs></svg>