<svg xmlns="http://www.w3.org/2000/svg" width="12" height="12" fill="none" viewBox="0 0 12 12"><path fill="#f5f6f9" fill-rule="evenodd" d="M6 1.375a3.375 3.375 0 0 0-2.25 5.89l.002.002c.278.25.49.439.64.577.143.13.256.237.315.31l.006.008c.11.137.207.256.27.398s.089.293.117.467l.001.01c.014.089.02.198.023.338h1.752c.003-.14.008-.25.023-.338l.001-.01c.028-.174.053-.325.116-.467.064-.142.16-.261.27-.398l.007-.008c.06-.073.172-.18.314-.31l.641-.577.002-.002A3.375 3.375 0 0 0 6 1.375m.872 8.75H5.128q.002.078.008.139c.01.112.027.153.04.174q.05.086.136.137c.02.012.062.029.174.039.118.01.273.011.514.011.24 0 .396 0 .514-.011a.4.4 0 0 0 .173-.04.4.4 0 0 0 .138-.136.4.4 0 0 0 .039-.174 2 2 0 0 0 .008-.139M1.875 4.75a4.125 4.125 0 1 1 6.876 3.074c-.281.252-.49.438-.637.573a8 8 0 0 0-.233.224l-.005.005c-.13.161-.158.202-.175.24s-.029.086-.062.29c-.013.08-.014.219-.014.594v.016c0 .22 0 .41-.014.565a1.14 1.14 0 0 1-.137.482c-.098.17-.24.313-.412.411a1.14 1.14 0 0 1-.48.137c-.156.014-.346.014-.566.014h-.032c-.22 0-.41 0-.565-.014a1.14 1.14 0 0 1-.481-.137 1.1 1.1 0 0 1-.412-.412 1.14 1.14 0 0 1-.137-.48c-.014-.156-.014-.346-.014-.566V9.75c0-.375-.001-.513-.014-.594-.033-.204-.045-.253-.062-.29-.017-.038-.045-.079-.175-.24l-.005-.005a1 1 0 0 0-.061-.063l-.172-.16a84 84 0 0 0-.637-.574A4.12 4.12 0 0 1 1.875 4.75" clip-rule="evenodd"/><path fill="#f5f6f9" fill-rule="evenodd" d="M6.61 3.945c.17.12.208.354.088.523l-.648.907h.771a.375.375 0 0 1 .306.593l-1.072 1.5a.375.375 0 1 1-.61-.436l.648-.907H5.32a.375.375 0 0 1-.305-.593l1.072-1.5a.375.375 0 0 1 .523-.087" clip-rule="evenodd"/></svg>