<svg xmlns="http://www.w3.org/2000/svg" width="12" height="12" fill="none" viewBox="0 0 12 12"><g clip-path="url(#a)"><path fill="#f5f6f9" fill-rule="evenodd" d="M6 1.375c-2.551 0-4.625 2.086-4.625 4.667 0 2.261 1.594 4.145 3.706 4.574.254.052.544-.162.544-.541V7.837A1.876 1.876 0 0 1 4.125 6v-.1c0-.42.334-.761.75-.775V4.5a.375.375 0 1 1 .75 0v.625h.75V4.5a.375.375 0 1 1 .75 0v.625c.416.014.75.355.75.775V6c0 .907-.644 1.664-1.5 1.837v2.238c0 .734-.614 1.445-1.443 1.276-2.46-.5-4.307-2.688-4.307-5.31C.625 3.054 3.029.626 6 .626s5.375 2.428 5.375 5.417a5.42 5.42 0 0 1-3.028 4.874.375.375 0 0 1-.33-.674 4.67 4.67 0 0 0 2.608-4.2c0-2.58-2.074-4.667-4.625-4.667m-1.1 4.5a.025.025 0 0 0-.025.025V6a1.125 1.125 0 0 0 2.25 0v-.1a.025.025 0 0 0-.025-.025z" clip-rule="evenodd"/></g><defs><clipPath id="a"><path fill="#fff" d="M0 0h12v12H0z"/></clipPath></defs></svg>