<svg xmlns="http://www.w3.org/2000/svg" width="12" height="12" fill="none" viewBox="0 0 12 12"><path fill="#f5f6f9" fill-rule="evenodd" d="M2.487 1.125h7.026c.222 0 .407 0 .56.01.158.011.308.035.453.095.337.14.605.407.744.744.06.145.084.295.095.453.01.153.01.338.01.56v.026c0 .222 0 .407-.01.56a1.4 1.4 0 0 1-.095.453 1.4 1.4 0 0 1-.326.474c.14.132.251.293.326.474.06.145.084.295.095.453.01.153.01.338.01.56v.026c0 .222 0 .407-.01.56a1.4 1.4 0 0 1-.095.453 1.4 1.4 0 0 1-.326.474c.14.132.251.293.326.474.06.145.084.295.095.453.01.153.01.338.01.56v.026c0 .222 0 .407-.01.56a1.4 1.4 0 0 1-.095.453c-.14.337-.407.605-.744.744a1.4 1.4 0 0 1-.453.095c-.153.01-.338.01-.56.01H2.487c-.222 0-.407 0-.56-.01a1.4 1.4 0 0 1-.453-.095 1.38 1.38 0 0 1-.744-.744 1.4 1.4 0 0 1-.095-.453 9 9 0 0 1-.01-.56v-.026c0-.222 0-.407.01-.56.011-.158.035-.308.095-.453.075-.181.187-.342.326-.474a1.4 1.4 0 0 1-.326-.474 1.4 1.4 0 0 1-.095-.453 9 9 0 0 1-.01-.56v-.026c0-.222 0-.407.01-.56.011-.158.035-.308.095-.453.075-.181.187-.342.326-.474a1.4 1.4 0 0 1-.326-.474 1.4 1.4 0 0 1-.095-.453 9 9 0 0 1-.01-.56v-.026c0-.222 0-.407.01-.56.011-.158.035-.308.095-.453.14-.337.407-.605.744-.744.145-.06.295-.084.453-.095.153-.01.338-.01.56-.01m.013 3c-.238 0-.398 0-.522-.009a.7.7 0 0 1-.217-.039.63.63 0 0 1-.338-.338.7.7 0 0 1-.04-.217A9 9 0 0 1 1.376 3c0-.238 0-.398.009-.522a.7.7 0 0 1 .039-.217.63.63 0 0 1 .338-.338.7.7 0 0 1 .217-.04c.124-.008.284-.008.522-.008h7c.238 0 .398 0 .522.009a.7.7 0 0 1 .217.039.63.63 0 0 1 .338.338c.016.038.031.097.04.217.008.124.008.284.008.522s0 .398-.009.522a.7.7 0 0 1-.039.217.63.63 0 0 1-.338.338.7.7 0 0 1-.217.04 9 9 0 0 1-.522.008zm0 .75c-.238 0-.398 0-.522.009a.7.7 0 0 0-.217.039.63.63 0 0 0-.338.338.7.7 0 0 0-.04.217A9 9 0 0 0 1.376 6c0 .238 0 .398.009.522a.7.7 0 0 0 .039.217.63.63 0 0 0 .338.338.7.7 0 0 0 .217.04c.124.008.284.008.522.008h7c.238 0 .398 0 .522-.009a.7.7 0 0 0 .217-.039.63.63 0 0 0 .338-.338.7.7 0 0 0 .04-.217c.008-.124.008-.284.008-.522s0-.398-.009-.522a.7.7 0 0 0-.039-.217.63.63 0 0 0-.338-.338.7.7 0 0 0-.217-.04 9 9 0 0 0-.522-.008zm0 3c-.238 0-.398 0-.522.009a.7.7 0 0 0-.217.039.63.63 0 0 0-.338.338.7.7 0 0 0-.04.217A9 9 0 0 0 1.376 9c0 .238 0 .398.009.522a.7.7 0 0 0 .039.217.63.63 0 0 0 .338.338c.038.016.097.031.217.04.124.008.284.008.522.008h7c.238 0 .398 0 .522-.009a.7.7 0 0 0 .217-.039.63.63 0 0 0 .338-.338.7.7 0 0 0 .04-.217c.008-.124.008-.284.008-.522s0-.398-.009-.522a.7.7 0 0 0-.039-.217.63.63 0 0 0-.338-.338.7.7 0 0 0-.217-.04 9 9 0 0 0-.522-.008z" clip-rule="evenodd"/><path fill="#f5f6f9" d="M3 6a.5.5 0 1 1-1 0 .5.5 0 0 1 1 0M3 3a.5.5 0 1 1-1 0 .5.5 0 0 1 1 0M3 9a.5.5 0 1 1-1 0 .5.5 0 0 1 1 0"/></svg>