<svg xmlns="http://www.w3.org/2000/svg" width="12" height="12" fill="none" viewBox="0 0 12 12"><g clip-path="url(#a)"><path fill="#f5f6f9" fill-rule="evenodd" d="M8.9 1.649c.223-.127.359-.203.464-.245a.4.4 0 0 1 .09-.028q.017-.002.017 0 .003-.001.014.007a.4.4 0 0 1 .064.068c.068.087.146.22.275.439l.525.892c.129.22.206.352.248.454.02.047.026.073.027.086l.001.008v.003l-.006.008a.4.4 0 0 1-.069.062 5 5 0 0 1-.447.272l-1.868 1.06c-.21.12-.337.19-.434.23a.4.4 0 0 1-.08.024h-.009l-.005-.003a.4.4 0 0 1-.057-.062 4 4 0 0 1-.262-.417l-.56-.953a4 4 0 0 1-.243-.444.4.4 0 0 1-.027-.088V3.02l.002-.002.002-.003a.4.4 0 0 1 .064-.058c.086-.066.215-.14.432-.263zM9.663.65a.9.9 0 0 0-.58.057c-.157.064-.336.165-.533.277L6.669 2.053a5 5 0 0 0-.497.307.87.87 0 0 0-.338.464l-1.74.987-.02.011c-.19.108-.365.208-.496.307a.87.87 0 0 0-.337.464l-1.714.973-.02.011a5 5 0 0 0-.51.316.88.88 0 0 0-.345.471.87.87 0 0 0 .059.582c.065.155.168.331.282.525l.023.039c.114.193.218.37.321.502a.9.9 0 0 0 .476.338.9.9 0 0 0 .58-.058c.157-.063.336-.165.533-.277l1.728-.98.009.002a.87.87 0 0 0 .562-.054l.073-.031-1.644 3.903a.375.375 0 0 0 .692.29L6 7.217l1.654 3.93a.375.375 0 0 0 .692-.292L6.436 6.32l1.073-.609.01.003a.87.87 0 0 0 .562-.054c.15-.06.32-.157.505-.262l1.907-1.082c.197-.112.376-.214.51-.316a.9.9 0 0 0 .345-.471.87.87 0 0 0-.059-.582c-.065-.155-.168-.331-.282-.525l-.536-.912-.011-.02a5 5 0 0 0-.322-.502.9.9 0 0 0-.475-.337M1.897 6.218l1.499-.85q.081.148.18.316l.012.02.309.525q.085.15.166.278l-1.488.845a5 5 0 0 1-.463.244.4.4 0 0 1-.091.028q-.015.002-.017 0-.002.001-.013-.007a.4.4 0 0 1-.064-.068 4 4 0 0 1-.276-.439 4 4 0 0 1-.248-.454.4.4 0 0 1-.027-.085V6.56l.005-.008a.4.4 0 0 1 .069-.062c.09-.068.224-.145.447-.272m4.092-2.62-1.524.865a4 4 0 0 0-.433.263.4.4 0 0 0-.067.063v.008a.4.4 0 0 0 .026.083c.042.099.117.228.243.443l.298.507c.123.21.197.335.262.417a.4.4 0 0 0 .062.065h.008a.4.4 0 0 0 .08-.025c.098-.039.224-.11.436-.23l.387-.22.376-.213.776-.44q-.08-.13-.166-.278l-.583-.992c-.065-.111-.128-.217-.18-.316" clip-rule="evenodd"/></g><defs><clipPath id="a"><path fill="#fff" d="M0 0h12v12H0z"/></clipPath></defs></svg>