<svg xmlns="http://www.w3.org/2000/svg" width="12" height="12" fill="none" viewBox="0 0 12 12"><path fill="#f5f6f9" fill-rule="evenodd" d="M5.472.625h1.056c.92 0 1.647 0 2.217.077.586.078 1.06.244 1.434.619.375.374.54.848.62 1.434.076.57.076 1.298.076 2.217v2.056c0 .92 0 1.647-.077 2.217-.078.586-.244 1.06-.619 1.434-.374.375-.848.54-1.434.62-.57.076-1.298.076-2.217.076H5.472c-.92 0-1.647 0-2.217-.077-.586-.078-1.06-.244-1.434-.619-.375-.374-.54-.848-.62-1.434-.076-.57-.076-1.298-.076-2.217V4.972c0-.92 0-1.647.077-2.217.078-.586.244-1.06.619-1.434.374-.375.848-.54 1.434-.62.57-.076 1.298-.076 2.217-.076m-2.117.82c-.503.068-.792.194-1.004.406s-.338.501-.406 1.004c-.07.514-.07 1.192-.07 2.145v2c0 .953 0 1.63.07 2.145.068.503.194.792.406 1.004s.501.339 1.004.406c.514.07 1.192.07 2.145.07h1c.953 0 1.63 0 2.145-.07.503-.067.792-.194 1.004-.406s.338-.501.406-1.004c.07-.514.07-1.192.07-2.145V5c0-.953 0-1.63-.07-2.145-.068-.503-.194-.792-.406-1.004s-.501-.338-1.004-.406c-.514-.07-1.192-.07-2.145-.07h-1c-.953 0-1.63 0-2.145.07m1.022.945a9.9 9.9 0 0 1 3.246 0l.213.036a1.375 1.375 0 0 1 1.05 1.867l-.332.832a1.01 1.01 0 0 1-1.182.604 5.66 5.66 0 0 0-2.744 0 1.01 1.01 0 0 1-1.182-.604l-.333-.832a1.375 1.375 0 0 1 1.05-1.867zm3.123.74a9.1 9.1 0 0 0-3 0l-.213.036a.625.625 0 0 0-.477.848l.332.832a.26.26 0 0 0 .305.156q.118-.03.238-.055L4.4 4.15a.375.375 0 1 1 .706-.253l.337.938a6.4 6.4 0 0 1 2.111.167.26.26 0 0 0 .305-.156l.332-.832a.625.625 0 0 0-.477-.848zM3.625 9c0-.207.168-.375.375-.375h4a.375.375 0 1 1 0 .75H4A.375.375 0 0 1 3.625 9" clip-rule="evenodd"/></svg>