<svg xmlns="http://www.w3.org/2000/svg" width="12" height="12" fill="none" viewBox="0 0 12 12"><g fill="#f5f6f9" fill-rule="evenodd" clip-path="url(#a)" clip-rule="evenodd"><path d="M6 4.125a1.875 1.875 0 1 0 0 3.75 1.875 1.875 0 0 0 0-3.75M4.875 6a1.125 1.125 0 1 1 2.25 0 1.125 1.125 0 0 1-2.25 0"/><path d="M5.987.625c-.222 0-.407 0-.56.01C5.27.646 5.12.67 4.974.73c-.337.14-.605.407-.744.744a1.6 1.6 0 0 0-.1.561.43.43 0 0 1-.208.366.43.43 0 0 1-.42-.003 1.6 1.6 0 0 0-.537-.194 1.38 1.38 0 0 0-1.016.272c-.125.096-.22.214-.309.346a9 9 0 0 0-.289.48l-.012.021c-.111.193-.204.354-.271.49-.07.143-.125.285-.145.44-.048.362.05.728.272 1.017.116.15.266.26.436.367A.43.43 0 0 1 1.844 6a.43.43 0 0 1-.213.363 1.6 1.6 0 0 0-.436.367c-.222.29-.32.655-.272 1.016.02.156.075.298.145.44.067.137.16.298.27.49l.013.022c.112.193.204.354.29.48.088.132.183.25.308.346.29.222.655.32 1.016.272.189-.025.359-.1.536-.194a.43.43 0 0 1 .42-.003c.121.07.203.205.209.366.007.201.027.386.1.561.14.337.407.605.744.744.145.06.295.084.453.095.153.01.338.01.56.01h.026c.222 0 .407 0 .56-.01a1.4 1.4 0 0 0 .453-.095c.337-.14.605-.407.744-.744a1.6 1.6 0 0 0 .1-.561.43.43 0 0 1 .208-.366.43.43 0 0 1 .42.003c.178.094.348.17.537.194.361.048.727-.05 1.016-.272a1.4 1.4 0 0 0 .309-.346c.085-.126.177-.287.289-.48l.012-.021c.111-.193.204-.354.271-.49.07-.143.125-.285.145-.44a1.38 1.38 0 0 0-.272-1.017 1.6 1.6 0 0 0-.436-.367.43.43 0 0 1-.213-.363c0-.139.076-.277.213-.363.17-.107.32-.216.436-.367.222-.29.32-.655.272-1.016a1.4 1.4 0 0 0-.145-.44c-.067-.137-.16-.298-.27-.49l-.013-.022a9 9 0 0 0-.29-.48 1.4 1.4 0 0 0-.308-.346 1.38 1.38 0 0 0-1.016-.272 1.6 1.6 0 0 0-.536.194.43.43 0 0 1-.421.003.43.43 0 0 1-.208-.366 1.6 1.6 0 0 0-.1-.561A1.38 1.38 0 0 0 7.026.73a1.4 1.4 0 0 0-.453-.095 9 9 0 0 0-.56-.01zm-.726.798a.7.7 0 0 1 .217-.04c.124-.008.284-.008.522-.008s.398 0 .522.009a.7.7 0 0 1 .217.039.63.63 0 0 1 .338.338c.02.048.037.123.044.302.015.396.219.778.582.987.363.21.796.196 1.146.01.158-.083.232-.106.284-.113a.63.63 0 0 1 .462.124.7.7 0 0 1 .142.17c.07.102.15.24.268.446.12.207.2.345.254.457a.7.7 0 0 1 .075.207.63.63 0 0 1-.124.462c-.032.042-.089.094-.24.19-.336.21-.564.578-.564.997s.228.787.564.998c.151.095.208.147.24.188.1.132.145.298.124.463a.7.7 0 0 1-.075.207c-.055.112-.135.25-.254.456s-.199.345-.268.448a.7.7 0 0 1-.142.169.63.63 0 0 1-.463.124c-.051-.007-.125-.03-.283-.114a1.18 1.18 0 0 0-1.146.01c-.363.21-.567.592-.582.988-.007.179-.024.254-.044.302a.63.63 0 0 1-.338.338.7.7 0 0 1-.217.04 9 9 0 0 1-.522.008c-.238 0-.398 0-.522-.009a.7.7 0 0 1-.217-.039.63.63 0 0 1-.338-.338c-.02-.048-.037-.123-.044-.302a1.18 1.18 0 0 0-.582-.987 1.18 1.18 0 0 0-1.146-.01c-.158.083-.232.106-.284.113a.63.63 0 0 1-.462-.124.7.7 0 0 1-.142-.17 9 9 0 0 1-.268-.447 9 9 0 0 1-.254-.456.7.7 0 0 1-.075-.207.63.63 0 0 1 .124-.462c.032-.042.089-.094.24-.189.336-.211.564-.579.564-.998s-.228-.787-.564-.998c-.151-.095-.208-.147-.24-.189a.63.63 0 0 1-.124-.462.7.7 0 0 1 .075-.207c.055-.112.135-.25.254-.457.119-.206.199-.344.268-.447a.7.7 0 0 1 .142-.169.63.63 0 0 1 .463-.124c.051.007.125.03.283.114.35.185.783.199 1.146-.01s.567-.592.582-.988c.007-.179.024-.254.044-.302a.63.63 0 0 1 .338-.338"/></g><defs><clipPath id="a"><rect width="12" height="12" fill="#fff" rx="5"/></clipPath></defs></svg>