<svg xmlns="http://www.w3.org/2000/svg" width="12" height="12" fill="none" viewBox="0 0 12 12"><path fill="#f5f6f9" d="M8.48 4.875a.375.375 0 0 1-.376-.375V1a.375.375 0 1 1 .75 0v3.5a.375.375 0 0 1-.375.375"/><path fill="#f5f6f9" fill-rule="evenodd" d="M3.5 2.875a1.875 1.875 0 1 1 0 3.75 1.875 1.875 0 0 1 0-3.75M4.625 4.75a1.125 1.125 0 1 0-2.25 0 1.125 1.125 0 0 0 2.25 0M8.5 9.125a1.875 1.875 0 1 0 0-3.75 1.875 1.875 0 0 0 0 3.75M9.625 7.25a1.125 1.125 0 1 1-2.25 0 1.125 1.125 0 0 1 2.25 0" clip-rule="evenodd"/><path fill="#f5f6f9" d="M3.104 7.5a.375.375 0 1 1 .75 0V11a.375.375 0 0 1-.75 0zM8.48 11.375A.375.375 0 0 1 8.103 11v-1a.375.375 0 1 1 .75 0v1a.375.375 0 0 1-.375.375M3.104 1a.375.375 0 1 1 .75 0v1a.375.375 0 1 1-.75 0z"/></svg>