<svg xmlns="http://www.w3.org/2000/svg" width="12" height="12" fill="none" viewBox="0 0 12 12"><g fill="#f5f6f9" fill-rule="evenodd" clip-path="url(#a)" clip-rule="evenodd"><path d="M3.224.875c-.45 0-.824 0-1.121.04-.314.042-.598.135-.825.363-.228.227-.32.51-.363.825-.04.297-.04.672-.04 1.121v.052c0 .45 0 .824.04 1.121.042.314.135.598.363.825.227.228.51.32.825.363.297.04.672.04 1.121.04h.052c.45 0 .824 0 1.121-.04.314-.042.598-.135.825-.363.228-.227.32-.51.363-.825.04-.297.04-.672.04-1.121v-.052c0-.45 0-.824-.04-1.121-.042-.314-.135-.598-.363-.825-.227-.228-.51-.32-.825-.363-.297-.04-.672-.04-1.121-.04zm-1.416.933c.065-.065.164-.119.395-.15.241-.032.565-.033 1.047-.033s.806 0 1.047.033c.231.031.33.085.395.15s.119.164.15.395c.032.241.033.565.033 1.047s0 .806-.033 1.047c-.031.231-.085.33-.15.395s-.164.119-.395.15c-.241.032-.565.033-1.047.033s-.806 0-1.047-.033c-.231-.031-.33-.085-.395-.15s-.119-.164-.15-.395c-.032-.241-.033-.565-.033-1.047s0-.806.033-1.047c.031-.231.085-.33.15-.395M8.724 6.375c-.45 0-.824 0-1.121.04-.314.042-.598.135-.825.363-.228.227-.32.51-.363.825-.04.297-.04.672-.04 1.121v.052c0 .45 0 .824.04 1.121.042.314.135.598.363.825.227.228.51.32.825.363.297.04.672.04 1.121.04h.052c.45 0 .824 0 1.121-.04.314-.042.598-.135.825-.363.228-.227.32-.51.363-.825.04-.297.04-.672.04-1.121v-.052c0-.45 0-.824-.04-1.121-.042-.314-.135-.598-.363-.825-.227-.228-.51-.32-.825-.363-.297-.04-.672-.04-1.121-.04zm-1.416.933c.065-.065.164-.119.395-.15.241-.032.565-.033 1.047-.033s.806 0 1.047.033c.231.031.33.085.395.15s.119.164.15.395c.032.241.033.565.033 1.047s0 .806-.033 1.047c-.031.231-.085.33-.15.395s-.164.119-.395.15c-.241.032-.565.033-1.047.033s-.806 0-1.047-.033c-.231-.031-.33-.085-.395-.15s-.119-.164-.15-.395c-.032-.241-.033-.565-.033-1.047s0-.806.033-1.047c.031-.231.085-.33.15-.395M3.224 6.375h.052c.45 0 .824 0 1.121.04.314.042.598.135.825.363.228.227.32.51.363.825.04.297.04.672.04 1.121v.052c0 .45 0 .824-.04 1.121-.042.314-.135.598-.363.825-.227.228-.51.32-.825.363-.297.04-.672.04-1.121.04h-.052c-.45 0-.824 0-1.121-.04-.314-.042-.598-.135-.825-.363-.228-.227-.32-.51-.363-.825-.04-.297-.04-.672-.04-1.121v-.052c0-.45 0-.824.04-1.121.042-.314.135-.598.363-.825.227-.228.51-.32.825-.363.297-.04.672-.04 1.121-.04m-1.021.783c-.231.031-.33.085-.395.15s-.119.164-.15.395c-.032.241-.033.565-.033 1.047s0 .806.033 1.047c.031.231.085.33.15.395s.164.119.395.15c.241.032.565.033 1.047.033s.806 0 1.047-.033c.231-.031.33-.085.395-.15s.119-.164.15-.395c.032-.241.033-.565.033-1.047s0-.806-.033-1.047c-.031-.231-.085-.33-.15-.395s-.164-.119-.395-.15c-.241-.032-.565-.033-1.047-.033s-.806 0-1.047.033M8.724.875c-.45 0-.824 0-1.121.04-.314.042-.598.135-.825.363-.228.227-.32.51-.363.825-.04.297-.04.672-.04 1.121v.052c0 .45 0 .824.04 1.121.042.314.135.598.363.825.227.228.51.32.825.363.297.04.672.04 1.121.04h.052c.45 0 .824 0 1.121-.04.314-.042.598-.135.825-.363.228-.227.32-.51.363-.825.04-.297.04-.672.04-1.121v-.052c0-.45 0-.824-.04-1.121-.042-.314-.135-.598-.363-.825-.227-.228-.51-.32-.825-.363-.297-.04-.672-.04-1.121-.04zm-1.416.933c.065-.065.164-.119.395-.15.241-.032.565-.033 1.047-.033s.806 0 1.047.033c.231.031.33.085.395.15s.119.164.15.395c.032.241.033.565.033 1.047s0 .806-.033 1.047c-.031.231-.085.33-.15.395s-.164.119-.395.15c-.241.032-.565.033-1.047.033s-.806 0-1.047-.033c-.231-.031-.33-.085-.395-.15s-.119-.164-.15-.395c-.032-.241-.033-.565-.033-1.047s0-.806.033-1.047c.031-.231.085-.33.15-.395"/></g><defs><clipPath id="a"><rect width="12" height="12" fill="#fff" rx="5"/></clipPath></defs></svg>