<svg xmlns="http://www.w3.org/2000/svg" width="16" height="16" fill="none" viewBox="0 0 16 16"><path stroke="#f5f6f9" d="M3.78 6.61 5.82 3.848c1.32-1.786 1.98-2.678 2.595-2.49.616.189.616 1.284.616 3.473v.207c0 .79 0 1.185.252 1.432l.013.013c.258.243.67.243 1.491.243 1.48 0 2.219 0 2.469.448l.012.023c.236.455-.192 1.035-1.049 2.193l-2.041 2.762c-1.32 1.786-1.98 2.679-2.595 2.49s-.616-1.284-.616-3.473v-.207c0-.79 0-1.184-.252-1.432l-.013-.013c-.258-.243-.67-.243-1.491-.243-1.48 0-2.22 0-2.469-.448l-.012-.023c-.236-.455.192-1.035 1.049-2.193Z"/></svg>