<svg xmlns="http://www.w3.org/2000/svg" width="16" height="16" fill="none" viewBox="0 0 16 16"><g stroke="#f5f6f9" clip-path="url(#a)"><path d="m6.142 6.782 1.343-1.07c.868-.69 1.303-1.037 1.575-.866.273.17.132.7-.152 1.757l-.026.1c-.103.381-.154.572-.064.724l.005.008c.093.15.291.204.688.31.715.192 1.072.288 1.135.537l.003.012c.055.25-.227.475-.79.924l-1.344 1.07c-.868.691-1.303 1.037-1.576.866-.272-.17-.13-.7.153-1.757l.026-.1c.103-.381.154-.572.064-.724l-.005-.008c-.093-.15-.292-.204-.689-.31-.714-.192-1.071-.287-1.134-.536l-.003-.013c-.055-.25.227-.475.79-.924Z"/><path d="M1.333 8a6.667 6.667 0 1 1 13.334 0A6.667 6.667 0 0 1 1.333 8Z"/></g><defs><clipPath id="a"><path fill="#fff" d="M0 0h16v16H0z"/></clipPath></defs></svg>