<svg xmlns="http://www.w3.org/2000/svg" width="16" height="16" fill="none" viewBox="0 0 16 16"><g stroke="#f5f6f9" stroke-linecap="round" clip-path="url(#a)"><path d="m10.385 2.255 1.334.7c1.434.752 2.151 1.129 2.55 1.805.398.676.398 1.518.398 3.201v.078c0 1.683 0 2.525-.399 3.201-.398.677-1.115 1.053-2.55 1.806l-1.333.7c-1.17.614-1.755.92-2.385.92s-1.215-.306-2.385-.92l-1.333-.7c-1.435-.753-2.152-1.13-2.55-1.806-.399-.676-.399-1.518-.399-3.201v-.078c0-1.683 0-2.525.399-3.201.398-.676 1.115-1.053 2.55-1.806l1.333-.7c1.17-.614 1.756-.92 2.385-.92.63 0 1.215.306 2.385.92ZM14 5 8 8m0 0L2 5m6 3v6.333"/></g><defs><clipPath id="a"><path fill="#fff" d="M0 0h16v16H0z"/></clipPath></defs></svg>