<svg xmlns="http://www.w3.org/2000/svg" width="16" height="16" fill="none" viewBox="0 0 16 16"><g clip-path="url(#a)"><path fill="#f5f6f9" d="M10.667 7c0 .552-.299 1-.667 1s-.667-.448-.667-1S9.632 6 10 6s.667.448.667 1"/><ellipse cx="6" cy="7" fill="#f5f6f9" rx=".667" ry="1"/><path stroke="#f5f6f9" d="M14.667 13.149V8.2c0-3.792-2.985-6.867-6.667-6.867S1.333 4.408 1.333 8.2v4.949c0 .881.901 1.455 1.667 1.06a1.88 1.88 0 0 1 1.93.124 1.88 1.88 0 0 0 2.14 0l.234-.161c.422-.29.97-.29 1.392 0l.235.161a1.88 1.88 0 0 0 2.138 0 1.88 1.88 0 0 1 1.932-.124c.765.395 1.666-.179 1.666-1.06Z"/></g><defs><clipPath id="a"><path fill="#fff" d="M0 0h16v16H0z"/></clipPath></defs></svg>