<svg xmlns="http://www.w3.org/2000/svg" width="16" height="16" fill="none" viewBox="0 0 16 16"><g stroke="#f5f6f9" clip-path="url(#a)"><path stroke-linecap="round" stroke-linejoin="round" stroke-width="1.5" d="M5.333 8h.006m2.664 0h.006m2.652 0h.006"/><path d="M1.333 8c0-3.143 0-4.714.977-5.69.976-.977 2.547-.977 5.69-.977s4.714 0 5.69.977c.977.976.977 2.547.977 5.69s0 4.714-.977 5.69c-.976.977-2.547.977-5.69.977s-4.714 0-5.69-.977c-.977-.976-.977-2.547-.977-5.69Z"/></g><defs><clipPath id="a"><path fill="#fff" d="M0 0h16v16H0z"/></clipPath></defs></svg>