<svg xmlns="http://www.w3.org/2000/svg" width="16" height="16" fill="none" viewBox="0 0 16 16"><path stroke="#f5f6f9" stroke-linecap="round" d="M13.667 4H2.333M12.556 5.667l-.307 4.599c-.118 1.77-.177 2.655-.754 3.194-.576.54-1.463.54-3.237.54h-.516c-1.774 0-2.66 0-3.237-.54s-.636-1.424-.754-3.194l-.307-4.6M6.333 7.333l.334 3.334M9.667 7.333l-.334 3.334"/><path stroke="#f5f6f9" d="M4.333 4h.073a1.33 1.33 0 0 0 1.22-.88l.024-.069.064-.194c.056-.166.083-.249.12-.319a1 1 0 0 1 .73-.525C6.64 2 6.728 2 6.903 2h2.193c.174 0 .262 0 .34.013a1 1 0 0 1 .73.525c.036.07.063.153.119.32l.065.193.023.07c.187.516.671.865 1.22.879h.073"/></svg>