<svg width="19" height="16" viewBox="0 0 19 16" fill="none" xmlns="http://www.w3.org/2000/svg">
<path d="M8.42045 7.63636C8.42045 8.55682 8.25426 9.35227 7.92188 10.0227C7.58949 10.6932 7.13352 11.2102 6.55398 11.5739C5.97443 11.9375 5.3125 12.1193 4.56818 12.1193C3.82386 12.1193 3.16193 11.9375 2.58239 11.5739C2.00284 11.2102 1.54688 10.6932 1.21449 10.0227C0.882102 9.35227 0.715909 8.55682 0.715909 7.63636C0.715909 6.71591 0.882102 5.92045 1.21449 5.25C1.54688 4.57955 2.00284 4.0625 2.58239 3.69886C3.16193 3.33523 3.82386 3.15341 4.56818 3.15341C5.3125 3.15341 5.97443 3.33523 6.55398 3.69886C7.13352 4.0625 7.58949 4.57955 7.92188 5.25C8.25426 5.92045 8.42045 6.71591 8.42045 7.63636ZM7.39773 7.63636C7.39773 6.88068 7.27131 6.2429 7.01847 5.72301C6.76847 5.20312 6.42898 4.80966 6 4.54261C5.57386 4.27557 5.09659 4.14205 4.56818 4.14205C4.03977 4.14205 3.56108 4.27557 3.1321 4.54261C2.70597 4.80966 2.36648 5.20312 2.11364 5.72301C1.86364 6.2429 1.73864 6.88068 1.73864 7.63636C1.73864 8.39205 1.86364 9.02983 2.11364 9.54972C2.36648 10.0696 2.70597 10.4631 3.1321 10.7301C3.56108 10.9972 4.03977 11.1307 4.56818 11.1307C5.09659 11.1307 5.57386 10.9972 6 10.7301C6.42898 10.4631 6.76847 10.0696 7.01847 9.54972C7.27131 9.02983 7.39773 8.39205 7.39773 7.63636ZM17.1179 3.27273V12H16.0952L11.3395 5.14773H11.2543V12H10.1974V3.27273H11.2202L15.9929 10.142H16.0781V3.27273H17.1179Z" fill="#AAB0B9"/>
</svg>
