<svg width="22" height="22" viewBox="0 0 22 22" fill="none" xmlns="http://www.w3.org/2000/svg">
<path d="M15.5453 8.93742C15.1656 8.93742 14.8578 8.62962 14.8578 8.24992L14.8578 1.83325C14.8578 1.45356 15.1656 1.14575 15.5453 1.14575C15.925 1.14575 16.2328 1.45356 16.2328 1.83325L16.2328 8.24992C16.2328 8.62962 15.925 8.93742 15.5453 8.93742Z" fill="#797979"/>
<path fill-rule="evenodd" clip-rule="evenodd" d="M6.41663 5.27075C8.3151 5.27075 9.85413 6.80977 9.85413 8.70825C9.85413 10.6067 8.3151 12.1458 6.41663 12.1458C4.51815 12.1458 2.97913 10.6067 2.97913 8.70825C2.97913 6.80977 4.51815 5.27075 6.41663 5.27075ZM8.47913 8.70825C8.47913 7.56917 7.55571 6.64575 6.41663 6.64575C5.27754 6.64575 4.35413 7.56917 4.35413 8.70825C4.35413 9.84734 5.27754 10.7708 6.41663 10.7708C7.55571 10.7708 8.47913 9.84734 8.47913 8.70825Z" fill="#797979"/>
<path fill-rule="evenodd" clip-rule="evenodd" d="M15.5833 16.7291C17.4818 16.7291 19.0208 15.1901 19.0208 13.2916C19.0208 11.3931 17.4818 9.85409 15.5833 9.85409C13.6848 9.85409 12.1458 11.3931 12.1458 13.2916C12.1458 15.1901 13.6848 16.7291 15.5833 16.7291ZM17.6458 13.2916C17.6458 14.4307 16.7224 15.3541 15.5833 15.3541C14.4442 15.3541 13.5208 14.4307 13.5208 13.2916C13.5208 12.1525 14.4442 11.2291 15.5833 11.2291C16.7224 11.2291 17.6458 12.1525 17.6458 13.2916Z" fill="#797979"/>
<path d="M5.6911 13.7499C5.6911 13.3702 5.99891 13.0624 6.3786 13.0624C6.7583 13.0624 7.0661 13.3702 7.0661 13.7499V20.1666C7.0661 20.5463 6.7583 20.8541 6.3786 20.8541C5.99891 20.8541 5.6911 20.5463 5.6911 20.1666V13.7499Z" fill="#797979"/>
<path d="M15.5453 20.8541C15.1656 20.8541 14.8578 20.5463 14.8578 20.1666V18.3333C14.8578 17.9536 15.1656 17.6458 15.5453 17.6458C15.925 17.6458 16.2328 17.9536 16.2328 18.3333V20.1666C16.2328 20.5463 15.925 20.8541 15.5453 20.8541Z" fill="#797979"/>
<path d="M5.6911 1.83325C5.6911 1.45356 5.99891 1.14575 6.3786 1.14575C6.7583 1.14575 7.0661 1.45356 7.0661 1.83325V3.66659C7.0661 4.04628 6.7583 4.35409 6.3786 4.35409C5.99891 4.35409 5.6911 4.04628 5.6911 3.66659V1.83325Z" fill="#797979"/>
</svg>
