<svg xmlns="http://www.w3.org/2000/svg" width="12" height="12" fill="none" viewBox="0 0 12 12"><path fill="#f5f6f9" fill-rule="evenodd" d="M6 .625a2.375 2.375 0 1 0 0 4.75 2.375 2.375 0 0 0 0-4.75M4.375 3a1.625 1.625 0 1 1 3.25 0 1.625 1.625 0 0 1-3.25 0M6 6.125c-1.02 0-1.961.235-2.66.635-.69.394-1.215.995-1.215 1.74s.525 1.346 1.214 1.74c.7.4 1.641.635 2.661.635s1.961-.235 2.66-.635c.69-.394 1.215-.995 1.215-1.74S9.35 7.154 8.661 6.76c-.7-.4-1.641-.635-2.661-.635M2.875 8.5c0-.36.259-.759.836-1.089.567-.324 1.376-.536 2.289-.536s1.722.212 2.289.536c.578.33.836.73.836 1.089 0 .36-.258.759-.836 1.089-.567.324-1.376.536-2.289.536s-1.722-.212-2.289-.536c-.577-.33-.836-.73-.836-1.089" clip-rule="evenodd"/></svg>