<svg xmlns="http://www.w3.org/2000/svg" width="12" height="12" fill="none" viewBox="0 0 12 12"><path fill="#f5f6f9" fill-rule="evenodd" d="M6 .625a2.375 2.375 0 1 0 0 4.75 2.375 2.375 0 0 0 0-4.75M4.375 3a1.625 1.625 0 1 1 3.25 0 1.625 1.625 0 0 1-3.25 0" clip-rule="evenodd"/><path fill="#f5f6f9" d="M9 1.625a.375.375 0 1 0 0 .75c.688 0 1.125.453 1.125.875s-.437.875-1.125.875a.375.375 0 1 0 0 .75c.969 0 1.875-.666 1.875-1.625S9.969 1.625 9 1.625M3.375 2A.375.375 0 0 0 3 1.625c-.969 0-1.875.666-1.875 1.625S2.031 4.875 3 4.875a.375.375 0 1 0 0-.75c-.688 0-1.125-.453-1.125-.875S2.312 2.375 3 2.375A.375.375 0 0 0 3.375 2"/><path fill="#f5f6f9" fill-rule="evenodd" d="M6 6.125c-.892 0-1.717.24-2.33.649-.61.406-1.045 1.01-1.045 1.726 0 .717.436 1.32 1.046 1.726.612.409 1.437.649 2.329.649s1.717-.24 2.33-.649c.61-.406 1.045-1.01 1.045-1.726 0-.717-.436-1.32-1.046-1.726-.612-.409-1.437-.649-2.329-.649M3.375 8.5c0-.388.236-.785.712-1.102.473-.316 1.148-.523 1.913-.523s1.44.207 1.913.523c.476.317.712.714.712 1.102s-.236.785-.712 1.102c-.473.316-1.148.523-1.913.523s-1.44-.207-1.913-.523c-.476-.317-.712-.714-.712-1.102" clip-rule="evenodd"/><path fill="#f5f6f9" d="M9.634 6.92a.375.375 0 0 1 .446-.286c.481.105.915.296 1.236.559.322.263.559.625.559 1.057s-.237.794-.559 1.057c-.321.263-.755.454-1.236.56a.375.375 0 0 1-.16-.733c.396-.087.713-.236.921-.407.21-.172.284-.339.284-.477s-.074-.305-.284-.477c-.208-.17-.525-.32-.921-.407a.375.375 0 0 1-.286-.446M1.92 6.634a.375.375 0 0 1 .16.732c-.396.087-.712.236-.921.407-.21.172-.284.339-.284.477s.074.305.284.477c.209.17.525.32.921.407a.375.375 0 0 1-.16.732c-.481-.105-.915-.296-1.236-.559C.362 9.044.125 8.682.125 8.25s.237-.794.559-1.057c.321-.263.755-.454 1.236-.56"/></svg>