<svg xmlns="http://www.w3.org/2000/svg" width="16" height="16" fill="none" viewBox="0 0 16 16"><g clip-path="url(#a)"><path fill="#f5f6f9" fill-rule="evenodd" d="M10.02.98a.5.5 0 0 1 0 .707 7 7 0 0 0-.746.88l.804.804a.5.5 0 1 1-.707.707l-.632-.632q-.21.414-.356.844l3.252 3.252a.5.5 0 0 1 .065.079q.407-.138.804-.335L10.499 5.28a.5.5 0 1 1 .707-.707l2.184 2.183q.486-.341.923-.777a.5.5 0 1 1 .707.707c-1.748 1.748-4.176 2.569-6.37 2.142.5 2.116-.267 4.496-1.963 6.191a.5.5 0 0 1-.707-.707q.437-.438.772-.93l-.902-.902a.5.5 0 1 1 .707-.707l.708.708q.187-.403.309-.818l-.032-.03-3.208-3.207a6 6 0 0 0-.868.332l1.888 1.888a.5.5 0 1 1-.708.707L2.572 9.279q-.467.324-.885.741a.5.5 0 0 1-.707-.707C2.676 7.617 5.055 6.851 7.17 7.351 6.744 5.156 7.565 2.728 9.313.98a.5.5 0 0 1 .707 0m.547 6.908L8.112 5.433a5.2 5.2 0 0 0 .18 2.274c.72.23 1.496.287 2.275.181m-3.013.748c.199.578.275 1.2.234 1.831L5.533 8.212c.63-.04 1.253.035 1.831.235l.141.048z" clip-rule="evenodd"/></g><defs><clipPath id="a"><path fill="#fff" d="M0 0h16v16H0z"/></clipPath></defs></svg>