<svg xmlns="http://www.w3.org/2000/svg" width="16" height="16" fill="none" viewBox="0 0 16 16"><path fill="#f5f6f9" d="M11.5 4.667a.5.5 0 1 0-1 0V5.5h-.833a.5.5 0 0 0 0 1h.833v.833a.5.5 0 0 0 1 0V6.5h.833a.5.5 0 0 0 0-1H11.5z"/><path fill="#f5f6f9" fill-rule="evenodd" d="M15.167 6.212c0-2.217-.989-3.872-2.526-4.474-1.424-.558-3.133-.14-4.641 1.27-1.508-1.41-3.217-1.828-4.64-1.27C1.821 2.34.832 3.995.832 6.212c0 1.412.754 2.801 1.692 3.997.947 1.209 2.14 2.29 3.134 3.098l.09.073c.8.65 1.378 1.12 2.251 1.12s1.45-.47 2.251-1.12l.09-.073c.995-.807 2.187-1.89 3.134-3.098.938-1.196 1.692-2.585 1.692-3.997M8.365 4.058c1.408-1.506 2.868-1.798 3.911-1.39 1.046.41 1.89 1.607 1.89 3.544 0 1.074-.585 2.242-1.478 3.38-.882 1.126-2.01 2.154-2.978 2.939-.928.753-1.228.969-1.71.969s-.782-.216-1.71-.97c-.967-.784-2.096-1.812-2.978-2.938-.892-1.138-1.479-2.306-1.479-3.38 0-1.937.845-3.134 1.891-3.543 1.043-.409 2.503-.117 3.91 1.389a.5.5 0 0 0 .731 0" clip-rule="evenodd"/></svg>