<svg xmlns="http://www.w3.org/2000/svg" width="16" height="16" fill="none" viewBox="0 0 16 16"><path fill="#f5f6f9" fill-rule="evenodd" d="M11.04 2.313a.5.5 0 0 1 .708 0l1.939 1.94a.5.5 0 1 1-.707.707l-.616-.617-.748.748.576.575c.24.24.44.44.59.616.158.183.29.37.37.593.15.414.15.867 0 1.28-.08.223-.212.41-.37.593-.15.176-.35.376-.59.616l-.444.444h-.001l-1.453 1.454h-.001v.001l-.97.97-.09.087a.5.5 0 0 1-.104.094 3.93 3.93 0 0 1-4.986.15L3.02 13.687a.5.5 0 1 1-.707-.707l1.123-1.123a3.93 3.93 0 0 1 .332-5.18l2.868-2.869c.24-.24.44-.44.616-.59.183-.158.37-.29.593-.37.413-.151.866-.151 1.28 0 .223.08.41.212.593.37.176.15.376.35.616.59l.575.576.747-.748-.616-.616a.5.5 0 0 1 0-.707M9.64 4.53c-.257-.257-.43-.43-.574-.553a1 1 0 0 0-.283-.189.87.87 0 0 0-.596 0 1 1 0 0 0-.284.189c-.143.123-.316.296-.573.553l-.077.077 4.14 4.141.078-.077c.257-.257.43-.43.553-.573a1 1 0 0 0 .189-.284.87.87 0 0 0 0-.596 1 1 0 0 0-.19-.283 12 12 0 0 0-.552-.574zm1.047 4.926L6.545 5.312l-2.07 2.07a2.928 2.928 0 0 0 3.612 4.562l-.69-.689a.5.5 0 1 1 .708-.707l.743.744.384-.384-1.57-1.57a.5.5 0 0 1 .707-.707l1.57 1.57z" clip-rule="evenodd"/></svg>