<svg xmlns="http://www.w3.org/2000/svg" width="16" height="16" fill="none" viewBox="0 0 16 16"><path fill="#f5f6f9" fill-rule="evenodd" d="M9.667 6.833a1.833 1.833 0 1 0 0 3.667 1.833 1.833 0 0 0 0-3.667m-.834 1.834a.833.833 0 1 1 1.667 0 .833.833 0 0 1-1.667 0M5.5 6a1.167 1.167 0 1 1 2.333 0A1.167 1.167 0 0 1 5.5 6m1.167-.167a.167.167 0 1 0 0 .334.167.167 0 0 0 0-.334" clip-rule="evenodd"/><path fill="#f5f6f9" d="M6 9.333A.667.667 0 1 0 6 8a.667.667 0 0 0 0 1.333"/><path fill="#f5f6f9" fill-rule="evenodd" d="M2.333.833A1.5 1.5 0 0 1 3.687 2.98l1.004 1.004a5.1 5.1 0 0 1 1.961-.992 1.5 1.5 0 1 1 2.679.034c.714.2 1.368.55 1.926 1.01l.39-.39a1.5 1.5 0 1 1 .707.707l-.39.39a5.3 5.3 0 0 1 .96 1.759L13 6.5a1.5 1.5 0 1 1-.033 3 5.07 5.07 0 0 1-1.267 2.16l.02.02a1.5 1.5 0 1 1-.707.707l-.086-.086a5 5 0 0 1-1.588.71 1.5 1.5 0 0 1-2.7-.046 5.2 5.2 0 0 1-1.509-.71.5.5 0 0 1-.076.098l-.69.69a1.5 1.5 0 1 1-.695-.719l.678-.678.024-.022A5.26 5.26 0 0 1 3.026 9.33a1.5 1.5 0 1 1-.034-2.679c.186-.73.53-1.397.992-1.96L2.98 3.686A1.5 1.5 0 1 1 2.333.833m.5 1.5a.5.5 0 1 0-1 0 .5.5 0 0 0 1 0m5.243 9.834c2.27 0 4.09-1.82 4.09-4.09v-.035a4.26 4.26 0 0 0-4.208-4.208 4.077 4.077 0 0 0-4.124 4.124 4.26 4.26 0 0 0 4.208 4.209zm5.09-4.639a.5.5 0 0 1 0 .944zM13 2.5a.5.5 0 1 0 0 1 .5.5 0 0 0 0-1m-10.667 5a.5.5 0 1 1 0 1 .5.5 0 0 1 0-1m9.534 5.533a.5.5 0 1 0 1 0 .5.5 0 0 0-1 0M3 14.167a.5.5 0 1 0 0-1 .5.5 0 0 0 0 1M7.5 2.333a.5.5 0 1 1 1 0 .5.5 0 0 1-1 0" clip-rule="evenodd"/></svg>