<svg width="12" height="12" viewBox="0 0 12 12" fill="none" xmlns="http://www.w3.org/2000/svg">
<path fill-rule="evenodd" clip-rule="evenodd" d="M9.18198 1.52881C9.38909 1.52881 9.55698 1.6967 9.55698 1.90381V4.02513C9.55698 4.23224 9.38909 4.40013 9.18198 4.40013H7.06066C6.85355 4.40013 6.68566 4.23224 6.68566 4.02513C6.68566 3.81802 6.85355 3.65013 7.06066 3.65013H8.24085C6.81816 2.52859 4.74935 2.62413 3.43674 3.93674C2.02109 5.35239 2.02109 7.64761 3.43674 9.06326C4.85239 10.4789 7.14761 10.4789 8.56326 9.06326C9.5117 8.11483 9.8252 6.77139 9.50194 5.56094C9.44851 5.36084 9.5674 5.15531 9.76749 5.10188C9.96759 5.04844 10.1731 5.16733 10.2266 5.36743C10.616 6.82591 10.239 8.44819 9.09359 9.59359C7.38505 11.3021 4.61495 11.3021 2.90641 9.59359C1.19786 7.88505 1.19786 5.11495 2.90641 3.40641C4.52242 1.7904 7.0881 1.70288 8.80698 3.14384V1.90381C8.80698 1.6967 8.97487 1.52881 9.18198 1.52881Z" fill="#FF3F1D"/>
</svg>
