<svg width="12" height="12" viewBox="0 0 12 12" fill="none" xmlns="http://www.w3.org/2000/svg">
<path fill-rule="evenodd" clip-rule="evenodd" d="M6 1.625C6.20711 1.625 6.375 1.79289 6.375 2L6.375 9.09467L8.73484 6.73484C8.88128 6.58839 9.11872 6.58839 9.26516 6.73484C9.41161 6.88128 9.41161 7.11872 9.26516 7.26516L6.26517 10.2652C6.19484 10.3355 6.09946 10.375 6 10.375C5.90054 10.375 5.80516 10.3355 5.73484 10.2652L2.73483 7.26516C2.58839 7.11872 2.58839 6.88128 2.73483 6.73484C2.88128 6.58839 3.11872 6.58839 3.26517 6.73484L5.625 9.09467L5.625 2C5.625 1.79289 5.79289 1.625 6 1.625Z" fill="#17BEBB"/>
</svg>
