<svg xmlns="http://www.w3.org/2000/svg" width="12" height="12" fill="none" viewBox="0 0 12 12"><path stroke="#f5f6f9" stroke-linecap="round" stroke-width=".75" d="M5.25 7H8.5M3.5 7h.25M3.5 5.25h.25M3.5 8.75h.25M5.25 5.25H8.5M5.25 8.75H8.5"/><path stroke="#f5f6f9" stroke-width=".75" d="M4 1.75A.75.75 0 0 1 4.75 1h2.5a.75.75 0 0 1 .75.75v.5a.75.75 0 0 1-.75.75h-2.5A.75.75 0 0 1 4 2.25z"/><path stroke="#f5f6f9" stroke-linecap="round" stroke-width=".75" d="M10.5 8c0 1.414 0 2.121-.44 2.56-.439.44-1.146.44-2.56.44h-3c-1.414 0-2.121 0-2.56-.44C1.5 10.122 1.5 9.415 1.5 8V6.5M8 2.001c1.088.006 1.676.054 2.06.438.44.44.44 1.147.44 2.561v1M4 2.001c-1.088.006-1.676.054-2.06.438-.385.385-.433.974-.44 2.061"/></svg>