<svg xmlns="http://www.w3.org/2000/svg" width="16" height="16" fill="none" viewBox="0 0 16 16"><g clip-path="url(#a)"><path fill="#f5f6f9" fill-rule="evenodd" d="M4.835 2.837a3.5 3.5 0 0 1 6.33 0q.084-.003.168-.004a3.833 3.833 0 0 1 1.834 7.2v2.002c0 .599 0 1.098-.054 1.495-.056.418-.18.796-.483 1.1-.304.303-.682.427-1.1.483-.397.054-.896.054-1.495.054h-4.07c-.599 0-1.098 0-1.495-.054-.418-.056-.796-.18-1.1-.483-.303-.304-.427-.682-.483-1.1-.054-.397-.054-.896-.054-1.495v-2.001a3.833 3.833 0 0 1 2.002-7.197m-.3 1a2.833 2.833 0 0 0-1.001 5.428.5.5 0 0 1 .3.458V11.5h8.333V9.723a.5.5 0 0 1 .3-.459 2.834 2.834 0 0 0-1.002-5.428q.035.245.035.497v.334a.5.5 0 1 1-1 0v-.334a2.496 2.496 0 0 0-2.5-2.5 2.5 2.5 0 0 0-2.5 2.5v.334a.5.5 0 0 1-1 0v-.334q0-.252.035-.497m7.63 8.663h-8.33c.002.38.012.666.043.896.041.308.113.44.2.527.086.086.218.158.526.2.322.043.753.044 1.396.044h4c.643 0 1.074-.001 1.396-.045.308-.041.44-.113.527-.2.086-.086.158-.218.2-.526.03-.23.04-.516.043-.896" clip-rule="evenodd"/></g><defs><clipPath id="a"><path fill="#fff" d="M0 0h16v16H0z"/></clipPath></defs></svg>