<svg xmlns="http://www.w3.org/2000/svg" width="16" height="16" fill="none" viewBox="0 0 16 16"><path fill="#f5f6f9" fill-rule="evenodd" d="M7.02.98a.5.5 0 0 1 0 .707.443.443 0 0 0 0 .626 1.443 1.443 0 0 1 0 2.04.5.5 0 1 1-.707-.707.443.443 0 0 0 0-.626 1.443 1.443 0 0 1 0-2.04.5.5 0 0 1 .707 0m-3 1a.5.5 0 0 1 0 .707l-.077.077a.46.46 0 0 0-.043.603 1.46 1.46 0 0 1-.136 1.91l-.077.077a.5.5 0 1 1-.707-.708l.077-.077a.46.46 0 0 0 .043-.602 1.46 1.46 0 0 1 .136-1.91l.077-.077a.5.5 0 0 1 .707 0m6.334 0a.5.5 0 0 1 0 .707l-.078.077a.46.46 0 0 0-.043.603 1.46 1.46 0 0 1-.135 1.91l-.078.077a.5.5 0 1 1-.707-.708l.078-.077a.46.46 0 0 0 .042-.602 1.46 1.46 0 0 1 .136-1.91l.077-.077a.5.5 0 0 1 .707 0M3.098 6.167h7.137c.242 0 .427 0 .588.028a1.83 1.83 0 0 1 1.093.638h.75a2.5 2.5 0 0 1 0 5h-.9A4.18 4.18 0 0 1 7.87 14.5H5.462a4.176 4.176 0 0 1-4.148-3.691l-.267-2.286-.005-.045a3.5 3.5 0 0 1-.04-.587A1.83 1.83 0 0 1 2.51 6.195c.16-.029.345-.028.587-.028m7.88 4.814a.5.5 0 0 0-.133.46A3.18 3.18 0 0 1 7.87 13.5H5.462a3.176 3.176 0 0 1-3.155-2.807L2.04 8.407C2.004 8.1 1.996 8.012 2 7.95a.83.83 0 0 1 .686-.77c.06-.011.149-.013.458-.013h7.045c.31 0 .397.002.459.013.379.067.663.386.686.77.003.062-.005.15-.04.457l-.268 2.286a3 3 0 0 1-.047.288m1.038-.148h.65a1.5 1.5 0 0 0 0-3h-.338l.004.058c.01.162-.012.347-.04.587l-.006.045-.267 2.286z" clip-rule="evenodd"/></svg>