<svg xmlns="http://www.w3.org/2000/svg" width="16" height="16" fill="none" viewBox="0 0 16 16"><path fill="#f5f6f9" fill-rule="evenodd" d="M2.833 3.263c0-.974.79-1.763 1.764-1.763h6.806c.974 0 1.764.79 1.764 1.763v2.07A5.167 5.167 0 0 1 8.5 10.476V13.5h2a.5.5 0 1 1 0 1h-5a.5.5 0 0 1 0-1h2v-3.024a5.167 5.167 0 0 1-4.667-5.143zM4.597 2.5a.763.763 0 0 0-.764.763v2.129c.136-.052.3-.114.484-.177.472-.161 1.108-.347 1.652-.38.98-.06 1.686.37 2.26.719l.031.019c.599.364 1.063.634 1.71.595.401-.025.931-.173 1.39-.33a12 12 0 0 0 .76-.29l.01-.005h.002l.03-.013q.005-.097.005-.197v-2.07a.763.763 0 0 0-.764-.763zm7.343 4.194a4.168 4.168 0 0 1-7.965-.281 10 10 0 0 1 .666-.252c.458-.156.988-.304 1.39-.329.646-.04 1.11.23 1.71.595l.03.02c.574.349 1.28.779 2.26.719.544-.034 1.18-.22 1.652-.381z" clip-rule="evenodd"/></svg>