<svg xmlns="http://www.w3.org/2000/svg" width="16" height="16" fill="none" viewBox="0 0 16 16"><g clip-path="url(#a)"><path fill="#f5f6f9" fill-rule="evenodd" d="M4.573.833h.085c.234 0 .385 0 .532.014.635.06 1.236.309 1.726.715.114.095.221.201.387.367l.384.384c.564.564.78.774 1.03.914q.22.12.46.19c.276.079.578.083 1.375.083h.283c.849 0 1.533 0 2.074.068.561.07 1.038.221 1.43.573q.098.09.186.187c.353.392.503.868.574 1.43.068.54.068 1.225.068 2.073v1.54c0 1.225 0 2.196-.102 2.955-.105.782-.327 1.414-.826 1.913s-1.131.72-1.913.826c-.76.102-1.73.102-2.955.102H6.629c-1.225 0-2.195 0-2.955-.102-.782-.105-1.414-.327-1.913-.826s-.72-1.131-.826-1.913c-.102-.76-.102-1.73-.102-2.955V4.573c0-.53 0-.868.055-1.16A3.17 3.17 0 0 1 3.413.888c.292-.055.63-.055 1.16-.055m.06 1c-.61 0-.847.003-1.035.038a2.17 2.17 0 0 0-1.727 1.727c-.035.188-.038.424-.038 1.035v4.7c0 1.272.001 2.175.094 2.86.09.67.259 1.057.541 1.34.282.281.669.45 1.34.54.684.093 1.588.094 2.859.094h2.666c1.272 0 2.175-.001 2.86-.094.67-.09 1.057-.259 1.34-.54.281-.283.45-.67.54-1.34.093-.685.094-1.588.094-2.86V7.865c0-.89-.001-1.511-.06-1.983-.058-.459-.164-.706-.325-.885a2 2 0 0 0-.112-.112c-.179-.161-.426-.267-.885-.325-.472-.059-1.093-.06-1.984-.06h-.322c-.699 0-1.15 0-1.576-.121a3.2 3.2 0 0 1-.671-.278c-.388-.216-.706-.535-1.2-1.029L6.98 3.02l-.367-.367a5 5 0 0 0-.335-.321 2.17 2.17 0 0 0-1.18-.49 5 5 0 0 0-.465-.009m3.534 4.834a.5.5 0 0 1 .5-.5H12a.5.5 0 0 1 0 1H8.667a.5.5 0 0 1-.5-.5" clip-rule="evenodd"/></g><defs><clipPath id="a"><path fill="#fff" d="M0 0h16v16H0z"/></clipPath></defs></svg>