<svg xmlns="http://www.w3.org/2000/svg" width="12" height="12" fill="none" viewBox="0 0 12 12"><path fill="#f5f6f9" fill-rule="evenodd" d="M4.63 1.55c.202-.506.867-.819 1.384-.425.86.655 1.938 1.618 2.806 2.72.86 1.091 1.555 2.372 1.555 3.655 0 1.147-.355 1.999-.87 2.609-.508.604-1.155.95-1.714 1.124a.58.58 0 0 1-.677-.256.63.63 0 0 1 .03-.686c.428-.616.881-1.501.881-2.291 0-.392-.169-.856-.442-1.331a7 7 0 0 0-.7-.996c-.052.702-.204 1.583-.677 2.312a.58.58 0 0 1-.947.046 8 8 0 0 1-.243-.33l-.112-.156c-.343.341-.662.75-.662 1.205 0 .402.2.951.437 1.417a.65.65 0 0 1-.08.713.58.58 0 0 1-.746.13c-.972-.562-2.228-1.764-2.228-3.51 0-.473.16-.963.385-1.442.226-.481.533-.983.855-1.484q.168-.262.338-.52c.552-.847 1.1-1.686 1.427-2.505m.82.159a.21.21 0 0 0-.124.119c-.357.894-.956 1.81-1.508 2.656q-.165.252-.322.495c-.32.498-.603.964-.807 1.398-.205.437-.314.81-.314 1.123 0 1.147.703 2.038 1.442 2.59-.178-.421-.325-.907-.325-1.34 0-.865.65-1.519 1.012-1.862a.6.6 0 0 1 .878.049c.086.106.17.223.246.33l.009.012.062.088c.335-.637.428-1.414.452-2.054a.62.62 0 0 1 .386-.558.6.6 0 0 1 .677.157l-.278.251.278-.251a8.3 8.3 0 0 1 1.02 1.384c.299.52.541 1.12.541 1.704 0 .846-.384 1.705-.772 2.344.326-.16.655-.393.93-.718.393-.467.692-1.145.692-2.126 0-1.028-.569-2.144-1.394-3.192C7.413 3.27 6.385 2.35 5.559 1.721c-.027-.02-.062-.029-.11-.012" clip-rule="evenodd"/></svg>