<svg xmlns="http://www.w3.org/2000/svg" width="16" height="16" fill="none" viewBox="0 0 16 16"><g clip-path="url(#a)"><path fill="#f5f6f9" fill-rule="evenodd" d="M8.167 1.89c-.307-.053-.726-.057-1.48-.057-1.278 0-2.186.001-2.875.094-.675.09-1.062.26-1.344.54-.282.283-.451.67-.541 1.34-.093.685-.094 1.588-.094 2.86v2.666c0 1.271.001 2.175.094 2.86.09.67.259 1.057.541 1.339s.669.451 1.34.541c.684.093 1.587.094 2.859.094h2.666c1.272 0 2.175-.001 2.86-.094.67-.09 1.057-.259 1.34-.541.281-.282.45-.669.54-1.34.093-.684.094-1.588.094-2.859v-.291c0-1.024-.008-1.51-.116-1.875h-2.087c-.755 0-1.372 0-1.86-.066-.509-.068-.95-.217-1.303-.569-.352-.352-.5-.794-.569-1.303-.065-.488-.065-1.105-.065-1.86zm1 .516v.927c0 .8 0 1.35.056 1.762.054.399.15.594.285.73.136.136.331.231.73.285.413.056.962.057 1.762.057h1.346c-.197-.192-.45-.422-.78-.718L9.929 3.074a25 25 0 0 0-.761-.668M6.784.833c.923 0 1.52 0 2.068.21.549.211.99.608 1.673 1.223l.072.065 2.639 2.375.083.075c.789.71 1.3 1.169 1.574 1.785s.274 1.303.274 2.364v.441c0 1.225 0 2.195-.102 2.955-.105.782-.327 1.414-.826 1.913s-1.131.72-1.913.825c-.76.103-1.73.103-2.955.103H6.629c-1.225 0-2.195 0-2.955-.102-.782-.106-1.414-.327-1.913-.826s-.72-1.131-.826-1.913c-.102-.76-.102-1.73-.102-2.955V6.629c0-1.225 0-2.196.102-2.955.106-.782.327-1.414.826-1.913.5-.5 1.134-.72 1.918-.826C4.442.833 5.417.833 6.65.833h.135" clip-rule="evenodd"/></g><defs><clipPath id="a"><path fill="#fff" d="M0 0h16v16H0z"/></clipPath></defs></svg>