<svg xmlns="http://www.w3.org/2000/svg" width="12" height="12" fill="none" viewBox="0 0 12 12"><path fill="#f5f6f9" fill-rule="evenodd" d="M6 3.875c-2.743 0-4.05 1.226-4.49 1.759a.67.67 0 0 0-.135.437v.961c0 .382.39.689.81.566l1-.293a.6.6 0 0 0 .44-.566v-.308H4l-.375-.001v-.018a1 1 0 0 1 .01-.084.8.8 0 0 1 .055-.167c.059-.129.163-.27.338-.399.343-.251.937-.439 1.972-.439s1.629.188 1.972.439c.175.129.28.27.338.4a.8.8 0 0 1 .065.25v.017c0 .001 0 .002-.375.002h.375v.194c0 .283.216.54.53.585l1 .147c.393.057.72-.237.72-.586V5.71c0-.22-.068-.393-.19-.501C9.932 4.758 8.616 3.875 6 3.875m1.625 2.592v.158c0 .674.507 1.23 1.17 1.327l1 .147c.818.12 1.58-.493 1.58-1.328V5.71c0-.367-.115-.77-.44-1.06-.638-.57-2.13-1.524-4.935-1.524-3.005 0-4.51 1.357-5.068 2.03-.229.276-.307.61-.307.916v.961c0 .916.905 1.54 1.77 1.286l1-.293c.575-.169.98-.686.98-1.286v-.272a.3.3 0 0 1 .097-.1c.157-.115.563-.294 1.528-.294s1.371.179 1.528.294a.3.3 0 0 1 .097.1" clip-rule="evenodd"/></svg>