<svg xmlns="http://www.w3.org/2000/svg" width="12" height="12" fill="none" viewBox="0 0 12 12"><path fill="#f5f6f9" d="M6.63.94a.376.376 0 0 1 .43-.31l.075.015q.065.014.177.046c.148.043.355.114.604.228.498.229 1.161.628 1.85 1.316.687.688 1.087 1.35 1.315 1.849.114.249.185.456.228.604a3 3 0 0 1 .057.228l.003.015a.383.383 0 0 1-.31.44.375.375 0 0 1-.429-.31l-.007-.033a3.7 3.7 0 0 0-.224-.631c-.195-.426-.545-1.013-1.164-1.632-.62-.619-1.206-.97-1.631-1.164a4 4 0 0 0-.502-.19 3 3 0 0 0-.159-.04.38.38 0 0 1-.313-.43"/><path fill="#f5f6f9" fill-rule="evenodd" d="M6.743 2.665a.375.375 0 0 1 .464-.258l-.103.36.103-.36h.001l.002.001.004.001.01.004a1 1 0 0 1 .116.044q.11.045.295.152c.245.145.579.385.971.778a5 5 0 0 1 .778.97 2.6 2.6 0 0 1 .187.384l.01.028.002.01.001.004.001.002-.36.104.36-.103a.375.375 0 0 1-.72.211l-.001-.005-.018-.044a2 2 0 0 0-.107-.208 4.3 4.3 0 0 0-.663-.823 4.3 4.3 0 0 0-.823-.663A2 2 0 0 0 7 3.13l-.006-.002a.375.375 0 0 1-.252-.462M2.504 2.204c.84-.84 2.257-.777 2.842.271l.325.582c.382.684.219 1.548-.34 2.114a.3.3 0 0 0-.052.168c-.006.128.04.424.498.884.46.459.756.504.884.498a.3.3 0 0 0 .168-.052c.566-.559 1.43-.722 2.114-.34l.582.325c1.048.585 1.112 2.002.272 2.842-.45.45-1.047.849-1.75.875-1.04.04-2.767-.229-4.478-1.94s-1.98-3.438-1.94-4.479c.026-.702.425-1.3.875-1.748m2.187.637c-.3-.537-1.104-.66-1.657-.107-.388.388-.64.815-.656 1.247-.033.868.181 2.38 1.721 3.92s3.053 1.754 3.92 1.721c.432-.016.86-.268 1.247-.656.553-.553.43-1.358-.107-1.657l-.581-.325c-.362-.202-.87-.133-1.227.224a1 1 0 0 1-.654.262c-.405.02-.895-.162-1.45-.717s-.737-1.046-.717-1.45a1 1 0 0 1 .262-.654c.357-.357.426-.865.224-1.227z" clip-rule="evenodd"/></svg>