<svg xmlns="http://www.w3.org/2000/svg" width="12" height="12" fill="none" viewBox="0 0 12 12"><g fill="#f5f6f9" fill-rule="evenodd" clip-path="url(#a)" clip-rule="evenodd"><path d="M5.625 6c0 .322-.094.622-.255.875h1.26a1.625 1.625 0 1 1 1.37.75H4A1.625 1.625 0 1 1 5.625 6m-2.5 0a.875.875 0 1 1 1.75 0 .875.875 0 0 1-1.75 0m5.75 0a.875.875 0 1 1-1.75 0 .875.875 0 0 1 1.75 0"/><path d="M5.971.625c-1.154 0-2.058 0-2.764.095-.723.097-1.293.3-1.74.747S.817 2.484.72 3.207C.625 3.913.625 4.817.625 5.97v.058c0 1.154 0 2.058.095 2.764.097.723.3 1.293.747 1.74s1.017.65 1.74.747c.706.095 1.61.095 2.764.095h.058c1.154 0 2.058 0 2.764-.095.723-.097 1.293-.3 1.74-.747s.65-1.017.747-1.74c.095-.706.095-1.61.095-2.764V5.97c0-1.154 0-2.058-.095-2.764-.097-.723-.3-1.293-.747-1.74S9.516.817 8.793.72C8.087.625 7.183.625 6.03.625zM1.997 1.997c.285-.284.67-.448 1.31-.534.65-.087 1.504-.088 2.693-.088s2.043 0 2.693.088c.64.086 1.025.25 1.31.534.284.285.448.67.534 1.31.087.65.088 1.504.088 2.693s0 2.043-.088 2.693c-.086.64-.25 1.025-.534 1.31-.285.284-.67.448-1.31.534-.65.087-1.504.088-2.693.088s-2.043 0-2.693-.088c-.64-.086-1.025-.25-1.31-.534-.284-.285-.448-.67-.534-1.31-.087-.65-.088-1.504-.088-2.693s0-2.043.088-2.693c.086-.64.25-1.025.534-1.31"/></g><defs><clipPath id="a"><rect width="12" height="12" fill="#fff" rx="3"/></clipPath></defs></svg>