<svg xmlns="http://www.w3.org/2000/svg" width="12" height="12" fill="none" viewBox="0 0 12 12"><g fill="#f5f6f9" clip-path="url(#a)"><path d="M8.5 7a.5.5 0 1 0 0-1 .5.5 0 0 0 0 1M8.5 9a.5.5 0 1 0 0-1 .5.5 0 0 0 0 1M6.5 6.5a.5.5 0 1 1-1 0 .5.5 0 0 1 1 0M6.5 8.5a.5.5 0 1 1-1 0 .5.5 0 0 1 1 0M3.5 7a.5.5 0 1 0 0-1 .5.5 0 0 0 0 1M3.5 9a.5.5 0 1 0 0-1 .5.5 0 0 0 0 1"/><path fill-rule="evenodd" d="M3.5.875c.207 0 .375.168.375.375v.381q.496-.007 1.097-.006h2.056q.601-.002 1.097.006V1.25a.375.375 0 1 1 .75 0v.414q.195.015.37.038c.586.078 1.06.244 1.434.619.375.374.54.848.62 1.434.076.57.076 1.298.076 2.217v1.056c0 .92 0 1.647-.077 2.217-.078.586-.244 1.06-.619 1.434-.374.375-.848.54-1.434.62-.57.076-1.298.076-2.217.076H4.972c-.92 0-1.647 0-2.217-.077-.586-.078-1.06-.244-1.434-.619-.375-.374-.54-.848-.62-1.434-.076-.57-.076-1.298-.076-2.217V5.972c0-.92 0-1.647.077-2.217.078-.586.244-1.06.619-1.434.374-.375.848-.54 1.434-.62q.175-.023.37-.037V1.25c0-.207.168-.375.375-.375m-.645 1.57c-.503.068-.792.194-1.004.406s-.338.501-.406 1.004a6 6 0 0 0-.03.27h9.17a6 6 0 0 0-.03-.27c-.067-.503-.194-.792-.406-1.004s-.501-.338-1.004-.406c-.514-.07-1.192-.07-2.145-.07H5c-.953 0-1.63 0-2.145.07M1.375 6c0-.427 0-.799.007-1.125h9.237c.006.326.006.698.006 1.125v1c0 .953 0 1.63-.07 2.145-.067.503-.194.792-.406 1.004s-.501.339-1.004.406c-.514.07-1.192.07-2.145.07H5c-.953 0-1.63 0-2.145-.07-.503-.067-.792-.194-1.004-.406s-.338-.501-.406-1.004c-.07-.514-.07-1.192-.07-2.145z" clip-rule="evenodd"/></g><defs><clipPath id="a"><rect width="12" height="12" fill="#fff" rx="5"/></clipPath></defs></svg>