<svg xmlns="http://www.w3.org/2000/svg" width="12" height="12" fill="none" viewBox="0 0 12 12"><g fill="#f5f6f9" fill-rule="evenodd" clip-path="url(#a)" clip-rule="evenodd"><path d="M4.55 1.199a.375.375 0 0 1-.215.485q-.105.04-.21.087a.375.375 0 1 1-.304-.686q.12-.054.244-.101a.375.375 0 0 1 .485.215m-1.726.921a.375.375 0 0 1-.013.53 5 5 0 0 0-.16.16.375.375 0 0 1-.544-.516q.09-.096.187-.187a.375.375 0 0 1 .53.013M1.58 3.63c.19.085.275.306.19.495a5 5 0 0 0-.086.21.375.375 0 1 1-.7-.27 5 5 0 0 1 .101-.244.375.375 0 0 1 .495-.19m-.57 1.872c.208.005.371.177.366.384a5 5 0 0 0 0 .228.375.375 0 0 1-.75.018 6 6 0 0 1 0-.264.375.375 0 0 1 .385-.366m9.791 1.948c.193.075.29.292.215.485a5 5 0 0 1-.101.244.375.375 0 1 1-.686-.304q.046-.105.087-.21a.375.375 0 0 1 .485-.215m-9.602 0a.375.375 0 0 1 .485.215q.04.105.087.21a.375.375 0 1 1-.686.304 5 5 0 0 1-.101-.244.375.375 0 0 1 .215-.485m8.68 1.726c.15.143.157.38.014.53q-.09.096-.187.187a.375.375 0 0 1-.517-.543 5 5 0 0 0 .16-.16.375.375 0 0 1 .53-.014m-7.759 0a.375.375 0 0 1 .53.013q.08.082.16.16a.375.375 0 0 1-.516.544 5 5 0 0 1-.187-.187.375.375 0 0 1 .013-.53m1.51 1.244a.375.375 0 0 1 .495-.19q.105.045.21.086a.375.375 0 0 1-.27.7 5 5 0 0 1-.244-.101.375.375 0 0 1-.19-.495m4.74 0a.375.375 0 0 1-.191.495q-.12.054-.244.101a.375.375 0 1 1-.27-.7q.105-.04.21-.087c.189-.084.41.002.495.191m-2.868.57a.375.375 0 0 1 .384-.366 5 5 0 0 0 .228 0 .375.375 0 0 1 .018.75 5 5 0 0 1-.264 0 .375.375 0 0 1-.366-.385M5.625 1c0-.207.168-.375.375-.375A5.375 5.375 0 0 1 11.375 6a.375.375 0 0 1-.75 0A4.625 4.625 0 0 0 6 1.375.375.375 0 0 1 5.625 1M6 4.125c.207 0 .375.168.375.375v1.625H8a.375.375 0 1 1 0 .75H6a.375.375 0 0 1-.375-.375v-2c0-.207.168-.375.375-.375"/></g><defs><clipPath id="a"><path fill="#fff" d="M0 0h12v12H0z"/></clipPath></defs></svg>