<svg xmlns="http://www.w3.org/2000/svg" width="12" height="12" fill="none" viewBox="0 0 12 12"><g clip-path="url(#a)"><path fill="#f5f6f9" fill-rule="evenodd" d="M6 .625c.207 0 .375.168.375.375v.5a.375.375 0 1 1-.75 0V1c0-.207.168-.375.375-.375M2.2 2.199a.375.375 0 0 1 .53 0l.196.197a.375.375 0 1 1-.53.53L2.2 2.73a.375.375 0 0 1 0-.53m7.6 0a.375.375 0 0 1 0 .53l-.196.197a.375.375 0 0 1-.53-.53l.196-.197a.375.375 0 0 1 .53 0M6 3.375c-1.3 0-2.38.946-2.589 2.187a.375.375 0 0 1-.74-.124 3.376 3.376 0 0 1 6.657 0 .375.375 0 1 1-.74.124A2.626 2.626 0 0 0 6 3.375M.625 6c0-.207.168-.375.375-.375h.5a.375.375 0 1 1 0 .75H1A.375.375 0 0 1 .625 6m9.5 0c0-.207.168-.375.375-.375h.5a.375.375 0 0 1 0 .75h-.5A.375.375 0 0 1 10.125 6m-7.84.933c.343-.537 1.079-.52 1.444-.052.495.634 1.186 1.244 2.271 1.244 1.104 0 1.785-.49 2.252-1.115.36-.48 1.143-.56 1.52.012.313.473.652.843 1.314 1a.375.375 0 1 1-.172.73c-.926-.219-1.404-.767-1.767-1.317a.14.14 0 0 0-.127-.064.22.22 0 0 0-.167.089C8.269 8.24 7.38 8.875 6 8.875c-1.421 0-2.306-.82-2.862-1.532a.15.15 0 0 0-.123-.063.12.12 0 0 0-.098.057c-.37.578-.847 1.182-1.831 1.414a.375.375 0 1 1-.172-.73c.7-.165 1.04-.57 1.37-1.088m0 2.5c.343-.537 1.079-.52 1.444-.052.495.633 1.186 1.244 2.271 1.244 1.104 0 1.785-.49 2.252-1.115.36-.48 1.143-.56 1.52.012.313.473.652.843 1.314 1a.375.375 0 1 1-.172.73c-.926-.219-1.404-.767-1.767-1.317a.14.14 0 0 0-.127-.064.22.22 0 0 0-.167.089c-.584.78-1.473 1.415-2.853 1.415-1.421 0-2.306-.82-2.862-1.532a.15.15 0 0 0-.123-.063.12.12 0 0 0-.098.057c-.37.578-.847 1.182-1.831 1.414a.375.375 0 1 1-.172-.73c.7-.165 1.04-.57 1.37-1.088" clip-rule="evenodd"/></g><defs><clipPath id="a"><path fill="#fff" d="M0 0h12v12H0z"/></clipPath></defs></svg>