<svg xmlns="http://www.w3.org/2000/svg" width="12" height="12" fill="none" viewBox="0 0 12 12"><path fill="#f5f6f9" fill-rule="evenodd" d="M2.29 3.005c.346-.508 1.068-.489 1.432-.05.49.59 1.183 1.17 2.278 1.17 1.114 0 1.795-.465 2.26-1.048.36-.454 1.129-.526 1.507.011.309.44.647.79 1.314.939a.375.375 0 1 1-.162.732c-.92-.204-1.4-.718-1.766-1.24-.024-.034-.068-.06-.133-.058a.23.23 0 0 0-.174.083C8.26 4.283 7.371 4.874 6 4.874c-1.411 0-2.295-.765-2.855-1.44l.288-.24-.288.24a.17.17 0 0 0-.13-.06.12.12 0 0 0-.104.053c-.373.549-.852 1.115-1.83 1.332a.375.375 0 1 1-.162-.732c.706-.157 1.044-.54 1.372-1.022m0 2.5c.346-.508 1.068-.489 1.432-.05.49.59 1.183 1.17 2.278 1.17 1.114 0 1.795-.465 2.26-1.048.36-.454 1.129-.526 1.507.011.309.44.647.79 1.314.939a.375.375 0 1 1-.162.732c-.92-.204-1.4-.718-1.766-1.24-.024-.034-.068-.06-.133-.058a.23.23 0 0 0-.174.083C8.26 6.783 7.371 7.374 6 7.374c-1.411 0-2.295-.765-2.855-1.44a.17.17 0 0 0-.13-.06.12.12 0 0 0-.104.053c-.373.549-.852 1.115-1.83 1.332a.375.375 0 1 1-.162-.732c.706-.157 1.044-.54 1.372-1.022m0 2.5c.346-.508 1.068-.489 1.432-.05.49.59 1.183 1.17 2.278 1.17 1.114 0 1.795-.465 2.26-1.048.36-.454 1.129-.526 1.507.011.309.44.647.79 1.314.939a.375.375 0 1 1-.162.732c-.92-.204-1.4-.718-1.766-1.24-.024-.034-.068-.06-.133-.058a.23.23 0 0 0-.174.083C8.26 9.283 7.371 9.874 6 9.874c-1.411 0-2.295-.765-2.855-1.44a.17.17 0 0 0-.13-.059.12.12 0 0 0-.104.052c-.373.549-.852 1.115-1.83 1.332a.375.375 0 1 1-.162-.732c.706-.157 1.044-.54 1.372-1.022" clip-rule="evenodd"/></svg>