<svg xmlns="http://www.w3.org/2000/svg" width="12" height="12" fill="none" viewBox="0 0 12 12"><g clip-path="url(#a)"><path fill="#f5f6f9" fill-rule="evenodd" d="M5.75 1.375a4.375 4.375 0 1 0 0 8.75 4.375 4.375 0 0 0 0-8.75M.625 5.75A5.125 5.125 0 1 1 9.629 9.1l1.636 1.635a.375.375 0 0 1-.53.53L9.099 9.63A5.125 5.125 0 0 1 .625 5.75M5.75 4.125c.207 0 .375.168.375.375v.875H7a.375.375 0 1 1 0 .75h-.875V7a.375.375 0 1 1-.75 0v-.875H4.5a.375.375 0 1 1 0-.75h.875V4.5c0-.207.168-.375.375-.375" clip-rule="evenodd"/></g><defs><clipPath id="a"><path fill="#fff" d="M0 0h12v12H0z"/></clipPath></defs></svg>