<svg xmlns="http://www.w3.org/2000/svg" width="12" height="12" fill="none" viewBox="0 0 12 12"><g clip-path="url(#a)"><path fill="#f5f6f9" fill-rule="evenodd" d="M5.75 1.375a4.375 4.375 0 1 0 0 8.75 4.375 4.375 0 0 0 0-8.75M.625 5.75a5.125 5.125 0 1 1 10.25 0 5.125 5.125 0 0 1-10.25 0m3.65-1.657a1.87 1.87 0 0 1 1.475-.718c.599 0 1.132.28 1.476.718l.356-.178a.375.375 0 0 1 .336.67l-.357.179q.064.233.064.486v.125H8a.375.375 0 1 1 0 .75h-.375v.125q0 .253-.064.486l.357.179a.375.375 0 0 1-.336.67l-.356-.178a1.87 1.87 0 0 1-1.476.718c-.599 0-1.132-.28-1.476-.718l-.356.178a.375.375 0 0 1-.336-.67l.357-.179a2 2 0 0 1-.064-.486v-.125H3.5a.375.375 0 1 1 0-.75h.375V5.25q0-.253.064-.486l-.357-.179a.375.375 0 0 1 .336-.67zm.35 1.532v.625c0 .49.313.907.75 1.061V5.625zm1.5 0v1.686c.437-.154.75-.571.75-1.061v-.625zm.686-.75H4.689a1.125 1.125 0 0 1 2.122 0m2.924 4.86a.375.375 0 0 1 .53 0l1 1a.375.375 0 0 1-.53.53l-1-1a.375.375 0 0 1 0-.53" clip-rule="evenodd"/></g><defs><clipPath id="a"><path fill="#fff" d="M0 0h12v12H0z"/></clipPath></defs></svg>