<svg xmlns="http://www.w3.org/2000/svg" width="16" height="16" fill="none" viewBox="0 0 16 16"><path fill="#f5f6f9" fill-rule="evenodd" d="M12.637.833c-.289 0-.553 0-.769.03-.236.031-.487.106-.693.312s-.28.457-.313.694c-.029.215-.029.48-.029.768v8.726c0 .289 0 .553.03.769.031.236.106.487.312.693s.457.281.693.313c.216.029.48.029.769.029h.06c.288 0 .553 0 .768-.03.237-.031.487-.106.693-.312s.281-.457.313-.693c.03-.216.029-.48.029-.769V2.637c0-.289 0-.553-.029-.768-.032-.237-.107-.488-.313-.694s-.456-.28-.693-.313a6 6 0 0 0-.768-.029zm-.753 1.048-.002.001v.002l-.004.007a.5.5 0 0 0-.025.11c-.019.141-.02.337-.02.666v8.666c0 .329.001.525.02.665a.5.5 0 0 0 .025.111l.003.007.001.002h.002l.002.002.005.002a.5.5 0 0 0 .11.025c.141.019.337.02.666.02.328 0 .524-.001.665-.02a.5.5 0 0 0 .118-.028l.001-.001.001-.002.003-.007a.5.5 0 0 0 .025-.11c.019-.141.02-.337.02-.666V2.667c0-.329-.001-.525-.02-.665a.5.5 0 0 0-.028-.118v-.002h-.002l-.007-.004a.5.5 0 0 0-.111-.025 6 6 0 0 0-.665-.02c-.329 0-.525.001-.665.02a.5.5 0 0 0-.118.028M7.97 2.833h.06c.288 0 .553 0 .768.03.237.031.488.106.694.312s.28.457.312.694c.03.215.03.48.03.768v6.726c0 .289 0 .553-.03.769-.031.236-.106.487-.312.693s-.457.281-.694.313c-.215.029-.48.029-.768.029h-.06c-.288 0-.553 0-.768-.03-.237-.031-.488-.106-.694-.312s-.28-.457-.312-.693c-.03-.216-.03-.48-.03-.769V4.637c0-.289 0-.553.03-.768.031-.237.106-.488.312-.694s.457-.28.694-.313a6 6 0 0 1 .768-.029m-.755 1.05.002-.002-.001 8.237-.001-.002-.004-.007a.5.5 0 0 1-.024-.11 6 6 0 0 1-.02-.666V4.667c0-.329 0-.525.02-.665a.5.5 0 0 1 .028-.118zm0 8.235.002-8.237.003-.001.004-.002a.5.5 0 0 1 .111-.025c.14-.019.337-.02.665-.02s.524.001.665.02a.5.5 0 0 1 .118.028l.002.001v.002l.004.007a.5.5 0 0 1 .024.11c.02.141.02.337.02.666v6.666c0 .329 0 .525-.02.665a.5.5 0 0 1-.028.118v.002h-.002l-.004.003h-.003a.5.5 0 0 1-.111.026c-.14.019-.337.02-.665.02s-.524-.001-.665-.02a.5.5 0 0 1-.118-.028zM3.304 5.5c-.289 0-.554 0-.769.029-.237.032-.487.107-.693.313s-.281.456-.313.693c-.03.215-.029.48-.029.769v4.06c0 .288 0 .552.029.768.032.236.107.487.313.693s.456.281.693.313c.215.029.48.029.769.029h.06c.288 0 .552 0 .767-.03.237-.031.488-.106.694-.312s.28-.457.313-.693c.029-.216.029-.48.029-.769v-4.06c0-.288 0-.553-.03-.768-.031-.237-.106-.487-.312-.693s-.457-.281-.694-.313c-.215-.029-.48-.029-.768-.029zM2.55 6.548H2.55l-.001.002-.003.007a.5.5 0 0 0-.025.111c-.019.141-.02.337-.02.665v4c0 .329.001.525.02.665a.5.5 0 0 0 .028.118v.001l.002.002.007.003a.5.5 0 0 0 .111.025c.14.019.337.02.665.02.329 0 .525-.001.665-.02a.5.5 0 0 0 .118-.028l.002-.001v-.002l.002-.003.002-.004a.5.5 0 0 0 .025-.11c.019-.141.02-.337.02-.666v-4c0-.328-.001-.524-.02-.665a.5.5 0 0 0-.028-.118l-.001-.001-.002-.001-.007-.003A.5.5 0 0 0 4 6.52a6 6 0 0 0-.666-.02c-.328 0-.524.001-.665.02a.5.5 0 0 0-.118.028" clip-rule="evenodd"/><path fill="#f5f6f9" d="M2 14.167a.5.5 0 0 0 0 1h12a.5.5 0 1 0 0-1z"/></svg>