<svg xmlns="http://www.w3.org/2000/svg" width="16" height="16" fill="none" viewBox="0 0 16 16"><path fill="#f5f6f9" fill-rule="evenodd" d="M.98 4.314a.5.5 0 0 1 .706-.002L4.3 6.914c.342.34.564.56.75.701.173.132.254.147.307.147.054 0 .135-.015.309-.147.185-.14.407-.36.75-.7l.183-.182c.312-.311.582-.579.826-.765.262-.199.554-.35.913-.35s.65.151.912.35c.245.186.515.454.827.764l4.09 4.066V8.303a.5.5 0 0 1 1 0V12a.5.5 0 0 1-.5.5h-3.72a.5.5 0 1 1 0-1h2.508l-4.06-4.035c-.342-.34-.564-.56-.75-.7-.172-.132-.253-.146-.307-.146s-.135.014-.308.146c-.185.14-.407.36-.75.7l-.182.182c-.313.311-.583.58-.828.765-.262.2-.554.35-.913.35-.36 0-.65-.151-.913-.35-.245-.187-.514-.455-.827-.766l-.023-.024L.981 5.021a.5.5 0 0 1-.002-.707" clip-rule="evenodd"/></svg>