<svg xmlns="http://www.w3.org/2000/svg" width="16" height="16" fill="none" viewBox="0 0 16 16"><path fill="#f5f6f9" fill-rule="evenodd" d="M10.445 4.667a.5.5 0 0 1 .5-.5h3.722a.5.5 0 0 1 .5.5v3.697a.5.5 0 0 1-1 0V5.869l-4.09 4.065c-.313.31-.583.579-.828.764-.262.2-.553.35-.912.35-.36 0-.65-.15-.913-.35-.244-.186-.514-.453-.826-.764l-.183-.182c-.343-.34-.565-.56-.75-.7-.174-.132-.255-.147-.309-.147s-.134.015-.308.146c-.185.141-.407.36-.75.702l-2.612 2.601a.5.5 0 0 1-.705-.708L3.616 9.02c.313-.311.582-.58.827-.766.262-.2.554-.35.913-.35.36 0 .65.15.913.35.245.185.515.454.828.765l.182.182c.343.34.565.56.75.7.173.131.254.146.308.146s.135-.015.308-.146c.185-.14.407-.36.75-.7l4.06-4.035h-2.51a.5.5 0 0 1-.5-.5" clip-rule="evenodd"/></svg>