<svg xmlns="http://www.w3.org/2000/svg" width="16" height="16" fill="none" viewBox="0 0 16 16"><g fill="#f5f6f9" fill-rule="evenodd" clip-path="url(#a)" clip-rule="evenodd"><path d="M7.383 5.006C6.498 4.483 5.5 5.194 5.5 6.142v3.716c0 .948.998 1.66 1.883 1.136l3.147-1.857c.849-.502.849-1.772 0-2.273zM6.5 6.142c0-.132.064-.225.14-.272a.22.22 0 0 1 .235-.003l3.147 1.858a.31.31 0 0 1 .145.275.31.31 0 0 1-.145.275l-3.147 1.858a.22.22 0 0 1-.235-.003.31.31 0 0 1-.14-.272z"/><path d="M8 .833a7.167 7.167 0 1 0 0 14.334A7.167 7.167 0 0 0 8 .833M1.833 8a6.167 6.167 0 1 1 12.334 0A6.167 6.167 0 0 1 1.833 8"/></g><defs><clipPath id="a"><path fill="#fff" d="M0 0h16v16H0z"/></clipPath></defs></svg>