<svg xmlns="http://www.w3.org/2000/svg" width="14" height="14" fill="none" viewBox="0 0 14 14"><path fill="#f5f6f9" fill-rule="evenodd" d="M6.563 0c.31 0 .562.252.562.563v12a.562.562 0 1 1-1.125 0v-12C6 .252 6.252 0 6.563 0m-3 2.25c.31 0 .562.252.562.563v7.5a.562.562 0 1 1-1.125 0v-7.5c0-.311.252-.563.563-.563m6 0c.31 0 .562.252.562.563v7.5a.562.562 0 1 1-1.125 0v-7.5c0-.311.252-.563.563-.563m-9 3c.31 0 .562.252.562.563v1.5a.563.563 0 0 1-1.125 0v-1.5c0-.311.252-.563.563-.563m12 0c.31 0 .562.252.562.563v1.5a.562.562 0 1 1-1.125 0v-1.5c0-.311.252-.563.563-.563" clip-rule="evenodd"/></svg>