<svg xmlns="http://www.w3.org/2000/svg" width="16" height="16" fill="none" viewBox="0 0 16 16"><path fill="#f5f6f9" d="M7.354 5.98a.5.5 0 0 0-.708.707L7.96 8 6.646 9.313a.5.5 0 0 0 .708.707l1.313-1.313L9.98 10.02a.5.5 0 0 0 .707-.707L9.374 8l1.313-1.313a.5.5 0 1 0-.707-.707L8.667 7.293z"/><path fill="#f5f6f9" fill-rule="evenodd" d="M14.213 3.09c-.51-.497-1.156-.717-1.955-.822-.779-.101-1.775-.101-3.035-.101h-1.82c-.721 0-1.297 0-1.77.044-.487.045-.9.14-1.29.35s-.693.502-.992.883c-.29.367-.596.843-.978 1.438l-.482.75c-.318.497-.579.902-.756 1.255C.95 7.256.833 7.607.833 8s.117.744.302 1.113c.177.353.438.758.756 1.255l.482.75c.382.595.688 1.071.978 1.438.299.38.602.673.992.883s.803.305 1.29.35c.473.044 1.049.044 1.77.044h1.82c1.26 0 2.256 0 3.035-.102.799-.104 1.445-.324 1.955-.82.512-.499.74-1.132.849-1.917.105-.76.105-1.731.105-2.956v-.077c0-1.224 0-2.195-.105-2.956-.109-.784-.337-1.417-.85-1.916m-5.027.077c1.306 0 2.236 0 2.942.093.693.09 1.095.261 1.387.546.29.283.464.668.556 1.336.095.684.096 1.586.096 2.858s-.001 2.174-.096 2.858c-.092.668-.265 1.053-.556 1.336s-.694.455-1.387.546c-.706.092-1.636.093-2.942.093H7.428c-.752 0-1.281 0-1.702-.04-.41-.037-.678-.11-.908-.234s-.433-.305-.682-.621c-.256-.325-.536-.76-.935-1.382l-.454-.706c-.336-.525-.568-.886-.719-1.186-.145-.29-.195-.483-.195-.664s.05-.374.195-.664c.151-.3.383-.661.72-1.186l.453-.707c.399-.62.68-1.056.935-1.38.25-.317.453-.498.682-.622s.498-.197.908-.235c.42-.039.95-.04 1.702-.04z" clip-rule="evenodd"/></svg>