<svg width="12" height="12" viewBox="0 0 12 12" fill="none" xmlns="http://www.w3.org/2000/svg">
<path fill-rule="evenodd" clip-rule="evenodd" d="M6 0C6.28403 0 6.51429 0.230254 6.51429 0.514286L6.51429 11.4857C6.51429 11.7697 6.28403 12 6 12C5.71597 12 5.48572 11.7697 5.48572 11.4857L5.48571 0.514286C5.48571 0.230254 5.71597 0 6 0ZM3.25714 2.05714C3.54118 2.05714 3.77143 2.2874 3.77143 2.57143V9.42857C3.77143 9.7126 3.54118 9.94286 3.25714 9.94286C2.97311 9.94286 2.74286 9.7126 2.74286 9.42857V2.57143C2.74286 2.2874 2.97311 2.05714 3.25714 2.05714ZM8.74286 2.05714C9.02689 2.05714 9.25714 2.2874 9.25714 2.57143V9.42857C9.25714 9.7126 9.02689 9.94286 8.74286 9.94286C8.45883 9.94286 8.22857 9.7126 8.22857 9.42857V2.57143C8.22857 2.2874 8.45883 2.05714 8.74286 2.05714ZM0.514286 4.8C0.798318 4.8 1.02857 5.03025 1.02857 5.31429L1.02857 6.68571C1.02857 6.96975 0.798318 7.2 0.514286 7.2C0.230254 7.2 1.63487e-07 6.96975 1.63487e-07 6.68571L0 5.31429C-4.08718e-08 5.03025 0.230253 4.8 0.514286 4.8ZM11.4857 4.8C11.7697 4.8 12 5.03025 12 5.31429V6.68571C12 6.96975 11.7697 7.2 11.4857 7.2C11.2017 7.2 10.9714 6.96975 10.9714 6.68571V5.31429C10.9714 5.03025 11.2017 4.8 11.4857 4.8Z" fill="#F5F6F9"/>
</svg>
