<svg xmlns="http://www.w3.org/2000/svg" width="12" height="12" fill="none" viewBox="0 0 12 12"><path fill="#f5f6f9" fill-rule="evenodd" d="M6 4.125a1.875 1.875 0 1 0 0 3.75 1.875 1.875 0 0 0 0-3.75M4.875 6a1.125 1.125 0 1 1 2.25 0 1.125 1.125 0 0 1-2.25 0" clip-rule="evenodd"/><path fill="#f5f6f9" fill-rule="evenodd" d="M6 1.625c-2.257 0-3.777 1.352-4.66 2.498l-.016.021c-.2.26-.383.498-.508.78C.683 5.226.625 5.556.625 6s.058.774.191 1.076c.125.282.309.52.508.78l.016.02c.883 1.147 2.403 2.499 4.66 2.499s3.777-1.352 4.66-2.498l.016-.021c.2-.26.383-.498.508-.78.133-.302.191-.632.191-1.076s-.058-.774-.191-1.076c-.125-.282-.309-.52-.508-.78l-.016-.02C9.777 2.976 8.257 1.624 6 1.624M1.935 4.581C2.749 3.522 4.075 2.375 6 2.375s3.25 1.147 4.065 2.206c.22.285.348.455.433.646.079.179.127.397.127.773s-.048.594-.127.773c-.085.191-.213.361-.433.646C9.251 8.478 7.925 9.625 6 9.625S2.75 8.478 1.935 7.419c-.22-.285-.348-.455-.433-.646-.079-.179-.127-.397-.127-.773s.048-.594.127-.773c.085-.191.213-.361.433-.646" clip-rule="evenodd"/></svg>