<svg xmlns="http://www.w3.org/2000/svg" width="12" height="12" fill="none" viewBox="0 0 12 12"><path fill="#f5f6f9" fill-rule="evenodd" d="M5.194 1.625h1.612c.543 0 .983 0 1.338.042.37.045.686.139.964.355.277.217.445.502.578.85.127.333.234.76.365 1.287l.242.966H11a.375.375 0 0 1 0 .75H1a.375.375 0 1 1 0-.75h.707l.242-.966c.131-.527.238-.954.365-1.288.133-.347.301-.632.578-.849.278-.216.595-.31.964-.355.355-.042.795-.042 1.338-.042m-2.714 3.5h7.04l-.19-.762c-.14-.554-.236-.938-.345-1.225-.106-.277-.21-.424-.339-.525-.13-.1-.297-.166-.591-.2-.305-.037-.7-.038-1.272-.038H5.217c-.571 0-.967 0-1.272.037-.294.035-.462.1-.591.201-.13.101-.233.248-.339.525-.11.287-.206.67-.344 1.225zm.77 2.25a1.375 1.375 0 1 0 0 2.75 1.375 1.375 0 0 0 0-2.75M1.125 8.75A2.125 2.125 0 0 1 5.3 8.188c.449-.181.951-.181 1.4 0a2.126 2.126 0 1 1-.062.8l-.135-.067a1.13 1.13 0 0 0-1.006 0l-.135.067a2.125 2.125 0 0 1-4.237-.238M8.75 7.375a1.375 1.375 0 1 0 0 2.75 1.375 1.375 0 0 0 0-2.75" clip-rule="evenodd"/></svg>