<svg xmlns="http://www.w3.org/2000/svg" width="12" height="12" fill="none" viewBox="0 0 12 12"><g fill="#f5f6f9" fill-rule="evenodd" clip-path="url(#a)" clip-rule="evenodd"><path d="M7.84 2.674c-.814 0-1.477.658-1.477 1.473s.663 1.472 1.477 1.472 1.478-.657 1.478-1.472-.663-1.473-1.478-1.473m-.727 1.473c0-.398.324-.723.727-.723.404 0 .728.325.728.723a.725.725 0 0 1-.728.722.725.725 0 0 1-.727-.722"/><path d="M4.765 10.44c.166-.233.22-.469.216-.678q.295.084.576.03c.384-.073.669-.316.82-.517l.002-.003.003-.004c.262-.366.262-.74.197-1.01a1.4 1.4 0 0 0-.179-.424 1 1 0 0 0-.137-.197l.005-.005.232-.23c.19.09.398.148.58.185.292.061.579.081.76.081a3.53 3.53 0 0 0 3.535-3.521A3.53 3.53 0 0 0 7.84.625a3.53 3.53 0 0 0-3.534 3.522 3.3 3.3 0 0 0 .284 1.317L.963 9.077c-.129.127-.28.35-.325.628-.049.301.032.636.325.928l.44.439.022.02c.127.108.34.234.598.272a.99.99 0 0 0 .865-.292l.283-.282c.267.153.548.187.809.137a1.3 1.3 0 0 0 .78-.48l.002-.004zm.29-6.293A2.78 2.78 0 0 1 7.84 1.375a2.78 2.78 0 0 1 2.785 2.772A2.78 2.78 0 0 1 7.84 6.918c-.136 0-.371-.016-.609-.065-.248-.051-.443-.128-.547-.214a.375.375 0 0 0-.504.023l-.441.439c-.101.1-.198.214-.25.346a.53.53 0 0 0 .03.459c.045.079.115.154.145.185l.01.011a.4.4 0 0 1 .068.091l.013.027.015.02.003.006q.008.01.022.038c.018.037.04.088.055.149a.46.46 0 0 1-.075.395.63.63 0 0 1-.358.227c-.129.024-.338.008-.619-.271a.375.375 0 0 0-.529 0l-.147.146a.375.375 0 0 0-.016.515l.027.04a.7.7 0 0 1 .073.15.38.38 0 0 1-.048.363.56.56 0 0 1-.32.193c-.117.022-.267.006-.436-.163a.375.375 0 0 0-.529 0l-.514.512c-.083.082-.156.092-.226.082a.5.5 0 0 1-.213-.094l-.428-.427c-.12-.118-.124-.21-.113-.275a.44.44 0 0 1 .113-.218l3.822-3.806a.37.37 0 0 0 .053-.463l-.001-.002a1 1 0 0 1-.041-.074 2.51 2.51 0 0 1-.269-1.116M4.1 9.438l.002.002z"/></g><defs><clipPath id="a"><path fill="#fff" d="M0 0h12v12H0z"/></clipPath></defs></svg>