<svg xmlns="http://www.w3.org/2000/svg" width="12" height="12" fill="none" viewBox="0 0 12 12"><g fill="#f5f6f9" clip-path="url(#a)"><path d="M4.5 8a.5.5 0 1 1-1 0 .5.5 0 0 1 1 0M6.5 8a.5.5 0 1 1-1 0 .5.5 0 0 1 1 0M8 8.5a.5.5 0 1 0 0-1 .5.5 0 0 0 0 1"/><path fill-rule="evenodd" d="M2.625 4v.651q-.17.012-.32.032c-.45.06-.83.19-1.13.491-.302.301-.431.68-.492 1.13-.058.434-.058.985-.058 1.669v.054c0 .684 0 1.235.058 1.669.06.45.19.829.491 1.13s.68.43 1.13.49c.434.059.985.059 1.669.059h4.054c.684 0 1.235 0 1.669-.058.45-.06.829-.19 1.13-.491s.43-.68.49-1.13c.059-.434.059-.985.059-1.669v-.054c0-.684 0-1.235-.058-1.669-.06-.45-.19-.829-.491-1.13s-.68-.43-1.13-.49a5 5 0 0 0-.321-.033V4a3.375 3.375 0 0 0-6.75 0M6 1.375A2.625 2.625 0 0 0 3.375 4v.627q.28-.002.597-.002h4.055q.318 0 .598.002V4A2.625 2.625 0 0 0 6 1.375M2.404 5.427c-.367.049-.561.14-.7.278s-.228.332-.277.7c-.051.377-.052.877-.052 1.595s0 1.218.052 1.596c.049.367.14.561.278.7s.332.228.7.277c.377.051.877.052 1.595.052h4c.718 0 1.218 0 1.596-.052.367-.049.561-.14.7-.277.138-.139.228-.333.277-.7.051-.378.052-.878.052-1.596s0-1.218-.052-1.596c-.049-.367-.14-.561-.277-.7-.139-.138-.333-.228-.7-.277-.378-.051-.878-.052-1.596-.052H4c-.718 0-1.218 0-1.596.052" clip-rule="evenodd"/></g><defs><clipPath id="a"><path fill="#fff" d="M0 0h12v12H0z"/></clipPath></defs></svg>