<svg xmlns="http://www.w3.org/2000/svg" width="12" height="12" fill="none" viewBox="0 0 12 12"><path fill="#f5f6f9" d="M7.53 5.25a.375.375 0 0 0-.56-.5L5.464 6.437 5.03 5.95a.375.375 0 0 0-.56.5l.715.8a.375.375 0 0 0 .559 0z"/><path fill="#f5f6f9" fill-rule="evenodd" d="M6 .625c-.469 0-.916.153-1.638.4l-.364.125c-.74.254-1.312.45-1.721.615a4 4 0 0 0-.527.248c-.137.08-.275.18-.368.313-.093.132-.14.294-.17.45-.032.162-.05.356-.063.58-.024.443-.024 1.05-.024 1.839v.8c0 3.051 2.304 4.514 3.674 5.112l.014.006c.17.074.33.144.513.191.194.05.4.071.674.071.275 0 .48-.021.674-.07.184-.048.343-.118.513-.192l.014-.006c1.37-.598 3.674-2.06 3.674-5.111v-.801c0-.788 0-1.396-.024-1.84a4.4 4.4 0 0 0-.062-.58 1.2 1.2 0 0 0-.17-.45 1.1 1.1 0 0 0-.37-.312 4 4 0 0 0-.526-.248c-.409-.166-.98-.361-1.721-.615l-.364-.124C6.916.778 6.468.625 6 .625M4.54 1.757c.808-.276 1.131-.382 1.46-.382s.652.106 1.46.382l.286.098c.756.26 1.308.448 1.695.605.193.079.334.145.432.202a1 1 0 0 1 .104.07c.02.015.026.023.027.025q.003 0 .016.036.015.042.032.125c.022.113.039.269.05.478.023.421.023 1.008.023 1.812v.788c0 2.587-1.935 3.86-3.224 4.424a3 3 0 0 1-.413.158c-.114.029-.253.047-.488.047s-.374-.018-.488-.047a3 3 0 0 1-.413-.158C3.81 9.857 1.875 8.583 1.875 5.996v-.788c0-.804 0-1.39.023-1.812.011-.21.028-.365.05-.478a1 1 0 0 1 .032-.125l.016-.036.027-.026a1 1 0 0 1 .104-.07c.098-.056.239-.122.432-.2.387-.158.939-.347 1.695-.606z" clip-rule="evenodd"/></svg>