<svg xmlns="http://www.w3.org/2000/svg" width="12" height="12" fill="none" viewBox="0 0 12 12"><path fill="#f5f6f9" d="M6 3.625c.207 0 .375.168.375.375v2a.375.375 0 1 1-.75 0V4c0-.207.168-.375.375-.375M6 8a.5.5 0 1 0 0-1 .5.5 0 0 0 0 1"/><path fill="#f5f6f9" fill-rule="evenodd" d="M4.362 1.026C5.084.778 5.532.625 6 .625c.469 0 .916.153 1.638.4l.364.125c.74.254 1.312.45 1.721.615q.312.125.526.248c.138.08.276.18.37.313.092.132.14.294.17.45q.044.243.062.58c.024.443.024 1.05.024 1.839v.8c0 3.051-2.304 4.514-3.674 5.112l-.014.006c-.17.074-.33.144-.513.191-.194.05-.4.071-.674.071-.275 0-.48-.021-.674-.07-.184-.048-.343-.118-.513-.192l-.014-.006c-1.37-.598-3.674-2.06-3.674-5.111v-.801c0-.788 0-1.396.024-1.84q.017-.335.062-.58c.03-.155.078-.317.17-.45.094-.133.232-.232.37-.312.142-.083.32-.164.526-.248.409-.166.98-.361 1.721-.615zM6 1.375c-.329 0-.652.106-1.46.382l-.286.098c-.756.26-1.308.448-1.695.605a4 4 0 0 0-.432.202 1 1 0 0 0-.131.095l-.016.036a1 1 0 0 0-.032.125 4 4 0 0 0-.05.478c-.023.421-.023 1.008-.023 1.812v.788c0 2.587 1.935 3.86 3.224 4.424.186.081.293.127.413.158.114.029.253.047.488.047s.374-.018.488-.047c.12-.03.227-.077.413-.158 1.289-.563 3.224-1.837 3.224-4.424v-.788c0-.804 0-1.39-.023-1.812a4 4 0 0 0-.05-.478 1 1 0 0 0-.032-.125q-.013-.035-.016-.036 0-.002-.027-.026a1 1 0 0 0-.104-.07 4 4 0 0 0-.432-.2 37 37 0 0 0-1.695-.606l-.286-.098c-.808-.276-1.131-.382-1.46-.382" clip-rule="evenodd"/></svg>