<svg xmlns="http://www.w3.org/2000/svg" width="12" height="12" fill="none" viewBox="0 0 12 12"><g fill="#f5f6f9" clip-path="url(#a)"><path d="M6.375 1a.375.375 0 1 0-.75 0v1.5a.375.375 0 1 0 .75 0zM7.5 5.032a.375.375 0 1 0 0 .75c.421 0 .732.32.718.704a.375.375 0 1 0 .75.028c.03-.846-.659-1.482-1.468-1.482"/><path fill-rule="evenodd" d="M5.983 3.625c-.686 0-1.223 0-1.656.035-.44.036-.803.11-1.132.278-.541.276-.981.716-1.257 1.257-.167.329-.242.692-.278 1.132-.035.433-.035.97-.035 1.656v2.642H1a.375.375 0 0 0 0 .75h10a.375.375 0 0 0 0-.75h-.625V7.983c0-.686 0-1.223-.035-1.656-.036-.44-.11-.803-.278-1.132a2.88 2.88 0 0 0-1.257-1.257c-.329-.167-.692-.242-1.132-.278-.433-.035-.97-.035-1.656-.035zm.392 7h3.25V8c0-.706 0-1.213-.033-1.611-.032-.394-.094-.648-.199-.854a2.13 2.13 0 0 0-.928-.928c-.206-.105-.46-.167-.854-.2-.398-.032-.905-.032-1.611-.032s-1.213 0-1.611.033c-.394.032-.648.094-.854.199-.4.203-.725.528-.928.928-.105.206-.167.46-.2.854-.032.398-.032.905-.032 1.611v2.625h3.25v-.814a1.125 1.125 0 1 1 .75 0zM6 9.125a.375.375 0 1 0 0-.75.375.375 0 0 0 0 .75" clip-rule="evenodd"/><path d="m10.765 2.765-.75.75a.375.375 0 0 1-.53-.53l.75-.75a.375.375 0 0 1 .53.53M1.765 2.235a.375.375 0 0 0-.53.53l.75.75a.375.375 0 0 0 .53-.53z"/></g><defs><clipPath id="a"><path fill="#fff" d="M0 0h12v12H0z"/></clipPath></defs></svg>