<svg xmlns="http://www.w3.org/2000/svg" width="12" height="12" fill="none" viewBox="0 0 12 12"><g clip-path="url(#a)"><path fill="#f5f6f9" fill-rule="evenodd" d="M1.39 5.625H2a.375.375 0 1 1 0 .75h-.61c.08.995.475 1.902 1.085 2.62l.51-.51a.375.375 0 0 1 .53.53l-.51.51A4.6 4.6 0 0 0 6 10.625a4.6 4.6 0 0 0 2.995-1.1l-.51-.51a.375.375 0 1 1 .53-.53l.51.51a4.6 4.6 0 0 0 1.085-2.62H10a.375.375 0 0 1 0-.75h.61a4.6 4.6 0 0 0-1.085-2.62l-.51.51a.375.375 0 0 1-.53-.53l.51-.51a4.6 4.6 0 0 0-2.62-1.085V2a.375.375 0 0 1-.75 0v-.61a4.6 4.6 0 0 0-2.62 1.085l.51.51a.375.375 0 0 1-.53.53l-.51-.51a4.6 4.6 0 0 0-1.085 2.62M.625 6a5.375 5.375 0 1 1 10.75 0A5.375 5.375 0 0 1 .625 6m6.292-.674a1.125 1.125 0 0 0-1.591 1.59c.057.058.173.13.359.203.18.07.396.131.63.182.38.084.61.133.782.136.14.002.198-.026.256-.084s.086-.116.084-.256c-.003-.172-.052-.403-.136-.783a4 4 0 0 0-.182-.63c-.073-.185-.145-.3-.202-.358m-2.122-.53a1.875 1.875 0 0 1 2.652 0c.165.165.283.392.37.615.09.23.16.487.217.742l.007.033c.074.336.141.641.146.898.005.297-.072.567-.304.8-.232.231-.502.308-.8.303-.256-.005-.56-.072-.897-.146l-.033-.007a5 5 0 0 1-.742-.217c-.223-.087-.45-.205-.616-.37a1.875 1.875 0 0 1 0-2.652" clip-rule="evenodd"/></g><defs><clipPath id="a"><path fill="#fff" d="M0 0h12v12H0z"/></clipPath></defs></svg>