<svg xmlns="http://www.w3.org/2000/svg" width="16" height="16" fill="none" viewBox="0 0 16 16"><g clip-path="url(#a)"><path fill="#f5f6f9" fill-rule="evenodd" d="M7.667 1.833a5.833 5.833 0 1 0 0 11.667 5.833 5.833 0 0 0 0-11.667M.833 7.667a6.833 6.833 0 1 1 12.006 4.465l2.181 2.181a.5.5 0 0 1-.707.707l-2.18-2.18A6.833 6.833 0 0 1 .833 7.666M7.667 5.5a.5.5 0 0 1 .5.5v1.167h1.166a.5.5 0 1 1 0 1H8.167v1.166a.5.5 0 1 1-1 0V8.167H6a.5.5 0 0 1 0-1h1.167V6a.5.5 0 0 1 .5-.5" clip-rule="evenodd"/></g><defs><clipPath id="a"><path fill="#fff" d="M0 0h16v16H0z"/></clipPath></defs></svg>