<svg xmlns="http://www.w3.org/2000/svg" width="16" height="16" fill="none" viewBox="0 0 16 16"><g clip-path="url(#a)"><path fill="#f5f6f9" fill-rule="evenodd" d="M7.667 1.833a5.833 5.833 0 1 0 0 11.667 5.833 5.833 0 0 0 0-11.667M.833 7.667a6.833 6.833 0 1 1 13.667 0 6.833 6.833 0 0 1-13.667 0M5.7 5.457A2.5 2.5 0 0 1 7.667 4.5c.798 0 1.51.374 1.967.957l.476-.238a.5.5 0 1 1 .447.895l-.475.238q.084.31.085.648v.167h.5a.5.5 0 1 1 0 1h-.5v.166q-.001.338-.085.649l.475.237a.5.5 0 1 1-.447.895l-.476-.238a2.5 2.5 0 0 1-1.967.957c-.799 0-1.51-.374-1.968-.957l-.475.238a.5.5 0 1 1-.448-.895l.476-.237a2.5 2.5 0 0 1-.085-.649v-.166h-.5a.5.5 0 1 1 0-1h.5V7q.001-.338.085-.648l-.476-.238a.5.5 0 1 1 .448-.895zM6.167 7.5v.833a1.5 1.5 0 0 0 1 1.415V7.5zm2 0v2.248a1.5 1.5 0 0 0 1-1.415V7.5zm.914-1H6.252a1.5 1.5 0 0 1 2.83 0m3.899 6.48a.5.5 0 0 1 .707 0l1.333 1.333a.5.5 0 0 1-.707.707l-1.333-1.333a.5.5 0 0 1 0-.707" clip-rule="evenodd"/></g><defs><clipPath id="a"><path fill="#fff" d="M0 0h16v16H0z"/></clipPath></defs></svg>