<svg xmlns="http://www.w3.org/2000/svg" version="1.1" xmlns:xlink="http://www.w3.org/1999/xlink" width="1000" height="1000"><style>
    #light-icon {
      display: inline;
    }
    #dark-icon {
      display: none;
    }

    @media (prefers-color-scheme: dark) {
      #light-icon {
        display: none;
      }
      #dark-icon {
        display: inline;
      }
    }
  </style><g id="light-icon"><svg xmlns="http://www.w3.org/2000/svg" version="1.1" xmlns:xlink="http://www.w3.org/1999/xlink" width="1000" height="1000"><g clip-path="url(#SvgjsClipPath1100)"><rect width="1000" height="1000" fill="#e0452c"></rect><g transform="matrix(1.953125,0,0,1.953125,0,0)"><svg xmlns="http://www.w3.org/2000/svg" version="1.1" xmlns:xlink="http://www.w3.org/1999/xlink" width="512" height="512"><svg width="512" height="512" viewBox="0 0 512 512" fill="none" xmlns="http://www.w3.org/2000/svg">
<circle cx="256" cy="256" r="256" fill="#E0452C"></circle>
<g clip-path="url(#clip0_802_3948)">
<mask id="mask0_802_3948" style="mask-type:alpha" maskUnits="userSpaceOnUse" x="0" y="0" width="512" height="512">
<circle cx="256" cy="256" r="256" fill="#E0452C"></circle>
</mask>
<g mask="url(#mask0_802_3948)">
<path d="M208.391 510.951C236.479 502.773 265.462 496.487 294.002 489.144C304.96 486.388 315.95 483.586 326.917 480.693C332.459 479.223 337.805 477.8 343.399 476.223C346.212 475.427 349.031 474.611 351.738 473.794C353.338 473.287 354.434 472.972 356.171 472.363C356.992 472.074 357.528 471.907 358.617 471.462C359.096 471.268 359.562 471.072 360.055 470.845C360.842 470.426 361.642 470.171 363.554 468.595L363.717 468.449C375.686 459.064 387.679 449.733 399.705 440.587L401.254 439.028C440.085 395.149 481.35 365.204 503.023 289.517C503.592 278.393 500.734 271.627 498.988 266.619C498.506 265.075 495.946 260.063 494.086 257.73C492.13 255.095 490.578 253.474 489.21 252.064C486.514 249.336 484.408 247.512 482.344 245.738C478.276 242.275 474.56 239.37 470.851 236.514C463.477 230.857 456.264 225.596 448.961 220.348C400.878 186.048 352.5 153.627 303.499 121.578C295.245 116.199 287.085 110.881 278.7 105.486C274.495 102.786 270.319 100.107 265.721 97.2776C261.105 94.5721 256.035 90.9734 245.973 87.278C235.602 83.4687 224.24 78.7276 210.271 74.5119C196.202 71.4367 179.198 62.7181 147.777 75.4206C97.7984 98.2593 71.8884 140.333 48.4043 173.841C44.1967 180.16 40.0141 186.437 35.8238 192.728C24.3088 210.025 12.7751 227.316 1.24138 244.987C-4.48868 253.783 -10.2791 262.746 -16.0357 272.071C-18.9311 276.776 -21.8326 281.568 -24.8635 286.969C-26.3582 289.651 -27.9242 292.516 -29.6623 296.115C-30.089 297.003 -30.5414 297.971 -31.0338 299.085C-31.2759 299.633 -31.5075 300.172 -31.756 300.769C-32.0334 301.436 -32.3094 302.125 -32.585 302.849C-33.0817 304.155 -33.823 306.226 -34.4457 308.562C-35.1084 311.62 -36.3896 314.592 -35.9503 323.722C-34.0516 338.464 -30.5048 340.864 -29.0131 343.971C-27.1213 346.878 -25.906 348.334 -24.6084 349.892C-22.3159 352.58 -20.4683 354.406 -18.7612 356.05C-15.3844 359.266 -12.5067 361.682 -9.67813 363.995C-3.98924 368.616 1.29593 372.523 6.63493 376.356C17.266 383.958 27.8084 390.934 38.3708 397.683C59.53 411.175 80.8265 423.732 102.413 435.855C110.978 440.645 119.483 445.417 129.039 450.328C138.766 454.72 149.06 462.235 171.413 463.669C180.468 463.865 196.548 463.707 210.971 457.5C231.494 449.108 255.676 434.499 271.832 416.687C291.258 395.662 316.801 375.561 338.117 344.111C341.45 338.652 347.02 331.368 350.344 318.745C351.922 312.455 352.675 303.401 349.333 294.363C346.052 285.287 339.63 278.925 334.249 275.264C295.915 253.308 266.566 222.905 208.871 216.434C205.827 216.396 203.658 217.029 202.476 217.395C201.797 217.609 201.181 217.837 200.603 218.072C200.116 218.273 199.681 218.468 199.25 218.673C197.432 219.543 196.334 220.231 195.152 220.98C192.898 222.44 191.108 223.813 189.39 225.184C185.959 227.94 182.948 230.662 180.009 233.421C174.16 238.935 168.712 244.56 163.405 250.307C152.825 262.049 142.837 272.936 133.626 287.929L128.152 295.031L136.492 301.421C144.209 305.592 151.932 309.753 159.661 313.905C173.837 321.518 188.034 329.098 202.253 336.644L204.179 338.143L206.599 336.274C215.616 326.395 224.615 316.495 233.595 306.575C222.97 314.709 212.364 322.863 201.777 331.038L206.123 330.668C193.42 320.78 180.696 310.926 167.95 301.106C161 295.751 154.043 290.406 147.08 285.071L149.946 298.563C158.21 288.933 170.279 278.717 181.512 269.597C187.235 265.001 193.073 260.53 198.9 256.45C201.803 254.423 204.728 252.476 207.492 250.854C208.848 250.06 210.196 249.334 211.231 248.893C211.737 248.676 212.165 248.543 212.204 248.601C212.206 248.633 212.113 248.723 211.634 248.9C211.241 249.029 210.216 249.432 207.97 249.43C236.618 255.64 272.911 289.698 305.163 315.084C304.953 315.18 302.911 313.779 301.699 310.779C300.471 307.79 300.832 305.388 300.722 305.21C300.571 304.924 298.572 308.259 294.543 313.098C278.773 332.098 253.454 349.622 228.282 371.972C215.802 383.08 203.908 388.839 186.569 394.821C184.65 395.185 182.781 395.316 174.469 394.624C177.32 395.052 170.288 392.583 163.093 388.04C155.767 383.682 147.741 378.566 139.708 373.459C119.64 360.668 99.8345 347.644 80.6384 334.267C71.0864 327.599 61.6149 320.796 52.7672 314.005C48.3622 310.619 44.0973 307.221 40.408 304.026C38.6173 302.475 36.9268 300.918 35.9436 299.898C35.4761 299.421 35.1671 299.02 35.5763 299.464C35.8301 299.769 36.199 300.135 37.2375 301.717C37.6838 302.415 38.4608 303.649 39.3937 305.693C40.1151 307.348 41.9498 311.386 42.4684 317.856C42.828 325.774 41.7962 327.469 41.4984 329.159C41.1686 330.396 40.9347 331.005 40.8604 331.227C40.6747 331.734 40.8613 331.302 41.1162 330.83C41.6713 329.764 42.6706 327.982 43.7192 326.213C45.8854 322.549 48.4753 318.439 51.1194 314.33C56.4205 306.104 62.1556 297.52 67.8475 289.029C79.3386 271.909 91.0305 254.623 102.618 237.218C106.837 230.883 111.043 224.538 115.266 218.131C136.848 186.06 157.156 156.575 181.952 145.673C179.922 146.609 178.45 146.788 178.036 146.79C177.593 146.788 178.06 146.669 179.061 146.711C181.1 146.763 185.033 147.428 189.437 148.568C198.405 150.852 209.3 154.749 221.466 158.661C221.628 158.691 221.423 158.58 221.611 158.631C221.775 158.673 222.246 158.87 222.89 159.179C224.189 159.8 226.043 160.788 227.964 161.844C231.83 163.973 236.016 166.371 240.2 168.769C248.615 173.602 257.09 178.496 265.639 183.404C315.855 212.322 366.798 241.222 416.518 270.144C423.967 274.517 431.323 278.878 438.29 283.206C441.752 285.359 445.184 287.555 447.997 289.481C449.373 290.415 450.651 291.363 451.102 291.651C451.312 291.765 451.271 291.72 450.652 290.835C450.356 290.403 449.899 289.693 449.485 288.888C449.075 288.103 448.788 287.325 448.951 287.638C450.112 289.615 449.806 290.261 450.017 286.794C445.403 320.042 407.082 376.112 376.709 417.739L378.259 416.179C367.416 427.135 356.797 438.208 346.279 449.361L346.441 449.215C347.27 448.514 347.647 448.322 347.883 448.184C348.113 448.059 348.174 448.046 348.163 448.066C348.156 448.1 348.033 448.192 347.84 448.311C347.361 448.591 346.98 448.812 346.415 449.108C345.155 449.748 344.237 450.225 342.871 450.869C340.557 451.993 337.997 453.172 335.422 454.341C330.291 456.669 325.296 458.895 320.099 461.18C309.813 465.708 299.433 470.211 289.088 474.709C262.155 486.592 234.68 497.734 208.391 510.951Z" fill="white"></path>
</g>
</g>
<defs>
<clipPath id="clip0_802_3948">
<rect width="512" height="512" fill="white"></rect>
</clipPath>
<clipPath id="SvgjsClipPath1100"><rect width="1000" height="1000" x="0" y="0" rx="350" ry="350"></rect></clipPath></defs>
</svg></svg></g></g></svg></g><g id="dark-icon"><svg xmlns="http://www.w3.org/2000/svg" version="1.1" xmlns:xlink="http://www.w3.org/1999/xlink" width="1000" height="1000"><g clip-path="url(#SvgjsClipPath1101)"><rect width="1000" height="1000" fill="#e0452c"></rect><g transform="matrix(1.953125,0,0,1.953125,0,0)"><svg xmlns="http://www.w3.org/2000/svg" version="1.1" xmlns:xlink="http://www.w3.org/1999/xlink" width="512" height="512"><svg width="512" height="512" viewBox="0 0 512 512" fill="none" xmlns="http://www.w3.org/2000/svg">
<circle cx="256" cy="256" r="256" fill="#E0452C"></circle>
<g clip-path="url(#clip0_802_3948)">
<mask id="mask0_802_3948" style="mask-type:alpha" maskUnits="userSpaceOnUse" x="0" y="0" width="512" height="512">
<circle cx="256" cy="256" r="256" fill="#E0452C"></circle>
</mask>
<g mask="url(#mask0_802_3948)">
<path d="M208.391 510.951C236.479 502.773 265.462 496.487 294.002 489.144C304.96 486.388 315.95 483.586 326.917 480.693C332.459 479.223 337.805 477.8 343.399 476.223C346.212 475.427 349.031 474.611 351.738 473.794C353.338 473.287 354.434 472.972 356.171 472.363C356.992 472.074 357.528 471.907 358.617 471.462C359.096 471.268 359.562 471.072 360.055 470.845C360.842 470.426 361.642 470.171 363.554 468.595L363.717 468.449C375.686 459.064 387.679 449.733 399.705 440.587L401.254 439.028C440.085 395.149 481.35 365.204 503.023 289.517C503.592 278.393 500.734 271.627 498.988 266.619C498.506 265.075 495.946 260.063 494.086 257.73C492.13 255.095 490.578 253.474 489.21 252.064C486.514 249.336 484.408 247.512 482.344 245.738C478.276 242.275 474.56 239.37 470.851 236.514C463.477 230.857 456.264 225.596 448.961 220.348C400.878 186.048 352.5 153.627 303.499 121.578C295.245 116.199 287.085 110.881 278.7 105.486C274.495 102.786 270.319 100.107 265.721 97.2776C261.105 94.5721 256.035 90.9734 245.973 87.278C235.602 83.4687 224.24 78.7276 210.271 74.5119C196.202 71.4367 179.198 62.7181 147.777 75.4206C97.7984 98.2593 71.8884 140.333 48.4043 173.841C44.1967 180.16 40.0141 186.437 35.8238 192.728C24.3088 210.025 12.7751 227.316 1.24138 244.987C-4.48868 253.783 -10.2791 262.746 -16.0357 272.071C-18.9311 276.776 -21.8326 281.568 -24.8635 286.969C-26.3582 289.651 -27.9242 292.516 -29.6623 296.115C-30.089 297.003 -30.5414 297.971 -31.0338 299.085C-31.2759 299.633 -31.5075 300.172 -31.756 300.769C-32.0334 301.436 -32.3094 302.125 -32.585 302.849C-33.0817 304.155 -33.823 306.226 -34.4457 308.562C-35.1084 311.62 -36.3896 314.592 -35.9503 323.722C-34.0516 338.464 -30.5048 340.864 -29.0131 343.971C-27.1213 346.878 -25.906 348.334 -24.6084 349.892C-22.3159 352.58 -20.4683 354.406 -18.7612 356.05C-15.3844 359.266 -12.5067 361.682 -9.67813 363.995C-3.98924 368.616 1.29593 372.523 6.63493 376.356C17.266 383.958 27.8084 390.934 38.3708 397.683C59.53 411.175 80.8265 423.732 102.413 435.855C110.978 440.645 119.483 445.417 129.039 450.328C138.766 454.72 149.06 462.235 171.413 463.669C180.468 463.865 196.548 463.707 210.971 457.5C231.494 449.108 255.676 434.499 271.832 416.687C291.258 395.662 316.801 375.561 338.117 344.111C341.45 338.652 347.02 331.368 350.344 318.745C351.922 312.455 352.675 303.401 349.333 294.363C346.052 285.287 339.63 278.925 334.249 275.264C295.915 253.308 266.566 222.905 208.871 216.434C205.827 216.396 203.658 217.029 202.476 217.395C201.797 217.609 201.181 217.837 200.603 218.072C200.116 218.273 199.681 218.468 199.25 218.673C197.432 219.543 196.334 220.231 195.152 220.98C192.898 222.44 191.108 223.813 189.39 225.184C185.959 227.94 182.948 230.662 180.009 233.421C174.16 238.935 168.712 244.56 163.405 250.307C152.825 262.049 142.837 272.936 133.626 287.929L128.152 295.031L136.492 301.421C144.209 305.592 151.932 309.753 159.661 313.905C173.837 321.518 188.034 329.098 202.253 336.644L204.179 338.143L206.599 336.274C215.616 326.395 224.615 316.495 233.595 306.575C222.97 314.709 212.364 322.863 201.777 331.038L206.123 330.668C193.42 320.78 180.696 310.926 167.95 301.106C161 295.751 154.043 290.406 147.08 285.071L149.946 298.563C158.21 288.933 170.279 278.717 181.512 269.597C187.235 265.001 193.073 260.53 198.9 256.45C201.803 254.423 204.728 252.476 207.492 250.854C208.848 250.06 210.196 249.334 211.231 248.893C211.737 248.676 212.165 248.543 212.204 248.601C212.206 248.633 212.113 248.723 211.634 248.9C211.241 249.029 210.216 249.432 207.97 249.43C236.618 255.64 272.911 289.698 305.163 315.084C304.953 315.18 302.911 313.779 301.699 310.779C300.471 307.79 300.832 305.388 300.722 305.21C300.571 304.924 298.572 308.259 294.543 313.098C278.773 332.098 253.454 349.622 228.282 371.972C215.802 383.08 203.908 388.839 186.569 394.821C184.65 395.185 182.781 395.316 174.469 394.624C177.32 395.052 170.288 392.583 163.093 388.04C155.767 383.682 147.741 378.566 139.708 373.459C119.64 360.668 99.8345 347.644 80.6384 334.267C71.0864 327.599 61.6149 320.796 52.7672 314.005C48.3622 310.619 44.0973 307.221 40.408 304.026C38.6173 302.475 36.9268 300.918 35.9436 299.898C35.4761 299.421 35.1671 299.02 35.5763 299.464C35.8301 299.769 36.199 300.135 37.2375 301.717C37.6838 302.415 38.4608 303.649 39.3937 305.693C40.1151 307.348 41.9498 311.386 42.4684 317.856C42.828 325.774 41.7962 327.469 41.4984 329.159C41.1686 330.396 40.9347 331.005 40.8604 331.227C40.6747 331.734 40.8613 331.302 41.1162 330.83C41.6713 329.764 42.6706 327.982 43.7192 326.213C45.8854 322.549 48.4753 318.439 51.1194 314.33C56.4205 306.104 62.1556 297.52 67.8475 289.029C79.3386 271.909 91.0305 254.623 102.618 237.218C106.837 230.883 111.043 224.538 115.266 218.131C136.848 186.06 157.156 156.575 181.952 145.673C179.922 146.609 178.45 146.788 178.036 146.79C177.593 146.788 178.06 146.669 179.061 146.711C181.1 146.763 185.033 147.428 189.437 148.568C198.405 150.852 209.3 154.749 221.466 158.661C221.628 158.691 221.423 158.58 221.611 158.631C221.775 158.673 222.246 158.87 222.89 159.179C224.189 159.8 226.043 160.788 227.964 161.844C231.83 163.973 236.016 166.371 240.2 168.769C248.615 173.602 257.09 178.496 265.639 183.404C315.855 212.322 366.798 241.222 416.518 270.144C423.967 274.517 431.323 278.878 438.29 283.206C441.752 285.359 445.184 287.555 447.997 289.481C449.373 290.415 450.651 291.363 451.102 291.651C451.312 291.765 451.271 291.72 450.652 290.835C450.356 290.403 449.899 289.693 449.485 288.888C449.075 288.103 448.788 287.325 448.951 287.638C450.112 289.615 449.806 290.261 450.017 286.794C445.403 320.042 407.082 376.112 376.709 417.739L378.259 416.179C367.416 427.135 356.797 438.208 346.279 449.361L346.441 449.215C347.27 448.514 347.647 448.322 347.883 448.184C348.113 448.059 348.174 448.046 348.163 448.066C348.156 448.1 348.033 448.192 347.84 448.311C347.361 448.591 346.98 448.812 346.415 449.108C345.155 449.748 344.237 450.225 342.871 450.869C340.557 451.993 337.997 453.172 335.422 454.341C330.291 456.669 325.296 458.895 320.099 461.18C309.813 465.708 299.433 470.211 289.088 474.709C262.155 486.592 234.68 497.734 208.391 510.951Z" fill="white"></path>
</g>
</g>
<defs>
<clipPath id="clip0_802_3948">
<rect width="512" height="512" fill="white"></rect>
</clipPath>
<clipPath id="SvgjsClipPath1101"><rect width="1000" height="1000" x="0" y="0" rx="350" ry="350"></rect></clipPath></defs>
</svg></svg></g></g></svg></g></svg>