<svg xmlns="http://www.w3.org/2000/svg" width="12" height="12" fill="none" viewBox="0 0 12 12"><path fill="#f5f6f9" fill-rule="evenodd" d="M6.015 7.485a.375.375 0 0 1 0 .53l-1 1a.375.375 0 1 1-.53-.53l1-1a.375.375 0 0 1 .53 0m2.25 0a.375.375 0 0 1 0 .53l-1 1a.375.375 0 1 1-.53-.53l1-1a.375.375 0 0 1 .53 0m-4.25 1.75a.375.375 0 0 1 0 .53l-1 1a.375.375 0 0 1-.53-.53l1-1a.375.375 0 0 1 .53 0m4.75 0a.375.375 0 0 1 0 .53l-1 1a.375.375 0 0 1-.53-.53l1-1a.375.375 0 0 1 .53 0m-2.5.5a.375.375 0 0 1 0 .53l-1 1a.375.375 0 0 1-.53-.53l1-1a.375.375 0 0 1 .53 0" clip-rule="evenodd"/><path fill="#f5f6f9" d="M6.238 1.875c-1.375 0-2.482 1.1-2.482 2.449q0 .347.093.665c.248.072.481.18.691.32a.375.375 0 0 1-.414.625 1.77 1.77 0 0 0-.983-.294c-.98 0-1.768.784-1.768 1.742 0 .538.246 1.019.637 1.34a.375.375 0 1 1-.477.579 2.48 2.48 0 0 1-.91-1.919c0-1.352 1.085-2.446 2.432-2.49a3 3 0 0 1-.051-.568c0-1.771 1.451-3.199 3.232-3.199a3.224 3.224 0 0 1 3.178 2.61 3.2 3.2 0 0 1 1.959 2.941 3.19 3.19 0 0 1-1.416 2.646.375.375 0 1 1-.418-.622 2.44 2.44 0 0 0 1.084-2.024 2.45 2.45 0 0 0-1.669-2.314 2.5 2.5 0 0 0-1.642.006.375.375 0 0 1-.247-.708 3.26 3.26 0 0 1 1.512-.153 2.48 2.48 0 0 0-2.34-1.632"/></svg>