<svg xmlns="http://www.w3.org/2000/svg" width="12" height="12" fill="none" viewBox="0 0 12 12"><path fill="#f5f6f9" fill-rule="evenodd" d="M6.238 1.375c-1.375 0-2.482 1.1-2.482 2.449q0 .347.093.665c.248.072.481.18.691.32a.375.375 0 0 1-.414.625 1.77 1.77 0 0 0-.983-.294c-.98 0-1.768.784-1.768 1.742 0 .959.787 1.743 1.768 1.743a.375.375 0 0 1 0 .75C1.756 9.375.625 8.263.625 6.882c0-1.352 1.085-2.446 2.432-2.49a3 3 0 0 1-.051-.568c0-1.771 1.451-3.199 3.232-3.199a3.224 3.224 0 0 1 3.178 2.61 3.2 3.2 0 0 1 1.959 2.941c0 1.537-1.094 2.816-2.547 3.127a.375.375 0 1 1-.156-.734 2.46 2.46 0 0 0 1.953-2.393 2.45 2.45 0 0 0-1.669-2.314 2.5 2.5 0 0 0-1.642.006.375.375 0 0 1-.247-.708 3.26 3.26 0 0 1 1.512-.153 2.48 2.48 0 0 0-2.34-1.632m1.189 5.688a.375.375 0 0 1-.04.529L6.01 8.779h1.133a.375.375 0 0 1 .245.659l-2.143 1.846a.375.375 0 0 1-.49-.568l1.378-1.187H5a.375.375 0 0 1-.245-.66l2.143-1.845a.375.375 0 0 1 .529.039" clip-rule="evenodd"/></svg>