<svg xmlns="http://www.w3.org/2000/svg" width="12" height="12" fill="none" viewBox="0 0 12 12"><path fill="#f5f6f9" fill-rule="evenodd" d="M3.75.625c.207 0 .375.168.375.375v.25a.375.375 0 1 1-.75 0V1c0-.207.168-.375.375-.375m-2.21.915a.375.375 0 0 1 .53 0l.109.108a.375.375 0 0 1-.53.53l-.109-.107a.375.375 0 0 1 0-.53m4.42 0a.375.375 0 0 1 0 .53l-.109.109a.375.375 0 0 1-.53-.53l.108-.109a.375.375 0 0 1 .53 0M4 2.625a1.37 1.37 0 0 0-.962.393 1.372 1.372 0 0 0 .065 2.024A3.21 3.21 0 0 1 4.862 2.93 1.38 1.38 0 0 0 4 2.625m1.662.05a2.1 2.1 0 0 0-.447-.419A2.1 2.1 0 0 0 4 1.875a2.12 2.12 0 0 0-1.487.607 2.125 2.125 0 0 0 .494 3.397q.004.261.05.512C1.71 6.436.625 7.531.625 8.882c0 1.381 1.131 2.493 2.518 2.493h5c1.78 0 3.232-1.428 3.232-3.199 0-1.321-.81-2.452-1.96-2.94a3.224 3.224 0 0 0-3.177-2.611q-.295 0-.576.05m2.917 2.332a2.48 2.48 0 0 0-2.34-1.632c-1.376 0-2.483 1.1-2.483 2.449q0 .347.093.665c.248.072.481.18.691.32a.375.375 0 0 1-.414.625 1.77 1.77 0 0 0-.983-.294c-.98 0-1.768.784-1.768 1.742 0 .959.787 1.743 1.768 1.743h5c1.375 0 2.482-1.1 2.482-2.449a2.45 2.45 0 0 0-1.669-2.314 2.5 2.5 0 0 0-1.642.006.375.375 0 0 1-.247-.708 3.26 3.26 0 0 1 1.512-.153M.625 3.75c0-.207.168-.375.375-.375h.25a.375.375 0 1 1 0 .75H1a.375.375 0 0 1-.375-.375m1.554 1.571a.375.375 0 0 1 0 .53l-.108.109a.375.375 0 0 1-.53-.53l.107-.109a.375.375 0 0 1 .53 0" clip-rule="evenodd"/></svg>