<svg xmlns="http://www.w3.org/2000/svg" width="12" height="12" fill="none" viewBox="0 0 12 12"><path fill="#f5f6f9" fill-rule="evenodd" d="M6.238 2.375c-1.375 0-2.482 1.1-2.482 2.449q0 .347.093.665c.248.072.481.18.691.32a.375.375 0 0 1-.414.625 1.77 1.77 0 0 0-.983-.294c-.98 0-1.768.784-1.768 1.742 0 .959.787 1.743 1.768 1.743h5c1.375 0 2.482-1.1 2.482-2.449a2.45 2.45 0 0 0-1.669-2.314 2.5 2.5 0 0 0-1.642.006.375.375 0 0 1-.247-.708 3.26 3.26 0 0 1 1.512-.153 2.48 2.48 0 0 0-2.34-1.632m3.178 1.86a3.224 3.224 0 0 0-3.178-2.61c-1.78 0-3.232 1.428-3.232 3.199q0 .29.05.567C1.71 5.436.626 6.531.626 7.882c0 1.381 1.131 2.493 2.518 2.493h5c1.78 0 3.232-1.428 3.232-3.199 0-1.321-.81-2.452-1.96-2.94" clip-rule="evenodd"/></svg>