<svg xmlns="http://www.w3.org/2000/svg" width="12" height="12" fill="none" viewBox="0 0 12 12"><path fill="#f5f6f9" fill-rule="evenodd" d="M5.509 1.4a4.626 4.626 0 0 0-3.84 6.225h4.755a3.626 3.626 0 0 1-.915-6.224m3.566 6.225h1.257c.134-.359.226-.739.267-1.134-.395.502-.92.897-1.524 1.134m2.044.02A5.4 5.4 0 0 0 11.375 6c0-.358-.286-.538-.513-.568a.66.66 0 0 0-.65.302 2.875 2.875 0 1 1-3.947-3.947.66.66 0 0 0 .303-.649C6.538.911 6.358.625 6 .625a5.375 5.375 0 0 0-5.119 7.02.375.375 0 0 0 .119.73h10a.375.375 0 0 0 .119-.73M2.125 9.5c0-.207.168-.375.375-.375h7a.375.375 0 1 1 0 .75h-7a.375.375 0 0 1-.375-.375m1.5 1.5c0-.207.168-.375.375-.375h4a.375.375 0 0 1 0 .75H4A.375.375 0 0 1 3.625 11" clip-rule="evenodd"/><path fill="#f5f6f9" fill-rule="evenodd" d="M10.183 1.062a.491.491 0 0 0-.915 0l-.214.545-.543.214a.493.493 0 0 0 0 .917l.543.214.214.545a.491.491 0 0 0 .915 0l.214-.545.542-.214a.493.493 0 0 0 0-.917l-.542-.214zm-.458.203.208.528c.05.126.15.227.276.277l.529.21-.529.209a.5.5 0 0 0-.276.278l-.208.527-.207-.527a.5.5 0 0 0-.277-.278l-.529-.21.529-.209a.5.5 0 0 0 .277-.277zM8.25 3.973a.491.491 0 0 0-.915 0l-.077.197-.196.077a.493.493 0 0 0 0 .917l.196.077.077.197a.491.491 0 0 0 .915 0l.077-.197.196-.077a.493.493 0 0 0 0-.917l-.196-.077zm-.457.203.07.18c.05.127.15.227.277.278l.182.072-.182.072a.5.5 0 0 0-.277.277l-.07.18-.071-.18a.5.5 0 0 0-.277-.277l-.182-.072.182-.072a.5.5 0 0 0 .277-.278z" clip-rule="evenodd"/></svg>