<svg xmlns="http://www.w3.org/2000/svg" width="12" height="12" fill="none" viewBox="0 0 12 12"><path fill="#f5f6f9" fill-rule="evenodd" d="M6 .625c.207 0 .375.168.375.375v1.095l.86-.86a.375.375 0 0 1 .53.53l-1.39 1.39V5.35l1.901-1.097.509-1.9a.375.375 0 0 1 .724.195l-.314 1.175.948-.548a.375.375 0 1 1 .375.65l-.948.547 1.174.315a.375.375 0 1 1-.194.724l-1.899-.509L6.75 6l1.901 1.098 1.9-.51a.375.375 0 0 1 .193.725l-1.174.315.948.547a.375.375 0 0 1-.375.65l-.948-.548.314 1.175a.375.375 0 0 1-.724.194l-.509-1.899L6.375 6.65v2.195l1.39 1.39a.375.375 0 0 1-.53.53l-.86-.86V11a.375.375 0 0 1-.75 0V9.905l-.86.86a.375.375 0 0 1-.53-.53l1.39-1.39V6.65L3.724 7.747l-.509 1.9a.375.375 0 1 1-.724-.195l.314-1.175-.948.548a.375.375 0 1 1-.375-.65l.948-.547-1.174-.315a.375.375 0 0 1 .194-.724l1.899.509L5.25 6 3.349 4.902l-1.899.51a.375.375 0 1 1-.194-.725l1.174-.315-.948-.547a.375.375 0 0 1 .375-.65l.948.548-.314-1.175a.375.375 0 0 1 .724-.194l.509 1.899L5.625 5.35V3.155l-1.39-1.39a.375.375 0 0 1 .53-.53l.86.86V1c0-.207.168-.375.375-.375" clip-rule="evenodd"/></svg>