<svg xmlns="http://www.w3.org/2000/svg" width="12" height="12" fill="none" viewBox="0 0 12 12"><path fill="#f5f6f9" fill-rule="evenodd" d="M6 .625c.207 0 .375.168.375.375v1a.375.375 0 1 1-.75 0V1c0-.207.168-.375.375-.375M1.834 1.858a.375.375 0 0 1 .53-.024L3.475 2.85a.375.375 0 0 1-.506.554L1.858 2.388a.375.375 0 0 1-.024-.53m8.332 0c.14.153.129.39-.024.53L9.031 3.404a.375.375 0 0 1-.506-.554l1.11-1.016c.154-.14.39-.129.53.024M6 3.875a2.125 2.125 0 1 0 0 4.25 2.125 2.125 0 0 0 0-4.25M3.125 6a2.875 2.875 0 1 1 5.75 0 2.875 2.875 0 0 1-5.75 0m-2.5 0c0-.207.168-.375.375-.375h1a.375.375 0 1 1 0 .75H1A.375.375 0 0 1 .625 6m9 0c0-.207.168-.375.375-.375h1a.375.375 0 0 1 0 .75h-1A.375.375 0 0 1 9.625 6M8.513 8.513a.375.375 0 0 1 .53 0l1.111 1.11a.375.375 0 0 1-.53.531L8.513 9.043a.375.375 0 0 1 0-.53m-5.026 0a.375.375 0 0 1 0 .53l-1.11 1.111a.375.375 0 1 1-.531-.53l1.111-1.111a.375.375 0 0 1 .53 0M6 9.625c.207 0 .375.168.375.375v1a.375.375 0 0 1-.75 0v-1c0-.207.168-.375.375-.375" clip-rule="evenodd"/></svg>