<svg xmlns="http://www.w3.org/2000/svg" width="12" height="12" fill="none" viewBox="0 0 12 12"><path fill="#f5f6f9" fill-rule="evenodd" d="M2.156 2.25q.277-.085.724-.16c.788-.132 1.891-.215 3.12-.215a.375.375 0 1 0 0-.75c-1.257 0-2.403.085-3.244.225-.417.07-.776.155-1.04.26-.13.05-.259.114-.361.198a.57.57 0 0 0-.23.442c0 .216.131.362.23.442.102.084.231.148.361.199.264.104.623.19 1.04.26.84.14 1.987.224 3.244.224s2.403-.085 3.244-.225c.417-.07.776-.155 1.04-.26.13-.05.259-.114.361-.198a.57.57 0 0 0 .23-.442c0-.268-.198-.429-.315-.503a2 2 0 0 0-.498-.215c-.382-.116-.908-.21-1.52-.278a.375.375 0 0 0-.084.745c.594.066 1.068.154 1.385.25v.001q-.276.084-.723.16c-.788.132-1.891.215-3.12.215s-2.332-.083-3.12-.215a6 6 0 0 1-.724-.16m8.023.146-.006-.006zM10.353 3.874a.375.375 0 0 1-.226.479L10 4l.127.353h-.002l-.001.001-.005.002-.016.005a3 3 0 0 1-.266.08 10 10 0 0 1-.81.178c-.714.129-1.77.256-3.165.256-1.394 0-2.384-.127-3.033-.257a7 7 0 0 1-.725-.182 4 4 0 0 1-.234-.084l-.015-.006-.005-.002-.001-.001h-.001L2 4l-.153.342a.375.375 0 0 1 .304-.685m0 0 .005.002.03.012q.045.017.145.05c.135.042.347.101.645.161.597.12 1.538.243 2.886.243s2.36-.123 3.03-.244a9 9 0 0 0 .93-.217l.042-.014.01-.003.117.327-.117-.327c.194-.07.41.032.479.227M4.137 6.65a.375.375 0 0 0-.276.698L4 7l-.139.348h.001l.002.001.003.002.01.003a1 1 0 0 0 .138.045q.138.042.4.094c.353.067.876.132 1.585.132s1.232-.065 1.584-.132a4 4 0 0 0 .508-.128l.03-.01.01-.004.004-.002h.002L8 7l.139.348a.375.375 0 0 0-.276-.697m0 0a1 1 0 0 1-.088.028c-.069.02-.178.049-.33.078A8 8 0 0 1 6 6.875c-.663 0-1.14-.06-1.444-.118a4 4 0 0 1-.418-.106M8.355 8.129a.375.375 0 0 1-.234.476c-.4.137-.893.27-1.621.27a8.6 8.6 0 0 1-1.57-.129.375.375 0 1 1 .14-.737c.304.057.777.116 1.43.116.623 0 1.032-.111 1.379-.23a.375.375 0 0 1 .476.234M7.62 9.633a.375.375 0 0 1-.31.43 5 5 0 0 1-.81.062q-.364-.001-.664-.02a.375.375 0 1 1 .047-.749q.276.018.617.019c.267 0 .493-.02.69-.052a.375.375 0 0 1 .43.31M3.296 5.27a.375.375 0 0 0-.63.402L3 5.5l-.333.173.002.002.002.004.004.008a.4.4 0 0 0 .033.05 1 1 0 0 0 .063.07q.075.073.21.147c.178.097.457.197.9.276a.375.375 0 0 0 .13-.739c-.393-.07-.588-.15-.673-.196zm5.876-.103a.375.375 0 0 1 .161.505L9 5.5l.333.173-.001.002-.002.002-.003.006-.023.037a.767.767 0 0 1-.172.165 1.8 1.8 0 0 1-.494.223c-.457.141-1.25.267-2.638.267a.375.375 0 1 1 0-.75c1.354 0 2.062-.124 2.418-.233a1 1 0 0 0 .286-.123.375.375 0 0 1 .468-.102M6.125 11c0-.207.168-.375.375-.375v.75A.375.375 0 0 1 6.125 11m.375.375h.25a.375.375 0 0 0 0-.75H6.5z" clip-rule="evenodd"/></svg>