<svg xmlns="http://www.w3.org/2000/svg" width="12" height="12" fill="none" viewBox="0 0 12 12"><path fill="#f5f6f9" fill-rule="evenodd" d="M3.125 2.75A1.625 1.625 0 1 1 4.75 4.375H1.5a.375.375 0 1 1 0-.75h3.25a.875.875 0 1 0-.875-.875v.179a.375.375 0 1 1-.75 0zm4 1A2.125 2.125 0 1 1 9.25 5.875H1a.375.375 0 1 1 0-.75h8.25A1.375 1.375 0 1 0 7.875 3.75V4a.375.375 0 1 1-.75 0zM1.625 7c0-.207.168-.375.375-.375h7.25A2.125 2.125 0 1 1 7.125 8.75V8.5a.375.375 0 1 1 .75 0v.25A1.375 1.375 0 1 0 9.25 7.375H2A.375.375 0 0 1 1.625 7" clip-rule="evenodd"/></svg>