<svg xmlns="http://www.w3.org/2000/svg" width="16" height="16" fill="none" viewBox="0 0 16 16"><path stroke="#f5f6f9" stroke-linecap="round" d="M5.333 10.667c0 1.885 0 2.828.586 3.414s1.529.586 3.414.586H10c1.886 0 2.829 0 3.414-.586.586-.586.586-1.529.586-3.414V5.333c0-1.885 0-2.828-.586-3.414-.585-.586-1.528-.586-3.414-.586h-.667c-1.885 0-2.828 0-3.414.586s-.586 1.529-.586 3.414"/><path stroke="#f5f6f9" d="M5.333 13c-1.571 0-2.357 0-2.845-.488S2 11.238 2 9.667V6.333c0-1.571 0-2.357.488-2.845S3.762 3 5.333 3" opacity=".5"/><path stroke="#f5f6f9" stroke-linecap="round" stroke-linejoin="round" d="M4 8h6m0 0L8.333 9.667M10 8 8.333 6.333"/></svg>