<svg width="8" height="9" viewBox="0 0 8 9" fill="none" xmlns="http://www.w3.org/2000/svg">
<path d="M0.392395 3.94028C0.429234 3.33587 0.447653 3.03366 0.60427 2.74298C0.747364 2.47741 1.02115 2.2198 1.29494 2.09313C1.5946 1.95448 1.93808 1.95448 2.62504 1.95448C2.88108 1.95448 3.00909 1.95448 3.1331 1.93354C3.25569 1.91284 3.37523 1.87698 3.48897 1.82678C3.60403 1.776 3.71091 1.70554 3.92466 1.5646L4.03413 1.49242C5.30561 0.654079 5.94136 0.234907 6.47503 0.417025C6.57735 0.451942 6.67639 0.502344 6.76485 0.564507C7.2262 0.888735 7.26125 1.64309 7.33136 3.15179C7.35732 3.71042 7.375 4.18854 7.375 4.45448C7.375 4.72043 7.35732 5.19854 7.33136 5.75718C7.26125 7.26588 7.2262 8.02023 6.76485 8.34446C6.67639 8.40662 6.57735 8.45703 6.47503 8.49194C5.94136 8.67406 5.30561 8.25489 4.03413 7.41655L3.92466 7.34437C3.7109 7.20343 3.60403 7.13296 3.48897 7.08219C3.37523 7.03199 3.25569 6.99613 3.1331 6.97542C3.00909 6.95448 2.88108 6.95448 2.62504 6.95448C1.93808 6.95448 1.5946 6.95448 1.29494 6.81584C1.02115 6.68917 0.747364 6.43156 0.60427 6.16599C0.447653 5.87531 0.429234 5.5731 0.392395 4.96868C0.381496 4.78988 0.375 4.61568 0.375 4.45448C0.375 4.29328 0.381496 4.11909 0.392395 3.94028Z" stroke="#F5F6F9" stroke-width="0.75"/>
</svg>
