<svg xmlns="http://www.w3.org/2000/svg" width="16" height="16" fill="none" viewBox="0 0 16 16"><path fill="#f5f6f9" fill-rule="evenodd" d="M12.604 2.615a2.58 2.58 0 0 0-2.584-.677.5.5 0 0 1-.273-.962 3.58 3.58 0 0 1 3.572.939.5.5 0 0 1-.715.7m-5.144-.41c-.143-.244-.558-.393-.98-.151-.422.24-.496.665-.356.905l1.684 2.887a.5.5 0 1 1-.864.504L5.261 3.463 4.699 2.5c-.142-.244-.558-.393-.98-.151-.422.24-.496.664-.355.905l2.525 4.33a.5.5 0 1 1-.864.504L3.903 6.164c-.143-.245-.559-.394-.981-.152-.421.24-.495.664-.355.905l2.526 4.331c1.072 1.84 3.72 2.436 5.964 1.154 2.243-1.282 3.04-3.843 1.97-5.679l-1.683-2.887c-.143-.245-.559-.393-.981-.152-.421.24-.495.665-.355.905l1.122 1.925a.5.5 0 0 1-.184.686c-1.028.588-1.343 1.724-.893 2.496a.5.5 0 1 1-.864.504c-.706-1.21-.261-2.709.843-3.585zM9.28 3.34l-.955-1.637c-.477-.819-1.549-.97-2.341-.516-.244.14-.452.33-.609.553-.533-.588-1.451-.659-2.152-.259-.794.454-1.202 1.455-.722 2.277l.668 1.146a1.9 1.9 0 0 0-.742.24c-.794.454-1.202 1.455-.723 2.278l2.526 4.33c1.407 2.414 4.71 3.013 7.324 1.519 2.616-1.495 3.748-4.633 2.338-7.05l-1.684-2.888c-.477-.818-1.548-.969-2.34-.516a1.9 1.9 0 0 0-.588.523m-6.336 8.567a.5.5 0 0 1 .683.18c.552.945 1.394 1.66 2.434 2.124a.5.5 0 1 1-.408.913c-1.208-.539-2.22-1.386-2.89-2.533a.5.5 0 0 1 .18-.684" clip-rule="evenodd"/></svg>