<svg xmlns="http://www.w3.org/2000/svg" width="16" height="16" fill="none" viewBox="0 0 16 16"><path fill="#f5f6f9" fill-rule="evenodd" d="M8 5.5a2.5 2.5 0 1 0 0 5 2.5 2.5 0 0 0 0-5M6.5 8a1.5 1.5 0 1 1 3 0 1.5 1.5 0 0 1-3 0" clip-rule="evenodd"/><path fill="#f5f6f9" fill-rule="evenodd" d="M7.983.833c-.296 0-.544 0-.747.014a1.9 1.9 0 0 0-.604.126c-.45.186-.806.543-.992.992-.097.234-.124.48-.134.748a.58.58 0 0 1-.277.488.58.58 0 0 1-.56-.004c-.238-.125-.464-.226-.715-.259a1.83 1.83 0 0 0-1.356.363 1.9 1.9 0 0 0-.41.461c-.114.17-.238.383-.386.64l-.017.03c-.148.256-.272.47-.361.653-.093.19-.166.379-.194.586-.063.482.067.97.363 1.356.154.2.355.346.582.49A.58.58 0 0 1 2.459 8c0 .185-.102.37-.284.484-.227.143-.428.288-.582.49a1.83 1.83 0 0 0-.363 1.355c.028.207.1.396.194.586.09.183.213.397.361.654l.017.029c.148.257.272.47.385.64.118.176.245.333.411.46.386.297.874.427 1.356.364.25-.033.477-.134.714-.26.19-.1.4-.095.561-.003.16.093.27.272.277.488.01.268.037.514.134.748.186.45.542.806.992.992.193.08.393.111.604.126.203.014.45.014.747.014h.034c.296 0 .543 0 .747-.014.21-.015.41-.046.604-.126.45-.186.806-.543.992-.992.097-.234.123-.48.133-.748a.58.58 0 0 1 .278-.488.58.58 0 0 1 .56.004c.238.125.464.226.715.259.482.063.97-.067 1.355-.364.167-.127.293-.284.412-.46.113-.17.237-.383.385-.64l.017-.03c.148-.256.272-.47.361-.653.093-.19.166-.379.194-.586a1.83 1.83 0 0 0-.364-1.356c-.154-.2-.354-.347-.58-.49A.58.58 0 0 1 13.54 8c0-.185.102-.37.284-.484.227-.142.428-.288.582-.49.296-.385.426-.872.363-1.355a1.9 1.9 0 0 0-.194-.586 12 12 0 0 0-.361-.654l-.017-.029c-.148-.256-.272-.47-.385-.64a1.9 1.9 0 0 0-.412-.46 1.83 1.83 0 0 0-1.355-.364c-.25.033-.477.134-.714.26-.19.1-.4.096-.561.003a.58.58 0 0 1-.278-.488c-.01-.268-.036-.514-.133-.748a1.83 1.83 0 0 0-.992-.992 1.9 1.9 0 0 0-.604-.126C8.56.833 8.314.833 8.017.833zm-.969 1.064a1 1 0 0 1 .29-.052c.165-.011.378-.012.696-.012s.53 0 .695.012a1 1 0 0 1 .29.052.83.83 0 0 1 .452.45c.026.065.048.166.057.404.02.528.293 1.037.777 1.316s1.06.261 1.528.014c.21-.111.309-.142.378-.151.219-.029.44.03.616.165.044.034.1.092.19.225.092.137.199.322.357.597.16.275.265.46.338.608a1 1 0 0 1 .1.277c.03.22-.03.44-.165.616-.042.055-.118.125-.32.251A1.58 1.58 0 0 0 12.541 8c0 .559.304 1.05.752 1.33.202.127.278.197.32.252a.83.83 0 0 1 .165.616.9.9 0 0 1-.1.277 11 11 0 0 1-.338.608c-.158.275-.265.46-.357.597a1 1 0 0 1-.19.225.83.83 0 0 1-.616.165c-.07-.009-.168-.04-.378-.151a1.58 1.58 0 0 0-1.528.014c-.484.28-.757.788-.777 1.316-.009.238-.03.339-.057.403a.83.83 0 0 1-.451.451 1 1 0 0 1-.29.052c-.166.011-.379.012-.696.012-.318 0-.53 0-.696-.012a1 1 0 0 1-.29-.052.83.83 0 0 1-.45-.45c-.027-.065-.05-.165-.058-.404a1.58 1.58 0 0 0-.777-1.316 1.58 1.58 0 0 0-1.528-.014c-.21.111-.309.142-.378.151a.83.83 0 0 1-.616-.165 1 1 0 0 1-.19-.225 11 11 0 0 1-.358-.597c-.158-.275-.265-.46-.337-.608a1 1 0 0 1-.1-.277.83.83 0 0 1 .165-.616c.042-.055.118-.125.32-.251.447-.282.752-.772.752-1.33 0-.56-.305-1.05-.752-1.332-.202-.126-.278-.196-.32-.251a.83.83 0 0 1-.165-.616 1 1 0 0 1 .1-.277c.072-.149.179-.333.338-.608.158-.275.265-.46.357-.597a1 1 0 0 1 .19-.225.83.83 0 0 1 .616-.165c.07.009.167.04.378.151a1.58 1.58 0 0 0 1.528-.014c.484-.28.757-.788.777-1.316.009-.238.03-.339.057-.403a.83.83 0 0 1 .451-.451" clip-rule="evenodd"/></svg>