<svg xmlns="http://www.w3.org/2000/svg" width="16" height="16" fill="none" viewBox="0 0 16 16"><path fill="#f5f6f9" d="M11.306 6.5a.5.5 0 0 1-.5-.5V1.333a.5.5 0 0 1 1 0V6a.5.5 0 0 1-.5.5"/><path fill="#f5f6f9" fill-rule="evenodd" d="M4.667 3.833a2.5 2.5 0 1 1 0 5 2.5 2.5 0 0 1 0-5m1.5 2.5a1.5 1.5 0 1 0-3 0 1.5 1.5 0 0 0 3 0M11.333 12.167a2.5 2.5 0 1 0 0-5 2.5 2.5 0 0 0 0 5m1.5-2.5a1.5 1.5 0 1 1-3 0 1.5 1.5 0 0 1 3 0" clip-rule="evenodd"/><path fill="#f5f6f9" d="M4.139 10a.5.5 0 0 1 1 0v4.667a.5.5 0 1 1-1 0zM11.306 15.167a.5.5 0 0 1-.5-.5v-1.334a.5.5 0 1 1 1 0v1.334a.5.5 0 0 1-.5.5M4.139 1.333a.5.5 0 0 1 1 0v1.334a.5.5 0 1 1-1 0z"/></svg>