<svg xmlns="http://www.w3.org/2000/svg" width="16" height="16" fill="none" viewBox="0 0 16 16"><path fill="#f5f6f9" fill-rule="evenodd" d="M4.299 1.167c-.6 0-1.099 0-1.495.053-.419.056-.797.18-1.1.484-.304.303-.428.681-.484 1.1-.053.396-.053.896-.053 1.495v.069c0 .599 0 1.098.053 1.495.056.418.18.796.484 1.1.303.304.681.427 1.1.484.396.053.896.053 1.495.053h.069c.599 0 1.098 0 1.495-.053.418-.057.796-.18 1.1-.484s.427-.682.484-1.1c.053-.397.053-.896.053-1.495v-.07c0-.598 0-1.098-.053-1.494-.057-.419-.18-.797-.484-1.1s-.682-.428-1.1-.484c-.397-.053-.896-.053-1.495-.053zM2.41 2.41c.087-.087.218-.159.526-.2.322-.043.754-.044 1.396-.044.643 0 1.075 0 1.397.044.307.041.439.113.526.2s.158.218.2.526c.043.322.044.754.044 1.396 0 .643-.001 1.075-.044 1.397-.042.307-.113.439-.2.526s-.219.158-.526.2c-.322.043-.754.044-1.397.044-.642 0-1.074-.001-1.396-.044-.308-.042-.44-.113-.526-.2s-.159-.219-.2-.526c-.043-.322-.044-.754-.044-1.397 0-.642 0-1.074.044-1.396.041-.308.113-.44.2-.526M11.632 8.5c-.599 0-1.098 0-1.495.053-.419.056-.796.18-1.1.484s-.428.681-.484 1.1c-.053.396-.053.896-.053 1.495v.07c0 .598 0 1.098.053 1.494.056.419.18.797.484 1.1s.681.428 1.1.484c.396.053.896.053 1.495.053h.07c.598 0 1.098 0 1.494-.053.419-.056.797-.18 1.1-.484.304-.303.428-.681.484-1.1.053-.396.053-.896.053-1.495v-.069c0-.599 0-1.098-.053-1.495-.056-.419-.18-.796-.484-1.1-.303-.304-.681-.428-1.1-.484C12.8 8.5 12.3 8.5 11.701 8.5zM9.744 9.744c.087-.087.219-.158.526-.2.322-.043.754-.044 1.397-.044.642 0 1.074.001 1.396.044.308.042.44.113.526.2s.159.219.2.526c.043.322.044.754.044 1.397 0 .642 0 1.074-.044 1.396-.041.308-.113.44-.2.526s-.218.159-.526.2c-.322.043-.754.044-1.396.044-.643 0-1.075 0-1.397-.044-.307-.041-.44-.113-.526-.2s-.158-.218-.2-.526c-.043-.322-.044-.754-.044-1.396 0-.643.001-1.075.044-1.397.042-.307.113-.44.2-.526M4.299 8.5h.069c.599 0 1.098 0 1.495.053.418.056.796.18 1.1.484s.427.681.484 1.1c.053.396.053.896.053 1.495v.07c0 .598 0 1.098-.053 1.494-.057.419-.18.797-.484 1.1s-.682.428-1.1.484c-.397.053-.896.053-1.495.053h-.07c-.598 0-1.098 0-1.494-.053-.419-.056-.797-.18-1.1-.484-.304-.303-.428-.681-.484-1.1-.053-.396-.053-.896-.053-1.495v-.069c0-.599 0-1.098.053-1.495.056-.419.18-.796.484-1.1.303-.304.681-.428 1.1-.484C3.2 8.5 3.7 8.5 4.299 8.5M2.937 9.544c-.308.042-.44.113-.526.2s-.159.219-.2.526c-.043.322-.044.754-.044 1.397 0 .642 0 1.074.044 1.396.041.308.113.44.2.526s.218.159.526.2c.322.043.754.044 1.396.044.643 0 1.075 0 1.397-.044.307-.041.439-.113.526-.2s.158-.218.2-.526c.043-.322.044-.754.044-1.396 0-.643-.001-1.075-.044-1.397-.042-.307-.113-.44-.2-.526s-.219-.158-.526-.2c-.322-.043-.754-.044-1.397-.044-.642 0-1.074.001-1.396.044M11.632 1.167c-.599 0-1.098 0-1.495.053-.419.056-.796.18-1.1.484-.304.303-.428.681-.484 1.1C8.5 3.2 8.5 3.7 8.5 4.299v.069c0 .599 0 1.098.053 1.495.056.418.18.796.484 1.1s.681.427 1.1.484c.396.053.896.053 1.495.053h.07c.598 0 1.098 0 1.494-.053.419-.057.797-.18 1.1-.484s.428-.682.484-1.1c.053-.397.053-.896.053-1.495v-.07c0-.598 0-1.098-.053-1.494-.056-.419-.18-.797-.484-1.1-.303-.304-.681-.428-1.1-.484-.396-.053-.896-.053-1.495-.053zM9.744 2.41c.087-.087.219-.159.526-.2.322-.043.754-.044 1.397-.044.642 0 1.074 0 1.396.044.308.041.44.113.526.2s.159.218.2.526c.043.322.044.754.044 1.396 0 .643 0 1.075-.044 1.397-.041.307-.113.439-.2.526s-.218.158-.526.2c-.322.043-.754.044-1.396.044-.643 0-1.075-.001-1.397-.044-.307-.042-.44-.113-.526-.2s-.158-.219-.2-.526c-.043-.322-.044-.754-.044-1.397 0-.642.001-1.074.044-1.396.042-.308.113-.44.2-.526" clip-rule="evenodd"/></svg>