<svg xmlns="http://www.w3.org/2000/svg" width="12" height="12" fill="none" viewBox="0 0 12 12"><path stroke="#f5f6f9" stroke-width=".75" d="M9.375 4.855v-.353C9.375 2.568 7.864 1 6 1S2.625 2.568 2.625 4.502v.353a2.2 2.2 0 0 1-.346 1.188l-.554.862c-.506.787-.12 1.857.76 2.106 2.301.652 4.729.652 7.03 0 .88-.249 1.266-1.319.76-2.106l-.554-.862a2.2 2.2 0 0 1-.346-1.188Z"/><path stroke="#f5f6f9" stroke-linecap="round" stroke-linejoin="round" stroke-width=".75" d="M5 4.5h2l-2 2h2"/><path stroke="#f5f6f9" stroke-linecap="round" stroke-width=".75" d="M3.75 9.5C4.078 10.374 4.961 11 6 11s1.922-.626 2.25-1.5"/></svg>