<svg xmlns="http://www.w3.org/2000/svg" width="16" height="16" fill="none" viewBox="0 0 16 16"><g clip-path="url(#a)"><circle cx="8" cy="8" r="1.333" stroke="#f5f6f9" stroke-width=".75"/><path fill="#f5f6f9" fill-rule="evenodd" d="M5.231 1.445a.5.5 0 0 1 0 .707q-.238.238-.414.485a.5.5 0 1 1-.812-.584q.225-.315.519-.608a.5.5 0 0 1 .707 0m7.118 2.743a3.4 3.4 0 0 0-1.242-.073.5.5 0 1 1-.118-.993 4.4 4.4 0 0 1 1.604.096.5.5 0 0 1-.244.97m-8.42-1.04a.5.5 0 0 1 .363.607 3.4 3.4 0 0 0-.073 1.241.5.5 0 1 1-.993.119 4.4 4.4 0 0 1 .096-1.604.5.5 0 0 1 .607-.363m6.202.653a.5.5 0 0 1-.256.66c-.4.175-.778.405-1.119.673a.5.5 0 0 1-.617-.787c.403-.316.853-.59 1.333-.802a.5.5 0 0 1 .659.256m3.222.214a.5.5 0 0 1 .698-.114q.315.225.608.519a.5.5 0 1 1-.707.707 4 4 0 0 0-.485-.414.5.5 0 0 1-.114-.698M7.744 5.357a.5.5 0 0 1 .098.7 4 4 0 0 0-.124.174.5.5 0 0 1 .153.959c-.15.063-.294.158-.43.294a.5.5 0 0 1-.664.039.5.5 0 0 1-.47-.636c.14-.498.4-.985.737-1.432a.5.5 0 0 1 .7-.098m-3.839.616a.5.5 0 0 1 .66.256c.175.4.405.778.672 1.118a.5.5 0 0 1-.787.617 6.3 6.3 0 0 1-.8-1.332.5.5 0 0 1 .255-.659M8.6 6.55a.5.5 0 0 1 .617-.346c.498.141.985.4 1.431.737a.5.5 0 0 1-.602.798 4 4 0 0 0-.173-.124.5.5 0 0 1-.96.154 1.35 1.35 0 0 0-.293-.43.5.5 0 0 1-.04-.664.5.5 0 0 1 .02-.125m2.455 1.402a.5.5 0 0 1 .702.085c.316.403.59.852.801 1.332a.5.5 0 1 1-.915.403 5.3 5.3 0 0 0-.673-1.118.5.5 0 0 1 .085-.702m-4.416.015a.5.5 0 0 1 .655.266c.063.15.158.295.294.43a.5.5 0 0 1 .039.664.5.5 0 0 1-.636.47c-.498-.14-.985-.4-1.432-.736a.5.5 0 1 1 .602-.798q.087.064.174.124a.5.5 0 0 1 .304-.42m2.791.511a.5.5 0 0 0-.663.039c-.136.136-.281.231-.43.294a.5.5 0 0 0 .153.96q-.06.086-.124.173a.5.5 0 0 0 .798.602c.337-.447.596-.934.737-1.432a.5.5 0 0 0-.47-.636m2.996 1.971a.5.5 0 0 1 .555.438 4.4 4.4 0 0 1-.095 1.603.5.5 0 0 1-.97-.244 3.4 3.4 0 0 0 .072-1.241.5.5 0 0 1 .438-.556m-10.877.425a.5.5 0 0 1 .707 0q.237.238.485.414a.5.5 0 1 1-.584.812 5 5 0 0 1-.608-.519.5.5 0 0 1 0-.707m6.604.079a.5.5 0 0 1-.085.701 6.3 6.3 0 0 1-1.332.802.5.5 0 0 1-.403-.915c.4-.176.778-.406 1.118-.673a.5.5 0 0 1 .702.084m-4.901 1.223a.5.5 0 0 1 .607-.363 3.4 3.4 0 0 0 1.241.073.5.5 0 1 1 .118.993 4.4 4.4 0 0 1-1.603-.096.5.5 0 0 1-.363-.607m8.836 1.074a.5.5 0 0 1 .115.698q-.226.315-.52.608a.5.5 0 0 1-.706-.707q.237-.238.414-.485a.5.5 0 0 1 .697-.114" clip-rule="evenodd"/><path fill="#f5f6f9" fill-rule="evenodd" d="M7.15 8.332c.28.328.636.501 1.058.501.1 0 .194.03.272.081.232-.254.353-.56.353-.914 0-.154.07-.291.179-.383A1.33 1.33 0 0 0 8 7.167a.5.5 0 0 1-.261-.074c-.374.288-.572.663-.572 1.115a.5.5 0 0 1-.016.124m-.591-1.43a5 5 0 0 1-.006-1.499c.263-1.86 1.465-3.57 3.655-3.57a.5.5 0 0 0 0-1c-2.878 0-4.342 2.29-4.645 4.43-.153 1.075-.029 2.18.389 3.039.27.557.678 1.027 1.217 1.295a4.9 4.9 0 0 1-1.766.058C3.543 9.39 1.833 8.189 1.833 6a.5.5 0 1 0-1 0c0 2.877 2.29 4.342 4.43 4.645 1.075.152 2.18.028 3.039-.39.579-.28 1.064-.709 1.325-1.28.095.494.109 1.052.028 1.622-.264 1.86-1.466 3.57-3.655 3.57a.5.5 0 1 0 0 1c2.877 0 4.342-2.291 4.645-4.43.152-1.075.028-2.18-.39-3.039-.23-.475-.56-.887-.986-1.163.417-.051.869-.047 1.328.018 1.86.263 3.57 1.465 3.57 3.655a.5.5 0 0 0 1 0c0-2.878-2.29-4.342-4.43-4.645-1.075-.153-2.18-.029-3.039.389-.461.224-.863.541-1.14.95" clip-rule="evenodd"/></g><defs><clipPath id="a"><path fill="#fff" d="M0 0h16v16H0z"/></clipPath></defs></svg>