<svg xmlns="http://www.w3.org/2000/svg" width="16" height="16" fill="none" viewBox="0 0 16 16"><g clip-path="url(#a)"><path fill="#f5f6f9" fill-rule="evenodd" d="M3.719 3.562a6.167 6.167 0 0 0 4.535 10.6c-.137-.608-.156-1.425.262-2.212.435-.82 1.335-1.175 1.997-1.338a6 6 0 0 1 1.265-.17h.029c1.115-.011 1.617-.374 1.884-.72.228-.295.314-.59.4-.89l.035-.115A6.147 6.147 0 0 0 12.4 3.679l-.018.067a4 4 0 0 1-.474 1.09c-.17.26-.502.52-.776.718-.181.13-.37.24-.54.339l-.061.035c-.152.087-.289.166-.42.253-.288.19-.511.395-.661.704a.44.44 0 0 0-.023.327c.05.18.083.384.084.592.001.433-.22.784-.503 1.012-.28.226-.645.355-1.013.35C6.358 9.15 5.35 7.82 5.219 6.344c-.053-.588-.31-1.182-.636-1.702a6 6 0 0 0-.864-1.08m.778-.638c.276.279.624.692.933 1.186.372.594.713 1.342.785 2.143.1 1.12.808 1.903 1.79 1.914a.6.6 0 0 0 .376-.13c.097-.078.13-.16.13-.23 0-.104-.018-.219-.048-.33a1.44 1.44 0 0 1 .087-1.029c.257-.529.637-.856 1.01-1.102.159-.105.324-.2.473-.286l.06-.034c.17-.098.32-.186.455-.284.288-.207.47-.372.525-.456.121-.184.258-.49.345-.804a1.9 1.9 0 0 0 .081-.56A6.14 6.14 0 0 0 8 1.832a6.14 6.14 0 0 0-3.503 1.091m10.622 5.903q.048-.408.048-.827a7.167 7.167 0 1 0-.061.938l.032-.105zm-1.85 2.377c-.396.146-.875.232-1.452.238h-.02l-.06.002a5.125 5.125 0 0 0-.985.139c-.601.148-1.129.413-1.353.835-.303.572-.26 1.195-.147 1.621 1.7-.35 3.143-1.4 4.018-2.835" clip-rule="evenodd"/></g><defs><clipPath id="a"><path fill="#fff" d="M0 0h16v16H0z"/></clipPath></defs></svg>