<svg xmlns="http://www.w3.org/2000/svg" width="16" height="16" fill="none" viewBox="0 0 16 16"><path fill="#f5f6f9" fill-rule="evenodd" d="M8 3.167a4.833 4.833 0 0 0-3.543 8.121c1.295-.299 2.89-.906 4.528-1.778 1.53-.815 2.82-1.715 3.737-2.548A4.835 4.835 0 0 0 8 3.167m4.83 5.02c-.921.751-2.075 1.513-3.374 2.205-1.415.754-2.817 1.327-4.056 1.683a4.834 4.834 0 0 0 7.43-3.888m-8.69 4.187a5.833 5.833 0 0 0 9.654-5.053l.06-.06c.502-.513.895-1.027 1.115-1.512.216-.478.305-1.03.008-1.505-.28-.448-.79-.641-1.304-.71-.514-.07-1.135-.03-1.813.092A5.833 5.833 0 0 0 2.206 8.68c-.506.508-.903 1.014-1.136 1.491-.244.5-.36 1.085-.047 1.586.289.462.822.653 1.355.717.503.06 1.105.019 1.762-.1m-.823-.895a5.8 5.8 0 0 1-.845-1.612 3.8 3.8 0 0 0-.504.742c-.185.378-.139.55-.097.617.049.078.203.204.625.254q.343.04.82-.001m9.366-6.957q.504-.044.857.003c.396.053.542.174.589.25.04.062.084.219-.072.562a3.6 3.6 0 0 1-.529.797 5.8 5.8 0 0 0-.845-1.612" clip-rule="evenodd"/></svg>