<svg xmlns="http://www.w3.org/2000/svg" width="16" height="16" fill="none" viewBox="0 0 16 16"><path fill="#f5f6f9" fill-rule="evenodd" d="M8 2.167a.5.5 0 0 1 .5.5v1.6a.5.5 0 0 1-1 0v-1.6a.5.5 0 0 1 .5-.5m4.125 1.708a.5.5 0 0 1 0 .707l-1.132 1.132a.5.5 0 1 1-.707-.707l1.132-1.132a.5.5 0 0 1 .707 0m-8.25 0a.5.5 0 0 1 .707 0l1.132 1.132a.5.5 0 0 1-.708.707l-1.13-1.132a.5.5 0 0 1 0-.707M2.167 8a.5.5 0 0 1 .5-.5h1.6a.5.5 0 0 1 0 1h-1.6a.5.5 0 0 1-.5-.5m9.066 0a.5.5 0 0 1 .5-.5h1.6a.5.5 0 0 1 0 1h-1.6a.5.5 0 0 1-.5-.5m-5.52 2.286a.5.5 0 0 1 0 .707l-1.13 1.132a.5.5 0 1 1-.708-.707l1.132-1.132a.5.5 0 0 1 .707 0m4.573 0a.5.5 0 0 1 .707 0l1.132 1.132a.5.5 0 0 1-.707.707l-1.132-1.132a.5.5 0 0 1 0-.707M8 11.233a.5.5 0 0 1 .5.5v1.6a.5.5 0 0 1-1 0v-1.6a.5.5 0 0 1 .5-.5" clip-rule="evenodd"/></svg>