<svg xmlns="http://www.w3.org/2000/svg" width="12" height="12" fill="none" viewBox="0 0 12 12"><path fill="#f5f6f9" d="M5.515 4.485a.375.375 0 1 0-.53.53L5.97 6l-.985.985a.375.375 0 1 0 .53.53L6.5 6.53l.985.985a.375.375 0 0 0 .53-.53L7.03 6l.985-.985a.375.375 0 1 0-.53-.53L6.5 5.47z"/><path fill="#f5f6f9" fill-rule="evenodd" d="M10.66 2.317c-.383-.372-.867-.537-1.467-.616-.584-.076-1.33-.076-2.276-.076H5.553c-.542 0-.974 0-1.328.033-.365.034-.675.105-.967.263-.293.158-.52.377-.745.662-.217.275-.447.632-.733 1.079l-.361.562c-.24.372-.435.676-.568.941-.139.277-.226.54-.226.835s.087.558.226.835c.133.265.328.569.568.94l.36.563c.287.447.517.804.734 1.08.224.284.452.503.745.661.292.158.602.229.967.263.354.033.786.033 1.328.033h1.364c.946 0 1.692 0 2.276-.076.6-.079 1.084-.244 1.467-.616.384-.374.555-.849.636-1.437.079-.57.079-1.299.079-2.217V5.97c0-.918 0-1.647-.079-2.217-.081-.588-.252-1.063-.636-1.437m-3.77.058c.979 0 1.676 0 2.206.07.52.068.821.196 1.04.41.218.212.348.5.417 1.002.071.513.072 1.19.072 2.143 0 .954 0 1.63-.072 2.143-.069.501-.199.79-.417 1.002-.219.214-.52.342-1.04.41-.53.07-1.227.07-2.207.07H5.571c-.564 0-.961 0-1.276-.03-.308-.028-.509-.083-.681-.176s-.325-.229-.512-.466c-.192-.243-.402-.57-.701-1.036l-.34-.53c-.253-.393-.426-.664-.54-.889-.109-.217-.146-.362-.146-.498s.037-.28.146-.498c.114-.225.287-.496.54-.89l.34-.53c.299-.465.51-.792.701-1.035.187-.237.34-.373.512-.466s.373-.148.68-.176c.316-.03.713-.03 1.277-.03z" clip-rule="evenodd"/></svg>