<svg width="12" height="12" viewBox="0 0 12 12" fill="none" xmlns="http://www.w3.org/2000/svg">
<g clip-path="url(#clip0_599_11486)">
<path fill-rule="evenodd" clip-rule="evenodd" d="M6 1.375C3.44861 1.375 1.375 3.46137 1.375 6.0416C1.375 8.30327 2.96904 10.1868 5.0811 10.6162C5.33486 10.6678 5.625 10.4545 5.625 10.0749V7.83749C4.76916 7.66377 4.125 6.90711 4.125 6V5.9C4.125 5.48034 4.45855 5.13859 4.875 5.1254V4.5C4.875 4.29289 5.04289 4.125 5.25 4.125C5.45711 4.125 5.625 4.29289 5.625 4.5V5.125H6.375V4.5C6.375 4.29289 6.54289 4.125 6.75 4.125C6.95711 4.125 7.125 4.29289 7.125 4.5V5.1254C7.54145 5.13859 7.875 5.48034 7.875 5.9V6C7.875 6.90711 7.23084 7.66377 6.375 7.83749V10.0749C6.375 10.809 5.76068 11.5197 4.93167 11.3511C2.47289 10.8513 0.625 8.66266 0.625 6.0416C0.625 3.05303 3.02855 0.625 6 0.625C8.97145 0.625 11.375 3.05303 11.375 6.0416C11.375 8.18448 10.1399 10.0376 8.34703 10.9158C8.16104 11.0069 7.9364 10.93 7.8453 10.744C7.75419 10.558 7.83111 10.3334 8.0171 10.2423C9.56042 9.48629 10.625 7.88987 10.625 6.0416C10.625 3.46137 8.55139 1.375 6 1.375ZM4.9 5.875C4.88619 5.875 4.875 5.88619 4.875 5.9V6C4.875 6.62132 5.37868 7.125 6 7.125C6.62132 7.125 7.125 6.62132 7.125 6V5.9C7.125 5.88619 7.11381 5.875 7.1 5.875H4.9Z" fill="#1EFC1E"/>
</g>
<defs>
<clipPath id="clip0_599_11486">
<rect width="12" height="12" fill="white"/>
</clipPath>
</defs>
</svg>
