<svg xmlns="http://www.w3.org/2000/svg" width="16" height="16" fill="none" viewBox="0 0 16 16"><g clip-path="url(#a)"><path fill="#f5f6f9" fill-rule="evenodd" d="M8 .833a.5.5 0 0 1 .5.5V2a.5.5 0 0 1-1 0v-.667a.5.5 0 0 1 .5-.5m-5.067 2.1a.5.5 0 0 1 .707 0l.262.261a.5.5 0 0 1-.707.707l-.262-.261a.5.5 0 0 1 0-.708m10.134 0a.5.5 0 0 1 0 .707l-.262.262a.5.5 0 1 1-.707-.707l.262-.262a.5.5 0 0 1 .707 0M8 4.5a3.5 3.5 0 0 0-3.452 2.916.5.5 0 0 1-.986-.165 4.501 4.501 0 0 1 8.876 0 .5.5 0 0 1-.986.165A3.5 3.5 0 0 0 8 4.5M.833 8a.5.5 0 0 1 .5-.5H2a.5.5 0 0 1 0 1h-.667a.5.5 0 0 1-.5-.5M13.5 8a.5.5 0 0 1 .5-.5h.667a.5.5 0 0 1 0 1H14a.5.5 0 0 1-.5-.5M3.047 9.244c.458-.716 1.438-.693 1.925-.07.66.845 1.581 1.66 3.028 1.66 1.472 0 2.38-.653 3.003-1.487.48-.641 1.524-.746 2.027.015.417.63.87 1.125 1.751 1.333a.5.5 0 1 1-.229.973c-1.235-.29-1.872-1.022-2.356-1.754a.19.19 0 0 0-.169-.085.29.29 0 0 0-.223.117C11.026 10.987 9.84 11.833 8 11.833c-1.895 0-3.074-1.093-3.816-2.043a.2.2 0 0 0-.164-.083.15.15 0 0 0-.131.076c-.493.77-1.13 1.576-2.441 1.885a.5.5 0 0 1-.23-.973c.935-.22 1.387-.76 1.829-1.451m0 3.333c.458-.716 1.438-.692 1.925-.07.66.846 1.581 1.66 3.028 1.66 1.472 0 2.38-.653 3.003-1.486.48-.642 1.524-.747 2.027.015.417.63.87 1.124 1.751 1.332a.5.5 0 1 1-.229.974c-1.235-.291-1.872-1.023-2.356-1.755a.19.19 0 0 0-.169-.085.29.29 0 0 0-.223.118C11.026 14.32 9.84 15.167 8 15.167c-1.895 0-3.074-1.094-3.816-2.043a.2.2 0 0 0-.164-.084.15.15 0 0 0-.131.076c-.493.77-1.13 1.577-2.441 1.886a.5.5 0 1 1-.23-.974c.935-.22 1.387-.76 1.829-1.45" clip-rule="evenodd"/></g><defs><clipPath id="a"><path fill="#fff" d="M0 0h16v16H0z"/></clipPath></defs></svg>