<svg xmlns="http://www.w3.org/2000/svg" width="16" height="16" fill="none" viewBox="0 0 16 16"><path fill="#f5f6f9" fill-rule="evenodd" d="M3.054 4.007c.46-.677 1.423-.652 1.908-.067C5.617 4.728 6.54 5.5 8 5.5c1.485 0 2.394-.62 3.012-1.397.481-.605 1.506-.702 2.01.015.413.587.863 1.054 1.753 1.251a.5.5 0 1 1-.216.976c-1.228-.272-1.866-.957-2.355-1.652-.032-.046-.09-.08-.177-.079a.3.3 0 0 0-.232.111C11.011 5.71 9.827 6.5 8 6.5c-1.882 0-3.06-1.022-3.807-1.921l.385-.32-.385.32A.22.22 0 0 0 4.02 4.5a.16.16 0 0 0-.138.07c-.497.73-1.135 1.486-2.44 1.775a.5.5 0 1 1-.216-.976c.941-.208 1.392-.72 1.83-1.362m0 3.333c.46-.677 1.423-.651 1.908-.067.655.788 1.578 1.56 3.038 1.56 1.485 0 2.394-.62 3.012-1.397.481-.605 1.506-.702 2.01.015.413.587.863 1.054 1.753 1.251a.5.5 0 1 1-.216.977c-1.228-.272-1.866-.957-2.355-1.653-.032-.046-.09-.08-.177-.078a.3.3 0 0 0-.232.11C11.011 9.044 9.827 9.833 8 9.833c-1.882 0-3.06-1.021-3.807-1.921a.22.22 0 0 0-.174-.079.16.16 0 0 0-.138.07c-.497.731-1.135 1.487-2.44 1.776a.5.5 0 0 1-.216-.977c.941-.208 1.392-.719 1.83-1.362m0 3.334c.46-.677 1.423-.652 1.908-.068.655.789 1.578 1.56 3.038 1.56 1.485 0 2.394-.62 3.012-1.397.481-.604 1.506-.701 2.01.016.413.586.863 1.054 1.753 1.25a.5.5 0 1 1-.216.977c-1.228-.272-1.866-.957-2.355-1.652-.032-.046-.09-.08-.177-.079a.3.3 0 0 0-.232.11c-.784.986-1.968 1.776-3.795 1.776-1.882 0-3.06-1.022-3.807-1.922a.22.22 0 0 0-.174-.078.16.16 0 0 0-.138.07c-.497.73-1.135 1.486-2.44 1.775a.5.5 0 1 1-.216-.976c.941-.209 1.392-.72 1.83-1.362" clip-rule="evenodd"/></svg>