<svg xmlns="http://www.w3.org/2000/svg" width="12" height="12" fill="none" viewBox="0 0 12 12"><g stroke="#f5f6f9" stroke-width=".75" clip-path="url(#a)"><path d="m4.606 5.087 1.008-.802c.651-.52.977-.778 1.181-.65s.099.524-.114 1.318l-.02.074c-.076.286-.115.43-.047.544l.003.006c.07.112.219.152.517.232.535.144.803.215.85.402l.003.01c.04.187-.17.356-.593.692l-1.008.803c-.651.518-.977.778-1.181.65-.205-.129-.099-.525.114-1.318l.02-.075c.076-.286.115-.43.047-.543l-.003-.006c-.07-.113-.219-.153-.517-.233-.535-.143-.803-.215-.85-.402l-.003-.01c-.04-.187.17-.356.593-.692Z"/><path d="M1 6a5 5 0 1 1 10 0A5 5 0 0 1 1 6Z"/></g><defs><clipPath id="a"><path fill="#fff" d="M0 0h12v12H0z"/></clipPath></defs></svg>