<svg xmlns="http://www.w3.org/2000/svg" width="12" height="12" fill="none" viewBox="0 0 12 12"><path stroke="#f5f6f9" stroke-width=".75" d="m2.835 4.957 1.53-2.071c.99-1.34 1.485-2.009 1.947-1.867s.462.962.462 2.605v.154c0 .593 0 .889.189 1.075l.01.01c.193.181.502.181 1.118.181 1.11 0 1.664 0 1.852.337l.009.016c.177.342-.144.777-.787 1.646l-1.53 2.071c-.99 1.34-1.485 2.009-1.947 1.867s-.462-.962-.462-2.605v-.154c0-.593 0-.889-.189-1.075l-.01-.01c-.193-.181-.502-.181-1.118-.181-1.11 0-1.664 0-1.852-.337l-.009-.016c-.177-.342.144-.777.787-1.646Z"/></svg>