<svg xmlns="http://www.w3.org/2000/svg" width="12" height="12" fill="none" viewBox="0 0 12 12"><g stroke="#f5f6f9" stroke-linecap="round" stroke-width=".75" clip-path="url(#a)"><path d="m7.789 1.691 1 .525c1.076.564 1.614.847 1.912 1.354.299.507.299 1.138.299 2.4v.06c0 1.262 0 1.893-.299 2.4-.298.507-.836.79-1.912 1.354l-1 .525C6.91 10.769 6.472 11 6 11s-.911-.23-1.789-.691l-1-.525C2.135 9.22 1.597 8.937 1.3 8.43 1 7.923 1 7.292 1 6.03v-.06c0-1.262 0-1.893.299-2.4.298-.507.836-.79 1.912-1.354l1-.525C5.09 1.231 5.528 1 6 1s.911.23 1.789.691ZM10.5 3.75 6 6m0 0L1.5 3.75M6 6v4.75"/></g><defs><clipPath id="a"><path fill="#fff" d="M0 0h12v12H0z"/></clipPath></defs></svg>