<svg xmlns="http://www.w3.org/2000/svg" width="12" height="12" fill="none" viewBox="0 0 12 12"><g clip-path="url(#a)"><path fill="#f5f6f9" d="M8 5.25c0 .414-.224.75-.5.75S7 5.664 7 5.25s.224-.75.5-.75.5.336.5.75"/><ellipse cx="4.5" cy="5.25" fill="#f5f6f9" rx=".5" ry=".75"/><path stroke="#f5f6f9" stroke-width=".75" d="M11 9.862V6.15C11 3.306 8.761 1 6 1S1 3.306 1 6.15v3.711c0 .662.675 1.092 1.25.796a1.41 1.41 0 0 1 1.448.093 1.41 1.41 0 0 0 1.604 0l.176-.121a.92.92 0 0 1 1.044 0l.176.12a1.41 1.41 0 0 0 1.604 0 1.41 1.41 0 0 1 1.448-.092c.575.296 1.25-.134 1.25-.796Z"/></g><defs><clipPath id="a"><path fill="#fff" d="M0 0h12v12H0z"/></clipPath></defs></svg>