<svg xmlns="http://www.w3.org/2000/svg" width="12" height="12" fill="none" viewBox="0 0 12 12"><path stroke="#f5f6f9" stroke-linecap="round" stroke-width=".75" d="M10.25 3h-8.5M9.417 4.25l-.23 3.45c-.089 1.327-.133 1.99-.566 2.395s-1.097.405-2.428.405h-.386c-1.33 0-1.996 0-2.428-.405-.433-.404-.477-1.068-.566-2.395l-.23-3.45M4.75 5.5 5 8M7.25 5.5 7 8"/><path stroke="#f5f6f9" stroke-width=".75" d="M3.25 3h.055a1 1 0 0 0 .932-.712l.049-.145a2 2 0 0 1 .09-.24.75.75 0 0 1 .546-.394c.06-.009.125-.009.256-.009h1.644c.131 0 .197 0 .256.01a.75.75 0 0 1 .547.394c.027.052.048.115.09.239l.048.145.017.052a1 1 0 0 0 .97.66"/></svg>