<svg xmlns="http://www.w3.org/2000/svg" width="16" height="16" fill="none" viewBox="0 0 16 16"><g clip-path="url(#a)"><path fill="#f5f6f9" d="M10.833 8a.5.5 0 1 0-1 0h1M4.677 4.64l.084.493zm1.056-.492-.275-.418zm-.581.35.202.457zm-2.925 6.652-.21.453zM1.023 8.686l-.499.03zm.283 1.596.44-.237zm7.827 3.101-.161-.473zm1.142-3.646.5.023zm-.755 3.45.287.409zM5.879 4.05l.275.417zm3.254-1.434-.161.473zm.387.196.287-.409zM2.227 4.852l-.21-.454zM1.023 7.314l-.499-.03zm.283-1.596.44.237zm5.301 6.112a.5.5 0 1 0-.548.837l.274-.418zm-.874-7.683.275.417.146-.096-.275-.417-.275-.418-.146.096zm-4.71 4.539.5-.03A11 11 0 0 1 1.5 8h-1c0 .228.01.47.024.716zM1 8h.5c0-.202.008-.424.022-.655l-.499-.03-.499-.03C.51 7.53.5 7.771.5 8zm9.333 0h-.5c0 .341-.023.967-.057 1.714l.5.023.499.023c.034-.743.058-1.392.058-1.76zM4 4.667v.5c.325 0 .545.001.76-.035l-.083-.493-.083-.493c-.114.02-.236.02-.594.02zm1.733-.52-.275-.418c-.299.197-.402.263-.508.31l.202.458.202.457c.2-.089.383-.21.654-.39zm-1.056.492.084.493a2.5 2.5 0 0 0 .593-.178l-.202-.457-.202-.458a1.5 1.5 0 0 1-.356.107zM4 11.333v.5c.358 0 .48.002.594.021l.083-.493.084-.493c-.216-.036-.436-.035-.76-.035zm0 0v-.5c-.962 0-1.287-.01-1.563-.138l-.21.454-.21.453c.523.242 1.114.231 1.983.231zM1.023 8.686l-.499.03c.047.77.07 1.298.342 1.803l.44-.237.44-.237c-.146-.27-.172-.547-.224-1.39zm1.204 2.463.21-.454a1.65 1.65 0 0 1-.691-.65l-.44.237-.44.237c.242.45.687.87 1.15 1.083zm8.048-1.412-.5-.023c-.047 1.02-.081 1.735-.174 2.252-.093.514-.224.71-.369.812l.288.409.287.409c.471-.331.67-.854.778-1.453.108-.598.144-1.392.19-2.383zm-1.142 3.646.162.474c.181-.062.356-.151.512-.261l-.287-.41-.288-.408c-.079.055-.169.1-.26.132zM5.88 4.051l.275.417c.86-.567 1.463-.963 1.94-1.195.474-.23.712-.24.878-.183l.161-.473.162-.473c-.546-.187-1.088-.038-1.638.23-.55.267-1.218.708-2.053 1.26zm3.254-1.434-.161.473c.091.031.181.077.26.133l.288-.41.287-.409a2 2 0 0 0-.512-.26zM4 4.667v-.5c-.87 0-1.46-.011-1.983.23l.21.455.21.453c.276-.127.6-.138 1.563-.138zM1.023 7.315l.5.03c.05-.843.077-1.12.223-1.39l-.44-.237-.44-.237C.593 5.986.57 6.515.524 7.284zm1.204-2.463-.21-.454A2.64 2.64 0 0 0 .866 5.48l.44.237.44.237c.14-.259.424-.526.69-.65zm4.106 7.397-.274.418c.693.454 1.266.816 1.755 1.032.494.22.986.326 1.48.158l-.16-.474-.162-.473c-.15.051-.36.05-.754-.125-.4-.177-.905-.492-1.61-.955zm3.916-6.53.5-.026c-.04-.818-.085-1.488-.198-2.006-.114-.526-.317-.983-.744-1.283l-.287.41-.288.409c.13.091.252.26.342.677.092.423.135 1.009.176 1.843z"/><path stroke="#f5f6f9" stroke-linecap="round" d="M13.333 12s1-1.2 1-4c0-1.622-.335-2.707-.618-3.333M12 10s.333-.6.333-2c0-.575-.056-1.014-.122-1.333M14.667 1.333 1.333 14.667"/></g><defs><clipPath id="a"><path fill="#fff" d="M0 0h16v16H0z"/></clipPath></defs></svg>