<svg xmlns="http://www.w3.org/2000/svg" width="16" height="16" fill="none" viewBox="0 0 16 16"><path stroke="#f5f6f9" d="M1.023 7.314c.05-.806.074-1.209.283-1.596.19-.354.556-.698.92-.867.4-.184.858-.184 1.774-.184.341 0 .512 0 .677-.028a2 2 0 0 0 .475-.143c.153-.067.296-.161.58-.35l.147-.096c1.695-1.117 2.543-1.676 3.254-1.433.137.046.269.113.387.196.615.433.662 1.438.755 3.45.035.745.058 1.382.058 1.737 0 .354-.023.992-.058 1.737-.093 2.011-.14 3.017-.755 3.45-.118.082-.25.15-.387.196-.711.243-1.559-.316-3.254-1.434l-.146-.096c-.285-.188-.428-.282-.581-.35a2 2 0 0 0-.475-.142c-.165-.028-.336-.028-.677-.028-.916 0-1.374 0-1.773-.185a2.14 2.14 0 0 1-.921-.866c-.21-.388-.234-.79-.283-1.597C1.01 8.447 1 8.215 1 8s.009-.447.023-.686Z"/><path stroke="#f5f6f9" stroke-linecap="round" d="M13.333 4s1 1.2 1 4-1 4-1 4M12 6s.333.6.333 2S12 10 12 10"/></svg>