<svg xmlns="http://www.w3.org/2000/svg" width="16" height="16" fill="none" viewBox="0 0 16 16"><path fill="#f5f6f9" fill-rule="evenodd" d="M.833 2a.5.5 0 0 1 .5-.5h13.334a.5.5 0 1 1 0 1H1.333a.5.5 0 0 1-.5-.5M5.3 4.833H10.7c.6 0 1.099 0 1.495.054.419.056.797.18 1.1.483.304.304.428.682.484 1.1.053.397.053.896.053 1.495v.07c0 .599 0 1.098-.053 1.495-.056.418-.18.796-.484 1.1-.303.303-.681.427-1.1.483-.396.054-.896.054-1.495.054H5.3c-.6 0-1.099 0-1.495-.054-.419-.056-.797-.18-1.1-.483-.304-.304-.428-.682-.484-1.1-.053-.397-.053-.896-.053-1.495v-.07c0-.599 0-1.098.053-1.495.056-.418.18-.796.484-1.1.303-.303.681-.427 1.1-.483.396-.054.896-.054 1.495-.054M3.937 5.878c-.308.041-.44.113-.526.2-.087.086-.159.218-.2.526-.043.322-.044.753-.044 1.396s0 1.074.044 1.396c.041.308.113.44.2.527.087.086.218.158.526.2.322.043.754.044 1.396.044h5.334c.642 0 1.074-.001 1.396-.045.308-.041.44-.113.526-.2.087-.086.159-.218.2-.526.043-.322.044-.753.044-1.396s0-1.074-.044-1.396c-.041-.308-.113-.44-.2-.527-.087-.086-.218-.158-.526-.2-.322-.043-.754-.044-1.396-.044H5.333c-.642 0-1.074.001-1.396.045M.833 14a.5.5 0 0 1 .5-.5h13.334a.5.5 0 1 1 0 1H1.333a.5.5 0 0 1-.5-.5" clip-rule="evenodd"/></svg>