<svg xmlns="http://www.w3.org/2000/svg" width="16" height="16" fill="none" viewBox="0 0 16 16"><g clip-path="url(#a)"><path fill="#f5f6f9" fill-rule="evenodd" d="M4.077 2.889a4.88 4.88 0 0 0-.814 2.655.5.5 0 0 1-1 0c0-1.214.413-2.363.985-3.213.286-.427.622-.792.982-1.055.356-.26.769-.443 1.2-.443 1.043 0 1.833.742 2.336 1.928.504 1.186.782 2.93.782 5.239 0 2.252.275 3.841.703 4.849.427 1.007.947 1.318 1.416 1.318.148 0 .357-.067.61-.251.248-.181.506-.454.742-.805a4.88 4.88 0 0 0 .815-2.655.5.5 0 1 1 1 0 5.88 5.88 0 0 1-.985 3.213 4.2 4.2 0 0 1-.983 1.054c-.356.26-.769.444-1.2.444-1.043 0-1.832-.742-2.336-1.928S7.548 10.31 7.548 8c0-2.252-.275-3.841-.702-4.848-.428-1.008-.948-1.319-1.417-1.319-.147 0-.357.067-.61.251a3.2 3.2 0 0 0-.742.805M.833 8a.5.5 0 0 1 .5-.5h5a.5.5 0 1 1 0 1h-5a.5.5 0 0 1-.5-.5m8.334 0a.5.5 0 0 1 .5-.5h5a.5.5 0 1 1 0 1h-5a.5.5 0 0 1-.5-.5" clip-rule="evenodd"/></g><defs><clipPath id="a"><rect width="16" height="16" fill="#fff" rx="5"/></clipPath></defs></svg>