<svg xmlns="http://www.w3.org/2000/svg" width="16" height="16" fill="none" viewBox="0 0 16 16"><g clip-path="url(#a)"><path fill="#f5f6f9" fill-rule="evenodd" d="M8 .833a.5.5 0 0 1 .5.5V4a.5.5 0 1 1-1 0V1.333a.5.5 0 0 1 .5-.5M3.7 2.41l.032.023 1.07.765c.192.137.362.258.496.373.145.125.274.264.37.449.094.184.132.37.15.561.015.176.015.385.015.62v5.6c0 .236 0 .444-.016.62-.017.19-.055.377-.15.561a1.5 1.5 0 0 1-.37.449 7 7 0 0 1-.494.373l-1.103.788c-.434.31-.805.575-1.114.733-.315.162-.716.292-1.12.085-.404-.208-.53-.61-.582-.96-.05-.344-.05-.8-.05-1.333V3.884c0-.533 0-.989.05-1.332.052-.35.178-.753.582-.96.404-.208.805-.078 1.12.084.309.158.68.423 1.114.733m-1.795.077.008-.001zm.022 0c.029.005.09.022.202.08.236.12.547.34 1.022.68L4.205 4c.213.152.345.247.44.33a.5.5 0 0 1 .133.147c.016.031.033.079.044.194.01.126.011.289.011.55v5.56c0 .261 0 .424-.011.55a.5.5 0 0 1-.044.194.5.5 0 0 1-.133.148 7 7 0 0 1-.44.329l-1.054.753c-.475.34-.786.56-1.022.68a.7.7 0 0 1-.202.08.7.7 0 0 1-.054-.211c-.038-.262-.04-.643-.04-1.227V3.924c0-.584.002-.965.04-1.227a.7.7 0 0 1 .054-.21m-.022 11.028.008.001zm.028.011q.007.006.006.007zm0-11.05.006-.007q0 0-.006.007m11.938.09c-.236.121-.546.342-1.022.681L11.795 4a7 7 0 0 0-.44.33.5.5 0 0 0-.133.147.5.5 0 0 0-.043.194 7 7 0 0 0-.012.55v5.56c0 .261 0 .424.011.55.011.115.028.163.044.194.016.03.045.072.133.148.095.082.227.177.44.329l1.054.753c.476.34.786.56 1.022.68a.7.7 0 0 0 .202.08.7.7 0 0 0 .054-.211c.038-.262.04-.643.04-1.227V3.924c0-.584-.002-.965-.04-1.227a.7.7 0 0 0-.054-.21.7.7 0 0 0-.202.078m.224-.08h-.008zm-.028-.01-.006-.007zm-.006 11.057.006-.007zm.026-.017h.008zm-.673-11.84c.315-.161.716-.291 1.12-.084.404.208.53.61.582.96.05.344.05.8.05 1.333v8.232c0 .533 0 .989-.05 1.332-.051.35-.178.753-.582.96-.404.208-.805.078-1.12-.084-.309-.158-.68-.423-1.114-.733l-1.103-.788c-.191-.137-.36-.258-.495-.373a1.5 1.5 0 0 1-.369-.449 1.5 1.5 0 0 1-.15-.561c-.016-.176-.016-.384-.016-.62V5.2c0-.235 0-.444.016-.62.017-.19.055-.377.15-.561a1.5 1.5 0 0 1 .37-.449c.133-.115.303-.236.495-.373l1.102-.788c.434-.31.805-.575 1.114-.733M8 6.168a.5.5 0 0 1 .5.5v2.666a.5.5 0 1 1-1 0V6.667a.5.5 0 0 1 .5-.5M8 11.5a.5.5 0 0 1 .5.5v2.667a.5.5 0 1 1-1 0V12a.5.5 0 0 1 .5-.5" clip-rule="evenodd"/></g><defs><clipPath id="a"><rect width="16" height="16" fill="#fff" rx="5"/></clipPath></defs></svg>