<svg xmlns="http://www.w3.org/2000/svg" width="16" height="16" fill="none" viewBox="0 0 16 16"><g clip-path="url(#a)"><path fill="#f5f6f9" fill-rule="evenodd" d="M3.884.833h8.232c.533 0 .989 0 1.332.05.35.053.753.18.96.583.208.404.078.805-.084 1.12-.158.309-.423.68-.733 1.114l-.788 1.103a7 7 0 0 1-.373.495 1.5 1.5 0 0 1-.449.37c-.184.094-.37.132-.561.15-.176.015-.385.015-.62.015H5.2c-.235 0-.444 0-.62-.016a1.5 1.5 0 0 1-.561-.15 1.5 1.5 0 0 1-.449-.37c-.115-.133-.236-.303-.373-.494l-.765-1.07q-.01-.017-.023-.033c-.31-.434-.575-.805-.733-1.114-.162-.315-.292-.716-.085-1.12.208-.404.61-.53.96-.582.344-.05.8-.05 1.333-.05M2.468 1.94l.007-.006q-.006.007-.007.006m.018-.012a.7.7 0 0 1 .211-.054c.262-.038.643-.04 1.227-.04h8.152c.584 0 .965.002 1.227.04.124.019.184.04.21.054a.7.7 0 0 1-.078.202c-.121.236-.341.547-.681 1.022L12 4.205a7 7 0 0 1-.33.44.5.5 0 0 1-.147.133.5.5 0 0 1-.194.044 7 7 0 0 1-.55.011H5.22c-.261 0-.424 0-.55-.011a.5.5 0 0 1-.194-.044.5.5 0 0 1-.148-.133A7 7 0 0 1 4 4.205l-.753-1.054c-.34-.475-.56-.786-.68-1.022a.7.7 0 0 1-.08-.202m11.046.012q0 0-.007-.006zm-.017-.026v-.008zm-11.03 0v-.008zM.833 8a.5.5 0 0 1 .5-.5H4a.5.5 0 0 1 0 1H1.333a.5.5 0 0 1-.5-.5m5.334 0a.5.5 0 0 1 .5-.5h2.666a.5.5 0 1 1 0 1H6.667a.5.5 0 0 1-.5-.5M11.5 8a.5.5 0 0 1 .5-.5h2.667a.5.5 0 1 1 0 1H12a.5.5 0 0 1-.5-.5m-6.3 2.167h5.6c.235 0 .444 0 .62.016.19.017.377.055.561.15s.324.224.449.37c.115.133.236.303.373.494l.788 1.103c.31.434.575.805.733 1.114.162.315.292.716.085 1.12-.208.404-.61.53-.96.582-.344.05-.8.05-1.333.05H3.884c-.533 0-.989 0-1.332-.05-.35-.051-.753-.178-.96-.582-.208-.404-.078-.805.084-1.12.158-.309.423-.68.733-1.114l.776-1.086.012-.017c.137-.191.258-.36.373-.495a1.5 1.5 0 0 1 .449-.369c.184-.095.37-.133.561-.15.176-.016.385-.016.62-.016m-.53 1.011a.5.5 0 0 0-.194.044.5.5 0 0 0-.148.133 7 7 0 0 0-.329.44l-.753 1.054c-.34.476-.56.786-.68 1.022a.7.7 0 0 0-.08.202.7.7 0 0 0 .211.054c.262.038.643.04 1.227.04h8.152c.584 0 .965-.002 1.227-.04a.7.7 0 0 0 .21-.054.7.7 0 0 0-.078-.202c-.121-.236-.341-.546-.681-1.022L12 11.795a7 7 0 0 0-.33-.44.5.5 0 0 0-.147-.133.5.5 0 0 0-.194-.043 7 7 0 0 0-.55-.012H5.22c-.261 0-.424 0-.55.011m8.844 2.917.001-.008zm.011-.028.007-.006zM2.468 14.06l.007.006zm.017.026v.008z" clip-rule="evenodd"/></g><defs><clipPath id="a"><rect width="16" height="16" fill="#fff" rx="5"/></clipPath></defs></svg>