<svg xmlns="http://www.w3.org/2000/svg" width="16" height="16" fill="none" viewBox="0 0 16 16"><path fill="#f5f6f9" fill-rule="evenodd" d="M8 3.167c-.707 0-1.273.218-2.623.758l-1.872.75c-.674.269-1.14.456-1.443.615l-.08.043.08.044c.303.159.77.346 1.443.615l1.872.75c1.35.54 1.916.758 2.623.758s1.273-.219 2.623-.759l1.872-.749c.674-.269 1.14-.456 1.443-.615l.08-.044-.08-.043c-.303-.159-.77-.346-1.443-.616l-1.872-.749c-1.35-.54-1.916-.758-2.623-.758m-2.917-.201c1.251-.5 1.998-.8 2.917-.8.92 0 1.666.3 2.917.8l.077.03 1.903.762c.636.254 1.152.46 1.505.646.18.094.353.2.487.329a.83.83 0 0 1 .278.6c0 .27-.14.47-.278.601a2.1 2.1 0 0 1-.487.329c-.234.123-.54.255-.904.404.365.149.67.28.904.404.18.094.353.2.487.328a.83.83 0 0 1 .278.601c0 .269-.14.469-.278.6a2.1 2.1 0 0 1-.487.33c-.234.122-.54.254-.904.403.365.15.67.281.904.404.18.094.353.2.487.329a.83.83 0 0 1 .278.6c0 .27-.14.47-.278.601a2.1 2.1 0 0 1-.487.329c-.353.185-.869.392-1.505.646l-1.903.761-.077.031c-1.251.5-1.997.8-2.917.8s-1.666-.3-2.917-.8l-.077-.03-1.903-.762c-.636-.254-1.152-.46-1.505-.646a2.1 2.1 0 0 1-.487-.329.83.83 0 0 1-.278-.6c0-.27.14-.47.278-.601a2.1 2.1 0 0 1 .487-.329c.234-.123.54-.255.904-.404-.364-.149-.67-.28-.904-.404a2.1 2.1 0 0 1-.487-.328A.83.83 0 0 1 .833 8c0-.269.14-.469.278-.6a2.1 2.1 0 0 1 .487-.33c.234-.122.54-.254.904-.403-.364-.15-.67-.281-.904-.404a2.1 2.1 0 0 1-.487-.329.83.83 0 0 1-.278-.6c0-.27.14-.47.278-.601a2.1 2.1 0 0 1 .487-.329c.354-.186.869-.392 1.505-.646l1.903-.761zm-1.239 4.24-.339.135c-.674.27-1.14.457-1.443.615L1.982 8l.08.044c.303.158.77.346 1.443.615l1.872.749c1.35.54 1.916.759 2.623.759s1.273-.219 2.623-.759l1.872-.749c.674-.27 1.14-.457 1.443-.615l.08-.044-.08-.044c-.303-.158-.77-.346-1.443-.615l-.339-.136-1.162.465-.077.03c-1.251.501-1.997.8-2.917.8s-1.666-.299-2.917-.8l-.077-.03zm0 2.666-.339.136c-.674.269-1.14.456-1.443.615l-.08.044.08.043c.303.159.77.346 1.443.616l1.872.749c1.35.54 1.916.758 2.623.758s1.273-.218 2.623-.758l1.872-.75c.674-.269 1.14-.456 1.443-.615l.08-.043-.08-.044c-.303-.159-.77-.346-1.443-.615l-.339-.136-1.162.464-.077.031c-1.251.501-1.997.8-2.917.8s-1.666-.299-2.917-.8l-.077-.03z" clip-rule="evenodd"/></svg>