<svg xmlns="http://www.w3.org/2000/svg" width="16" height="16" fill="none" viewBox="0 0 16 16"><g clip-path="url(#a)"><path fill="#f5f6f9" fill-rule="evenodd" d="M13.51 2.49a2.245 2.245 0 0 0-3.175 0l-.97.971a.5.5 0 0 1-.708 0l-.727-.728a.53.53 0 0 0-.749.749l5.337 5.337a.53.53 0 0 0 .749-.749l-.728-.727a.5.5 0 0 1 0-.707l.97-.97a2.245 2.245 0 0 0 0-3.175m-3.882-.706a3.245 3.245 0 0 1 4.588 4.588l-.616.617.374.374a1.53 1.53 0 1 1-2.163 2.163l-.374-.374-4.063 4.062-.044.045c-.26.26-.463.464-.713.596q-.25.132-.528.185c-.278.053-.563.021-.93-.02l-.062-.007-.317-.035a3 3 0 0 0-.19-.018.87.87 0 0 0-.59.207c-.023.02-.048.044-.137.133l-.419.419a1.53 1.53 0 0 1-2.163-2.163l.42-.419A3 3 0 0 0 1.832 12a.87.87 0 0 0 .207-.59c0-.03-.004-.066-.018-.19l-.035-.317-.007-.063c-.041-.366-.073-.651-.02-.929q.053-.277.185-.528c.132-.25.336-.452.596-.713l.045-.044 4.062-4.063-.374-.374a1.53 1.53 0 1 1 2.163-2.163l.374.375zM7.555 5.27 3.493 9.333c-.326.326-.411.418-.464.518a.9.9 0 0 0-.087.246c-.02.112-.012.237.039.695l.037.334c.011.1.02.178.022.255.013.462-.145.913-.444 1.266a3 3 0 0 1-.176.185l-.012.012-.42.42a.53.53 0 0 0 .749.748l.431-.432c.071-.07.126-.126.185-.176.353-.3.804-.457 1.266-.444.077.002.155.011.255.022l.334.037c.458.051.583.06.695.039a.9.9 0 0 0 .246-.086c.1-.054.192-.139.518-.465l.96-.959-.883-.882a.5.5 0 1 1 .707-.707l.882.882.627-.626-.882-.882a.5.5 0 1 1 .707-.707l.882.882 1.063-1.063z" clip-rule="evenodd"/></g><defs><clipPath id="a"><rect width="16" height="16" fill="#fff" rx="5"/></clipPath></defs></svg>