<svg width="12" height="12" viewBox="0 0 12 12" fill="none" xmlns="http://www.w3.org/2000/svg">
<path fill-rule="evenodd" clip-rule="evenodd" d="M6 1.625C6.20711 1.625 6.375 1.79289 6.375 2V3.2C6.375 3.40711 6.20711 3.575 6 3.575C5.79289 3.575 5.625 3.40711 5.625 3.2V2C5.625 1.79289 5.79289 1.625 6 1.625ZM9.09359 2.90641C9.24004 3.05285 9.24004 3.29029 9.09359 3.43674L8.24506 4.28527C8.09862 4.43171 7.86118 4.43171 7.71473 4.28527C7.56829 4.13882 7.56829 3.90138 7.71473 3.75494L8.56326 2.90641C8.70971 2.75996 8.94715 2.75996 9.09359 2.90641ZM2.9063 2.9065C3.05275 2.76005 3.29018 2.76005 3.43663 2.9065L4.28516 3.75502C4.43161 3.90147 4.43161 4.13891 4.28516 4.28535C4.13871 4.4318 3.90128 4.4318 3.75483 4.28535L2.9063 3.43683C2.75985 3.29038 2.75985 3.05294 2.9063 2.9065ZM1.625 6C1.625 5.79289 1.79289 5.625 2 5.625H3.2C3.40711 5.625 3.575 5.79289 3.575 6C3.575 6.20711 3.40711 6.375 3.2 6.375H2C1.79289 6.375 1.625 6.20711 1.625 6ZM8.425 6C8.425 5.79289 8.59289 5.625 8.8 5.625H10C10.2071 5.625 10.375 5.79289 10.375 6C10.375 6.20711 10.2071 6.375 10 6.375H8.8C8.59289 6.375 8.425 6.20711 8.425 6ZM4.28527 7.71473C4.43171 7.86118 4.43171 8.09862 4.28527 8.24506L3.43674 9.09359C3.29029 9.24004 3.05285 9.24004 2.90641 9.09359C2.75996 8.94715 2.75996 8.70971 2.90641 8.56326L3.75494 7.71473C3.90138 7.56829 4.13882 7.56829 4.28527 7.71473ZM7.71463 7.71482C7.86107 7.56838 8.09851 7.56838 8.24496 7.71482L9.09349 8.56335C9.23993 8.7098 9.23993 8.94723 9.09349 9.09368C8.94704 9.24013 8.7096 9.24013 8.56316 9.09368L7.71463 8.24515C7.56818 8.09871 7.56818 7.86127 7.71463 7.71482ZM6 8.425C6.20711 8.425 6.375 8.59289 6.375 8.8V10C6.375 10.2071 6.20711 10.375 6 10.375C5.79289 10.375 5.625 10.2071 5.625 10V8.8C5.625 8.59289 5.79289 8.425 6 8.425Z" fill="#F5F6F9"/>
</svg>
