<svg width="12" height="12" viewBox="0 0 12 12" fill="none" xmlns="http://www.w3.org/2000/svg">
<path fill-rule="evenodd" clip-rule="evenodd" d="M6 0.625C4.68832 0.625 3.625 1.68832 3.625 3C3.625 4.31168 4.68832 5.375 6 5.375C7.31168 5.375 8.375 4.31168 8.375 3C8.375 1.68832 7.31168 0.625 6 0.625ZM4.375 3C4.375 2.10254 5.10254 1.375 6 1.375C6.89746 1.375 7.625 2.10254 7.625 3C7.625 3.89746 6.89746 4.625 6 4.625C5.10254 4.625 4.375 3.89746 4.375 3Z" fill="#F5F6F9"/>
<path fill-rule="evenodd" clip-rule="evenodd" d="M6 6.125C4.98033 6.125 4.03876 6.36038 3.33907 6.7602C2.65 7.15395 2.125 7.75507 2.125 8.5C2.125 9.24493 2.65 9.84605 3.33907 10.2398C4.03876 10.6396 4.98033 10.875 6 10.875C7.01967 10.875 7.96124 10.6396 8.66093 10.2398C9.35 9.84605 9.875 9.24493 9.875 8.5C9.875 7.75507 9.35 7.15395 8.66093 6.7602C7.96124 6.36038 7.01967 6.125 6 6.125ZM2.875 8.5C2.875 8.14036 3.1335 7.74148 3.71118 7.41138C4.27824 7.08734 5.08667 6.875 6 6.875C6.91333 6.875 7.72176 7.08734 8.28882 7.41138C8.8665 7.74148 9.125 8.14036 9.125 8.5C9.125 8.85964 8.8665 9.25852 8.28882 9.58862C7.72176 9.91266 6.91333 10.125 6 10.125C5.08667 10.125 4.27824 9.91266 3.71118 9.58862C3.1335 9.25852 2.875 8.85964 2.875 8.5Z" fill="#F5F6F9"/>
</svg>
