<svg xmlns="http://www.w3.org/2000/svg" width="12" height="12" fill="none" viewBox="0 0 12 12"><path stroke="#f5f6f9" stroke-width=".75" d="M.767 5.486c.037-.605.056-.907.212-1.198.143-.265.417-.523.69-.65C1.97 3.5 2.314 3.5 3 3.5c.256 0 .384 0 .508-.021a1.5 1.5 0 0 0 .356-.107c.115-.05.222-.121.436-.262l.11-.072c1.27-.839 1.906-1.258 2.44-1.076q.155.054.29.148c.461.324.496 1.079.566 2.587.026.559.044 1.037.044 1.303s-.018.744-.044 1.303c-.07 1.508-.105 2.263-.566 2.587a1.2 1.2 0 0 1-.29.147c-.534.182-1.17-.237-2.44-1.075L4.3 8.89c-.214-.141-.321-.212-.436-.262a1.5 1.5 0 0 0-.356-.107C3.384 8.5 3.256 8.5 3 8.5c-.687 0-1.03 0-1.33-.139a1.6 1.6 0 0 1-.69-.65C.822 7.421.803 7.12.766 6.514A9 9 0 0 1 .75 6c0-.161.006-.335.017-.514Z"/><path stroke="#f5f6f9" stroke-linecap="round" stroke-width=".75" d="M10 3s.75.9.75 3S10 9 10 9M9 4.5s.25.45.25 1.5S9 7.5 9 7.5"/></svg>