<svg xmlns="http://www.w3.org/2000/svg" width="12" height="12" fill="none" viewBox="0 0 12 12"><g clip-path="url(#a)"><path fill="#f5f6f9" d="M8.125 6a.375.375 0 0 0-.75 0h.75M3.508 3.479l.063.37zM4.3 3.11l-.207-.313zm-.436.262.151.343zM1.67 8.362l-.158.34zM.767 6.513l-.374.023zM.98 7.711l.33-.177zm5.871 2.326-.121-.355zm.856-2.734.375.017zM7.14 9.89l.215.307zM4.41 3.038l.206.313zm2.44-1.076-.121.355zm.29.148.215-.307zM1.67 3.639l-.158-.34zM.767 5.486l-.374-.023zM.98 4.288l.33.178zm3.977 4.585a.375.375 0 0 0-.412.627l.206-.314zM4.3 3.11l.206.313.11-.072-.207-.313-.206-.313-.11.072zM.767 6.514l.375-.023A8 8 0 0 1 1.125 6h-.75c0 .17.007.353.018.537zM.75 6h.375q0-.23.017-.491l-.375-.023-.374-.023A9 9 0 0 0 .375 6zm7 0h-.375c0 .256-.017.725-.043 1.285l.374.018.375.017c.026-.557.044-1.044.044-1.32zM3 3.5v.375c.244 0 .408.001.57-.026l-.062-.37-.062-.37c-.086.015-.178.016-.446.016zm1.3-.39-.207-.313c-.224.148-.3.197-.38.232l.151.343.151.343c.15-.066.288-.158.491-.292zm-.792.369.063.37q.23-.04.444-.134l-.151-.343-.151-.343a1.1 1.1 0 0 1-.267.08zM3 8.499v.376c.268 0 .36.001.446.016l.062-.37.063-.37c-.163-.027-.327-.026-.571-.026zm0 0v-.374c-.722 0-.965-.008-1.173-.104l-.157.34-.158.34c.393.182.836.174 1.488.174zM.767 6.515l-.374.023c.035.577.052.973.256 1.352l.33-.178.33-.177c-.109-.203-.129-.41-.167-1.043zm.903 1.847.157-.34a1.24 1.24 0 0 1-.518-.487l-.33.177-.33.178c.182.337.516.652.863.813zm6.036-1.058-.374-.018c-.036.766-.061 1.302-.131 1.689-.07.386-.168.533-.277.61l.216.306.215.307c.353-.248.503-.64.584-1.09.08-.448.107-1.044.142-1.787zm-.856 2.734.121.355c.136-.046.267-.113.384-.195L7.14 9.89l-.216-.307a.8.8 0 0 1-.195.1zm-2.44-7 .206.314c.644-.425 1.097-.723 1.454-.896.356-.173.534-.18.659-.138l.121-.355.121-.354c-.409-.14-.816-.028-1.229.172-.412.2-.913.532-1.54.945zm2.44-1.075-.121.355a.8.8 0 0 1 .195.1l.216-.307.215-.307a1.5 1.5 0 0 0-.384-.195zM3 3.5v-.375c-.652 0-1.095-.008-1.488.173l.158.34.157.34c.208-.095.451-.103 1.173-.103zM.767 5.486l.375.023c.038-.633.058-.84.167-1.043l-.33-.178-.33-.177c-.204.378-.22.775-.256 1.352zm.903-1.847-.158-.34a2 2 0 0 0-.863.812l.33.177.33.178c.105-.194.318-.395.518-.487zm3.08 5.547-.206.314c.52.34.95.612 1.316.774.371.165.74.245 1.111.118l-.121-.355-.121-.355c-.113.039-.27.037-.565-.094-.3-.132-.68-.368-1.208-.715zm2.937-4.898.375-.018c-.03-.614-.064-1.117-.149-1.505-.085-.394-.238-.737-.558-.962l-.215.307-.216.307c.098.069.189.196.257.507.069.318.1.757.131 1.383z"/><path stroke="#f5f6f9" stroke-linecap="round" stroke-width=".75" d="M10 9s.75-.9.75-3c0-1.217-.252-2.03-.463-2.5M9 7.5s.25-.45.25-1.5c0-.431-.042-.76-.092-1M11 1 1 11"/></g><defs><clipPath id="a"><path fill="#fff" d="M0 0h12v12H0z"/></clipPath></defs></svg>