<svg xmlns="http://www.w3.org/2000/svg" width="12" height="12" fill="none" viewBox="0 0 12 12"><g clip-path="url(#a)"><path fill="#f5f6f9" fill-rule="evenodd" d="M3.626 2.128a2.625 2.625 0 0 1 4.748 0l.126-.003a2.875 2.875 0 0 1 1.375 5.4v1.501c0 .45 0 .824-.04 1.121-.042.314-.135.598-.363.825-.227.228-.51.32-.825.363-.297.04-.672.04-1.121.04H4.474c-.45 0-.824 0-1.121-.04-.314-.042-.598-.135-.825-.363-.228-.227-.32-.51-.363-.825-.04-.297-.04-.672-.04-1.121v-1.5a2.874 2.874 0 0 1 1.501-5.398m-.225.75a2.125 2.125 0 0 0-.75 4.07c.136.06.224.195.224.344v1.333h6.25V7.292c0-.15.088-.284.225-.344a2.126 2.126 0 0 0-.751-4.07q.026.182.026.372v.25a.375.375 0 1 1-.75 0v-.25A1.87 1.87 0 0 0 6 1.375 1.876 1.876 0 0 0 4.125 3.25v.25a.375.375 0 1 1-.75 0v-.25q0-.189.026-.373m5.723 6.497H2.876c.002.285.009.5.032.672.031.231.085.33.15.395s.164.119.395.15c.241.032.565.033 1.047.033h3c.482 0 .806 0 1.047-.033.231-.031.33-.085.395-.15s.119-.164.15-.395c.023-.172.03-.387.032-.672" clip-rule="evenodd"/></g><defs><clipPath id="a"><path fill="#fff" d="M0 0h12v12H0z"/></clipPath></defs></svg>