<svg xmlns="http://www.w3.org/2000/svg" width="12" height="12" fill="none" viewBox="0 0 12 12"><path fill="#f5f6f9" fill-rule="evenodd" d="M5.265.735a.375.375 0 0 1 0 .53c-.13.13-.13.34 0 .47a1.08 1.08 0 0 1 0 1.53.375.375 0 0 1-.53-.53c.13-.13.13-.34 0-.47a1.08 1.08 0 0 1 0-1.53.375.375 0 0 1 .53 0m-2.25.75a.375.375 0 0 1 0 .53l-.058.058a.346.346 0 0 0-.032.452 1.096 1.096 0 0 1-.102 1.432l-.058.058a.375.375 0 0 1-.53-.53l.058-.058a.346.346 0 0 0 .032-.452 1.096 1.096 0 0 1 .102-1.432l.058-.058a.375.375 0 0 1 .53 0m4.75 0a.375.375 0 0 1 0 .53l-.058.058a.346.346 0 0 0-.032.452 1.096 1.096 0 0 1-.102 1.432l-.058.058a.375.375 0 0 1-.53-.53l.058-.058a.346.346 0 0 0 .032-.452 1.096 1.096 0 0 1 .102-1.432l.058-.058a.375.375 0 0 1 .53 0m-5.441 3.14h5.352c.182 0 .32 0 .441.021.33.06.618.234.82.479H9.5a1.875 1.875 0 1 1 0 3.75h-.676a3.13 3.13 0 0 1-2.92 2H4.096A3.13 3.13 0 0 1 .986 8.106l-.2-1.714-.005-.034c-.02-.18-.037-.318-.03-.44a1.375 1.375 0 0 1 1.132-1.272c.12-.021.26-.021.44-.021m5.91 3.61a.37.37 0 0 0-.1.345 2.38 2.38 0 0 1-2.23 1.545H4.096A2.38 2.38 0 0 1 1.73 8.019l-.2-1.714a2.5 2.5 0 0 1-.03-.342.625.625 0 0 1 .514-.578c.046-.009.112-.01.344-.01h5.284c.232 0 .298.001.344.01.284.05.497.29.514.578.003.046-.003.112-.03.342l-.2 1.714q-.013.11-.036.217m.778-.11H9.5a1.125 1.125 0 0 0 0-2.25h-.254l.003.043c.007.122-.009.26-.03.44l-.004.034-.2 1.714z" clip-rule="evenodd"/></svg>