<svg xmlns="http://www.w3.org/2000/svg" width="12" height="12" fill="none" viewBox="0 0 12 12"><path fill="#f5f6f9" fill-rule="evenodd" d="M2.125 2.447c0-.73.592-1.322 1.322-1.322h5.106c.73 0 1.322.592 1.322 1.322V4a3.875 3.875 0 0 1-3.5 3.857v2.268h1.5a.375.375 0 0 1 0 .75h-3.75a.375.375 0 0 1 0-.75h1.5V7.857A3.875 3.875 0 0 1 2.125 4zm1.322-.572a.57.57 0 0 0-.572.572v1.597c.101-.04.225-.085.362-.132.355-.122.832-.261 1.24-.286.734-.045 1.264.277 1.694.54l.024.014c.45.273.797.476 1.282.446.301-.019.699-.13 1.042-.247a9 9 0 0 0 .57-.218l.009-.004h.001l.023-.01q.003-.073.003-.147V2.447a.57.57 0 0 0-.572-.572zM8.955 5.02a3.126 3.126 0 0 1-5.974-.21 8 8 0 0 1 .5-.189c.343-.118.74-.228 1.042-.247.485-.03.833.173 1.282.446l.024.015c.43.262.96.584 1.694.54.408-.026.885-.165 1.24-.287z" clip-rule="evenodd"/></svg>