<svg xmlns="http://www.w3.org/2000/svg" width="16" height="16" fill="none" viewBox="0 0 16 16"><path fill="#f5f6f9" fill-rule="evenodd" d="M8 5.167c-3.658 0-5.399 1.634-5.988 2.345-.116.14-.179.337-.179.582v1.282c0 .51.522.918 1.08.755l1.333-.391a.8.8 0 0 0 .587-.754v-.411h.5c-.5 0-.5-.001-.5-.002V8.55a1 1 0 0 1 .015-.113 1 1 0 0 1 .072-.222 1.4 1.4 0 0 1 .451-.532c.457-.335 1.25-.585 2.629-.585s2.172.25 2.629.585c.234.171.373.36.451.532a1 1 0 0 1 .086.335v.023s0 .002-.5.002h.5v.258c0 .378.288.72.707.78l1.333.196c.524.077.96-.315.96-.78V7.612c0-.293-.09-.524-.252-.668-.67-.6-2.425-1.777-5.914-1.777m2.167 3.455v.211c0 .898.676 1.64 1.56 1.77l1.334.196c1.09.16 2.106-.657 2.106-1.77V7.612c0-.489-.154-1.028-.587-1.414-.85-.76-2.84-2.031-6.58-2.031-4.007 0-6.014 1.81-6.758 2.707-.305.368-.409.813-.409 1.22v1.282c0 1.222 1.207 2.053 2.36 1.714l1.334-.39a1.795 1.795 0 0 0 1.306-1.714v-.364c.01-.019.043-.07.13-.133.209-.153.75-.391 2.037-.391s1.828.238 2.038.391a.4.4 0 0 1 .129.133" clip-rule="evenodd"/></svg>