<svg xmlns="http://www.w3.org/2000/svg" width="16" height="16" fill="none" viewBox="0 0 16 16"><path fill="#f5f6f9" d="M8.84 1.253A.5.5 0 0 1 9.414.84a3.803 3.803 0 0 1 .335.08c.198.058.474.153.806.305.664.305 1.548.838 2.465 1.755s1.45 1.8 1.755 2.465c.152.332.247.608.304.806a4 4 0 0 1 .075.303l.004.021a.51.51 0 0 1-.412.585.5.5 0 0 1-.573-.411 2 2 0 0 0-.054-.218 5 5 0 0 0-.253-.67c-.26-.566-.728-1.349-1.553-2.174s-1.608-1.293-2.175-1.553a5 5 0 0 0-.669-.253 4 4 0 0 0-.211-.053.506.506 0 0 1-.418-.575"/><path fill="#f5f6f9" fill-rule="evenodd" d="M8.99 3.553a.5.5 0 0 1 .619-.343l-.138.48.138-.48h.004l.005.002.013.004a1 1 0 0 1 .156.06q.147.06.393.202c.326.193.771.514 1.295 1.037.523.524.844.97 1.037 1.295a3.4 3.4 0 0 1 .249.511l.013.038.004.013.001.005v.002l.001.001-.48.139.48-.138a.5.5 0 0 1-.96.282l-.002-.007-.023-.059a2.4 2.4 0 0 0-.144-.277c-.148-.251-.417-.63-.883-1.098-.467-.466-.846-.735-1.098-.883a2.5 2.5 0 0 0-.336-.167l-.007-.003a.5.5 0 0 1-.336-.616M3.338 2.938c1.12-1.12 3.01-1.035 3.79.362l.433.776c.51.912.292 2.064-.453 2.818a.4.4 0 0 0-.07.224c-.008.171.053.566.665 1.179.612.612 1.007.673 1.178.664a.4.4 0 0 0 .225-.069c.754-.745 1.906-.962 2.818-.453l.776.433c1.397.78 1.482 2.67.362 3.79-.6.599-1.396 1.131-2.332 1.167-1.387.052-3.69-.306-5.972-2.587C2.477 8.96 2.118 6.657 2.171 5.27c.036-.936.568-1.733 1.167-2.332m2.917.85c-.4-.716-1.472-.88-2.21-.143-.517.517-.853 1.087-.874 1.663-.044 1.157.241 3.174 2.294 5.227s4.07 2.338 5.227 2.294c.575-.022 1.146-.358 1.663-.875.737-.737.573-1.81-.143-2.21l-.775-.432c-.482-.269-1.16-.177-1.635.298-.047.047-.344.324-.872.35-.54.026-1.194-.216-1.934-.956S6.013 7.61 6.04 7.069c.026-.527.303-.824.35-.87.475-.476.567-1.154.298-1.636z" clip-rule="evenodd"/></svg>