<svg width="12" height="12" viewBox="0 0 12 12" fill="none" xmlns="http://www.w3.org/2000/svg">
<path fill-rule="evenodd" clip-rule="evenodd" d="M6 1.375C4.13604 1.375 2.625 2.88604 2.625 4.75C2.625 5.74926 3.05879 6.6467 3.74953 7.26521L3.75171 7.26716C4.03004 7.51638 4.24147 7.7057 4.39264 7.84429C4.53495 7.97475 4.64769 8.08138 4.70676 8.15428L4.71318 8.1622C4.82381 8.29871 4.92022 8.41766 4.9838 8.55993C5.04738 8.7022 5.07168 8.85337 5.09958 9.02684L5.1012 9.03692C5.1155 9.12583 5.12123 9.23505 5.12352 9.375H6.87648C6.87877 9.23505 6.8845 9.12583 6.8988 9.03692L6.90042 9.02685C6.92832 8.85337 6.95262 8.7022 7.0162 8.55993C7.07978 8.41767 7.17618 8.29871 7.28681 8.16221L7.29324 8.15428C7.35231 8.08138 7.46505 7.97475 7.60736 7.84429C7.75853 7.7057 7.96998 7.51636 8.24832 7.26713L8.25047 7.26521C8.94121 6.6467 9.375 5.74926 9.375 4.75C9.375 2.88604 7.86396 1.375 6 1.375ZM6.87179 10.125H5.12821C5.12985 10.1771 5.13231 10.2226 5.13603 10.2636C5.14623 10.3762 5.16344 10.4171 5.17524 10.4375C5.20815 10.4945 5.25549 10.5418 5.3125 10.5748C5.33293 10.5866 5.3738 10.6038 5.48637 10.614C5.6041 10.6246 5.75944 10.625 6 10.625C6.24056 10.625 6.3959 10.6246 6.51363 10.614C6.6262 10.6038 6.66707 10.5866 6.6875 10.5748C6.74451 10.5418 6.79185 10.4945 6.82476 10.4375C6.83656 10.4171 6.85377 10.3762 6.86397 10.2636C6.86769 10.2226 6.87015 10.1771 6.87179 10.125ZM1.875 4.75C1.875 2.47183 3.72183 0.625 6 0.625C8.27817 0.625 10.125 2.47183 10.125 4.75C10.125 5.97139 9.59369 7.06919 8.75078 7.82395C8.46983 8.07551 8.2617 8.26189 8.11419 8.39712C8.04044 8.46473 7.98406 8.51755 7.94244 8.55809C7.92169 8.5783 7.90583 8.59429 7.89401 8.60668C7.88816 8.61281 7.88376 8.61759 7.88056 8.62116C7.87729 8.62481 7.87594 8.62646 7.87594 8.62646C7.74586 8.78699 7.71771 8.82841 7.70094 8.86593C7.68417 8.90345 7.6721 8.95205 7.63928 9.15604C7.62633 9.23658 7.625 9.37453 7.625 9.75V9.7661C7.62501 9.986 7.62502 10.1757 7.61091 10.3313C7.59599 10.4959 7.56296 10.6589 7.47428 10.8125C7.37554 10.9835 7.23352 11.1255 7.0625 11.2243C6.90889 11.313 6.74592 11.346 6.58133 11.3609C6.42568 11.375 6.23601 11.375 6.01612 11.375H5.98388C5.76399 11.375 5.57432 11.375 5.41868 11.3609C5.25408 11.346 5.09111 11.313 4.9375 11.2243C4.76648 11.1255 4.62446 10.9835 4.52572 10.8125C4.43704 10.6589 4.40401 10.4959 4.38909 10.3313C4.37498 10.1757 4.37499 9.98601 4.375 9.76611L4.375 9.75C4.375 9.37453 4.37368 9.23658 4.36072 9.15604C4.3279 8.95205 4.31583 8.90345 4.29906 8.86593C4.28229 8.82841 4.25414 8.787 4.12406 8.62646C4.12406 8.62646 4.12257 8.62465 4.11944 8.62116C4.11625 8.61759 4.11184 8.61281 4.106 8.60668C4.09417 8.59429 4.07831 8.5783 4.05756 8.55809C4.01594 8.51755 3.95956 8.46473 3.88581 8.39712C3.7383 8.26189 3.53017 8.07551 3.24922 7.82395C2.40631 7.06919 1.875 5.97139 1.875 4.75Z" fill="#F5F6F9"/>
<path fill-rule="evenodd" clip-rule="evenodd" d="M6.61075 3.94485C6.77928 4.06523 6.81832 4.29943 6.69794 4.46796L6.05006 5.375H6.82136C6.96183 5.375 7.09052 5.45351 7.1548 5.57841C7.21908 5.70331 7.20816 5.85366 7.12651 5.96796L6.05508 7.46796C5.9347 7.63649 5.7005 7.67553 5.53197 7.55515C5.36344 7.43477 5.3244 7.20057 5.44478 7.03204L6.09266 6.125H5.32136C5.18089 6.125 5.0522 6.04649 4.98792 5.92159C4.92365 5.79669 4.93456 5.64634 5.01621 5.53204L6.08764 4.03204C6.20802 3.86351 6.44222 3.82447 6.61075 3.94485Z" fill="#F5F6F9"/>
</svg>
