<svg xmlns="http://www.w3.org/2000/svg" width="12" height="12" fill="none" viewBox="0 0 12 12"><g clip-path="url(#a)"><path fill="#f5f6f9" fill-rule="evenodd" d="M3.43.625h.063c.176 0 .29 0 .4.01.475.045.927.232 1.294.537.086.07.166.15.29.275l.288.288c.423.423.586.58.773.685q.165.091.345.143c.207.059.433.062 1.031.062h.213c.636 0 1.15 0 1.555.051.42.053.778.166 1.072.43q.074.066.14.14c.264.294.377.651.43 1.072.051.406.051.919.051 1.556v1.154c0 .92 0 1.647-.077 2.217-.078.586-.244 1.06-.619 1.434-.374.375-.848.54-1.434.62-.57.076-1.298.076-2.217.076H4.972c-.92 0-1.647 0-2.217-.077-.586-.078-1.06-.244-1.434-.619-.375-.374-.54-.848-.62-1.434-.076-.57-.076-1.298-.076-2.217V3.43c0-.398 0-.652.041-.87A2.375 2.375 0 0 1 2.56.666c.218-.041.472-.041.87-.041m.045.75c-.458 0-.636.002-.776.028A1.625 1.625 0 0 0 1.403 2.7c-.026.14-.028.318-.028.776V7c0 .953 0 1.63.07 2.145.068.503.194.792.406 1.004s.501.339 1.004.406c.514.07 1.192.07 2.145.07h2c.953 0 1.63 0 2.145-.07.503-.067.792-.194 1.004-.406s.339-.501.406-1.004c.07-.514.07-1.192.07-2.145V5.899c0-.668 0-1.134-.045-1.487-.043-.345-.123-.53-.244-.664a1 1 0 0 0-.084-.084c-.134-.121-.32-.2-.664-.244-.353-.044-.819-.045-1.487-.045H7.86c-.524 0-.862 0-1.182-.091a2.4 2.4 0 0 1-.503-.209c-.29-.161-.53-.4-.9-.77l-.04-.04-.274-.275a4 4 0 0 0-.251-.241 1.63 1.63 0 0 0-.886-.367 4 4 0 0 0-.348-.007M6.125 5c0-.207.168-.375.375-.375H9a.375.375 0 1 1 0 .75H6.5A.375.375 0 0 1 6.125 5" clip-rule="evenodd"/></g><defs><clipPath id="a"><path fill="#fff" d="M0 0h12v12H0z"/></clipPath></defs></svg>