<svg xmlns="http://www.w3.org/2000/svg" width="16" height="16" fill="none" viewBox="0 0 16 16"><path fill="#f5f6f9" fill-rule="evenodd" d="M8.318 1.833c-1.834 0-3.31 1.468-3.31 3.265q.001.464.124.887c.331.096.641.241.922.426a.5.5 0 1 1-.552.834 2.36 2.36 0 0 0-1.311-.392c-1.308 0-2.358 1.046-2.358 2.324S2.883 11.5 4.191 11.5a.5.5 0 0 1 0 1C2.342 12.5.833 11.018.833 9.177c0-1.803 1.447-3.262 3.243-3.322a4.2 4.2 0 0 1-.068-.757c0-2.36 1.935-4.265 4.31-4.265 2.105 0 3.864 1.496 4.236 3.481a4.26 4.26 0 0 1 2.613 3.921c0 2.05-1.459 3.755-3.396 4.169a.5.5 0 1 1-.209-.978c1.493-.32 2.605-1.63 2.605-3.19a3.27 3.27 0 0 0-2.225-3.086 3.4 3.4 0 0 0-1.085-.18c-.388 0-.76.066-1.105.187a.5.5 0 1 1-.33-.944 4.34 4.34 0 0 1 2.016-.204 3.31 3.31 0 0 0-3.12-2.176m1.585 7.584a.5.5 0 0 1-.053.705l-1.837 1.583h1.51a.5.5 0 0 1 .327.88l-2.857 2.46a.5.5 0 1 1-.653-.757l1.837-1.583h-1.51a.5.5 0 0 1-.327-.879l2.857-2.461a.5.5 0 0 1 .706.052" clip-rule="evenodd"/></svg>