<svg xmlns="http://www.w3.org/2000/svg" width="16" height="16" fill="none" viewBox="0 0 16 16"><path fill="#f5f6f9" fill-rule="evenodd" d="M8.318 3.167c-1.834 0-3.31 1.467-3.31 3.264q.001.463.124.888c.331.095.641.24.922.426a.5.5 0 0 1-.552.834 2.36 2.36 0 0 0-1.311-.393c-1.308 0-2.358 1.046-2.358 2.324s1.05 2.323 2.358 2.323h6.666c1.834 0 3.31-1.467 3.31-3.264a3.27 3.27 0 0 0-2.225-3.086 3.4 3.4 0 0 0-1.085-.18c-.388 0-.76.067-1.105.187a.5.5 0 1 1-.33-.944 4.34 4.34 0 0 1 2.016-.204 3.31 3.31 0 0 0-3.12-2.175m4.236 2.48c-.372-1.985-2.131-3.48-4.236-3.48-2.375 0-4.31 1.903-4.31 4.264q0 .388.068.757C2.28 7.248.833 8.707.833 10.51c0 1.84 1.509 3.323 3.358 3.323h6.666c2.375 0 4.31-1.903 4.31-4.264 0-1.763-1.08-3.27-2.613-3.922" clip-rule="evenodd"/></svg>