<svg xmlns="http://www.w3.org/2000/svg" width="16" height="16" fill="none" viewBox="0 0 16 16"><path fill="#f5f6f9" fill-rule="evenodd" d="M8.02 9.98a.5.5 0 0 1 0 .707L6.687 12.02a.5.5 0 0 1-.707-.707L7.313 9.98a.5.5 0 0 1 .707 0m3 0a.5.5 0 0 1 0 .707L9.687 12.02a.5.5 0 0 1-.707-.707l1.333-1.333a.5.5 0 0 1 .707 0m-5.666 2.333a.5.5 0 0 1 0 .707L4.02 14.354a.5.5 0 1 1-.707-.707l1.333-1.334a.5.5 0 0 1 .708 0m6.333 0a.5.5 0 0 1 0 .707l-1.333 1.334a.5.5 0 1 1-.708-.707l1.334-1.334a.5.5 0 0 1 .707 0m-3.333.667a.5.5 0 0 1 0 .707L7.02 15.02a.5.5 0 0 1-.707-.707l1.333-1.333a.5.5 0 0 1 .708 0" clip-rule="evenodd"/><path fill="#f5f6f9" d="M8.318 2.5c-1.834 0-3.31 1.467-3.31 3.265q.001.463.124.887.498.146.922.426a.5.5 0 1 1-.552.834 2.36 2.36 0 0 0-1.311-.392c-1.308 0-2.358 1.045-2.358 2.323 0 .716.329 1.358.85 1.786a.5.5 0 1 1-.636.772A3.3 3.3 0 0 1 .833 9.843c0-1.803 1.447-3.262 3.243-3.321a4.2 4.2 0 0 1-.068-.757c0-2.361 1.935-4.265 4.31-4.265 2.105 0 3.864 1.496 4.236 3.48a4.265 4.265 0 0 1 2.613 3.922 4.25 4.25 0 0 1-1.888 3.528.5.5 0 0 1-.558-.83 3.25 3.25 0 0 0 1.446-2.698 3.27 3.27 0 0 0-2.225-3.086 3.4 3.4 0 0 0-1.085-.179c-.388 0-.76.066-1.105.187a.5.5 0 1 1-.33-.945 4.34 4.34 0 0 1 2.016-.203A3.31 3.31 0 0 0 8.319 2.5"/></svg>