<svg xmlns="http://www.w3.org/2000/svg" width="16" height="16" fill="none" viewBox="0 0 16 16"><path fill="#f5f6f9" fill-rule="evenodd" d="M5 .833a.5.5 0 0 1 .5.5v.334a.5.5 0 0 1-1 0v-.334a.5.5 0 0 1 .5-.5m-2.946 1.22a.5.5 0 0 1 .707 0l.144.145a.5.5 0 1 1-.707.707l-.144-.144a.5.5 0 0 1 0-.707m5.892 0a.5.5 0 0 1 0 .708l-.144.144a.5.5 0 0 1-.707-.707l.144-.144a.5.5 0 0 1 .707 0M5.333 3.5a1.82 1.82 0 0 0-1.283.524c-.34.333-.55.796-.55 1.31 0 .554.247 1.052.637 1.389a4.28 4.28 0 0 1 2.346-2.818 1.823 1.823 0 0 0-1.15-.405m2.216.068a2.9 2.9 0 0 0-.596-.56 2.82 2.82 0 0 0-1.62-.508 2.82 2.82 0 0 0-1.983.81 2.833 2.833 0 0 0 .658 4.529q.007.348.068.683C2.28 8.582.833 10.04.833 11.843c0 1.841 1.509 3.324 3.358 3.324h6.666c2.375 0 4.31-1.904 4.31-4.265 0-1.762-1.08-3.27-2.613-3.921C12.182 4.996 10.423 3.5 8.318 3.5q-.395 0-.769.068m3.89 3.108A3.31 3.31 0 0 0 8.317 4.5c-1.834 0-3.31 1.467-3.31 3.265q.001.463.124.887.498.145.922.426a.5.5 0 1 1-.552.834 2.36 2.36 0 0 0-1.311-.392c-1.308 0-2.358 1.046-2.358 2.323 0 1.278 1.05 2.324 2.358 2.324h6.666c1.834 0 3.31-1.467 3.31-3.265a3.27 3.27 0 0 0-2.225-3.086 3.4 3.4 0 0 0-1.085-.179c-.388 0-.76.066-1.105.187a.5.5 0 1 1-.33-.945 4.34 4.34 0 0 1 2.016-.203M.832 5a.5.5 0 0 1 .5-.5h.334a.5.5 0 0 1 0 1h-.334a.5.5 0 0 1-.5-.5m2.072 2.095a.5.5 0 0 1 0 .707l-.144.144a.5.5 0 0 1-.707-.707l.144-.144a.5.5 0 0 1 .707 0" clip-rule="evenodd"/></svg>