<svg xmlns="http://www.w3.org/2000/svg" width="16" height="16" fill="none" viewBox="0 0 16 16"><path fill="#f5f6f9" fill-rule="evenodd" d="M7.345 1.868a6.168 6.168 0 0 0-5.12 8.299h6.341a4.835 4.835 0 0 1-1.221-8.3m4.756 8.299h1.674c.18-.479.302-.985.357-1.512a4.85 4.85 0 0 1-2.031 1.512m2.724.025A7.2 7.2 0 0 0 15.167 8c0-.478-.381-.717-.684-.758a.87.87 0 0 0-.866.404 3.833 3.833 0 1 1-5.263-5.263.87.87 0 0 0 .404-.865C8.717 1.214 8.478.833 8 .833a7.167 7.167 0 0 0-6.825 9.36.5.5 0 0 0 .158.974h13.334a.5.5 0 0 0 .158-.975M2.833 12.667a.5.5 0 0 1 .5-.5h9.334a.5.5 0 1 1 0 1H3.333a.5.5 0 0 1-.5-.5m2 2a.5.5 0 0 1 .5-.5h5.334a.5.5 0 1 1 0 1H5.333a.5.5 0 0 1-.5-.5" clip-rule="evenodd"/><path fill="#f5f6f9" fill-rule="evenodd" d="M13.577 1.416a.655.655 0 0 0-1.22 0l-.285.726-.723.287a.657.657 0 0 0 0 1.221l.723.287.285.726a.655.655 0 0 0 1.22 0l.285-.726.723-.287a.657.657 0 0 0 0-1.221l-.723-.287zm-.61.27.276.704c.067.17.2.304.37.37l.704.28-.704.278a.66.66 0 0 0-.37.37l-.276.704-.277-.703a.66.66 0 0 0-.369-.37l-.704-.28.704-.278a.66.66 0 0 0 .37-.37zm-1.968 3.612a.655.655 0 0 0-1.22 0l-.103.262-.261.103a.657.657 0 0 0 0 1.222l.26.103.104.262a.655.655 0 0 0 1.22 0l.103-.262.26-.103a.657.657 0 0 0 0-1.222l-.26-.103zm-.61.27.094.24c.066.169.2.303.369.37l.242.096-.242.096a.66.66 0 0 0-.37.37l-.093.24-.094-.24a.66.66 0 0 0-.37-.37l-.242-.096.242-.096a.66.66 0 0 0 .37-.37z" clip-rule="evenodd"/></svg>