<svg xmlns="http://www.w3.org/2000/svg" width="16" height="16" fill="none" viewBox="0 0 16 16"><path fill="#f5f6f9" fill-rule="evenodd" d="M8 .833a.5.5 0 0 1 .5.5v1.46l1.146-1.147a.5.5 0 1 1 .707.708L8.5 4.207v2.927l2.535-1.463.678-2.532a.5.5 0 0 1 .966.258l-.42 1.567 1.264-.73a.5.5 0 1 1 .5.866l-1.264.73 1.566.42a.5.5 0 0 1-.258.965l-2.532-.678L9 8l2.535 1.464 2.532-.679a.5.5 0 0 1 .259.966l-1.567.42 1.265.73a.5.5 0 0 1-.5.865l-1.264-.73.42 1.567a.5.5 0 0 1-.967.258l-.678-2.532L8.5 8.866v2.927l1.854 1.854a.5.5 0 1 1-.708.707L8.5 13.207v1.46a.5.5 0 1 1-1 0v-1.46l-1.146 1.147a.5.5 0 1 1-.708-.707L7.5 11.793V8.866L4.965 10.33l-.678 2.532a.5.5 0 1 1-.966-.258l.42-1.566-1.265.73a.5.5 0 1 1-.5-.867l1.264-.73-1.566-.419a.5.5 0 0 1 .26-.966l2.531.679L7 8 4.465 6.537l-2.532.678a.5.5 0 1 1-.258-.966l1.566-.42-1.264-.73a.5.5 0 0 1 .5-.865l1.264.73-.42-1.567a.5.5 0 1 1 .966-.258l.678 2.532L7.5 7.134V4.207L5.646 2.354a.5.5 0 1 1 .708-.708L7.5 2.793v-1.46a.5.5 0 0 1 .5-.5" clip-rule="evenodd"/></svg>