<svg xmlns="http://www.w3.org/2000/svg" width="16" height="16" fill="none" viewBox="0 0 16 16"><path fill="#f5f6f9" fill-rule="evenodd" d="M8 .833a.5.5 0 0 1 .5.5v1.334a.5.5 0 0 1-1 0V1.333a.5.5 0 0 1 .5-.5M2.446 2.477a.5.5 0 0 1 .706-.031L4.634 3.8a.5.5 0 1 1-.675.738L2.477 3.184a.5.5 0 0 1-.031-.707m11.108 0a.5.5 0 0 1-.031.707L12.04 4.538a.5.5 0 0 1-.675-.738l1.482-1.354a.5.5 0 0 1 .706.031M8 5.167a2.833 2.833 0 1 0 0 5.666 2.833 2.833 0 0 0 0-5.666M4.167 8a3.833 3.833 0 1 1 7.666 0 3.833 3.833 0 0 1-7.666 0M.833 8a.5.5 0 0 1 .5-.5h1.334a.5.5 0 0 1 0 1H1.333a.5.5 0 0 1-.5-.5m12 0a.5.5 0 0 1 .5-.5h1.334a.5.5 0 1 1 0 1h-1.334a.5.5 0 0 1-.5-.5m-1.483 3.35a.5.5 0 0 1 .707 0l1.482 1.482a.5.5 0 1 1-.707.707l-1.482-1.482a.5.5 0 0 1 0-.707m-6.7 0a.5.5 0 0 1 0 .707L3.168 13.54a.5.5 0 1 1-.707-.707l1.482-1.482a.5.5 0 0 1 .707 0M8 12.833a.5.5 0 0 1 .5.5v1.334a.5.5 0 0 1-1 0v-1.334a.5.5 0 0 1 .5-.5" clip-rule="evenodd"/></svg>