<svg xmlns="http://www.w3.org/2000/svg" width="16" height="16" fill="none" viewBox="0 0 16 16"><path fill="#f5f6f9" fill-rule="evenodd" d="M2.875 3a8 8 0 0 1 .965-.214C4.89 2.611 6.362 2.5 8 2.5a.5.5 0 0 0 0-1c-1.676 0-3.204.113-4.325.3-.556.092-1.035.207-1.387.346a1.8 1.8 0 0 0-.482.265c-.13.106-.306.302-.306.589s.175.483.306.59c.137.11.309.196.482.264.352.139.831.254 1.387.346 1.12.187 2.65.3 4.325.3s3.204-.113 4.325-.3c.556-.092 1.035-.207 1.387-.346a1.8 1.8 0 0 0 .482-.265c.13-.106.306-.302.306-.589 0-.357-.265-.571-.42-.671a2.7 2.7 0 0 0-.664-.286c-.509-.155-1.21-.28-2.027-.372a.5.5 0 1 0-.111.994c.79.089 1.423.206 1.846.335a8 8 0 0 1-.964.214C11.11 3.389 9.638 3.5 8 3.5s-3.11-.11-4.16-.286A8 8 0 0 1 2.875 3m10.697.194-.008-.007zM13.804 5.165a.5.5 0 0 1-.302.639l-.169-.47.169.47H13.5l-.002.001-.006.003-.021.007-.075.024q-.096.03-.28.081c-.245.066-.606.153-1.081.239-.951.172-2.36.341-4.219.341s-3.18-.17-4.044-.343a9 9 0 0 1-.966-.243 5 5 0 0 1-.312-.111l-.02-.008-.007-.003-.002-.001h-.001s-.001-.001.203-.458l-.204.457a.5.5 0 0 1 .405-.914m0 0 .007.003.04.016q.06.022.193.066c.18.057.463.136.86.215.796.16 2.05.324 3.848.324s3.147-.164 4.041-.325c.447-.081.78-.161.998-.22a6 6 0 0 0 .297-.088l.013-.004.156.435-.156-.435a.5.5 0 0 1 .639.302M5.515 8.868a.5.5 0 0 0-.366.93l.184-.465-.184.465h.001l.002.001.005.002.012.005a2 2 0 0 0 .184.06c.122.035.3.08.535.125.47.09 1.167.176 2.112.176s1.643-.086 2.112-.176a6 6 0 0 0 .678-.17l.04-.015.014-.005.004-.002h.002s.001-.001-.183-.466l.184.465a.5.5 0 0 0-.366-.93h-.002m0 0-.019.007-.097.03a5 5 0 0 1-.442.104c-.406.077-1.041.158-1.925.158s-1.519-.08-1.926-.158a5 5 0 0 1-.557-.14m4.965 0h.001M11.14 10.838a.5.5 0 0 1-.312.635 6.3 6.3 0 0 1-2.161.36c-.932 0-1.623-.083-2.092-.171a.5.5 0 0 1 .184-.983c.407.076 1.037.154 1.908.154.83 0 1.375-.148 1.838-.306a.5.5 0 0 1 .635.311M10.16 12.844a.5.5 0 0 1-.413.573 7 7 0 0 1-1.08.083q-.486 0-.886-.027a.5.5 0 0 1 .063-.998q.369.024.823.025c.356 0 .658-.027.92-.07a.5.5 0 0 1 .573.414M4.394 7.025a.5.5 0 0 0-.838.537L4 7.333l-.444.23v.002l.002.002.003.005.005.01a1 1 0 0 0 .044.066q.034.045.085.095c.068.064.158.13.279.196.238.13.61.263 1.2.367a.5.5 0 0 0 .174-.984c-.524-.093-.784-.2-.897-.262a1 1 0 0 1-.057-.035m7.835-.136a.5.5 0 0 1 .216.673L12 7.333l.444.231-.002.002-.002.004-.004.008-.03.049a1 1 0 0 1-.058.07q-.065.075-.172.15c-.143.1-.35.203-.658.298-.61.187-1.666.355-3.518.355a.5.5 0 0 1 0-1c1.805 0 2.749-.165 3.225-.311.235-.073.342-.136.378-.161l.003-.003a.5.5 0 0 1 .623-.136M8.167 14.667a.5.5 0 0 1 .5-.5v1a.5.5 0 0 1-.5-.5m.5.5H9a.5.5 0 0 0 0-1h-.333z" clip-rule="evenodd"/></svg>