<svg xmlns="http://www.w3.org/2000/svg" width="16" height="16" fill="none" viewBox="0 0 16 16"><path fill="#f5f6f9" fill-rule="evenodd" d="M4.167 3.667a2.167 2.167 0 1 1 2.166 2.166H2a.5.5 0 1 1 0-1h4.333a1.167 1.167 0 1 0-1.166-1.166v.238a.5.5 0 0 1-1 0zM9.5 5a2.833 2.833 0 1 1 2.833 2.833h-11a.5.5 0 1 1 0-1h11A1.833 1.833 0 1 0 10.5 5v.333a.5.5 0 1 1-1 0zM2.167 9.333a.5.5 0 0 1 .5-.5h9.666A2.833 2.833 0 1 1 9.5 11.667v-.334a.5.5 0 0 1 1 0v.334a1.833 1.833 0 1 0 1.833-1.834H2.667a.5.5 0 0 1-.5-.5" clip-rule="evenodd"/></svg>