<svg xmlns="http://www.w3.org/2000/svg" width="16" height="16" fill="none" viewBox="0 0 16 16"><path fill="#f5f6f9" fill-rule="evenodd" d="M8 5.5a2.5 2.5 0 1 0 0 5 2.5 2.5 0 0 0 0-5M6.5 8a1.5 1.5 0 1 1 3 0 1.5 1.5 0 0 1-3 0" clip-rule="evenodd"/><path fill="#f5f6f9" fill-rule="evenodd" d="M8 2.167c-3.01 0-5.036 1.802-6.213 3.33l-.021.028c-.266.346-.511.664-.677 1.04C.91 6.97.833 7.409.833 8s.077 1.031.256 1.434c.166.377.41.695.677 1.04l.021.028C2.964 12.03 4.991 13.833 8 13.833s5.037-1.803 6.213-3.33l.021-.028c.266-.346.511-.664.678-1.04.178-.404.255-.843.255-1.435s-.077-1.031-.255-1.434c-.167-.377-.412-.695-.678-1.04l-.021-.028C13.037 3.969 11.01 2.167 8 2.167m-5.42 3.94c1.086-1.41 2.854-2.94 5.42-2.94s4.334 1.53 5.42 2.94c.293.38.464.608.577.863.105.238.17.53.17 1.03s-.065.792-.17 1.03c-.113.255-.284.482-.576.862-1.087 1.411-2.854 2.941-5.421 2.941-2.566 0-4.334-1.53-5.42-2.94-.293-.38-.464-.608-.577-.863-.105-.238-.17-.53-.17-1.03s.065-.792.17-1.03c.113-.255.284-.482.577-.862" clip-rule="evenodd"/></svg>