<svg xmlns="http://www.w3.org/2000/svg" width="16" height="16" fill="none" viewBox="0 0 16 16"><path fill="#f5f6f9" fill-rule="evenodd" d="M6.925 2.167h2.15c.723 0 1.31 0 1.783.056.493.059.916.184 1.286.473s.594.669.77 1.133c.17.444.312 1.014.488 1.716l.322 1.288h.943a.5.5 0 1 1 0 1H1.333a.5.5 0 1 1 0-1h.943l.322-1.288c.176-.702.318-1.272.488-1.716.176-.464.4-.844.77-1.133s.793-.414 1.286-.473c.472-.056 1.06-.056 1.783-.056M3.307 6.833h9.386l-.254-1.015c-.185-.74-.313-1.251-.46-1.633-.14-.37-.278-.566-.45-.7-.174-.136-.397-.222-.79-.269-.406-.049-.933-.05-1.695-.05H6.956c-.762 0-1.29.001-1.695.05-.393.047-.616.133-.79.268-.172.135-.31.33-.45.7-.146.383-.275.894-.46 1.634zm1.026 3a1.833 1.833 0 1 0 0 3.667 1.833 1.833 0 0 0 0-3.667M1.5 11.667a2.833 2.833 0 0 1 5.566-.75 2.5 2.5 0 0 1 1.868 0 2.835 2.835 0 1 1-.083 1.068l-.18-.09a1.5 1.5 0 0 0-1.342 0l-.18.09a2.834 2.834 0 0 1-5.649-.318m10.167-1.834a1.833 1.833 0 1 0 0 3.667 1.833 1.833 0 0 0 0-3.667" clip-rule="evenodd"/></svg>