<svg xmlns="http://www.w3.org/2000/svg" width="16" height="16" fill="none" viewBox="0 0 16 16"><g fill="#f5f6f9" fill-rule="evenodd" clip-path="url(#a)" clip-rule="evenodd"><path d="M10.454 3.565c-1.086 0-1.97.878-1.97 1.964s.884 1.964 1.97 1.964 1.97-.878 1.97-1.964a1.967 1.967 0 0 0-1.97-1.964m-.97 1.964c0-.53.433-.964.97-.964s.97.434.97.964-.433.964-.97.964a.967.967 0 0 1-.97-.964"/><path d="M6.353 13.919c.222-.31.294-.624.289-.903.261.076.52.086.767.04a1.84 1.84 0 0 0 1.093-.689l.003-.005.004-.004c.35-.488.35-.988.263-1.347a1.9 1.9 0 0 0-.239-.566 1.5 1.5 0 0 0-.182-.263l.006-.005.31-.309c.254.122.53.199.772.249.39.08.772.108 1.015.108 2.6 0 4.713-2.1 4.713-4.696S13.055.833 10.454.833 5.74 2.933 5.74 5.53a4.35 4.35 0 0 0 .38 1.756l-4.838 4.817c-.17.17-.371.467-.432.838-.065.402.043.849.432 1.237l.588.585.028.026c.17.145.455.313.798.364.368.054.793-.03 1.154-.39l.377-.376c.356.204.731.25 1.078.184.45-.086.825-.356 1.04-.642l.004-.004zm.388-8.39c0-2.04 1.66-3.696 3.713-3.696a3.704 3.704 0 0 1 3.713 3.696c0 2.04-1.66 3.696-3.713 3.696-.182 0-.496-.022-.812-.088-.332-.068-.592-.17-.73-.285a.5.5 0 0 0-.672.03l-.588.586a1.4 1.4 0 0 0-.332.46.7.7 0 0 0 .04.613c.058.105.153.206.192.248l.013.014a.6.6 0 0 1 .09.122l.018.035.02.028.005.007.028.05a1 1 0 0 1 .074.198.62.62 0 0 1-.1.527.84.84 0 0 1-.477.303c-.172.032-.452.011-.825-.36a.5.5 0 0 0-.706 0l-.196.194a.5.5 0 0 0-.029.677l.007.01q.013.015.037.053c.032.05.07.12.097.2.05.15.058.311-.064.484a.75.75 0 0 1-.426.257c-.156.03-.356.008-.582-.217a.5.5 0 0 0-.705 0l-.686.683c-.11.11-.207.122-.302.108a.65.65 0 0 1-.282-.125l-.572-.569c-.159-.158-.165-.28-.15-.367a.6.6 0 0 1 .15-.29l5.096-5.075a.5.5 0 0 0 .07-.617v-.002a1 1 0 0 1-.055-.1 3.346 3.346 0 0 1-.359-1.488m-1.274 7.055.003.003z"/></g><defs><clipPath id="a"><path fill="#fff" d="M0 0h16v16H0z"/></clipPath></defs></svg>