<svg xmlns="http://www.w3.org/2000/svg" width="16" height="16" fill="none" viewBox="0 0 16 16"><g fill="#f5f6f9" clip-path="url(#a)"><path d="M6 10.667a.667.667 0 1 1-1.333 0 .667.667 0 0 1 1.333 0M8.667 10.667a.667.667 0 1 1-1.334 0 .667.667 0 0 1 1.334 0M10.667 11.333a.667.667 0 1 0 0-1.333.667.667 0 0 0 0 1.333"/><path fill-rule="evenodd" d="M3.5 5.333v.869q-.227.015-.428.042c-.6.081-1.105.254-1.506.655-.402.401-.574.906-.655 1.507-.078.578-.078 1.312-.078 2.224v.073c0 .912 0 1.647.078 2.225.08.6.253 1.105.655 1.506.4.402.906.574 1.506.655.578.078 1.313.078 2.225.078h5.406c.912 0 1.647 0 2.225-.078.6-.08 1.105-.253 1.506-.655.402-.4.574-.906.655-1.506.078-.578.078-1.313.078-2.225v-.073c0-.912 0-1.646-.078-2.224-.08-.6-.253-1.106-.655-1.507-.4-.401-.906-.574-1.506-.655a7 7 0 0 0-.428-.042v-.869a4.5 4.5 0 1 0-9 0m4.5-3.5a3.5 3.5 0 0 0-3.5 3.5v.836q.373-.003.797-.002h5.406q.424 0 .797.002v-.836a3.5 3.5 0 0 0-3.5-3.5M3.205 7.235c-.489.066-.748.187-.932.371-.185.185-.305.444-.37.933-.069.503-.07 1.17-.07 2.128 0 .957.001 1.624.07 2.128.065.489.185.748.37.932.184.185.443.305.932.37.504.069 1.171.07 2.128.07h5.334c.957 0 1.624-.001 2.128-.07.489-.065.748-.185.932-.37.185-.184.305-.443.37-.932.069-.504.07-1.171.07-2.128s-.001-1.625-.07-2.128c-.065-.49-.185-.748-.37-.933-.184-.184-.443-.305-.932-.37-.504-.068-1.171-.07-2.128-.07H5.333c-.957 0-1.624.002-2.128.07" clip-rule="evenodd"/></g><defs><clipPath id="a"><path fill="#fff" d="M0 0h16v16H0z"/></clipPath></defs></svg>