<svg xmlns="http://www.w3.org/2000/svg" width="16" height="16" fill="none" viewBox="0 0 16 16"><path fill="#f5f6f9" d="M8 4.833a.5.5 0 0 1 .5.5V8a.5.5 0 0 1-1 0V5.333a.5.5 0 0 1 .5-.5M8 10.667a.667.667 0 1 0 0-1.334.667.667 0 0 0 0 1.334"/><path fill="#f5f6f9" fill-rule="evenodd" d="M5.816 1.367C6.778 1.037 7.375.833 8 .833s1.222.205 2.184.534l.485.166c.988.339 1.75.6 2.296.821q.413.167.701.33c.183.107.367.24.492.417.123.176.187.392.227.6q.061.325.083.773c.032.592.032 1.402.032 2.453v1.067c0 4.068-3.072 6.018-4.899 6.816l-.018.008c-.226.099-.44.192-.684.254a3.5 3.5 0 0 1-.899.095c-.366 0-.64-.029-.899-.095-.245-.062-.458-.155-.684-.254l-.018-.008C4.572 14.012 1.5 12.062 1.5 7.994V6.927c0-1.051 0-1.861.032-2.453q.023-.448.083-.773c.04-.208.104-.424.227-.6.125-.178.309-.31.492-.417.19-.11.427-.218.701-.33.546-.222 1.308-.482 2.296-.82zM8 1.833c-.438 0-.87.141-1.946.51l-.382.13c-1.009.346-1.744.598-2.26.808a5 5 0 0 0-.576.268q-.096.057-.139.093a.3.3 0 0 0-.036.034.3.3 0 0 0-.021.048 1 1 0 0 0-.043.166 5 5 0 0 0-.066.639c-.03.56-.031 1.343-.031 2.415v1.05c0 3.45 2.58 5.148 4.3 5.9.247.107.39.169.55.21.151.039.337.063.65.063s.499-.024.65-.063c.16-.041.303-.102.55-.21 1.72-.752 4.3-2.45 4.3-5.9v-1.05c0-1.072 0-1.855-.03-2.415a5 5 0 0 0-.067-.639 1 1 0 0 0-.043-.166.3.3 0 0 0-.02-.048.3.3 0 0 0-.037-.034 1 1 0 0 0-.14-.093 5 5 0 0 0-.575-.268c-.516-.21-1.251-.462-2.26-.807l-.382-.131C8.87 1.974 8.438 1.833 8 1.833" clip-rule="evenodd"/></svg>