<svg xmlns="http://www.w3.org/2000/svg" width="16" height="16" fill="none" viewBox="0 0 16 16"><path fill="#f5f6f9" d="M10.04 7a.5.5 0 1 0-.746-.666L7.286 8.583l-.58-.65a.5.5 0 1 0-.746.667l.953 1.066a.5.5 0 0 0 .746 0z"/><path fill="#f5f6f9" fill-rule="evenodd" d="M8 .833c-.625 0-1.222.205-2.184.534l-.485.166c-.988.339-1.75.6-2.296.821q-.413.167-.701.33c-.183.107-.367.24-.492.417a1.55 1.55 0 0 0-.227.6 6 6 0 0 0-.083.773C1.5 5.066 1.5 5.876 1.5 6.926v1.068c0 4.068 3.072 6.018 4.899 6.816l.018.008c.226.099.44.192.684.254.258.066.533.095.899.095s.64-.029.899-.095c.245-.062.458-.155.684-.254l.018-.008c1.827-.798 4.899-2.748 4.899-6.816V6.927c0-1.051 0-1.861-.032-2.453a6 6 0 0 0-.083-.773 1.55 1.55 0 0 0-.227-.6c-.125-.178-.309-.31-.492-.417a6 6 0 0 0-.701-.33c-.546-.222-1.308-.482-2.296-.82l-.485-.167C9.222 1.037 8.625.833 8 .833m-1.946 1.51c1.076-.369 1.508-.51 1.946-.51s.87.141 1.946.51l.382.13c1.008.346 1.744.598 2.26.808.258.104.445.192.576.268q.096.057.139.093.036.03.036.034a.3.3 0 0 1 .021.048q.021.055.043.166c.029.151.051.359.066.639.03.56.031 1.343.031 2.415v1.05c0 3.45-2.58 5.148-4.3 5.9-.247.107-.39.169-.55.21a2.6 2.6 0 0 1-.65.063c-.313 0-.499-.024-.65-.063a3.6 3.6 0 0 1-.55-.21c-1.72-.752-4.3-2.45-4.3-5.9v-1.05c0-1.072 0-1.855.03-2.415a5 5 0 0 1 .067-.639q.023-.11.043-.166a.3.3 0 0 1 .02-.048.3.3 0 0 1 .037-.034c.03-.024.074-.055.14-.093.13-.076.317-.164.575-.268.516-.21 1.251-.462 2.26-.807z" clip-rule="evenodd"/></svg>