<svg xmlns="http://www.w3.org/2000/svg" width="16" height="16" fill="none" viewBox="0 0 16 16"><g fill="#f5f6f9" clip-path="url(#a)"><path d="M8.5 1.333a.5.5 0 0 0-1 0v2a.5.5 0 1 0 1 0zM10 6.71a.5.5 0 0 0 0 1c.561 0 .976.426.957.938a.5.5 0 0 0 1 .037c.04-1.127-.878-1.975-1.957-1.975"/><path fill-rule="evenodd" d="M7.978 4.833c-.915 0-1.632 0-2.208.047-.587.048-1.072.148-1.51.371a3.83 3.83 0 0 0-1.676 1.675c-.223.44-.322.924-.37 1.51-.047.577-.047 1.294-.047 2.208v3.523h-.834a.5.5 0 0 0 0 1h13.334a.5.5 0 1 0 0-1h-.834v-3.523c0-.914 0-1.631-.047-2.207-.048-.587-.147-1.072-.37-1.51A3.83 3.83 0 0 0 11.74 5.25c-.438-.223-.923-.323-1.51-.37-.576-.048-1.293-.048-2.208-.048zm.522 9.334h4.333v-3.5c0-.942 0-1.618-.043-2.149-.043-.525-.126-.863-.265-1.138a2.83 2.83 0 0 0-1.239-1.238c-.274-.14-.612-.222-1.137-.265-.531-.043-1.207-.044-2.149-.044s-1.618 0-2.149.044c-.525.043-.863.125-1.137.265A2.83 2.83 0 0 0 3.475 7.38c-.14.275-.222.613-.265 1.138-.043.53-.043 1.207-.043 2.149v3.5H7.5V13.08a1.5 1.5 0 1 1 1 0zm-.5-2a.5.5 0 1 0 0-1 .5.5 0 0 0 0 1" clip-rule="evenodd"/><path d="m14.354 3.687-1 1a.5.5 0 1 1-.708-.707l1-1a.5.5 0 1 1 .707.707M2.354 2.98a.5.5 0 1 0-.708.707l1 1a.5.5 0 1 0 .708-.707z"/></g><defs><clipPath id="a"><path fill="#fff" d="M0 0h16v16H0z"/></clipPath></defs></svg>