<svg width="12" height="12" viewBox="0 0 12 12" fill="none" xmlns="http://www.w3.org/2000/svg">
<g clip-path="url(#clip0_599_11117)">
<path fill-rule="evenodd" clip-rule="evenodd" d="M4.5 0.625C4.70711 0.625 4.875 0.792893 4.875 1V1.63136C5.108 1.62688 5.35768 1.62555 5.625 1.62516V1C5.625 0.792893 5.79289 0.625 6 0.625C6.20711 0.625 6.375 0.792893 6.375 1V1.62516C6.64232 1.62555 6.892 1.62688 7.125 1.63136V1C7.125 0.792893 7.29289 0.625 7.5 0.625C7.70711 0.625 7.875 0.792893 7.875 1V1.66354C8.00497 1.67345 8.12805 1.68591 8.24451 1.70157C8.83072 1.78038 9.3052 1.94644 9.67938 2.32062C10.0536 2.6948 10.2196 3.16928 10.2984 3.75549C10.3141 3.87195 10.3265 3.99503 10.3365 4.125H11C11.2071 4.125 11.375 4.29289 11.375 4.5C11.375 4.70711 11.2071 4.875 11 4.875H10.3686C10.3731 5.108 10.3744 5.35768 10.3748 5.625H11C11.2071 5.625 11.375 5.79289 11.375 6C11.375 6.20711 11.2071 6.375 11 6.375H10.3748C10.3744 6.64232 10.3731 6.892 10.3686 7.125H11C11.2071 7.125 11.375 7.29289 11.375 7.5C11.375 7.70711 11.2071 7.875 11 7.875H10.3365C10.3265 8.00497 10.3141 8.12805 10.2984 8.24451C10.2196 8.83072 10.0536 9.3052 9.67938 9.67938C9.3052 10.0536 8.83072 10.2196 8.24451 10.2984C8.12805 10.3141 8.00497 10.3265 7.875 10.3365V11C7.875 11.2071 7.70711 11.375 7.5 11.375C7.29289 11.375 7.125 11.2071 7.125 11V10.3686C6.892 10.3731 6.64232 10.3744 6.375 10.3748V11C6.375 11.2071 6.20711 11.375 6 11.375C5.79289 11.375 5.625 11.2071 5.625 11V10.3748C5.35768 10.3744 5.108 10.3731 4.875 10.3686V11C4.875 11.2071 4.70711 11.375 4.5 11.375C4.29289 11.375 4.125 11.2071 4.125 11V10.3365C3.99503 10.3265 3.87195 10.3141 3.75549 10.2984C3.16928 10.2196 2.6948 10.0536 2.32062 9.67938C1.94644 9.3052 1.78038 8.83072 1.70157 8.24451C1.68591 8.12805 1.67345 8.00497 1.66354 7.875H1C0.792893 7.875 0.625 7.70711 0.625 7.5C0.625 7.29289 0.792893 7.125 1 7.125H1.63136C1.62688 6.892 1.62555 6.64232 1.62516 6.375H1C0.792893 6.375 0.625 6.20711 0.625 6C0.625 5.79289 0.792893 5.625 1 5.625H1.62516C1.62555 5.35768 1.62688 5.108 1.63136 4.875H1C0.792893 4.875 0.625 4.70711 0.625 4.5C0.625 4.29289 0.792893 4.125 1 4.125H1.66354C1.67345 3.99503 1.68591 3.87195 1.70157 3.75549C1.78038 3.16928 1.94644 2.6948 2.32062 2.32062C2.6948 1.94644 3.16928 1.78038 3.75549 1.70157C3.87195 1.68591 3.99503 1.67345 4.125 1.66354V1C4.125 0.792893 4.29289 0.625 4.5 0.625ZM3.85542 2.44488C3.35238 2.51251 3.06256 2.63935 2.85095 2.85095C2.63935 3.06256 2.51251 3.35238 2.44488 3.85542C2.3758 4.36926 2.375 5.04659 2.375 6C2.375 6.95341 2.3758 7.63074 2.44488 8.14458C2.51251 8.64762 2.63935 8.93744 2.85095 9.14905C3.06256 9.36065 3.35238 9.48749 3.85542 9.55512C4.36926 9.6242 5.04659 9.625 6 9.625C6.95341 9.625 7.63074 9.6242 8.14458 9.55512C8.64762 9.48749 8.93744 9.36065 9.14905 9.14905C9.36065 8.93744 9.48749 8.64762 9.55512 8.14458C9.6242 7.63074 9.625 6.95341 9.625 6C9.625 5.04659 9.6242 4.36926 9.55512 3.85542C9.48749 3.35238 9.36065 3.06256 9.14905 2.85095C8.93744 2.63935 8.64762 2.51251 8.14458 2.44488C7.63074 2.3758 6.95341 2.375 6 2.375C5.04659 2.375 4.36926 2.3758 3.85542 2.44488ZM4.97532 3.125H7.02468C7.35712 3.12498 7.64355 3.12496 7.87292 3.1558C8.11874 3.18885 8.35437 3.26338 8.5455 3.4545C8.73662 3.64563 8.81115 3.88126 8.8442 4.12708C8.87504 4.35645 8.87502 4.64288 8.875 4.97532V7.02468C8.87502 7.35712 8.87504 7.64355 8.8442 7.87292C8.81115 8.11874 8.73662 8.35437 8.5455 8.5455C8.35437 8.73662 8.11874 8.81115 7.87292 8.8442C7.64355 8.87504 7.35712 8.87502 7.02468 8.875H4.97532C4.64288 8.87502 4.35645 8.87504 4.12708 8.8442C3.88126 8.81115 3.64563 8.73662 3.4545 8.5455C3.26338 8.35437 3.18885 8.11874 3.1558 7.87292C3.12496 7.64355 3.12498 7.35712 3.125 7.02468V4.97532C3.12498 4.64288 3.12496 4.35645 3.1558 4.12708C3.18885 3.88126 3.26338 3.64563 3.4545 3.4545C3.64563 3.26338 3.88126 3.18885 4.12708 3.1558C4.35645 3.12496 4.64288 3.12498 4.97532 3.125ZM4.22701 3.89911C4.06436 3.92098 4.01338 3.95629 3.98483 3.98483C3.95629 4.01338 3.92098 4.06436 3.89911 4.22701C3.8758 4.40045 3.875 4.63585 3.875 5V7C3.875 7.36415 3.8758 7.59955 3.89911 7.77299C3.92098 7.93564 3.95629 7.98662 3.98483 8.01517C4.01338 8.04371 4.06436 8.07902 4.22701 8.10089C4.40045 8.1242 4.63585 8.125 5 8.125H7C7.36415 8.125 7.59955 8.1242 7.77299 8.10089C7.93564 8.07902 7.98662 8.04371 8.01517 8.01517C8.04371 7.98662 8.07902 7.93564 8.10089 7.77299C8.1242 7.59955 8.125 7.36415 8.125 7V5C8.125 4.63585 8.1242 4.40045 8.10089 4.22701C8.07902 4.06436 8.04371 4.01338 8.01517 3.98483C7.98662 3.95629 7.93564 3.92098 7.77299 3.89911C7.59955 3.8758 7.36415 3.875 7 3.875H5C4.63585 3.875 4.40045 3.8758 4.22701 3.89911Z" fill="#F5F6F9"/>
</g>
<defs>
<clipPath id="clip0_599_11117">
<rect width="12" height="12" fill="white"/>
</clipPath>
</defs>
</svg>
