<svg width="12" height="12" viewBox="0 0 12 12" fill="none" xmlns="http://www.w3.org/2000/svg">
<path d="M8.47926 4.875C8.27215 4.875 8.10426 4.70711 8.10426 4.5L8.10426 1C8.10426 0.792893 8.27215 0.625 8.47926 0.625C8.68637 0.625 8.85426 0.792893 8.85426 1L8.85426 4.5C8.85426 4.70711 8.68637 4.875 8.47926 4.875Z" fill="#F5F6F9"/>
<path fill-rule="evenodd" clip-rule="evenodd" d="M3.5 2.875C4.53553 2.875 5.375 3.71447 5.375 4.75C5.375 5.78553 4.53553 6.625 3.5 6.625C2.46447 6.625 1.625 5.78553 1.625 4.75C1.625 3.71447 2.46447 2.875 3.5 2.875ZM4.625 4.75C4.625 4.12868 4.12132 3.625 3.5 3.625C2.87868 3.625 2.375 4.12868 2.375 4.75C2.375 5.37132 2.87868 5.875 3.5 5.875C4.12132 5.875 4.625 5.37132 4.625 4.75Z" fill="#F5F6F9"/>
<path fill-rule="evenodd" clip-rule="evenodd" d="M8.5 9.125C9.53553 9.125 10.375 8.28553 10.375 7.25C10.375 6.21447 9.53553 5.375 8.5 5.375C7.46447 5.375 6.625 6.21447 6.625 7.25C6.625 8.28553 7.46447 9.125 8.5 9.125ZM9.625 7.25C9.625 7.87132 9.12132 8.375 8.5 8.375C7.87868 8.375 7.375 7.87132 7.375 7.25C7.375 6.62868 7.87868 6.125 8.5 6.125C9.12132 6.125 9.625 6.62868 9.625 7.25Z" fill="#F5F6F9"/>
<path d="M3.10426 7.5C3.10426 7.29289 3.27215 7.125 3.47926 7.125C3.68637 7.125 3.85426 7.29289 3.85426 7.5V11C3.85426 11.2071 3.68637 11.375 3.47926 11.375C3.27215 11.375 3.10426 11.2071 3.10426 11V7.5Z" fill="#F5F6F9"/>
<path d="M8.47926 11.375C8.27215 11.375 8.10426 11.2071 8.10426 11V10C8.10426 9.79289 8.27215 9.625 8.47926 9.625C8.68637 9.625 8.85426 9.79289 8.85426 10V11C8.85426 11.2071 8.68637 11.375 8.47926 11.375Z" fill="#F5F6F9"/>
<path d="M3.10426 1C3.10426 0.792893 3.27215 0.625 3.47926 0.625C3.68637 0.625 3.85426 0.792893 3.85426 1V2C3.85426 2.20711 3.68637 2.375 3.47926 2.375C3.27215 2.375 3.10426 2.20711 3.10426 2V1Z" fill="#F5F6F9"/>
</svg>
