<svg width="12" height="12" viewBox="0 0 12 12" fill="none" xmlns="http://www.w3.org/2000/svg">
<path fill-rule="evenodd" clip-rule="evenodd" d="M5.19394 1.625H6.80606C7.34865 1.62499 7.78919 1.62498 8.1436 1.66736C8.51311 1.71155 8.83042 1.8056 9.10773 2.02212C9.38504 2.23863 9.55324 2.52367 9.68573 2.87142C9.8128 3.20497 9.91964 3.63236 10.0512 4.15875L10.2928 5.125H11C11.2071 5.125 11.375 5.29289 11.375 5.5C11.375 5.70711 11.2071 5.875 11 5.875H10.0078C10.0024 5.87512 9.99699 5.87512 9.99159 5.875H2.00841C2.00301 5.87512 1.99759 5.87512 1.99216 5.875H1C0.792893 5.875 0.625 5.70711 0.625 5.5C0.625 5.29289 0.792893 5.125 1 5.125H1.70721L1.94877 4.15875C2.08036 3.63236 2.1872 3.20497 2.31427 2.87142C2.44676 2.52367 2.61496 2.23863 2.89227 2.02212C3.16958 1.8056 3.48689 1.71155 3.8564 1.66736C4.21081 1.62498 4.65135 1.62499 5.19394 1.625ZM2.48029 5.125H9.51971L9.32929 4.36334C9.19066 3.80882 9.09411 3.42519 8.98487 3.13843C8.87921 2.86109 8.77575 2.71444 8.64617 2.61327C8.51659 2.5121 8.34923 2.4473 8.05455 2.41206C7.74985 2.37562 7.35427 2.375 6.78267 2.375H5.21733C4.64574 2.375 4.25015 2.37562 3.94545 2.41206C3.65077 2.4473 3.48341 2.5121 3.35383 2.61327C3.22424 2.71444 3.12079 2.86109 3.01513 3.13843C2.90589 3.42519 2.80934 3.80882 2.67071 4.36334L2.48029 5.125ZM3.25 7.375C2.49061 7.375 1.875 7.99061 1.875 8.75C1.875 9.50939 2.49061 10.125 3.25 10.125C4.00939 10.125 4.625 9.50939 4.625 8.75C4.625 7.99061 4.00939 7.375 3.25 7.375ZM1.125 8.75C1.125 7.5764 2.07639 6.625 3.25 6.625C4.22895 6.625 5.05328 7.28696 5.29981 8.18769C5.74893 8.00684 6.25107 8.00684 6.70019 8.18769C6.94672 7.28696 7.77106 6.625 8.75 6.625C9.9236 6.625 10.875 7.5764 10.875 8.75C10.875 9.92361 9.9236 10.875 8.75 10.875C7.65698 10.875 6.7567 10.0498 6.63822 8.98837L6.50312 8.92082C6.1864 8.76246 5.8136 8.76246 5.49688 8.92082L5.36178 8.98837C5.2433 10.0498 4.34302 10.875 3.25 10.875C2.07639 10.875 1.125 9.92361 1.125 8.75ZM8.75 7.375C7.99061 7.375 7.375 7.99061 7.375 8.75C7.375 9.50939 7.99061 10.125 8.75 10.125C9.50939 10.125 10.125 9.50939 10.125 8.75C10.125 7.99061 9.50939 7.375 8.75 7.375Z" fill="#F5F6F9"/>
</svg>
