<svg width="12" height="12" viewBox="0 0 12 12" fill="none" xmlns="http://www.w3.org/2000/svg">
<g clip-path="url(#clip0_599_11115)">
<path d="M4.5 8C4.5 8.27614 4.27614 8.5 4 8.5C3.72386 8.5 3.5 8.27614 3.5 8C3.5 7.72386 3.72386 7.5 4 7.5C4.27614 7.5 4.5 7.72386 4.5 8Z" fill="#F5F6F9"/>
<path d="M6.5 8C6.5 8.27614 6.27614 8.5 6 8.5C5.72386 8.5 5.5 8.27614 5.5 8C5.5 7.72386 5.72386 7.5 6 7.5C6.27614 7.5 6.5 7.72386 6.5 8Z" fill="#F5F6F9"/>
<path d="M8 8.5C8.27614 8.5 8.5 8.27614 8.5 8C8.5 7.72386 8.27614 7.5 8 7.5C7.72386 7.5 7.5 7.72386 7.5 8C7.5 8.27614 7.72386 8.5 8 8.5Z" fill="#F5F6F9"/>
<path fill-rule="evenodd" clip-rule="evenodd" d="M2.625 4V4.65138C2.51158 4.65936 2.40469 4.66974 2.30413 4.68326C1.85407 4.74377 1.47513 4.87322 1.17418 5.17417C0.873217 5.47513 0.74377 5.85407 0.683262 6.30412C0.624982 6.73761 0.62499 7.28876 0.625 7.97256V8.02744C0.62499 8.71123 0.624982 9.26239 0.683262 9.69588C0.74377 10.1459 0.873217 10.5249 1.17418 10.8258C1.47513 11.1268 1.85407 11.2562 2.30413 11.3167C2.73761 11.375 3.28877 11.375 3.97257 11.375H8.02744C8.71123 11.375 9.26239 11.375 9.69588 11.3167C10.1459 11.2562 10.5249 11.1268 10.8258 10.8258C11.1268 10.5249 11.2562 10.1459 11.3167 9.69588C11.375 9.26239 11.375 8.71123 11.375 8.02743V7.97256C11.375 7.28877 11.375 6.73761 11.3167 6.30412C11.2562 5.85407 11.1268 5.47513 10.8258 5.17417C10.5249 4.87322 10.1459 4.74377 9.69588 4.68326C9.59531 4.66974 9.48842 4.65936 9.375 4.65138V4C9.375 2.13604 7.86396 0.625 6 0.625C4.13604 0.625 2.625 2.13604 2.625 4ZM6 1.375C4.55025 1.375 3.375 2.55025 3.375 4V4.62672C3.56174 4.62499 3.76076 4.625 3.97249 4.625H8.02744C8.23917 4.625 8.43826 4.62499 8.625 4.62672V4C8.625 2.55025 7.44975 1.375 6 1.375ZM2.40406 5.42657C2.03717 5.4759 1.84289 5.56612 1.70451 5.7045C1.56612 5.84289 1.4759 6.03717 1.42657 6.40406C1.3758 6.78174 1.375 7.28229 1.375 8C1.375 8.71771 1.3758 9.21826 1.42657 9.59594C1.4759 9.96283 1.56612 10.1571 1.70451 10.2955C1.84289 10.4339 2.03717 10.5241 2.40406 10.5734C2.78174 10.6242 3.28229 10.625 4 10.625H8C8.71771 10.625 9.21827 10.6242 9.59594 10.5734C9.96283 10.5241 10.1571 10.4339 10.2955 10.2955C10.4339 10.1571 10.5241 9.96283 10.5734 9.59594C10.6242 9.21826 10.625 8.71771 10.625 8C10.625 7.28229 10.6242 6.78174 10.5734 6.40406C10.5241 6.03717 10.4339 5.84289 10.2955 5.7045C10.1571 5.56612 9.96283 5.4759 9.59594 5.42657C9.21827 5.3758 8.71771 5.375 8 5.375H4C3.28229 5.375 2.78174 5.3758 2.40406 5.42657Z" fill="#F5F6F9"/>
</g>
<defs>
<clipPath id="clip0_599_11115">
<rect width="12" height="12" fill="white"/>
</clipPath>
</defs>
</svg>
