<svg width="868" height="470" viewBox="0 0 868 470" fill="none" xmlns="http://www.w3.org/2000/svg">
<path d="M14.2295 0.889648H853.771C861.138 0.889648 867.11 6.86193 867.11 14.2295V455.345C867.11 462.712 861.138 468.685 853.771 468.685H14.2295C6.86209 468.685 0.889912 462.712 0.889648 455.345V14.2295C0.889648 6.86193 6.86193 0.889657 14.2295 0.889648Z" fill="#1A1D23"/>
<path d="M14.2295 0.889648H853.771C861.138 0.889648 867.11 6.86193 867.11 14.2295V455.345C867.11 462.712 861.138 468.685 853.771 468.685H14.2295C6.86209 468.685 0.889912 462.712 0.889648 455.345V14.2295C0.889648 6.86193 6.86193 0.889657 14.2295 0.889648Z" stroke="#394048" stroke-width="1.77869"/>
<path d="M239.88 230.197V192.033H224.768V185.374H262.228V192.033H246.796V230.197H239.88ZM286.173 230.837C282.288 230.837 278.831 230.09 275.8 228.596C272.811 227.102 270.442 225.031 268.692 222.385C266.984 219.738 266.131 216.728 266.131 213.356C266.131 209.941 266.984 206.931 268.692 204.327C270.442 201.681 272.811 199.61 275.8 198.116C278.831 196.622 282.288 195.875 286.173 195.875C290.058 195.875 293.494 196.622 296.482 198.116C299.47 199.61 301.818 201.681 303.526 204.327C305.276 206.931 306.151 209.941 306.151 213.356C306.151 216.728 305.276 219.738 303.526 222.385C301.818 225.031 299.47 227.102 296.482 228.596C293.494 230.09 290.058 230.837 286.173 230.837ZM286.173 224.818C288.692 224.818 290.954 224.327 292.96 223.345C295.009 222.363 296.61 221.019 297.763 219.311C298.958 217.561 299.513 215.576 299.428 213.356C299.513 211.093 298.958 209.108 297.763 207.401C296.61 205.693 295.009 204.349 292.96 203.367C290.954 202.385 288.692 201.894 286.173 201.894C283.654 201.894 281.37 202.385 279.321 203.367C277.315 204.349 275.714 205.715 274.519 207.465C273.366 209.172 272.811 211.136 272.854 213.356C272.811 215.576 273.366 217.561 274.519 219.311C275.714 221.019 277.315 222.363 279.321 223.345C281.37 224.327 283.654 224.818 286.173 224.818ZM321.051 230.197V196.579H327.71V205.16L325.789 205.224C326.131 204.199 326.728 203.153 327.582 202.086C328.479 201.019 329.61 200.037 330.976 199.141C332.342 198.201 333.857 197.454 335.522 196.899C337.23 196.302 339.065 196.003 341.029 196.003C343.206 196.003 345.17 196.366 346.92 197.092C348.67 197.775 350.079 198.842 351.146 200.293C352.256 201.745 352.96 203.559 353.259 205.736L351.53 205.352L351.979 204.263C352.491 203.367 353.217 202.449 354.156 201.51C355.138 200.528 356.29 199.632 357.614 198.82C358.937 198.009 360.367 197.348 361.904 196.835C363.483 196.28 365.127 196.003 366.834 196.003C369.993 196.003 372.533 196.601 374.454 197.796C376.375 198.991 377.762 200.677 378.616 202.855C379.47 204.989 379.897 207.508 379.897 210.41V230.197H373.238V211.115C373.238 209.236 372.96 207.636 372.405 206.312C371.85 204.946 370.975 203.9 369.78 203.175C368.627 202.449 367.133 202.086 365.297 202.086C363.675 202.086 362.16 202.364 360.751 202.919C359.342 203.431 358.104 204.157 357.037 205.096C355.97 205.992 355.138 207.059 354.54 208.297C353.985 209.493 353.708 210.816 353.708 212.267V230.197H347.048V210.987C347.048 209.194 346.728 207.636 346.088 206.312C345.49 204.946 344.529 203.9 343.206 203.175C341.925 202.449 340.282 202.086 338.276 202.086C336.782 202.086 335.373 202.364 334.049 202.919C332.769 203.474 331.638 204.199 330.656 205.096C329.717 205.992 328.991 206.995 328.479 208.105C327.966 209.215 327.71 210.304 327.71 211.371V230.197H321.051ZM403.989 244.924L412.057 229.3V234.359L392.719 196.579H400.403L410.584 217.774C411.566 219.567 412.42 221.275 413.145 222.897C413.871 224.519 414.383 225.97 414.682 227.251L413.466 227.443C413.978 226.162 414.576 224.69 415.259 223.025C415.984 221.36 416.817 219.524 417.756 217.518L426.977 196.579H434.724L418.012 230.389L411.032 244.924H403.989ZM472.165 230.197L470.052 224.946L484.716 210.667C485.74 209.642 486.786 208.575 487.853 207.465C488.963 206.355 489.966 205.245 490.863 204.135C491.802 202.983 492.549 201.873 493.104 200.805C493.659 199.696 493.936 198.628 493.936 197.604C493.936 196.238 493.637 195.085 493.04 194.146C492.485 193.164 491.631 192.417 490.479 191.905C489.326 191.393 487.939 191.137 486.316 191.137C484.865 191.137 483.414 191.457 481.962 192.097C480.511 192.737 479.145 193.677 477.864 194.914C476.626 196.152 475.538 197.711 474.598 199.589L469.476 196.131C470.543 193.826 471.93 191.82 473.638 190.112C475.345 188.404 477.33 187.081 479.593 186.142C481.898 185.203 484.417 184.733 487.149 184.733C489.966 184.733 492.421 185.267 494.513 186.334C496.604 187.359 498.205 188.789 499.315 190.624C500.468 192.417 501.044 194.509 501.044 196.899C501.044 198.223 500.831 199.525 500.404 200.805C499.977 202.043 499.379 203.281 498.611 204.519C497.842 205.757 496.946 206.974 495.921 208.169C494.897 209.365 493.808 210.581 492.656 211.819C491.503 213.014 490.308 214.21 489.07 215.405L478.312 225.97L477.224 223.537H502.453V230.197H472.165ZM530.807 230.837C526.879 230.837 523.507 229.876 520.689 227.955C517.915 225.992 515.802 223.281 514.35 219.823C512.899 216.365 512.173 212.353 512.173 207.785C512.173 203.217 512.899 199.205 514.35 195.747C515.802 192.289 517.915 189.6 520.689 187.679C523.507 185.715 526.879 184.733 530.807 184.733C534.691 184.733 538 185.715 540.732 187.679C543.464 189.6 545.534 192.289 546.943 195.747C548.394 199.205 549.12 203.217 549.12 207.785C549.12 212.353 548.394 216.365 546.943 219.823C545.534 223.281 543.464 225.992 540.732 227.955C538 229.876 534.691 230.837 530.807 230.837ZM530.807 224.562C534.478 224.562 537.317 223.11 539.323 220.207C541.372 217.262 542.397 213.121 542.397 207.785C542.397 202.449 541.372 198.33 539.323 195.427C537.317 192.481 534.478 191.008 530.807 191.008C527.05 191.008 524.105 192.481 521.97 195.427C519.878 198.33 518.833 202.449 518.833 207.785C518.833 213.121 519.878 217.262 521.97 220.207C524.105 223.11 527.05 224.562 530.807 224.562ZM577.456 230.837C573.528 230.837 570.156 229.876 567.338 227.955C564.564 225.992 562.451 223.281 560.999 219.823C559.548 216.365 558.822 212.353 558.822 207.785C558.822 203.217 559.548 199.205 560.999 195.747C562.451 192.289 564.564 189.6 567.338 187.679C570.156 185.715 573.528 184.733 577.456 184.733C581.34 184.733 584.649 185.715 587.381 187.679C590.113 189.6 592.183 192.289 593.592 195.747C595.043 199.205 595.769 203.217 595.769 207.785C595.769 212.353 595.043 216.365 593.592 219.823C592.183 223.281 590.113 225.992 587.381 227.955C584.649 229.876 581.34 230.837 577.456 230.837ZM577.456 224.562C581.127 224.562 583.966 223.11 585.972 220.207C588.021 217.262 589.046 213.121 589.046 207.785C589.046 202.449 588.021 198.33 585.972 195.427C583.966 192.481 581.127 191.008 577.456 191.008C573.699 191.008 570.753 192.481 568.619 195.427C566.527 198.33 565.481 202.449 565.481 207.785C565.481 213.121 566.527 217.262 568.619 220.207C570.753 223.11 573.699 224.562 577.456 224.562ZM624.104 230.837C620.177 230.837 616.805 229.876 613.987 227.955C611.212 225.992 609.099 223.281 607.648 219.823C606.197 216.365 605.471 212.353 605.471 207.785C605.471 203.217 606.197 199.205 607.648 195.747C609.099 192.289 611.212 189.6 613.987 187.679C616.805 185.715 620.177 184.733 624.104 184.733C627.989 184.733 631.297 185.715 634.03 187.679C636.762 189.6 638.832 192.289 640.241 195.747C641.692 199.205 642.418 203.217 642.418 207.785C642.418 212.353 641.692 216.365 640.241 219.823C638.832 223.281 636.762 225.992 634.03 227.955C631.297 229.876 627.989 230.837 624.104 230.837ZM624.104 224.562C627.776 224.562 630.614 223.11 632.621 220.207C634.67 217.262 635.694 213.121 635.694 207.785C635.694 202.449 634.67 198.33 632.621 195.427C630.614 192.481 627.776 191.008 624.104 191.008C620.348 191.008 617.402 192.481 615.268 195.427C613.176 198.33 612.13 202.449 612.13 207.785C612.13 213.121 613.176 217.262 615.268 220.207C617.402 223.11 620.348 224.562 624.104 224.562Z" fill="#DADADA"/>
<path opacity="0.75" d="M239.436 230.197V192.033H224.324V185.374H261.783V192.033H246.351V230.197H239.436ZM285.729 230.837C281.844 230.837 278.386 230.09 275.355 228.596C272.367 227.102 269.998 225.031 268.248 222.385C266.54 219.738 265.686 216.728 265.686 213.356C265.686 209.941 266.54 206.931 268.248 204.327C269.998 201.681 272.367 199.61 275.355 198.116C278.386 196.622 281.844 195.875 285.729 195.875C289.613 195.875 293.05 196.622 296.038 198.116C299.026 199.61 301.374 201.681 303.081 204.327C304.832 206.931 305.707 209.941 305.707 213.356C305.707 216.728 304.832 219.738 303.081 222.385C301.374 225.031 299.026 227.102 296.038 228.596C293.05 230.09 289.613 230.837 285.729 230.837ZM285.729 224.818C288.247 224.818 290.51 224.327 292.516 223.345C294.565 222.363 296.166 221.019 297.319 219.311C298.514 217.561 299.069 215.576 298.983 213.356C299.069 211.093 298.514 209.108 297.319 207.401C296.166 205.693 294.565 204.349 292.516 203.367C290.51 202.385 288.247 201.894 285.729 201.894C283.21 201.894 280.926 202.385 278.877 203.367C276.871 204.349 275.27 205.715 274.075 207.465C272.922 209.172 272.367 211.136 272.41 213.356C272.367 215.576 272.922 217.561 274.075 219.311C275.27 221.019 276.871 222.363 278.877 223.345C280.926 224.327 283.21 224.818 285.729 224.818ZM320.606 230.197V196.579H327.266V205.16L325.345 205.224C325.686 204.199 326.284 203.153 327.138 202.086C328.034 201.019 329.166 200.037 330.532 199.141C331.898 198.201 333.413 197.454 335.078 196.899C336.785 196.302 338.621 196.003 340.585 196.003C342.762 196.003 344.725 196.366 346.476 197.092C348.226 197.775 349.635 198.842 350.702 200.293C351.812 201.745 352.516 203.559 352.815 205.736L351.086 205.352L351.534 204.263C352.047 203.367 352.772 202.449 353.711 201.51C354.693 200.528 355.846 199.632 357.169 198.82C358.493 198.009 359.923 197.348 361.459 196.835C363.039 196.28 364.682 196.003 366.39 196.003C369.549 196.003 372.089 196.601 374.01 197.796C375.931 198.991 377.318 200.677 378.172 202.855C379.026 204.989 379.453 207.508 379.453 210.41V230.197H372.793V211.115C372.793 209.236 372.516 207.636 371.961 206.312C371.406 204.946 370.531 203.9 369.335 203.175C368.183 202.449 366.689 202.086 364.853 202.086C363.231 202.086 361.716 202.364 360.307 202.919C358.898 203.431 357.66 204.157 356.593 205.096C355.526 205.992 354.693 207.059 354.096 208.297C353.541 209.493 353.263 210.816 353.263 212.267V230.197H346.604V210.987C346.604 209.194 346.284 207.636 345.643 206.312C345.046 204.946 344.085 203.9 342.762 203.175C341.481 202.449 339.838 202.086 337.831 202.086C336.337 202.086 334.928 202.364 333.605 202.919C332.324 203.474 331.193 204.199 330.211 205.096C329.272 205.992 328.547 206.995 328.034 208.105C327.522 209.215 327.266 210.304 327.266 211.371V230.197H320.606ZM403.544 244.924L411.613 229.3V234.359L392.275 196.579H399.959L410.14 217.774C411.122 219.567 411.975 221.275 412.701 222.897C413.427 224.519 413.939 225.97 414.238 227.251L413.021 227.443C413.534 226.162 414.131 224.69 414.814 223.025C415.54 221.36 416.372 219.524 417.311 217.518L426.532 196.579H434.28L417.568 230.389L410.588 244.924H403.544ZM471.721 230.197L469.608 224.946L484.271 210.667C485.296 209.642 486.342 208.575 487.409 207.465C488.519 206.355 489.522 205.245 490.418 204.135C491.358 202.983 492.105 201.873 492.66 200.805C493.214 199.696 493.492 198.628 493.492 197.604C493.492 196.238 493.193 195.085 492.596 194.146C492.041 193.164 491.187 192.417 490.034 191.905C488.882 191.393 487.494 191.137 485.872 191.137C484.421 191.137 482.969 191.457 481.518 192.097C480.066 192.737 478.7 193.677 477.42 194.914C476.182 196.152 475.093 197.711 474.154 199.589L469.031 196.131C470.099 193.826 471.486 191.82 473.194 190.112C474.901 188.404 476.886 187.081 479.149 186.142C481.454 185.203 483.972 184.733 486.704 184.733C489.522 184.733 491.977 185.267 494.068 186.334C496.16 187.359 497.761 188.789 498.871 190.624C500.023 192.417 500.6 194.509 500.6 196.899C500.6 198.223 500.386 199.525 499.959 200.805C499.532 202.043 498.935 203.281 498.166 204.519C497.398 205.757 496.502 206.974 495.477 208.169C494.452 209.365 493.364 210.581 492.211 211.819C491.059 213.014 489.863 214.21 488.625 215.405L477.868 225.97L476.779 223.537H502.008V230.197H471.721ZM530.362 230.837C526.435 230.837 523.063 229.876 520.245 227.955C517.47 225.992 515.357 223.281 513.906 219.823C512.455 216.365 511.729 212.353 511.729 207.785C511.729 203.217 512.455 199.205 513.906 195.747C515.357 192.289 517.47 189.6 520.245 187.679C523.063 185.715 526.435 184.733 530.362 184.733C534.247 184.733 537.555 185.715 540.287 187.679C543.019 189.6 545.09 192.289 546.499 195.747C547.95 199.205 548.676 203.217 548.676 207.785C548.676 212.353 547.95 216.365 546.499 219.823C545.09 223.281 543.019 225.992 540.287 227.955C537.555 229.876 534.247 230.837 530.362 230.837ZM530.362 224.562C534.034 224.562 536.872 223.11 538.879 220.207C540.928 217.262 541.952 213.121 541.952 207.785C541.952 202.449 540.928 198.33 538.879 195.427C536.872 192.481 534.034 191.008 530.362 191.008C526.606 191.008 523.66 192.481 521.526 195.427C519.434 198.33 518.388 202.449 518.388 207.785C518.388 213.121 519.434 217.262 521.526 220.207C523.66 223.11 526.606 224.562 530.362 224.562ZM577.011 230.837C573.084 230.837 569.711 229.876 566.894 227.955C564.119 225.992 562.006 223.281 560.555 219.823C559.103 216.365 558.378 212.353 558.378 207.785C558.378 203.217 559.103 199.205 560.555 195.747C562.006 192.289 564.119 189.6 566.894 187.679C569.711 185.715 573.084 184.733 577.011 184.733C580.896 184.733 584.204 185.715 586.936 187.679C589.668 189.6 591.739 192.289 593.147 195.747C594.599 199.205 595.325 203.217 595.325 207.785C595.325 212.353 594.599 216.365 593.147 219.823C591.739 223.281 589.668 225.992 586.936 227.955C584.204 229.876 580.896 230.837 577.011 230.837ZM577.011 224.562C580.682 224.562 583.521 223.11 585.528 220.207C587.577 217.262 588.601 213.121 588.601 207.785C588.601 202.449 587.577 198.33 585.528 195.427C583.521 192.481 580.682 191.008 577.011 191.008C573.255 191.008 570.309 192.481 568.175 195.427C566.083 198.33 565.037 202.449 565.037 207.785C565.037 213.121 566.083 217.262 568.175 220.207C570.309 223.11 573.255 224.562 577.011 224.562ZM623.66 230.837C619.733 230.837 616.36 229.876 613.543 227.955C610.768 225.992 608.655 223.281 607.204 219.823C605.752 216.365 605.027 212.353 605.027 207.785C605.027 203.217 605.752 199.205 607.204 195.747C608.655 192.289 610.768 189.6 613.543 187.679C616.36 185.715 619.733 184.733 623.66 184.733C627.545 184.733 630.853 185.715 633.585 187.679C636.317 189.6 638.388 192.289 639.796 195.747C641.248 199.205 641.973 203.217 641.973 207.785C641.973 212.353 641.248 216.365 639.796 219.823C638.388 223.281 636.317 225.992 633.585 227.955C630.853 229.876 627.545 230.837 623.66 230.837ZM623.66 224.562C627.331 224.562 630.17 223.11 632.176 220.207C634.226 217.262 635.25 213.121 635.25 207.785C635.25 202.449 634.226 198.33 632.176 195.427C630.17 192.481 627.331 191.008 623.66 191.008C619.904 191.008 616.958 192.481 614.824 195.427C612.732 198.33 611.686 202.449 611.686 207.785C611.686 213.121 612.732 217.262 614.824 220.207C616.958 223.11 619.904 224.562 623.66 224.562Z" fill="url(#paint0_linear_382_1841)"/>
<path d="M85.3774 289.775H782.623C786.061 289.775 788.848 292.562 788.848 296C788.848 299.438 786.061 302.225 782.623 302.225H85.3774C81.9394 302.225 79.1521 299.438 79.1519 296C79.1519 292.562 81.9392 289.775 85.3774 289.775Z" fill="#2A2F37" stroke="#394048" stroke-width="1.77869"/>
<path d="M85.3774 289.775H634.992C638.43 289.775 641.217 292.562 641.217 296C641.217 299.438 638.43 302.225 634.992 302.225H85.3774C81.9394 302.225 79.1521 299.438 79.1519 296C79.1519 292.562 81.9392 289.775 85.3774 289.775Z" fill="#17BEBB" stroke="#394048" stroke-width="1.77869"/>
<defs>
<linearGradient id="paint0_linear_382_1841" x1="219.778" y1="206.697" x2="647.778" y2="206.697" gradientUnits="userSpaceOnUse">
<stop stop-color="#1A81FF"/>
<stop offset="0.341346" stop-color="#DADADA"/>
<stop offset="0.682692" stop-color="#17BEBB"/>
<stop offset="1" stop-color="#CD93FF"/>
</linearGradient>
</defs>
</svg>
