<svg xmlns="http://www.w3.org/2000/svg" width="16" height="16" fill="none" viewBox="0 0 16 16"><g clip-path="url(#a)"><path fill="#f5f6f9" fill-rule="evenodd" d="M6 .833a.5.5 0 0 1 .5.5v.842q.465-.008 1-.008v-.834a.5.5 0 0 1 1 0v.834q.534 0 1 .008v-.842a.5.5 0 1 1 1 0v.885q.26.02.493.05c.781.106 1.414.327 1.913.826.499.5.72 1.132.825 1.913q.032.234.051.493h.885a.5.5 0 1 1 0 1h-.842q.009.465.008 1h.834a.5.5 0 1 1 0 1h-.834q0 .534-.008 1h.842a.5.5 0 1 1 0 1h-.885q-.02.26-.05.493c-.106.781-.327 1.414-.826 1.913s-1.132.72-1.913.825q-.234.032-.493.051v.885a.5.5 0 1 1-1 0v-.842q-.466.009-1 .008v.834a.5.5 0 1 1-1 0v-.834q-.534 0-1-.008v.842a.5.5 0 1 1-1 0v-.885a9 9 0 0 1-.493-.05c-.781-.106-1.414-.327-1.913-.826s-.72-1.132-.825-1.913a9 9 0 0 1-.05-.493h-.886a.5.5 0 1 1 0-1h.842q-.008-.466-.008-1h-.834a.5.5 0 0 1 0-1h.834q0-.534.008-1h-.842a.5.5 0 0 1 0-1h.885q.02-.26.05-.493c.106-.781.327-1.414.826-1.913.5-.499 1.132-.72 1.913-.825q.234-.032.493-.05v-.886a.5.5 0 0 1 .5-.5M5.14 3.26c-.67.09-1.057.26-1.339.541s-.45.669-.541 1.34c-.092.685-.093 1.588-.093 2.859s0 2.174.093 2.86c.09.67.26 1.057.541 1.339s.669.451 1.34.541c.685.092 1.588.093 2.859.093s2.174 0 2.86-.093c.67-.09 1.057-.26 1.339-.541s.451-.669.541-1.34c.092-.685.093-1.588.093-2.859s0-2.174-.093-2.86c-.09-.67-.26-1.057-.541-1.339s-.669-.45-1.34-.541c-.685-.092-1.588-.093-2.859-.093s-2.174 0-2.86.093m1.494.907h2.732c.444 0 .825 0 1.131.04.328.045.642.144.897.399s.354.569.398.897c.041.306.041.688.041 1.13v2.733c0 .444 0 .825-.04 1.131-.045.328-.144.642-.399.897s-.569.354-.897.398c-.306.041-.687.041-1.13.041H6.633c-.443 0-.825 0-1.131-.04-.328-.045-.642-.144-.897-.399s-.354-.569-.398-.897c-.041-.306-.041-.687-.041-1.13V6.633c0-.443 0-.825.04-1.131.045-.328.144-.642.399-.897s.569-.354.897-.398c.306-.041.688-.041 1.13-.041m-.998 1.032c-.217.029-.285.076-.323.114s-.085.106-.114.323c-.031.231-.032.545-.032 1.03v2.667c0 .486 0 .8.032 1.031.029.217.076.285.114.323s.106.085.323.114c.231.031.545.032 1.03.032h2.667c.486 0 .8 0 1.031-.032.217-.029.285-.076.323-.114s.085-.106.114-.323c.031-.231.032-.545.032-1.03V6.666c0-.486 0-.8-.032-1.03-.029-.218-.076-.286-.114-.324s-.106-.085-.323-.114c-.231-.031-.545-.032-1.03-.032H6.666c-.486 0-.8 0-1.03.032" clip-rule="evenodd"/></g><defs><clipPath id="a"><path fill="#fff" d="M0 0h16v16H0z"/></clipPath></defs></svg>