<svg xmlns="http://www.w3.org/2000/svg" width="16" height="16" fill="none" viewBox="0 0 16 16"><path fill="#f5f6f9" fill-rule="evenodd" d="M8 1.833a4.5 4.5 0 0 0-3 7.854l.002.002c.371.333.653.585.855.77.19.174.34.316.419.413l.008.01c.148.183.276.341.361.531s.117.391.154.623l.003.013c.019.119.026.264.03.45h2.337c.003-.186.01-.331.03-.45l.002-.013c.037-.232.07-.433.154-.623.085-.19.213-.348.36-.53l.01-.01c.078-.098.228-.24.418-.414.202-.185.484-.437.855-.77L11 9.687a4.5 4.5 0 0 0-3-7.854M9.162 13.5H6.838q.003.104.01.185c.014.15.037.204.052.232a.5.5 0 0 0 .183.183c.028.015.082.038.232.052.157.014.364.015.685.015.32 0 .528 0 .685-.015.15-.014.204-.037.232-.052a.5.5 0 0 0 .183-.183c.015-.028.038-.082.052-.232q.007-.082.01-.185M2.5 6.333a5.5 5.5 0 1 1 9.168 4.099c-.375.335-.652.584-.85.764a11 11 0 0 0-.293.28l-.018.019-.006.007c-.173.214-.21.27-.233.32-.022.05-.039.114-.082.386-.018.107-.02.291-.02.792v.021c0 .294 0 .547-.018.754-.02.22-.064.437-.182.642a1.5 1.5 0 0 1-.55.549 1.5 1.5 0 0 1-.64.182c-.208.019-.461.019-.755.019h-.043c-.293 0-.546 0-.753-.02a1.5 1.5 0 0 1-.642-.181 1.5 1.5 0 0 1-.549-.55 1.5 1.5 0 0 1-.182-.641c-.019-.207-.019-.46-.019-.754V13c0-.5-.001-.685-.019-.792-.043-.272-.06-.337-.082-.387s-.06-.105-.233-.32l-.006-.006-.018-.02-.065-.064a11 11 0 0 0-.229-.215c-.197-.18-.474-.429-.849-.764A5.49 5.49 0 0 1 2.5 6.333" clip-rule="evenodd"/><path fill="#f5f6f9" fill-rule="evenodd" d="M8.814 5.26a.5.5 0 0 1 .117.697l-.864 1.21h1.028a.5.5 0 0 1 .407.79l-1.429 2a.5.5 0 1 1-.813-.581l.864-1.21H7.095a.5.5 0 0 1-.407-.79l1.429-2a.5.5 0 0 1 .697-.116" clip-rule="evenodd"/></svg>