<svg xmlns="http://www.w3.org/2000/svg" width="16" height="16" fill="none" viewBox="0 0 16 16"><g clip-path="url(#a)"><path fill="#f5f6f9" fill-rule="evenodd" d="M8 1.833c-3.402 0-6.167 2.782-6.167 6.222 0 3.016 2.126 5.527 4.942 6.1.338.069.725-.216.725-.722V10.45A2.5 2.5 0 0 1 5.5 8v-.133c0-.56.445-1.016 1-1.033V6a.5.5 0 0 1 1 0v.833h1V6a.5.5 0 0 1 1 0v.834c.555.017 1 .473 1 1.033V8a2.5 2.5 0 0 1-2 2.45v2.983c0 .979-.819 1.927-1.924 1.702C3.297 14.468.833 11.55.833 8.055.833 4.071 4.038.833 8 .833s7.167 3.238 7.167 7.222a7.23 7.23 0 0 1-4.038 6.5.5.5 0 1 1-.44-.899 6.23 6.23 0 0 0 3.478-5.6c0-3.44-2.765-6.223-6.167-6.223m-1.467 6a.033.033 0 0 0-.033.034V8a1.5 1.5 0 1 0 3 0v-.133a.033.033 0 0 0-.033-.034z" clip-rule="evenodd"/></g><defs><clipPath id="a"><path fill="#fff" d="M0 0h16v16H0z"/></clipPath></defs></svg>