<svg xmlns="http://www.w3.org/2000/svg" width="16" height="16" fill="none" viewBox="0 0 16 16"><path fill="#f5f6f9" fill-rule="evenodd" d="M3.317 1.5h9.367c.296 0 .543 0 .746.014.212.014.411.045.605.126.45.186.806.543.992.992.08.193.111.393.126.604.014.203.014.45.014.747v.034c0 .296 0 .543-.014.747a1.9 1.9 0 0 1-.126.604c-.1.242-.249.456-.435.632.186.176.335.39.435.632.08.193.111.393.126.604.014.204.014.45.014.747v.034c0 .296 0 .543-.014.747a1.9 1.9 0 0 1-.126.604c-.1.242-.249.456-.435.632.186.176.335.39.435.632.08.193.111.393.126.604.014.204.014.45.014.747v.034c0 .296 0 .543-.014.747a1.9 1.9 0 0 1-.126.604c-.186.45-.543.806-.992.992-.194.08-.393.112-.605.126-.203.014-.45.014-.746.014H3.316c-.297 0-.544 0-.747-.014a1.9 1.9 0 0 1-.605-.126 1.83 1.83 0 0 1-.992-.992 1.9 1.9 0 0 1-.126-.604 12 12 0 0 1-.014-.747v-.034c0-.296 0-.543.014-.747.015-.211.046-.41.126-.604.1-.242.25-.456.435-.632a1.8 1.8 0 0 1-.435-.632 1.9 1.9 0 0 1-.126-.604c-.014-.203-.014-.45-.014-.747v-.034c0-.296 0-.543.014-.747.015-.211.046-.41.126-.604.1-.242.25-.456.435-.632a1.8 1.8 0 0 1-.435-.632 1.9 1.9 0 0 1-.126-.604c-.014-.203-.014-.45-.014-.747v-.034c0-.296 0-.544.014-.747.015-.211.046-.41.126-.604.186-.45.543-.806.992-.992.194-.08.393-.112.605-.126.203-.014.45-.014.747-.014m.016 4c-.317 0-.53 0-.695-.012a1 1 0 0 1-.29-.051.83.83 0 0 1-.451-.451 1 1 0 0 1-.052-.29A11 11 0 0 1 1.833 4c0-.317 0-.53.012-.695a1 1 0 0 1 .052-.29.83.83 0 0 1 .45-.452 1 1 0 0 1 .29-.051c.166-.012.379-.012.696-.012h9.334c.317 0 .53 0 .695.012.16.01.239.03.29.051a.83.83 0 0 1 .451.451c.022.052.041.13.052.29.011.165.012.379.012.696s0 .53-.012.696a1 1 0 0 1-.052.29.83.83 0 0 1-.45.45 1 1 0 0 1-.29.052c-.166.012-.379.012-.696.012zm0 1c-.317 0-.53 0-.695.012a1 1 0 0 0-.29.051.83.83 0 0 0-.451.451 1 1 0 0 0-.052.29c-.011.165-.012.379-.012.696s0 .53.012.696a1 1 0 0 0 .052.29.83.83 0 0 0 .45.45 1 1 0 0 0 .29.052c.166.012.379.012.696.012h9.334c.317 0 .53 0 .695-.012a1 1 0 0 0 .29-.051.83.83 0 0 0 .451-.451 1 1 0 0 0 .052-.29c.011-.165.012-.379.012-.696s0-.53-.012-.696a1 1 0 0 0-.052-.29.83.83 0 0 0-.45-.45 1 1 0 0 0-.29-.052 11 11 0 0 0-.696-.012zm0 4c-.317 0-.53 0-.695.011a1 1 0 0 0-.29.052.83.83 0 0 0-.451.451 1 1 0 0 0-.052.29c-.011.165-.012.378-.012.696s0 .53.012.695a1 1 0 0 0 .052.29.83.83 0 0 0 .45.452c.052.02.13.04.29.052.166.01.379.011.696.011h9.334c.317 0 .53 0 .695-.011a1 1 0 0 0 .29-.052.83.83 0 0 0 .451-.451 1 1 0 0 0 .052-.29c.011-.165.012-.378.012-.696s0-.53-.012-.695a1 1 0 0 0-.052-.29.83.83 0 0 0-.45-.452 1 1 0 0 0-.29-.052 11 11 0 0 0-.696-.011z" clip-rule="evenodd"/><path fill="#f5f6f9" d="M4 8a.667.667 0 1 1-1.333 0A.667.667 0 0 1 4 8M4 4a.667.667 0 1 1-1.333 0A.667.667 0 0 1 4 4M4 12a.667.667 0 1 1-1.333 0A.667.667 0 0 1 4 12"/></svg>