<svg xmlns="http://www.w3.org/2000/svg" width="16" height="16" fill="none" viewBox="0 0 16 16"><g clip-path="url(#a)"><path fill="#f5f6f9" fill-rule="evenodd" d="M11.867 2.198c.298-.169.478-.27.618-.327a.5.5 0 0 1 .121-.037c.015-.002.02 0 .023 0q.002 0 .018.01a.5.5 0 0 1 .084.09c.092.117.196.293.368.585l.7 1.19c.171.294.274.47.33.606a.5.5 0 0 1 .037.114v.014l-.008.01a.5.5 0 0 1-.091.084c-.12.09-.299.193-.596.362l-2.49 1.414c-.282.16-.45.254-.58.306a.5.5 0 0 1-.108.033h-.011l-.006-.005a.5.5 0 0 1-.076-.082 6 6 0 0 1-.35-.555l-.746-1.271a6 6 0 0 1-.324-.592.5.5 0 0 1-.036-.118v-.003l.002-.002.003-.004a.5.5 0 0 1 .086-.078c.114-.087.287-.186.576-.35zm1.016-1.33c-.285-.076-.544-.016-.773.076-.209.085-.447.22-.71.37L8.89 2.737a6 6 0 0 0-.662.41c-.191.145-.373.335-.45.618L5.46 5.08l-.026.015c-.254.144-.487.277-.662.41-.192.145-.373.336-.45.618L2.036 7.421l-.027.015c-.262.15-.501.285-.68.42-.196.15-.382.342-.46.63s-.016.548.079.775c.086.206.225.442.376.7l.03.052c.152.258.29.494.429.67.153.194.348.374.634.45.286.075.545.015.774-.077.209-.085.447-.22.71-.37L6.205 9.38l.012.004c.279.074.53.016.75-.072l.097-.042-2.191 5.204a.5.5 0 0 0 .921.388L8 9.62l2.206 5.24a.5.5 0 0 0 .922-.388L8.582 8.427l1.43-.812.013.004c.278.074.53.016.75-.072.199-.08.426-.21.673-.35l2.543-1.443c.262-.149.501-.285.68-.42.196-.149.382-.342.46-.63.079-.287.016-.548-.079-.775-.086-.206-.225-.442-.376-.7l-.715-1.216-.015-.026c-.152-.258-.29-.494-.428-.67-.153-.194-.348-.374-.635-.45M2.53 8.29l1.999-1.134c.07.132.153.273.24.421l.015.026.412.702q.114.197.223.37L3.434 9.802c-.298.169-.478.27-.618.327a.5.5 0 0 1-.121.037c-.016.002-.02 0-.023 0q-.003 0-.018-.01a.5.5 0 0 1-.084-.09 6 6 0 0 1-.368-.586 6 6 0 0 1-.331-.605.5.5 0 0 1-.037-.114v-.014l.007-.01a.5.5 0 0 1 .092-.084c.12-.09.299-.193.596-.362m5.457-3.494L5.953 5.951c-.29.164-.462.263-.576.35a.5.5 0 0 0-.09.084l-.001.002v.009c.003.016.01.05.036.11.055.133.155.305.324.592l.397.676c.164.28.263.445.349.555a.5.5 0 0 0 .082.087h.011a.5.5 0 0 0 .108-.033c.13-.052.298-.146.58-.306l.516-.293.502-.285 1.034-.587a14 14 0 0 1-.222-.37l-.777-1.323c-.087-.148-.17-.29-.24-.422" clip-rule="evenodd"/></g><defs><clipPath id="a"><path fill="#fff" d="M0 0h16v16H0z"/></clipPath></defs></svg>