<svg xmlns="http://www.w3.org/2000/svg" width="16" height="16" fill="none" viewBox="0 0 16 16"><path fill="#f5f6f9" fill-rule="evenodd" d="M7.296.833h1.408c1.225 0 2.196 0 2.955.102.782.105 1.415.327 1.913.826.5.499.72 1.131.826 1.913.102.76.102 1.73.102 2.955v2.742c0 1.225 0 2.195-.102 2.955-.105.781-.327 1.414-.825 1.913-.5.499-1.132.72-1.914.825-.76.103-1.73.103-2.955.103H7.296c-1.225 0-2.196 0-2.955-.102-.782-.106-1.415-.327-1.913-.826-.5-.499-.72-1.132-.826-1.913-.102-.76-.102-1.73-.102-2.955V6.629c0-1.225 0-2.196.102-2.955.105-.782.327-1.414.826-1.913S3.559 1.04 4.34.935C5.1.833 6.07.833 7.296.833M4.474 1.926c-.67.09-1.057.26-1.34.542-.282.282-.45.668-.54 1.34C2.5 4.491 2.5 5.394 2.5 6.666v2.666c0 1.271.001 2.175.093 2.86.09.67.26 1.057.542 1.339s.668.451 1.339.541c.685.092 1.588.094 2.86.094h1.333c1.27 0 2.174-.002 2.86-.094.67-.09 1.056-.259 1.338-.541s.452-.669.542-1.34c.092-.684.093-1.588.093-2.859V6.667c0-1.272-.001-2.175-.093-2.86-.09-.67-.26-1.057-.542-1.34-.282-.281-.668-.45-1.339-.54-.685-.093-1.588-.094-2.86-.094H7.334c-1.27 0-2.174.001-2.86.093m1.361 1.261a13.2 13.2 0 0 1 4.33 0l.283.047a1.833 1.833 0 0 1 1.401 2.49l-.444 1.109c-.25.625-.923.97-1.576.806a7.54 7.54 0 0 0-3.658 0 1.346 1.346 0 0 1-1.576-.806l-.444-1.11a1.833 1.833 0 0 1 1.4-2.489zM10 4.174a12.2 12.2 0 0 0-4 0l-.284.047a.833.833 0 0 0-.637 1.131l.444 1.11c.065.16.238.249.406.207q.158-.039.318-.073l-.381-1.063a.5.5 0 0 1 .941-.338l.449 1.252a8.5 8.5 0 0 1 2.815.222.346.346 0 0 0 .406-.207l.444-1.11a.833.833 0 0 0-.637-1.131zM4.833 12a.5.5 0 0 1 .5-.5h5.334a.5.5 0 0 1 0 1H5.333a.5.5 0 0 1-.5-.5" clip-rule="evenodd"/></svg>