<svg xmlns="http://www.w3.org/2000/svg" width="12" height="12" fill="none" viewBox="0 0 12 12"><g clip-path="url(#a)"><path fill="#f5f6f9" fill-rule="evenodd" d="M6.125 1.417c-.23-.039-.544-.042-1.11-.042-.958 0-1.64 0-2.156.07-.506.068-.797.195-1.008.406-.212.212-.338.501-.406 1.004-.07.514-.07 1.192-.07 2.145v2c0 .953 0 1.63.07 2.145.068.503.194.792.406 1.004s.501.339 1.004.406c.514.07 1.192.07 2.145.07h2c.953 0 1.63 0 2.145-.07.503-.067.792-.194 1.004-.406s.339-.501.406-1.004c.07-.514.07-1.192.07-2.145v-.219c0-.768-.005-1.132-.087-1.406H8.973c-.566 0-1.03 0-1.395-.05-.382-.05-.713-.162-.977-.426s-.376-.595-.427-.977c-.049-.366-.049-.829-.049-1.395zm.75.388V2.5c0 .6 0 1.012.042 1.322.04.298.113.445.214.547.102.102.249.173.547.214.31.041.722.042 1.322.042h1.01a23 23 0 0 0-.585-.538l-1.98-1.781c-.242-.219-.423-.38-.57-.501M5.088.625c.692 0 1.14 0 1.551.158s.743.456 1.255.917l.053.048 1.98 1.782.062.056c.592.532.975.876 1.18 1.339.206.462.206.976.206 1.772v.331c0 .92 0 1.647-.077 2.217-.078.586-.244 1.06-.619 1.434-.374.375-.848.54-1.434.62-.57.076-1.298.076-2.217.076H4.972c-.92 0-1.647 0-2.217-.076-.586-.08-1.06-.245-1.434-.62-.375-.374-.54-.848-.62-1.434-.076-.57-.076-1.298-.076-2.217V4.972c0-.92 0-1.647.077-2.216.078-.587.244-1.061.619-1.435.374-.375.85-.54 1.438-.62C3.331.626 4.063.626 4.987.626h.101" clip-rule="evenodd"/></g><defs><clipPath id="a"><path fill="#fff" d="M0 0h12v12H0z"/></clipPath></defs></svg>