<svg width="9" height="10" viewBox="0 0 9 10" fill="none" xmlns="http://www.w3.org/2000/svg">
<path fill-rule="evenodd" clip-rule="evenodd" d="M7.55698 0C7.76409 0 7.93198 0.167893 7.93198 0.375V2.49632C7.93198 2.70343 7.76409 2.87132 7.55698 2.87132H5.43566C5.22855 2.87132 5.06066 2.70343 5.06066 2.49632C5.06066 2.28921 5.22855 2.12132 5.43566 2.12132H6.61585C5.19316 0.999781 3.12435 1.09532 1.81174 2.40793C0.396087 3.82358 0.396087 6.11881 1.81174 7.53446C3.22739 8.95011 5.52261 8.95011 6.93826 7.53446C7.8867 6.58602 8.2002 5.24258 7.87694 4.03213C7.82351 3.83203 7.9424 3.62651 8.14249 3.57307C8.34259 3.51963 8.54812 3.63853 8.60155 3.83862C8.99104 5.2971 8.61399 6.91939 7.46859 8.06479C5.76005 9.77333 2.98995 9.77333 1.28141 8.06479C-0.427136 6.35624 -0.427136 3.58615 1.28141 1.8776C2.89742 0.261594 5.4631 0.17407 7.18198 1.61503V0.375C7.18198 0.167893 7.34987 0 7.55698 0Z" fill="#F5F6F9"/>
</svg>
