<svg xmlns="http://www.w3.org/2000/svg" width="16" height="16" fill="none" viewBox="0 0 16 16"><g fill="#f5f6f9" fill-rule="evenodd" clip-path="url(#a)" clip-rule="evenodd"><path d="M7.962.833h.076c1.54 0 2.745 0 3.686.127.963.13 1.723.4 2.32.996.596.597.867 1.357.996 2.32.127.94.127 2.147.127 3.686v.076c0 1.54 0 2.745-.127 3.686-.13.963-.4 1.723-.996 2.32-.597.596-1.357.867-2.32.996-.94.127-2.147.127-3.686.127h-.076c-1.54 0-2.745 0-3.686-.127-.963-.13-1.723-.4-2.32-.996-.596-.597-.867-1.357-.996-2.32-.127-.94-.127-2.147-.127-3.686v-.076c0-1.54 0-2.745.127-3.686.13-.963.4-1.723.996-2.32.597-.596 1.357-.867 2.32-.996.94-.127 2.147-.127 3.686-.127M4.409 1.951c-.852.115-1.366.332-1.746.712s-.597.894-.712 1.746c-.117.867-.118 2.006-.118 3.591s.001 2.724.118 3.591c.115.852.332 1.366.712 1.746s.894.598 1.746.712c.867.117 2.006.118 3.591.118s2.724-.001 3.591-.118c.852-.114 1.366-.332 1.746-.712s.598-.894.712-1.746c.117-.867.118-2.005.118-3.591 0-1.585-.001-2.724-.118-3.59-.114-.853-.332-1.367-.712-1.747s-.894-.597-1.746-.712c-.867-.117-2.005-.118-3.591-.118-1.585 0-2.724.001-3.59.118"/><path d="M5.354 3.98a.5.5 0 0 1 0 .707l-.147.146h.126c1.12 0 2.104.581 2.667 1.458a3.16 3.16 0 0 1 2.667-1.458h.126l-.146-.146a.5.5 0 1 1 .707-.707l1 1a.5.5 0 0 1 0 .707l-1 1a.5.5 0 1 1-.707-.707l.146-.147h-.126C9.47 5.833 8.5 6.803 8.5 8v4a.5.5 0 1 1-1 0V8c0-1.197-.97-2.167-2.167-2.167h-.126l.147.147a.5.5 0 1 1-.708.707l-1-1a.5.5 0 0 1 0-.707l1-1a.5.5 0 0 1 .708 0"/></g><defs><clipPath id="a"><path fill="#fff" d="M0 0h16v16H0z"/></clipPath></defs></svg>