<svg xmlns="http://www.w3.org/2000/svg" width="16" height="16" fill="none" viewBox="0 0 16 16"><g clip-path="url(#a)"><path fill="#f5f6f9" fill-rule="evenodd" d="M2.833 5.676C2.833 2.968 5.181.833 8 .833s5.167 2.135 5.167 4.843c0 2.541-1.576 5.524-4.117 6.61a2.68 2.68 0 0 1-2.1 0C4.41 11.2 2.833 8.217 2.833 5.676M8 1.833c-2.336 0-4.167 1.754-4.167 3.843 0 2.22 1.404 4.79 3.51 5.69.416.178.898.178 1.314 0 2.106-.9 3.51-3.47 3.51-5.69 0-2.089-1.831-3.843-4.167-3.843m0 3.334a.833.833 0 1 0 0 1.666.833.833 0 0 0 0-1.666M6.167 6a1.833 1.833 0 1 1 3.666 0 1.833 1.833 0 0 1-3.666 0m-3.77 3.998a.5.5 0 0 1-.035.706c-.379.343-.529.67-.529.963 0 .509.483 1.136 1.658 1.665 1.128.508 2.722.835 4.509.835s3.38-.327 4.509-.835c1.175-.529 1.658-1.156 1.658-1.665 0-.292-.15-.62-.529-.963a.5.5 0 1 1 .671-.741c.509.46.858 1.038.858 1.704 0 1.147-1.01 2.02-2.248 2.577-1.284.578-3.024.923-4.919.923s-3.635-.345-4.92-.923c-1.237-.557-2.247-1.43-2.247-2.577 0-.666.35-1.244.858-1.704a.5.5 0 0 1 .706.035" clip-rule="evenodd"/></g><defs><clipPath id="a"><path fill="#fff" d="M0 0h16v16H0z"/></clipPath></defs></svg>