<svg xmlns="http://www.w3.org/2000/svg" width="16" height="16" fill="none" viewBox="0 0 16 16"><path fill="#f5f6f9" fill-rule="evenodd" d="M14.031 14.675a1.7 1.7 0 0 0 .316-1.877L9.438 1.792a1.559 1.559 0 0 0-2.876 0L1.653 12.798c-.311.698-.12 1.42.316 1.877.439.46 1.156.673 1.844.305l-.235-.44.235.44L7.75 12.88l-.235-.441.235.441a.53.53 0 0 1 .502 0l3.936 2.101.235-.44-.235.44c.688.368 1.405.155 1.844-.305m-1.373-.577-.234.438zl-3.936-2.101a1.53 1.53 0 0 0-1.444 0l-3.936 2.101c-.237.127-.476.07-.65-.114a.7.7 0 0 1-.125-.779L7.475 2.2c.217-.488.833-.488 1.05 0l4.908 11.006a.7.7 0 0 1-.125.78c-.174.182-.413.24-.65.113" clip-rule="evenodd"/></svg>