<svg xmlns="http://www.w3.org/2000/svg" width="16" height="16" fill="none" viewBox="0 0 16 16"><g fill="#f5f6f9" fill-rule="evenodd" clip-path="url(#a)" clip-rule="evenodd"><path d="M11.591 1.951c-.867-.117-2.005-.118-3.591-.118-1.585 0-2.724.001-3.59.118-.853.115-1.367.332-1.747.712s-.597.894-.712 1.746c-.117.867-.118 2.006-.118 3.591s.001 2.724.118 3.591c.115.852.332 1.366.712 1.746s.894.598 1.746.712c.867.117 2.006.118 3.591.118s2.724-.001 3.591-.118c.852-.114 1.366-.332 1.746-.712s.598-.894.712-1.746c.117-.867.118-2.005.118-3.591 0-1.585-.001-2.724-.118-3.59-.114-.853-.332-1.367-.712-1.747s-.894-.597-1.746-.712m.133-.991c.963.13 1.723.4 2.32.996.596.597.867 1.357.996 2.32.127.94.127 2.147.127 3.686v.076c0 1.54 0 2.745-.127 3.686-.13.963-.4 1.723-.996 2.32-.597.596-1.357.867-2.32.996-.94.127-2.147.127-3.686.127h-.076c-1.54 0-2.745 0-3.686-.127-.963-.13-1.723-.4-2.32-.996-.596-.597-.867-1.357-.996-2.32-.127-.94-.127-2.147-.127-3.686v-.076c0-1.54 0-2.745.127-3.686.13-.963.4-1.723.996-2.32.597-.596 1.357-.867 2.32-.996.94-.127 2.147-.127 3.686-.127h.076c1.54 0 2.745 0 3.686.127"/><path d="m10.536 4.71-.179-.467a1.075 1.075 0 0 1 1.4 1.4l-2.342 6.11a1.15 1.15 0 0 1-1.05.747 1.05 1.05 0 0 1-1.049-.753l-.704-2.318.444-.135-.444.135a.1.1 0 0 0-.015-.026.1.1 0 0 0-.026-.015l-2.318-.704a1.05 1.05 0 0 1-.753-1.05 1.15 1.15 0 0 1 .747-1.05l6.11-2.34zm.244.458a.1.1 0 0 0-.065.009l-6.11 2.341a.15.15 0 0 0-.105.14.1.1 0 0 0 .011.05c.002.003.008.011.033.02l2.318.703-.145.479.145-.479c.34.104.603.367.707.707l.704 2.318c.008.025.016.03.019.033a.1.1 0 0 0 .05.011.15.15 0 0 0 .14-.104l2.341-6.11a.1.1 0 0 0 .009-.066.07.07 0 0 0-.052-.052"/></g><defs><clipPath id="a"><path fill="#fff" d="M0 0h16v16H0z"/></clipPath></defs></svg>