<svg xmlns="http://www.w3.org/2000/svg" width="16" height="16" fill="none" viewBox="0 0 16 16"><path fill="#f5f6f9" fill-rule="evenodd" d="m11.907 2.109.107.035.801.267c.31.103.58.193.795.293.232.108.444.247.607.473s.227.471.256.726c.027.235.027.52.027.846v5.475c0 .465 0 .858-.036 1.168-.038.323-.122.642-.357.899a1.5 1.5 0 0 1-.497.359c-.319.141-.648.12-.965.054-.306-.064-.679-.188-1.12-.336l-.03-.01c-.746-.248-1.002-.326-1.25-.317a1.5 1.5 0 0 0-.295.04c-.242.056-.468.199-1.123.635l-.922.615q-.048.031-.093.062c-.708.473-1.2.801-1.776.878-.575.077-1.136-.11-1.943-.38l-.107-.035-.801-.268a8 8 0 0 1-.794-.292 1.5 1.5 0 0 1-.608-.473c-.162-.226-.227-.471-.256-.726a8 8 0 0 1-.027-.846V5.776c0-.465 0-.858.036-1.169.038-.322.122-.64.357-.898a1.5 1.5 0 0 1 .497-.359c.319-.141.648-.12.966-.054.305.064.678.188 1.12.335l.028.01c.747.249 1.003.327 1.252.318a1.5 1.5 0 0 0 .294-.04c.242-.057.468-.199 1.123-.636l.922-.614.093-.062c.708-.473 1.2-.801 1.776-.878.575-.077 1.136.11 1.943.38m-1.407.628v8.316c.357.038.733.164 1.229.33l.083.027c.478.16.795.264 1.037.315.237.05.318.027.354.011a.5.5 0 0 0 .166-.12c.027-.029.074-.099.102-.34.028-.245.029-.579.029-1.082v-5.42c0-.359 0-.586-.02-.758-.019-.159-.048-.218-.074-.254-.027-.037-.073-.083-.218-.151a8 8 0 0 0-.714-.26l-.776-.258c-.591-.197-.942-.31-1.198-.356m-1 8.436V2.956c-.207.12-.474.294-.85.545l-.922.615-.073.048c-.459.307-.801.535-1.155.663v8.217c.207-.12.474-.294.85-.545l.922-.615.073-.048c.459-.307.801-.535 1.155-.663m-4 2.09V4.947c-.357-.039-.733-.164-1.229-.33l-.083-.027c-.478-.16-.795-.264-1.037-.315-.237-.05-.318-.027-.354-.011a.5.5 0 0 0-.166.12c-.027.029-.074.099-.102.339-.028.246-.029.58-.029 1.083v5.42c0 .358 0 .586.02.758.019.159.048.218.074.254.027.037.073.083.218.15.157.074.373.146.714.26l.776.259c.591.197.942.309 1.198.356" clip-rule="evenodd"/></svg>