<svg xmlns="http://www.w3.org/2000/svg" width="16" height="16" fill="none" viewBox="0 0 16 16"><g clip-path="url(#a)"><path fill="#f5f6f9" fill-rule="evenodd" d="M11.59 1.762a.5.5 0 1 0-.514-.857l-1.564.938A3.5 3.5 0 0 0 8 1.5c-.542 0-1.055.123-1.512.343L4.924.905a.5.5 0 0 0-.515.857l1.176.705A3.5 3.5 0 0 0 4.5 5v.194a3 3 0 0 0-.483.315.5.5 0 0 0-.165-.107L2.52 4.87a.5.5 0 1 0-.371.928l1.18.473a3.1 3.1 0 0 0-.495 1.688v.875h-1.5a.5.5 0 0 0 0 1h1.5V10c0 .853.207 1.657.573 2.366l-1.258.503a.5.5 0 0 0 .371.929l1.333-.534a.5.5 0 0 0 .1-.053A5.16 5.16 0 0 0 8 15.167c1.64 0 3.102-.764 4.048-1.956q.046.032.1.053l1.333.534a.5.5 0 1 0 .371-.929l-1.258-.503A5.14 5.14 0 0 0 13.167 10v-.167h1.5a.5.5 0 1 0 0-1h-1.5v-.875a3.1 3.1 0 0 0-.495-1.688l1.18-.473a.5.5 0 1 0-.371-.928l-1.333.533a.5.5 0 0 0-.165.107 3 3 0 0 0-.483-.315V5a3.5 3.5 0 0 0-1.085-2.533zM3.834 10V7.958c0-1.173.952-2.125 2.125-2.125h4.084c1.173 0 2.125.952 2.125 2.125V10A4.167 4.167 0 0 1 8.5 14.137V10a.5.5 0 0 0-1 0v4.137A4.167 4.167 0 0 1 3.833 10M8 2.5a2.5 2.5 0 0 1 2.496 2.366 3 3 0 0 0-.454-.033H5.958a3 3 0 0 0-.454.033A2.5 2.5 0 0 1 8 2.5" clip-rule="evenodd"/></g><defs><clipPath id="a"><rect width="16" height="16" fill="#fff" rx="3"/></clipPath></defs></svg>