<svg xmlns="http://www.w3.org/2000/svg" width="16" height="16" fill="none" viewBox="0 0 16 16"><g fill="#f5f6f9" fill-rule="evenodd" clip-path="url(#a)" clip-rule="evenodd"><path d="M7.477 4.188a.5.5 0 0 1 .335.622l-.407 1.357h2.29l.493-1.644a.5.5 0 1 1 .958.287l-.407 1.357H12a.5.5 0 1 1 0 1h-1.561l-.5 1.666h1.394a.5.5 0 0 1 0 1H9.64l-.493 1.644a.5.5 0 0 1-.958-.287l.407-1.357h-2.29l-.493 1.644a.5.5 0 0 1-.958-.287l.407-1.357H4a.5.5 0 1 1 0-1h1.561l.5-1.666H4.667a.5.5 0 1 1 0-1H6.36l.493-1.644a.5.5 0 0 1 .623-.335m-.372 2.979h2.29l-.5 1.666h-2.29z"/><path d="M7.962.833c-1.54 0-2.745 0-3.686.127-.963.13-1.723.4-2.32.996-.596.597-.867 1.357-.996 2.32-.127.94-.127 2.147-.127 3.686v.076c0 1.54 0 2.745.127 3.686.13.963.4 1.723.996 2.32.597.596 1.357.867 2.32.996.94.127 2.147.127 3.686.127h.076c1.54 0 2.745 0 3.686-.127.963-.13 1.723-.4 2.32-.996.596-.597.867-1.357.996-2.32.127-.94.127-2.147.127-3.686v-.076c0-1.54 0-2.745-.127-3.686-.13-.963-.4-1.723-.996-2.32-.597-.596-1.357-.867-2.32-.996-.94-.127-2.147-.127-3.686-.127zm-5.299 1.83c.38-.38.894-.597 1.746-.712.867-.117 2.006-.118 3.591-.118s2.724.001 3.591.118c.852.115 1.366.332 1.746.712s.598.894.712 1.746c.117.867.118 2.006.118 3.591s-.001 2.724-.118 3.591c-.114.852-.332 1.366-.712 1.746s-.894.598-1.746.712c-.867.117-2.005.118-3.591.118-1.585 0-2.724-.001-3.59-.118-.853-.114-1.367-.332-1.747-.712s-.597-.894-.712-1.746c-.117-.867-.118-2.005-.118-3.591 0-1.585.001-2.724.118-3.59.115-.853.332-1.367.712-1.747"/></g><defs><clipPath id="a"><rect width="16" height="16" fill="#fff" rx="3"/></clipPath></defs></svg>