<svg xmlns="http://www.w3.org/2000/svg" width="16" height="16" fill="none" viewBox="0 0 16 16"><path fill="#f5f6f9" d="M4.302 2.167c-.28 0-.457 0-.612.015A3.17 3.17 0 0 0 .849 5.023a7 7 0 0 0-.016.612v.032a.5.5 0 1 0 1 0c0-.322.001-.446.01-.546a2.17 2.17 0 0 1 1.945-1.944c.1-.01.224-.01.545-.01h5c1.272 0 2.175 0 2.86.093.67.09 1.057.26 1.34.541.281.282.45.669.54 1.34.093.685.094 1.588.094 2.86 0 1.27-.001 2.173-.094 2.859-.09.67-.259 1.057-.54 1.339-.283.282-.67.451-1.34.541-.685.092-1.588.093-2.86.093a.5.5 0 0 0 0 1h.038c1.225 0 2.196 0 2.955-.102.782-.105 1.414-.326 1.913-.825s.72-1.132.826-1.913c.102-.76.102-1.73.102-2.955v-.076c0-1.225 0-2.195-.102-2.955-.105-.781-.327-1.414-.826-1.913s-1.131-.72-1.913-.825c-.76-.102-1.73-.102-2.955-.102z"/><path fill="#f5f6f9" d="M1.333 6.833a.5.5 0 1 0 0 1 5.5 5.5 0 0 1 5.5 5.5.5.5 0 1 0 1 0 6.5 6.5 0 0 0-6.5-6.5"/><path fill="#f5f6f9" d="M.833 9.333a.5.5 0 0 1 .5-.5 4.5 4.5 0 0 1 4.5 4.5.5.5 0 1 1-1 0 3.5 3.5 0 0 0-3.5-3.5.5.5 0 0 1-.5-.5"/><path fill="#f5f6f9" d="M1.333 10.833a.5.5 0 0 0 0 1 1.5 1.5 0 0 1 1.5 1.5.5.5 0 1 0 1 0 2.5 2.5 0 0 0-2.5-2.5"/></svg>