<svg xmlns="http://www.w3.org/2000/svg" width="16" height="16" fill="none" viewBox="0 0 16 16"><path fill="#f5f6f9" fill-rule="evenodd" d="M8 .833a.5.5 0 0 1 .416.223l1.333 2a.5.5 0 1 1-.832.555L8.5 2.985v7.01q.121-.062.254-.107l2.176-.725a.83.83 0 0 0 .57-.79V7.138a.8.8 0 0 1-.422-.216.83.83 0 0 1-.228-.49 3 3 0 0 1-.017-.41v-.046c0-.137 0-.285.017-.41a.83.83 0 0 1 .228-.49.83.83 0 0 1 .49-.227c.125-.017.272-.017.41-.017h.045c.137 0 .285 0 .41.017.146.02.332.07.49.227a.83.83 0 0 1 .227.49c.017.125.017.273.017.41v.046c0 .137 0 .284-.017.41a.83.83 0 0 1-.227.49.8.8 0 0 1-.423.216v1.233c0 .79-.505 1.49-1.254 1.74l-2.176.725a.83.83 0 0 0-.568.732 1.834 1.834 0 1 1-1.002 0V9.628a.83.83 0 0 0-.57-.791l-2.176-.726A1.83 1.83 0 0 1 3.5 6.372V5.054a1.167 1.167 0 1 1 1 0v1.318c0 .359.23.677.57.79l2.176.726q.132.045.254.107v-5.01l-.417.626a.5.5 0 1 1-.832-.555l1.333-2A.5.5 0 0 1 8 .833m4 5.334.166-.001v-.332a11 11 0 0 0-.332 0v.332zm-4.833 7.166a.833.833 0 1 1 1.666 0 .833.833 0 0 1-1.666 0M4 4.167a.167.167 0 1 0 0-.334.167.167 0 0 0 0 .334" clip-rule="evenodd"/></svg>