<svg width="13" height="16" viewBox="0 0 13 16" fill="none" xmlns="http://www.w3.org/2000/svg">
<g clip-path="url(#clip0_599_11104)">
<path d="M8.85209 8.0001C8.85209 7.72396 8.62823 7.5001 8.35209 7.5001C8.07595 7.5001 7.85209 7.72396 7.85209 8.0001L8.35209 8.0001L8.85209 8.0001ZM3.78062 4.63885L3.88287 5.12828L3.78062 4.63885ZM4.63368 4.14692L4.31762 3.75948L4.31762 3.75948L4.63368 4.14692ZM4.16414 4.4965L4.40376 4.93534L4.16414 4.4965ZM1.79964 11.1486L1.55125 11.5825L1.79964 11.1486ZM0.826974 8.6857L0.32758 8.71031L0.826974 8.6857ZM1.05531 10.2821L1.51373 10.0825L1.05531 10.2821ZM7.38219 13.3834L7.18771 12.9228L7.38219 13.3834ZM8.30506 9.73703L8.80471 9.75579L8.30506 9.73703ZM7.69453 13.1867L8.0226 13.5641L7.69453 13.1867ZM4.75165 4.05069L5.0677 4.43813L5.0677 4.43813L4.75165 4.05069ZM7.38219 2.61682L7.18772 3.07745V3.07745L7.38219 2.61682ZM7.69453 2.81347L8.0226 2.43615V2.43615L7.69453 2.81347ZM1.79964 4.85163L1.55125 4.41769L1.79964 4.85163ZM0.826974 7.3145L0.32758 7.2899L0.826974 7.3145ZM1.05531 5.7181L1.51373 5.91774L1.05531 5.7181ZM5.43389 11.8602C5.21939 11.6863 4.90452 11.7192 4.73061 11.9337C4.55671 12.1482 4.58962 12.4631 4.80412 12.637L5.11901 12.2486L5.43389 11.8602ZM4.63368 4.14692L4.94973 4.53436L5.0677 4.43813L4.75165 4.05069L4.4356 3.66325L4.31762 3.75948L4.63368 4.14692ZM0.826974 8.6857L1.32637 8.6611C1.31491 8.42844 1.30823 8.2047 1.30823 8.0001L0.808228 8.0001L0.308228 8.0001C0.308228 8.22537 0.315551 8.46615 0.32758 8.71031L0.826974 8.6857ZM0.808228 8.0001L1.30823 8.0001C1.30823 7.7955 1.31491 7.57177 1.32637 7.3391L0.826974 7.3145L0.32758 7.2899C0.315552 7.53406 0.308228 7.77484 0.308228 8.0001L0.808228 8.0001ZM8.35209 8.0001L7.85209 8.0001C7.85209 8.34385 7.83343 8.97218 7.80541 9.71826L8.30506 9.73703L8.80471 9.75579C8.83263 9.01219 8.85209 8.36553 8.85209 8.0001L8.35209 8.0001ZM3.23309 4.66677L3.23309 5.16677C3.48909 5.16677 3.68708 5.16919 3.88287 5.12828L3.78062 4.63885L3.67836 4.14942C3.60688 4.16435 3.52894 4.16677 3.23309 4.16677L3.23309 4.66677ZM4.63368 4.14692L4.31762 3.75948C4.0725 3.95944 3.99837 4.01734 3.92452 4.05766L4.16414 4.4965L4.40376 4.93534C4.5779 4.84026 4.73412 4.71024 4.94973 4.53436L4.63368 4.14692ZM3.78062 4.63885L3.88287 5.12828C4.06466 5.0903 4.23963 5.02496 4.40376 4.93534L4.16414 4.4965L3.92452 4.05766C3.84349 4.1019 3.7608 4.13219 3.67836 4.14942L3.78062 4.63885ZM3.23309 11.3334L3.23309 11.8334C3.52894 11.8334 3.60688 11.8359 3.67836 11.8508L3.78062 11.3614L3.88287 10.8719C3.68708 10.831 3.48909 10.8334 3.23309 10.8334L3.23309 11.3334ZM3.23309 11.3334L3.23309 10.8334C2.43925 10.8334 2.22924 10.8184 2.04803 10.7146L1.79964 11.1486L1.55125 11.5825C2.01594 11.8485 2.54625 11.8334 3.23309 11.8334L3.23309 11.3334ZM0.826974 8.6857L0.32758 8.71031C0.365677 9.48363 0.383617 9.99201 0.596896 10.4817L1.05531 10.2821L1.51373 10.0825C1.38944 9.79707 1.36767 9.49956 1.32637 8.6611L0.826974 8.6857ZM1.79964 11.1486L2.04803 10.7146C1.85882 10.6063 1.63107 10.3519 1.51373 10.0825L1.05531 10.2821L0.596896 10.4817C0.787971 10.9205 1.15034 11.353 1.55125 11.5825L1.79964 11.1486ZM8.30506 9.73703L7.80541 9.71826C7.76718 10.7361 7.73936 11.4581 7.66312 11.9821C7.58519 12.5177 7.4712 12.7183 7.36646 12.8094L7.69453 13.1867L8.0226 13.5641C8.41506 13.2228 8.56855 12.7044 8.6527 12.1261C8.73853 11.5362 8.76738 10.7496 8.80471 9.75579L8.30506 9.73703ZM7.38219 13.3834L7.57667 13.844C7.73823 13.7758 7.88964 13.6797 8.0226 13.5641L7.69453 13.1867L7.36646 12.8094C7.30877 12.8596 7.2467 12.8979 7.18771 12.9228L7.38219 13.3834ZM4.75165 4.05069L5.0677 4.43813C5.76573 3.86871 6.24653 3.47814 6.62267 3.25208C7.00236 3.02388 7.13041 3.05326 7.18772 3.07745L7.38219 2.61682L7.57667 2.1562C7.05885 1.93757 6.55676 2.12498 6.10753 2.39497C5.65475 2.6671 5.10784 3.11487 4.4356 3.66325L4.75165 4.05069ZM7.38219 2.61682L7.18772 3.07745C7.2467 3.10236 7.30877 3.14062 7.36646 3.19079L7.69453 2.81347L8.0226 2.43615C7.88964 2.32054 7.73823 2.22441 7.57667 2.1562L7.38219 2.61682ZM3.23309 4.66677L3.23309 4.16677C2.54626 4.16677 2.01594 4.1517 1.55125 4.41769L1.79964 4.85163L2.04803 5.28557C2.22924 5.18184 2.43925 5.16677 3.23309 5.16677L3.23309 4.66677ZM0.826974 7.3145L1.32637 7.3391C1.36767 6.50065 1.38944 6.20314 1.51373 5.91774L1.05531 5.7181L0.596897 5.51846C0.383617 6.0082 0.365677 6.51658 0.32758 7.2899L0.826974 7.3145ZM1.79964 4.85163L1.55125 4.41769C1.15034 4.64718 0.787971 5.07971 0.596897 5.51846L1.05531 5.7181L1.51373 5.91774C1.63107 5.64828 1.85882 5.39387 2.04803 5.28557L1.79964 4.85163ZM5.11901 12.2486L4.80412 12.637C5.36156 13.0889 5.83263 13.4584 6.23893 13.6808C6.65039 13.9059 7.10753 14.0421 7.57667 13.844L7.38219 13.3834L7.18771 12.9228C7.13558 12.9448 7.02625 12.9717 6.719 12.8035C6.40659 12.6326 6.00671 12.3246 5.43389 11.8602L5.11901 12.2486ZM8.28418 5.7181L8.78378 5.69816C8.75106 4.87873 8.71559 4.21603 8.62583 3.70632C8.53696 3.20172 8.37969 2.74663 8.0226 2.43615L7.69453 2.81347L7.36646 3.19079C7.45946 3.27164 7.56404 3.44288 7.64098 3.87977C7.71703 4.31155 7.75134 4.90549 7.78457 5.73805L8.28418 5.7181Z" fill="#797979"/>
<path d="M10.777 12.0001C10.777 12.0001 11.5852 10.8001 11.5852 8.00005C11.5852 6.3778 11.3139 5.29263 11.0857 4.66675" stroke="#797979" stroke-linecap="round"/>
<path d="M9.69922 10.0001C9.69922 10.0001 9.96864 9.40008 9.96864 8.00008C9.96864 7.42549 9.92326 6.98565 9.86974 6.66675" stroke="#797979" stroke-linecap="round"/>
<path d="M11.8546 1.33325L1.07764 14.6666" stroke="#797979" stroke-linecap="round"/>
</g>
<defs>
<clipPath id="clip0_599_11104">
<rect width="12.9323" height="16" fill="white"/>
</clipPath>
</defs>
</svg>
