<svg width="13" height="16" viewBox="0 0 13 16" fill="none" xmlns="http://www.w3.org/2000/svg">
<g clip-path="url(#clip0_599_11105)">
<path d="M0.826974 7.31426C0.866675 6.50837 0.886526 6.10542 1.05531 5.71786C1.20952 5.36375 1.50458 5.02028 1.79964 4.85138C2.12259 4.66653 2.49275 4.66653 3.23309 4.66653C3.50901 4.66653 3.64698 4.66653 3.78062 4.6386C3.91273 4.611 4.04156 4.56319 4.16414 4.49626C4.28813 4.42855 4.40331 4.33459 4.63368 4.14668L4.75165 4.05044C6.12192 2.93265 6.80706 2.37376 7.38219 2.61658C7.49246 2.66314 7.5992 2.73034 7.69453 2.81322C8.19173 3.24553 8.2295 4.25133 8.30506 6.26294C8.33303 7.00778 8.35209 7.64527 8.35209 7.99986C8.35209 8.35445 8.33303 8.99194 8.30506 9.73678C8.2295 11.7484 8.19173 12.7542 7.69453 13.1865C7.5992 13.2694 7.49246 13.3366 7.38219 13.3831C6.80706 13.626 6.12192 13.0671 4.75165 11.9493L4.63367 11.853C4.40331 11.6651 4.28813 11.5712 4.16414 11.5035C4.04156 11.4365 3.91273 11.3887 3.78062 11.3611C3.64698 11.3332 3.50901 11.3332 3.23309 11.3332C2.49275 11.3332 2.12259 11.3332 1.79964 11.1483C1.50458 10.9794 1.20952 10.636 1.05531 10.2819C0.886526 9.89429 0.866675 9.49135 0.826974 8.68546C0.815229 8.44705 0.808228 8.21479 0.808228 7.99986C0.808228 7.78493 0.815229 7.55267 0.826974 7.31426Z" stroke="#797979"/>
<path d="M10.777 4C10.777 4 11.5852 5.2 11.5852 8C11.5852 10.8 10.777 12 10.777 12" stroke="#797979" stroke-linecap="round"/>
<path d="M9.69922 6C9.69922 6 9.96864 6.6 9.96864 8C9.96864 9.4 9.69922 10 9.69922 10" stroke="#797979" stroke-linecap="round"/>
</g>
<defs>
<clipPath id="clip0_599_11105">
<rect width="12.9323" height="16" fill="white"/>
</clipPath>
</defs>
</svg>
