<svg xmlns="http://www.w3.org/2000/svg" width="16" height="16" fill="none" viewBox="0 0 16 16"><path stroke="#f5f6f9" stroke-linecap="round" d="M7 9.333h4.333M4.667 9.333H5M4.667 7H5M4.667 11.667H5M7 7h4.333M7 11.667h4.333"/><path stroke="#f5f6f9" d="M5.333 2.333a1 1 0 0 1 1-1h3.334a1 1 0 0 1 1 1V3a1 1 0 0 1-1 1H6.333a1 1 0 0 1-1-1z"/><path stroke="#f5f6f9" stroke-linecap="round" d="M14 10.667c0 1.885 0 2.828-.586 3.414s-1.528.586-3.414.586H6c-1.886 0-2.828 0-3.414-.586S2 12.552 2 10.667v-2m8.667-5.999c1.45.008 2.235.072 2.747.585C14 3.838 14 4.78 14 6.667V8M5.333 2.668c-1.45.008-2.235.072-2.747.585C2.074 3.765 2.009 4.55 2 6"/></svg>