<svg xmlns="http://www.w3.org/2000/svg" width="16" height="16" fill="none" viewBox="0 0 16 16"><path fill="#f5f6f9" fill-rule="evenodd" d="M8 .833a3.167 3.167 0 1 0 0 6.334A3.167 3.167 0 0 0 8 .833M5.833 4a2.167 2.167 0 1 1 4.334 0 2.167 2.167 0 0 1-4.334 0" clip-rule="evenodd"/><path fill="#f5f6f9" d="M12 2.167a.5.5 0 1 0 0 1c.918 0 1.5.604 1.5 1.166 0 .563-.582 1.167-1.5 1.167a.5.5 0 1 0 0 1c1.291 0 2.5-.889 2.5-2.167S13.291 2.167 12 2.167M4.5 2.667a.5.5 0 0 0-.5-.5c-1.292 0-2.5.888-2.5 2.166S2.708 6.5 4 6.5a.5.5 0 0 0 0-1c-.918 0-1.5-.604-1.5-1.167 0-.562.582-1.166 1.5-1.166a.5.5 0 0 0 .5-.5"/><path fill="#f5f6f9" fill-rule="evenodd" d="M8 8.167c-1.19 0-2.29.32-3.106.865-.813.542-1.394 1.346-1.394 2.301s.58 1.76 1.394 2.302c.817.545 1.916.865 3.106.865s2.289-.32 3.106-.865c.813-.542 1.394-1.346 1.394-2.302 0-.955-.581-1.76-1.394-2.301-.817-.545-1.917-.865-3.106-.865m-3.5 3.166c0-.517.314-1.046.949-1.47.63-.42 1.531-.696 2.551-.696s1.92.276 2.551.697c.634.423.949.952.949 1.47 0 .517-.315 1.046-.949 1.469-.63.42-1.531.697-2.551.697s-1.92-.276-2.551-.697c-.635-.423-.949-.952-.949-1.47" clip-rule="evenodd"/><path fill="#f5f6f9" d="M12.845 9.226a.5.5 0 0 1 .595-.381c.642.14 1.22.395 1.649.746.428.35.744.833.744 1.409s-.316 1.059-.745 1.41c-.428.35-1.006.604-1.648.745a.5.5 0 1 1-.214-.977c.528-.116.95-.315 1.23-.543.278-.228.377-.45.377-.635 0-.184-.099-.407-.378-.635-.278-.228-.7-.427-1.229-.543a.5.5 0 0 1-.381-.596M2.56 8.845a.5.5 0 1 1 .214.977c-.529.116-.95.315-1.23.543-.278.228-.377.45-.377.635 0 .184.099.407.378.636.278.228.7.427 1.229.542a.5.5 0 0 1-.214.977c-.642-.14-1.22-.394-1.649-.746C.483 12.06.167 11.576.167 11S.483 9.941.91 9.59c.43-.35 1.007-.604 1.649-.745"/></svg>