<svg xmlns="http://www.w3.org/2000/svg" width="16" height="16" fill="none" viewBox="0 0 16 16"><path fill="#f5f6f9" fill-rule="evenodd" d="M8 .833a3.167 3.167 0 1 0 0 6.334A3.167 3.167 0 0 0 8 .833M5.833 4a2.167 2.167 0 1 1 4.334 0 2.167 2.167 0 0 1-4.334 0M8 8.167c-1.36 0-2.615.314-3.548.847-.919.525-1.619 1.326-1.619 2.32s.7 1.794 1.62 2.32c.932.532 2.187.846 3.547.846s2.615-.314 3.548-.847c.919-.525 1.619-1.326 1.619-2.32s-.7-1.794-1.62-2.32C10.616 8.482 9.36 8.168 8 8.168m-4.167 3.166c0-.48.345-1.011 1.115-1.451.756-.432 1.834-.715 3.052-.715s2.296.283 3.052.715c.77.44 1.115.972 1.115 1.451s-.345 1.012-1.115 1.452c-.756.432-1.834.715-3.052.715s-2.296-.283-3.052-.715c-.77-.44-1.115-.972-1.115-1.452" clip-rule="evenodd"/></svg>